<svg width="156" height="48" viewBox="0 0 156 48" fill="none" xmlns="http://www.w3.org/2000/svg">
<g opacity="0.75">
<path d="M143.302 47.7512H12.1129C6.32754 47.7512 1.63867 43.0615 1.63867 37.277V17.5797C1.63867 11.7943 6.32838 7.10547 12.1129 7.10547H143.302C149.087 7.10547 153.776 11.7952 153.776 17.5797V37.277C153.777 43.0615 149.087 47.7512 143.302 47.7512Z" fill="#C6C6C6"/>
<path d="M143.145 47.5186H12.2705C6.53005 47.5186 1.87695 42.8655 1.87695 37.1251V17.6924C1.87695 11.9519 6.53005 7.29883 12.2705 7.29883H143.145C148.886 7.29883 153.539 11.9519 153.539 17.6924V37.1251C153.539 42.8655 148.885 47.5186 143.145 47.5186Z" fill="#C3C3C3"/>
<path d="M142.986 47.2863H12.4253C6.72977 47.2863 2.11328 42.6698 2.11328 36.9743V17.8062C2.11328 12.1106 6.72977 7.49414 12.4253 7.49414H142.986C148.681 7.49414 153.298 12.1106 153.298 17.8062V36.9743C153.298 42.669 148.681 47.2863 142.986 47.2863Z" fill="#C1C1C1"/>
<path d="M142.832 47.0509H12.586C6.93536 47.0509 2.35547 42.4702 2.35547 36.8204V17.916C2.35547 12.2654 6.93619 7.68555 12.586 7.68555H142.832C148.483 7.68555 153.062 12.2663 153.062 17.916V36.8196C153.062 42.4702 148.483 47.0509 142.832 47.0509Z" fill="#BEBEBE"/>
<path d="M142.673 46.8175H12.7416C7.13591 46.8175 2.5918 42.2734 2.5918 36.6677V18.0287C2.5918 12.423 7.13591 7.87891 12.7416 7.87891H142.673C148.279 7.87891 152.823 12.423 152.823 18.0287V36.6677C152.823 42.2734 148.279 46.8175 142.673 46.8175Z" fill="#BBBBBB"/>
<path d="M142.515 46.5841H12.8983C7.33758 46.5841 2.83008 42.0766 2.83008 36.5158V18.1405C2.83008 12.5798 7.33758 8.07227 12.8983 8.07227H142.515C148.076 8.07227 152.584 12.5798 152.584 18.1405V36.5158C152.584 42.0757 148.076 46.5841 142.515 46.5841Z" fill="#B8B8B8"/>
<path d="M142.358 46.3526H13.0559C7.54009 46.3526 3.06836 41.8809 3.06836 36.365V18.2551C3.06836 12.7393 7.54009 8.26758 13.0559 8.26758H142.359C147.875 8.26758 152.346 12.7393 152.346 18.2551V36.3659C152.346 41.8817 147.874 46.3526 142.358 46.3526Z" fill="#B6B6B6"/>
<path d="M142.203 46.1192H13.2146C7.74372 46.1192 3.30859 41.684 3.30859 36.2131V18.367C3.30859 12.8961 7.74372 8.46094 13.2146 8.46094H142.204C147.674 8.46094 152.11 12.8961 152.11 18.367V36.2131C152.109 41.684 147.674 46.1192 142.203 46.1192Z" fill="#B3B3B3"/>
<path d="M142.047 45.8849H13.3714C7.9454 45.8849 3.54688 41.4864 3.54688 36.0604V18.4788C3.54688 13.0528 7.9454 8.6543 13.3714 8.6543H142.046C147.472 8.6543 151.87 13.0528 151.87 18.4788V36.0604C151.871 41.4856 147.473 45.8849 142.047 45.8849Z" fill="#B0B0B0"/>
<path d="M141.888 45.6515H13.527C8.14595 45.6515 3.7832 41.2896 3.7832 35.9077V18.5915C3.7832 13.2104 8.14512 8.84766 13.527 8.84766H141.887C147.268 8.84766 151.631 13.2096 151.631 18.5915V35.9085C151.631 41.2896 147.269 45.6515 141.888 45.6515Z" fill="#AEAEAE"/>
<path d="M141.73 45.419H13.6838C8.34762 45.419 4.02148 41.0929 4.02148 35.7568V18.7043C4.02148 13.3681 8.34762 9.04199 13.6838 9.04199H141.73C147.066 9.04199 151.392 13.3681 151.392 18.7043V35.7568C151.392 41.0929 147.066 45.419 141.73 45.419Z" fill="#ABABAB"/>
<path d="M141.574 45.1866H13.8425C8.55126 45.1866 4.26172 40.897 4.26172 35.6058V18.8171C4.26172 13.5259 8.55126 9.23633 13.8425 9.23633H141.574C146.865 9.23633 151.155 13.5259 151.155 18.8171V35.605C151.155 40.897 146.865 45.1866 141.574 45.1866Z" fill="#A8A8A8"/>
<path d="M141.417 44.9523H14C8.75376 44.9523 4.5 40.6994 4.5 35.4523V18.9297C4.5 13.6834 8.75293 9.42969 14 9.42969H141.417C146.664 9.42969 150.917 13.6826 150.917 18.9297V35.4531C150.917 40.6994 146.664 44.9523 141.417 44.9523Z" fill="#A5A5A5"/>
<path d="M141.258 44.7199H14.1548C8.95348 44.7199 4.73633 40.5027 4.73633 35.3013V19.0425C4.73633 13.8412 8.95348 9.62402 14.1548 9.62402H141.258C146.459 9.62402 150.676 13.8412 150.676 19.0425V35.3013C150.676 40.5027 146.46 44.7199 141.258 44.7199Z" fill="#A3A3A3"/>
<path d="M141.104 44.4874H14.3155C9.15906 44.4874 4.97852 40.3068 4.97852 35.1504V19.1553C4.97852 13.9989 9.15906 9.81836 14.3155 9.81836H141.104C146.26 9.81836 150.441 13.9989 150.441 19.1553V35.1496C150.442 40.3068 146.261 44.4874 141.104 44.4874Z" fill="#A0A0A0"/>
<path d="M140.945 44.2531H14.4711C9.35879 44.2531 5.21484 40.1092 5.21484 34.9968V19.268C5.21484 14.1565 9.35879 10.0117 14.4711 10.0117H140.946C146.058 10.0117 150.202 14.1557 150.202 19.268V34.9977C150.201 40.1092 146.057 44.2531 140.945 44.2531Z" fill="#9D9D9D"/>
<path d="M140.787 44.0217H14.6279C9.56046 44.0217 5.45312 39.9143 5.45312 34.8469V19.3818C5.45312 14.3144 9.56046 10.207 14.6279 10.207H140.788C145.856 10.207 149.963 14.3144 149.963 19.3818V34.8469C149.962 39.9143 145.855 44.0217 140.787 44.0217Z" fill="#9B9B9B"/>
<path d="M140.631 43.7873H14.7846C9.76214 43.7873 5.69141 39.7157 5.69141 34.694V19.4926C5.69141 14.4701 9.76297 10.3994 14.7846 10.3994H140.63C145.653 10.3994 149.724 14.471 149.724 19.4926V34.6932C149.724 39.7157 145.653 43.7873 140.631 43.7873Z" fill="#989898"/>
<path d="M140.472 43.5538H14.9403C9.96269 43.5538 5.92773 39.5189 5.92773 34.5413V19.6053C5.92773 14.6277 9.96269 10.5928 14.9403 10.5928H140.472C145.449 10.5928 149.484 14.6277 149.484 19.6053V34.5413C149.484 39.5189 145.449 43.5538 140.472 43.5538Z" fill="#959595"/>
<path d="M140.319 43.3196H15.1009C10.1683 43.3196 6.16992 39.3212 6.16992 34.3886V19.7171C6.16992 14.7845 10.1683 10.7861 15.1009 10.7861H140.319C145.251 10.7861 149.25 14.7845 149.25 19.7171V34.3894C149.25 39.3212 145.251 43.3196 140.319 43.3196Z" fill="#929292"/>
<path d="M140.159 43.0861H15.2557C10.368 43.0861 6.40625 39.1244 6.40625 34.2367V19.8289C6.40625 14.9412 10.368 10.9795 15.2557 10.9795H140.159C145.047 10.9795 149.008 14.9412 149.008 19.8289V34.2367C149.008 39.1235 145.047 43.0861 140.159 43.0861Z" fill="#909090"/>
<path d="M140.002 42.8535H15.4133C10.5705 42.8535 6.64453 38.9275 6.64453 34.0848V19.9416C6.64453 15.0988 10.5705 11.1729 15.4133 11.1729H140.002C144.845 11.1729 148.771 15.0988 148.771 19.9416V34.0848C148.771 38.9284 144.845 42.8535 140.002 42.8535Z" fill="#8D8D8D"/>
<path d="M139.844 42.6193H15.57C10.7722 42.6193 6.88281 38.7299 6.88281 33.932V20.0534C6.88281 15.2556 10.7722 11.3662 15.57 11.3662H139.844C144.642 11.3662 148.532 15.2556 148.532 20.0534V33.932C148.532 38.7299 144.642 42.6193 139.844 42.6193Z" fill="#8A8A8A"/>
<path d="M139.689 42.3869H15.7287C10.9758 42.3869 7.12305 38.5342 7.12305 33.7813V20.1672C7.12305 15.4143 10.9758 11.5615 15.7287 11.5615H139.689C144.442 11.5615 148.295 15.4143 148.295 20.1672V33.7813C148.296 38.5342 144.442 42.3869 139.689 42.3869Z" fill="#888888"/>
<path d="M139.532 42.1544H15.8863C11.1783 42.1544 7.36133 38.3374 7.36133 33.6294V20.2799C7.36133 15.5719 11.1783 11.7549 15.8863 11.7549H139.532C144.24 11.7549 148.057 15.5719 148.057 20.2799V33.6294C148.057 38.3374 144.24 42.1544 139.532 42.1544Z" fill="#858585"/>
<path d="M139.373 41.9201H16.0411C11.378 41.9201 7.59766 38.1397 7.59766 33.4766V20.3917C7.59766 15.7286 11.378 11.9482 16.0411 11.9482H139.373C144.036 11.9482 147.816 15.7286 147.816 20.3917V33.4766C147.816 38.1397 144.036 41.9201 139.373 41.9201Z" fill="#828282"/>
<path d="M139.216 41.6897H16.1979C11.5797 41.6897 7.83594 37.946 7.83594 33.3278V20.5074C7.83594 15.8893 11.5797 12.1455 16.1979 12.1455H139.215C143.833 12.1455 147.577 15.8893 147.577 20.5074V33.3278C147.578 37.946 143.834 41.6897 139.216 41.6897Z" fill="#808080"/>
<path d="M139.061 41.4552H16.3574C11.7842 41.4552 8.07617 37.748 8.07617 33.1739V20.6181C8.07617 16.0449 11.7833 12.3369 16.3574 12.3369H139.06C143.633 12.3369 147.341 16.0441 147.341 20.6181V33.1739C147.341 37.7472 143.634 41.4552 139.061 41.4552Z" fill="#7D7D7D"/>
<path d="M138.903 41.2209H16.5142C11.9859 41.2209 8.31445 37.5495 8.31445 33.0212V20.73C8.31445 16.2017 11.9859 12.5303 16.5142 12.5303H138.903C143.432 12.5303 147.103 16.2017 147.103 20.73V33.0212C147.103 37.5503 143.432 41.2209 138.903 41.2209Z" fill="#7A7A7A"/>
<path d="M138.743 40.9875H16.669C12.1856 40.9875 8.55078 37.3527 8.55078 32.8693V20.8418C8.55078 16.3584 12.1856 12.7236 16.669 12.7236H138.743C143.227 12.7236 146.862 16.3584 146.862 20.8418V32.8693C146.862 37.3527 143.227 40.9875 138.743 40.9875Z" fill="#777777"/>
<path d="M138.587 40.7529H16.8265C12.3881 40.7529 8.78906 37.1547 8.78906 32.7155V20.9525C8.78906 16.5141 12.3872 12.915 16.8265 12.915H138.587C143.025 12.915 146.624 16.5132 146.624 20.9525V32.7146C146.624 37.1539 143.026 40.7529 138.587 40.7529Z" fill="#757575"/>
<path d="M138.431 40.5217H16.9852C12.5909 40.5217 9.0293 36.9593 9.0293 32.5658V21.0682C9.0293 16.6739 12.5917 13.1123 16.9852 13.1123H138.431C142.825 13.1123 146.387 16.6747 146.387 21.0682V32.5658C146.387 36.9602 142.825 40.5217 138.431 40.5217Z" fill="#727272"/>
<path d="M138.274 40.2883H17.142C12.7926 40.2883 9.26758 36.7625 9.26758 32.4139V21.1801C9.26758 16.8306 12.7934 13.3057 17.142 13.3057H138.274C142.623 13.3057 146.148 16.8315 146.148 21.1801V32.4139C146.149 36.7625 142.623 40.2883 138.274 40.2883Z" fill="#6F6F6F"/>
<path d="M138.116 40.0557H17.2996C12.9951 40.0557 9.50586 36.5665 9.50586 32.262V21.2927C9.50586 16.9882 12.9951 13.499 17.2996 13.499H138.117C142.422 13.499 145.911 16.9882 145.911 21.2927V32.262C145.91 36.5665 142.421 40.0557 138.116 40.0557Z" fill="#6D6D6D"/>
<path d="M137.957 39.8226H17.4544C13.1948 39.8226 9.74219 36.37 9.74219 32.1104V21.4065C9.74219 17.1469 13.1948 13.6943 17.4544 13.6943H137.957C142.217 13.6943 145.67 17.1469 145.67 21.4065V32.1112C145.67 36.37 142.216 39.8226 137.957 39.8226Z" fill="#6A6A6A"/>
<path d="M137.804 39.5872H17.615C13.4004 39.5872 9.98438 36.1704 9.98438 31.9565V21.5164C9.98438 17.3017 13.4012 13.8857 17.615 13.8857H137.804C142.018 13.8857 145.434 17.3026 145.434 21.5164V31.9565C145.435 36.1704 142.018 39.5872 137.804 39.5872Z" fill="#676767"/>
<path d="M137.646 39.3565H17.7707C13.6009 39.3565 10.2207 35.9763 10.2207 31.8066V21.631C10.2207 17.4613 13.6009 14.0811 17.7707 14.0811H137.645C141.814 14.0811 145.195 17.4613 145.195 21.631V31.8066C145.195 35.9763 141.815 39.3565 137.646 39.3565Z" fill="#646464"/>
<path d="M137.488 39.1223H17.9274C13.8026 39.1223 10.459 35.7787 10.459 31.6539V21.7428C10.459 17.618 13.8026 14.2744 17.9274 14.2744H137.488C141.613 14.2744 144.956 17.618 144.956 21.7428V31.6539C144.956 35.7787 141.613 39.1223 137.488 39.1223Z" fill="#626262"/>
<path d="M137.33 38.89H18.0842C14.0043 38.89 10.6973 35.583 10.6973 31.5031V21.8566C10.6973 17.7767 14.0043 14.4697 18.0842 14.4697H137.33C141.41 14.4697 144.717 17.7767 144.717 21.8566V31.5031C144.717 35.583 141.41 38.89 137.33 38.89Z" fill="#5F5F5F"/>
<path d="M137.175 38.6574H18.2437C14.2087 38.6574 10.9375 35.3861 10.9375 31.3512V21.9693C10.9375 17.9343 14.2087 14.6631 18.2437 14.6631H137.175C141.21 14.6631 144.481 17.9343 144.481 21.9693V31.3512C144.481 35.3861 141.21 38.6574 137.175 38.6574Z" fill="#5C5C5C"/>
<path d="M137.017 38.4231H18.4004C14.4104 38.4231 11.1758 35.1885 11.1758 31.1984V22.0811C11.1758 18.0911 14.4104 14.8564 18.4004 14.8564H137.017C141.007 14.8564 144.242 18.0911 144.242 22.0811V31.1984C144.242 35.1885 141.007 38.4231 137.017 38.4231Z" fill="#5A5A5A"/>
<path d="M136.859 38.1895H18.5561C14.611 38.1895 11.4121 34.9915 11.4121 31.0456V22.1928C11.4121 18.2477 14.6101 15.0488 18.5561 15.0488H136.859C140.805 15.0488 144.003 18.2468 144.003 22.1928V31.0456C144.003 34.9915 140.805 38.1895 136.859 38.1895Z" fill="#575757"/>
<path d="M136.701 37.9562H18.7128C14.8126 37.9562 11.6504 34.794 11.6504 30.8938V22.3056C11.6504 18.4054 14.8126 15.2432 18.7128 15.2432H136.702C140.602 15.2432 143.764 18.4054 143.764 22.3056V30.8938C143.763 34.794 140.602 37.9562 136.701 37.9562Z" fill="#545454"/>
<path d="M136.547 37.722H18.8715C15.0163 37.722 11.8906 34.5963 11.8906 30.7411V22.4174C11.8906 18.5622 15.0163 15.4365 18.8715 15.4365H136.546C140.401 15.4365 143.527 18.5622 143.527 22.4174V30.7411C143.528 34.5972 140.402 37.722 136.547 37.722Z" fill="#515151"/>
<path d="M136.386 37.4904H19.0252C15.2149 37.4904 12.125 34.4013 12.125 30.5902V22.5311C12.125 18.7207 15.214 15.6309 19.0252 15.6309H136.385C140.195 15.6309 143.285 18.7199 143.285 22.5311V30.5902C143.285 34.4013 140.196 37.4904 136.386 37.4904Z" fill="#4F4F4F"/>
<path d="M136.23 37.2561H19.1839C15.4185 37.2561 12.3652 34.2037 12.3652 30.4374V22.6429C12.3652 18.8775 15.4177 15.8242 19.1839 15.8242H136.23C139.996 15.8242 143.049 18.8766 143.049 22.6429V30.4374C143.049 34.2028 139.996 37.2561 136.23 37.2561Z" fill="#4C4C4C"/>
<path d="M136.072 37.0236H19.3406C15.6193 37.0236 12.6035 34.007 12.6035 30.2865V22.7557C12.6035 19.0344 15.6202 16.0186 19.3406 16.0186H136.072C139.794 16.0186 142.81 19.0352 142.81 22.7557V30.2865C142.81 34.007 139.793 37.0236 136.072 37.0236Z" fill="#494949"/>
<path d="M135.917 36.7901H19.5002C15.8238 36.7901 12.8438 33.81 12.8438 30.1336V22.8674C12.8438 19.191 15.8238 16.2109 19.5002 16.2109H135.917C139.594 16.2109 142.574 19.191 142.574 22.8674V30.1336C142.574 33.81 139.594 36.7901 135.917 36.7901Z" fill="#474747"/>
<path d="M135.76 36.5577H19.6569C16.0255 36.5577 13.082 33.6143 13.082 29.9828V22.9812C13.082 19.3497 16.0255 16.4062 19.6569 16.4062H135.76C139.391 16.4062 142.335 19.3497 142.335 22.9812V29.9828C142.335 33.6143 139.391 36.5577 135.76 36.5577Z" fill="#444444"/>
<path d="M135.602 36.3235H19.8137C16.2271 36.3235 13.3203 33.4158 13.3203 29.8301V23.093C13.3203 19.5064 16.228 16.5996 19.8137 16.5996H135.602C139.189 16.5996 142.095 19.5073 142.095 23.093V29.8301C142.095 33.4158 139.189 36.3235 135.602 36.3235Z" fill="#414141"/>
<path d="M135.444 36.0909H19.9693C16.4277 36.0909 13.5566 33.2198 13.5566 29.6782V23.2056C13.5566 19.664 16.4277 16.793 19.9693 16.793H135.444C138.986 16.793 141.857 19.664 141.857 23.2056V29.6782C141.857 33.2198 138.986 36.0909 135.444 36.0909Z" fill="#3E3E3E"/>
<path d="M135.289 35.8566H20.13C16.6333 35.8566 13.7988 33.0222 13.7988 29.5255V23.3175C13.7988 19.8208 16.6333 16.9863 20.13 16.9863H135.29C138.787 16.9863 141.621 19.8208 141.621 23.3175V29.5255C141.621 33.0222 138.786 35.8566 135.289 35.8566Z" fill="#3C3C3C"/>
<path d="M135.131 35.6243H20.2848C16.833 35.6243 14.0352 32.8265 14.0352 29.3747V23.4313C14.0352 19.9795 16.833 17.1816 20.2848 17.1816H135.131C138.582 17.1816 141.38 19.9795 141.38 23.4313V29.3747C141.381 32.8256 138.583 35.6243 135.131 35.6243Z" fill="#393939"/>
<path d="M134.974 35.3909H20.4423C17.0355 35.3909 14.2734 32.6288 14.2734 29.222V23.5439C14.2734 20.1371 17.0355 17.375 20.4423 17.375H134.974C138.38 17.375 141.143 20.1371 141.143 23.5439V29.2228C141.143 32.6296 138.381 35.3909 134.974 35.3909Z" fill="#363636"/>
<path d="M134.817 35.1575H20.5991C17.2372 35.1575 14.5117 32.432 14.5117 29.0701V23.6557C14.5117 20.2938 17.2372 17.5684 20.5991 17.5684H134.817C138.179 17.5684 140.904 20.2938 140.904 23.6557V29.0701C140.904 32.432 138.179 35.1575 134.817 35.1575Z" fill="#343434"/>
<path d="M134.661 34.9251H20.7578C17.4408 34.9251 14.752 32.2363 14.752 28.9193V23.7695C14.752 20.4525 17.4408 17.7637 20.7578 17.7637H134.661C137.978 17.7637 140.667 20.4525 140.667 23.7695V28.9193C140.667 32.2354 137.978 34.9251 134.661 34.9251Z" fill="#313131"/>
<path d="M134.5 34.6925H20.9115C17.6394 34.6925 14.9863 32.0403 14.9863 28.7674V23.8822C14.9863 20.6101 17.6386 17.957 20.9115 17.957H134.5C137.772 17.957 140.425 20.6093 140.425 23.8822V28.7674C140.425 32.0403 137.772 34.6925 134.5 34.6925Z" fill="#2E2E2E"/>
<path d="M134.344 34.4583H21.0702C17.843 34.4583 15.2266 31.8418 15.2266 28.6147V23.994C15.2266 20.7669 17.843 18.1504 21.0702 18.1504H134.344C137.572 18.1504 140.188 20.7669 140.188 23.994V28.6147C140.188 31.8418 137.572 34.4583 134.344 34.4583Z" fill="#2B2B2B"/>
<path d="M134.187 34.224H21.2269C18.0447 34.224 15.4648 31.6441 15.4648 28.4619V24.1058C15.4648 20.9236 18.0447 18.3438 21.2269 18.3438H134.187C137.369 18.3438 139.949 20.9236 139.949 24.1058V28.4619C139.95 31.6441 137.37 34.224 134.187 34.224Z" fill="#292929"/>
<path d="M134.033 33.9914H21.3865C18.2492 33.9914 15.7051 31.4481 15.7051 28.31V24.2185C15.7051 21.0812 18.2483 18.5371 21.3865 18.5371H134.033C137.17 18.5371 139.714 21.0804 139.714 24.2185V28.31C139.714 31.4481 137.171 33.9914 134.033 33.9914Z" fill="#262626"/>
<path d="M133.874 33.7599H21.5432C18.4509 33.7599 15.9434 31.2524 15.9434 28.1601V24.3323C15.9434 21.2399 18.4509 18.7324 21.5432 18.7324H133.875C136.967 18.7324 139.475 21.2399 139.475 24.3323V28.1601C139.475 31.2524 136.967 33.7599 133.874 33.7599Z" fill="#232323"/>
<path d="M133.716 33.5276H21.698C18.6497 33.5276 16.1797 31.0567 16.1797 28.0093V24.4461C16.1797 21.3978 18.6506 18.9277 21.698 18.9277H133.715C136.763 18.9277 139.233 21.3986 139.233 24.4461V28.0093C139.234 31.0567 136.763 33.5276 133.716 33.5276Z" fill="#212121"/>
<path d="M133.559 33.2911H21.8556C18.8523 33.2911 16.418 30.8568 16.418 27.8535V24.5548C16.418 21.5515 18.8523 19.1172 21.8556 19.1172H133.558C136.562 19.1172 138.996 21.5515 138.996 24.5548V27.8535C138.996 30.8568 136.562 33.2911 133.559 33.2911Z" fill="#1E1E1E"/>
<path d="M133.403 33.0608H22.0143C19.0559 33.0608 16.6582 30.6631 16.6582 27.7047V24.6705C16.6582 21.7121 19.0559 19.3145 22.0143 19.3145H133.403C136.362 19.3145 138.759 21.7121 138.759 24.6705V27.7047C138.759 30.6631 136.361 33.0608 133.403 33.0608Z" fill="#1B1B1B"/>
<path d="M133.246 32.8265H22.171C19.2576 32.8265 16.8965 30.4646 16.8965 27.5519V24.7824C16.8965 21.8689 19.2584 19.5078 22.171 19.5078H133.246C136.159 19.5078 138.52 21.8697 138.52 24.7824V27.5519C138.52 30.4646 136.159 32.8265 133.246 32.8265Z" fill="#181818"/>
<path d="M133.089 32.5939H22.3286C19.4601 32.5939 17.1348 30.2686 17.1348 27.4V24.895C17.1348 22.0265 19.4601 19.7012 22.3286 19.7012H133.089C135.957 19.7012 138.283 22.0265 138.283 24.895V27.4C138.283 30.2686 135.957 32.5939 133.089 32.5939Z" fill="#161616"/>
<path d="M132.929 32.3596H22.4834C19.6598 32.3596 17.3711 30.0709 17.3711 27.2473V25.0069C17.3711 22.1832 19.6598 19.8945 22.4834 19.8945H132.929C135.753 19.8945 138.041 22.1832 138.041 25.0069V27.2473C138.041 30.0709 135.753 32.3596 132.929 32.3596Z" fill="#131313"/>
<path d="M132.775 32.1254H22.6441C19.8654 32.1254 17.6133 29.8725 17.6133 27.0946V25.1187C17.6133 22.34 19.8662 20.0879 22.6441 20.0879H132.775C135.554 20.0879 137.806 22.3408 137.806 25.1187V27.0946C137.807 29.8725 135.554 32.1254 132.775 32.1254Z" fill="#101010"/>
<path d="M132.615 31.8928H22.7978C20.064 31.8928 17.8477 29.6765 17.8477 26.9427V25.2314C17.8477 22.4976 20.064 20.2812 22.7978 20.2812H132.615C135.349 20.2812 137.565 22.4976 137.565 25.2314V26.9427C137.565 29.6765 135.349 31.8928 132.615 31.8928Z" fill="#0E0E0E"/>
<path d="M132.459 31.6585H22.9565C20.2676 31.6585 18.0879 29.4788 18.0879 26.7899V25.3432C18.0879 22.6543 20.2676 20.4746 22.9565 20.4746H132.459C135.148 20.4746 137.328 22.6543 137.328 25.3432V26.7899C137.328 29.4788 135.148 31.6585 132.459 31.6585Z" fill="#0B0B0B"/>
<path d="M132.303 31.4262H23.1132C20.4693 31.4262 18.3262 29.2831 18.3262 26.6392V25.457C18.3262 22.813 20.4693 20.6699 23.1132 20.6699H132.302C134.946 20.6699 137.089 22.813 137.089 25.457V26.6392C137.09 29.2823 134.946 31.4262 132.303 31.4262Z" fill="#080808"/>
<path d="M132.148 31.1917H23.2728C20.6737 31.1917 18.5664 29.0843 18.5664 26.4853V25.5677C18.5664 22.9687 20.6737 20.8613 23.2728 20.8613H132.147C134.746 20.8613 136.853 22.9687 136.853 25.5677V26.4853C136.854 29.0843 134.747 31.1917 132.148 31.1917Z" fill="#050505"/>
<path d="M131.986 30.9593H23.4256C20.8715 30.9593 18.8008 28.8886 18.8008 26.3345V25.6815C18.8008 23.1274 20.8715 21.0566 23.4256 21.0566H131.986C134.54 21.0566 136.611 23.1274 136.611 25.6815V26.3345C136.611 28.8886 134.54 30.9593 131.986 30.9593Z" fill="#030303"/>
<path d="M131.831 30.7267H23.5851C21.076 30.7267 19.041 28.6926 19.041 26.1826V25.7941C19.041 23.285 21.0751 21.25 23.5851 21.25H131.831C134.34 21.25 136.375 23.2841 136.375 25.7941V26.1826C136.374 28.6926 134.34 30.7267 131.831 30.7267Z" fill="black"/>
</g>
<path opacity="0.8452" d="M134.646 25.6983H22.7343C16.8698 25.6983 12.1152 20.9437 12.1152 15.0792V10.6425C12.1152 4.77804 16.8698 0.0234375 22.7343 0.0234375H134.646C140.51 0.0234375 145.265 4.77804 145.265 10.6425V15.0792C145.266 20.9437 140.511 25.6983 134.646 25.6983Z" fill="white"/>
<path opacity="0.8571" d="M134.373 25.5255H22.9466C17.0864 25.5255 12.3359 20.7751 12.3359 14.9148V10.7093C12.3359 4.84907 17.0864 0.0986328 22.9466 0.0986328H134.373C140.233 0.0986328 144.984 4.84907 144.984 10.7093V14.9148C144.984 20.7743 140.233 25.5255 134.373 25.5255Z" fill="white"/>
<path opacity="0.869" d="M134.097 25.3538H23.1551C17.2998 25.3538 12.5527 20.6067 12.5527 14.7514V10.7772C12.5527 4.92191 17.2998 0.174805 23.1551 0.174805H134.096C139.951 0.174805 144.698 4.92191 144.698 10.7772V14.7514C144.699 20.6067 139.952 25.3538 134.097 25.3538Z" fill="white"/>
<path opacity="0.881" d="M133.823 25.182H23.3675C17.5164 25.182 12.7734 20.4391 12.7734 14.588V10.845C12.7734 4.99393 17.5164 0.250977 23.3675 0.250977H133.823C139.674 0.250977 144.417 4.99393 144.417 10.845V14.588C144.417 20.4383 139.674 25.182 133.823 25.182Z" fill="white"/>
<path opacity="0.8929" d="M133.546 25.0103H23.576C17.7299 25.0103 12.9902 20.2707 12.9902 14.4245V10.9129C12.9902 5.06677 17.7299 0.327148 23.576 0.327148H133.546C139.392 0.327148 144.131 5.06677 144.131 10.9129V14.4245C144.132 20.2707 139.393 25.0103 133.546 25.0103Z" fill="white"/>
<path opacity="0.9048" d="M133.273 24.8376H23.7884C17.9464 24.8376 13.2109 20.1021 13.2109 14.2601V10.9798C13.2109 5.1378 17.9464 0.402344 23.7884 0.402344H133.273C139.115 0.402344 143.85 5.1378 143.85 10.9798V14.2601C143.85 20.1021 139.115 24.8376 133.273 24.8376Z" fill="white"/>
<path opacity="0.9167" d="M133 24.6639H24.0007C18.1638 24.6639 13.4316 19.9317 13.4316 14.0948V11.0457C13.4316 5.20869 18.1638 0.476562 24.0007 0.476562H133C138.837 0.476562 143.569 5.20869 143.569 11.0457V14.0948C143.569 19.9317 138.837 24.6639 133 24.6639Z" fill="white"/>
<path opacity="0.9286" d="M132.727 24.4941H24.2131C18.3803 24.4941 13.6523 19.7661 13.6523 13.9333V11.1155C13.6523 5.28266 18.3803 0.554688 24.2131 0.554688H132.727C138.56 0.554688 143.288 5.28266 143.288 11.1155V13.9333C143.288 19.7661 138.56 24.4941 132.727 24.4941Z" fill="white"/>
<path opacity="0.9405" d="M132.45 24.3215H24.4216C18.5938 24.3215 13.8691 19.5968 13.8691 13.769V11.1833C13.8691 5.3555 18.5938 0.630859 24.4216 0.630859H132.45C138.278 0.630859 143.003 5.3555 143.003 11.1833V13.769C143.003 19.5968 138.278 24.3215 132.45 24.3215Z" fill="white"/>
<path opacity="0.9524" d="M132.177 24.1468H24.634C18.8103 24.1468 14.0898 19.4263 14.0898 13.6027V11.2482C14.0898 5.42459 18.8103 0.704102 24.634 0.704102H132.177C138.001 0.704102 142.721 5.42459 142.721 11.2482V13.6027C142.721 19.4263 138 24.1468 132.177 24.1468Z" fill="white"/>
<path opacity="0.9643" d="M131.904 23.975H24.8464C19.0277 23.975 14.3105 19.2579 14.3105 13.4392V11.3161C14.3105 5.49743 19.0277 0.780273 24.8464 0.780273H131.904C137.723 0.780273 142.44 5.49743 142.44 11.3161V13.4392C142.44 19.2579 137.723 23.975 131.904 23.975Z" fill="white"/>
<path opacity="0.9762" d="M131.627 23.8053H25.0548C19.2403 23.8053 14.5273 19.0923 14.5273 13.2778V11.3859C14.5273 5.5714 19.2403 0.858398 25.0548 0.858398H131.627C137.441 0.858398 142.154 5.5714 142.154 11.3859V13.2778C142.154 19.0923 137.441 23.8053 131.627 23.8053Z" fill="white"/>
<path opacity="0.9881" d="M131.354 23.6315H25.2672C19.4577 23.6315 14.748 18.9219 14.748 13.1124V11.4518C14.748 5.64228 19.4577 0.932617 25.2672 0.932617H131.354C137.164 0.932617 141.873 5.64228 141.873 11.4518V13.1124C141.873 18.9219 137.164 23.6315 131.354 23.6315Z" fill="white"/>
<path d="M131.081 23.4588H25.4796C19.6743 23.4588 14.9688 18.7533 14.9688 12.948V11.5187C14.9688 5.71333 19.6743 1.00781 25.4796 1.00781H131.081C136.886 1.00781 141.592 5.71333 141.592 11.5187V12.948C141.592 18.7533 136.885 23.4588 131.081 23.4588Z" fill="white"/>
<path d="M143.969 47.3806H11.4127C5.36336 47.3806 0.459033 42.4763 0.459033 36.4269V11.4127C0.459033 5.36336 5.36336 0.459033 11.4127 0.459033H143.969C150.018 0.459033 154.923 5.36336 154.923 11.4127V36.4278C154.923 42.4771 150.019 47.3806 143.969 47.3806Z" fill="#ECECEC" stroke="white" stroke-width="0.918065"/>
<path d="M61.1945 12.2342C62.9142 12.2342 63.93 13.3066 63.93 15.1303C63.93 16.958 62.9175 18.0304 61.1945 18.0304H59.2461V12.2334H61.1945V12.2342ZM59.9699 17.3798H61.1471C62.4607 17.3798 63.192 16.5762 63.192 15.1386C63.192 13.6885 62.4649 12.8848 61.1471 12.8848H59.9699V17.3798Z" fill="#333333"/>
<path d="M64.9238 15.9427C64.9238 14.609 65.7034 13.7812 66.8598 13.7812C68.0129 13.7812 68.7924 14.609 68.7924 15.9427C68.7924 17.2721 68.0129 18.1041 66.8598 18.1041C65.7034 18.1041 64.9238 17.2721 64.9238 15.9427ZM68.0819 15.9427C68.0819 14.9585 67.6002 14.3961 66.8606 14.3961C66.121 14.3961 65.6351 14.9585 65.6351 15.9427C65.6351 16.9269 66.121 17.4893 66.8606 17.4893C67.5994 17.4893 68.0819 16.9269 68.0819 15.9427Z" fill="#333333"/>
<path d="M74.0581 18.0316H73.3468L72.4025 14.7978H72.3867L71.4466 18.0316H70.7353L69.5664 13.8535H70.2611L71.0964 17.252H71.1122L72.0564 13.8535H72.7311L73.6796 17.252H73.6954L74.5307 13.8535H75.222L74.0581 18.0316Z" fill="#333333"/>
<path d="M76.2059 13.8528H76.8648V14.52H76.8806C77.1136 14.0699 77.5595 13.7812 78.2059 13.7812C79.1219 13.7812 79.6518 14.3719 79.6518 15.3195V18.0309H78.953V15.4435C78.953 14.7688 78.6352 14.3994 77.9929 14.3994C77.334 14.3994 76.9039 14.8653 76.9039 15.5724V18.0309H76.2051V13.8528H76.2059Z" fill="#333333"/>
<path d="M80.9863 12.2354H81.6852V18.0324H80.9863V12.2354Z" fill="#333333"/>
<path d="M82.8359 15.9427C82.8359 14.609 83.6155 13.7812 84.7719 13.7812C85.925 13.7812 86.7045 14.609 86.7045 15.9427C86.7045 17.2721 85.925 18.1041 84.7719 18.1041C83.6146 18.1041 82.8359 17.2721 82.8359 15.9427ZM85.9932 15.9427C85.9932 14.9585 85.5115 14.3961 84.7719 14.3961C84.0323 14.3961 83.5464 14.9585 83.5464 15.9427C83.5464 16.9269 84.0323 17.4893 84.7719 17.4893C85.5115 17.4893 85.9932 16.9269 85.9932 15.9427Z" fill="#333333"/>
<path d="M87.6484 16.8503C87.6484 16.1348 88.1992 15.6856 89.1626 15.629L90.3598 15.5608V15.2114C90.3598 14.7014 90.022 14.3961 89.4438 14.3961C88.9055 14.3961 88.5677 14.649 88.4796 15.0591H87.8048C87.8531 14.3362 88.4721 13.7812 89.4596 13.7812C90.4396 13.7812 91.0586 14.3112 91.0586 15.1432V18.0317H90.3955V17.3129H90.3797C90.131 17.7912 89.6002 18.1041 89.0378 18.1041C88.2067 18.1041 87.6484 17.6016 87.6484 16.8503ZM90.3606 16.4443V16.1032L89.2441 16.1714C88.6817 16.2072 88.3606 16.4568 88.3606 16.8503C88.3606 17.248 88.6942 17.5092 89.1959 17.5092C89.8539 17.5092 90.3606 17.0475 90.3606 16.4443Z" fill="#333333"/>
<path d="M92.1543 15.9434C92.1543 14.6339 92.8731 13.7819 93.9255 13.7819C94.5237 13.7819 95.0062 14.0748 95.255 14.5332H95.2708V12.2354H95.9696V18.0324H95.3024V17.3252H95.2907C95.0212 17.8069 94.5437 18.1048 93.9413 18.1048C92.8773 18.1048 92.1543 17.2528 92.1543 15.9434ZM92.8689 15.9434C92.8689 16.8918 93.3348 17.49 94.0744 17.49C94.7932 17.49 95.2758 16.8793 95.2758 15.9434C95.2758 15.0116 94.7941 14.3968 94.0744 14.3968C93.3357 14.3968 92.8689 14.9991 92.8689 15.9434Z" fill="#333333"/>
<path d="M99.2207 15.9427C99.2207 14.609 100 13.7812 101.157 13.7812C102.31 13.7812 103.089 14.609 103.089 15.9427C103.089 17.2721 102.31 18.1041 101.157 18.1041C100 18.1041 99.2207 17.2721 99.2207 15.9427ZM102.379 15.9427C102.379 14.9585 101.897 14.3961 101.157 14.3961C100.418 14.3961 99.932 14.9585 99.932 15.9427C99.932 16.9269 100.418 17.4893 101.157 17.4893C101.897 17.4893 102.379 16.9269 102.379 15.9427Z" fill="#333333"/>
<path d="M104.2 13.8528H104.859V14.52H104.875C105.108 14.0699 105.554 13.7812 106.2 13.7812C107.116 13.7812 107.646 14.3719 107.646 15.3195V18.0309H106.947V15.4435C106.947 14.7688 106.63 14.3994 105.987 14.3994C105.328 14.3994 104.898 14.8653 104.898 15.5724V18.0309H104.199V13.8528H104.2Z" fill="#333333"/>
<path d="M111.972 12.8447V13.853H112.783V14.4279H111.972V16.9105C111.972 17.2923 112.132 17.4645 112.49 17.4645C112.571 17.4645 112.731 17.4521 112.779 17.4446V18.0311C112.695 18.0511 112.502 18.0635 112.338 18.0635C111.571 18.0635 111.273 17.7499 111.273 16.9471V14.4279H110.65V13.853H111.273V12.8447H111.972Z" fill="#333333"/>
<path d="M113.973 12.2354H114.672V14.5215H114.688C114.921 14.0557 115.379 13.7828 116.013 13.7828C116.929 13.7828 117.483 14.4017 117.483 15.3335V18.0332H116.785V15.4625C116.785 14.7994 116.451 14.4017 115.796 14.4017C115.102 14.4017 114.671 14.876 114.671 15.5989V18.0332H113.973V12.2354H113.973Z" fill="#333333"/>
<path d="M122.242 16.8345C122.121 17.5658 121.414 18.1041 120.502 18.1041C119.305 18.1041 118.578 17.2721 118.578 15.9585C118.578 14.6606 119.317 13.7812 120.47 13.7812C121.599 13.7812 122.294 14.6007 122.294 15.8661V16.1315H119.297V16.1714C119.297 16.9709 119.767 17.4967 120.518 17.4967C121.048 17.4967 121.438 17.228 121.555 16.8337H122.242V16.8345ZM119.301 15.5849H121.571C121.555 14.8861 121.116 14.3877 120.457 14.3877C119.804 14.3877 119.345 14.8902 119.301 15.5849Z" fill="#333333"/>
<path d="M62.8434 22.6729H64.6521L68.5681 33.4558H66.8118L65.8251 30.5414H61.6703L60.6762 33.4558H58.9199L62.8434 22.6729ZM62.1188 29.1962H65.3692L63.7627 24.4582H63.7328L62.1188 29.1962Z" fill="#333333"/>
<path d="M70.3262 25.5942H71.9402V26.947H71.9776C72.4485 26.0127 73.3154 25.4453 74.436 25.4453C76.4385 25.4453 77.7239 27.0144 77.7239 29.5252V29.5327C77.7239 32.036 76.431 33.6126 74.4585 33.6126C73.3453 33.6126 72.441 33.0443 71.9776 32.1334H71.9402V36.0718H70.3262V25.5942ZM76.0799 29.5319V29.5244C76.0799 27.8505 75.2804 26.8272 74.0175 26.8272C72.7921 26.8272 71.9327 27.8879 71.9327 29.5244V29.5319C71.9327 31.1608 72.7996 32.2224 74.0175 32.2224C75.2879 32.2224 76.0799 31.1908 76.0799 29.5319Z" fill="#333333"/>
<path d="M79.7363 25.5942H81.3503V26.947H81.3877C81.8586 26.0127 82.7255 25.4453 83.8462 25.4453C85.8487 25.4453 87.134 27.0144 87.134 29.5252V29.5327C87.134 32.036 85.8412 33.6126 83.8686 33.6126C82.7555 33.6126 81.8511 33.0443 81.3877 32.1334H81.3503V36.0718H79.7363V25.5942ZM85.4901 29.5319V29.5244C85.4901 27.8505 84.6906 26.8272 83.4277 26.8272C82.2022 26.8272 81.3428 27.8879 81.3428 29.5244V29.5319C81.3428 31.1608 82.2097 32.2224 83.4277 32.2224C84.6981 32.2224 85.4901 31.1908 85.4901 29.5319Z" fill="#333333"/>
<path d="M92.7321 30.5864L92.7246 30.4741H94.3536L94.3685 30.5714C94.5183 31.5656 95.5116 32.1854 96.9542 32.1854C98.3968 32.1854 99.3078 31.5356 99.3078 30.5265V30.519C99.3078 29.6521 98.7171 29.1812 97.2904 28.8676L96.1173 28.6213C94.0025 28.1729 92.9792 27.2012 92.9792 25.6022V25.5947C92.9867 23.7561 94.6081 22.4932 96.8877 22.4932C99.1373 22.4932 100.676 23.7186 100.789 25.5273L100.796 25.6546H99.1672L99.1597 25.5498C99.01 24.5481 98.1431 23.9433 96.8661 23.9433C95.5283 23.9507 94.6764 24.5855 94.6764 25.5273V25.5348C94.6764 26.3418 95.2895 26.8351 96.6339 27.1263L97.8145 27.3726C100.042 27.8434 100.998 28.7478 100.998 30.4142V30.4217C100.998 32.3867 99.4434 33.6346 96.8877 33.6346C94.4659 33.6355 92.8669 32.4849 92.7321 30.5864Z" fill="#333333"/>
<path d="M103.525 31.3875V26.8816H102.396V25.5963H103.525V23.5488H105.176V25.5963H106.648V26.8816H105.176V31.2901C105.176 32.0896 105.535 32.3284 106.214 32.3284C106.387 32.3284 106.528 32.3134 106.648 32.2984V33.5464C106.461 33.5763 106.154 33.6138 105.826 33.6138C104.272 33.6138 103.525 32.9565 103.525 31.3875Z" fill="#333333"/>
<path d="M108.207 29.5252V29.5102C108.207 26.9994 109.694 25.4453 111.928 25.4453C114.17 25.4453 115.665 26.9919 115.665 29.5102V29.5252C115.665 32.0585 114.185 33.6126 111.936 33.6126C109.679 33.6126 108.207 32.051 108.207 29.5252ZM114.013 29.5252V29.5102C114.013 27.7914 113.191 26.7981 111.928 26.7981C110.688 26.7981 109.858 27.7922 109.858 29.5102V29.5252C109.858 31.2665 110.68 32.2598 111.943 32.2598C113.206 32.2598 114.013 31.259 114.013 29.5252Z" fill="#333333"/>
<path d="M117.678 25.5942H119.292V26.9395H119.329C119.583 26.0202 120.241 25.4453 121.138 25.4453C121.369 25.4453 121.571 25.4828 121.699 25.5052V27.0069C121.571 26.9545 121.288 26.917 120.974 26.917C119.936 26.917 119.293 27.5967 119.293 28.7706V33.4562H117.679V25.5942H117.678Z" fill="#333333"/>
<path d="M122.775 29.5551V29.5477C122.775 27.0892 124.196 25.4453 126.399 25.4453C128.603 25.4453 129.956 27.0293 129.956 29.3904V29.9362H124.389C124.418 31.4229 125.233 32.2898 126.518 32.2898C127.475 32.2898 128.11 31.7964 128.312 31.2066L128.334 31.1467H129.866L129.851 31.229C129.597 32.477 128.387 33.6126 126.481 33.6126C124.173 33.6126 122.775 32.036 122.775 29.5551ZM124.413 28.7931H128.358C128.223 27.4328 127.461 26.7681 126.408 26.7681C125.361 26.7681 124.554 27.4778 124.413 28.7931Z" fill="#333333"/>
<path d="M44.5406 20.5377C43.5339 21.2374 42.8501 21.9395 42.4882 22.645C42.1263 23.3505 41.9449 24.1151 41.9449 24.9371C41.9449 25.5877 42.0522 26.1825 42.2669 26.7224C42.4815 27.2624 42.7852 27.7748 43.1779 28.2599C43.5705 28.7449 44.2269 29.2266 45.1479 29.705C44.7918 30.7482 44.2394 31.8123 43.4915 32.8988C42.7428 33.9845 42.0647 34.7549 41.4574 35.2092C40.8501 35.6634 40.2702 35.8905 39.7178 35.8905C39.276 35.8905 38.6803 35.7499 37.9324 35.4671L37.583 35.3381L37.0123 35.0985C36.6071 34.9762 36.1595 34.9146 35.6687 34.9146C35.1653 34.9146 34.6013 35.0253 33.9748 35.2458L33.5331 35.4113L32.9806 35.6326C32.5389 35.8048 32.0971 35.8905 31.6553 35.8905C30.7227 35.8905 29.7227 35.2374 28.6545 33.9305C27.5871 32.6235 26.7801 31.2183 26.2335 29.715C25.6869 28.2116 25.4141 26.6933 25.4141 25.1592C25.4141 23.1833 25.9756 21.5394 27.0988 20.2257C28.2219 18.9129 29.746 18.2565 31.6728 18.2565C32.3725 18.2565 33.0289 18.3855 33.642 18.6434L34.0655 18.8089L34.5073 18.9928C34.9 19.1525 35.2128 19.2324 35.4457 19.2324C35.7893 19.2324 36.1329 19.165 36.4765 19.0302L37.0655 18.8089L37.489 18.6434C38.1762 18.3855 38.9366 18.2565 39.7719 18.2565C41.7486 18.2557 43.3376 19.0161 44.5406 20.5377ZM39.865 11.7656C39.8892 12.036 39.9016 12.244 39.9016 12.3913C39.9016 13.1525 39.6803 13.9378 39.2386 14.7473C38.7968 15.5568 38.2194 16.1866 37.5081 16.6342C36.796 17.0826 36.0106 17.3064 35.152 17.3064C35.1154 17.0119 35.0971 16.7973 35.0971 16.6625C35.0971 16.0119 35.2901 15.328 35.677 14.6101C36.0639 13.8921 36.588 13.2814 37.251 12.7781C37.9141 12.2748 38.662 11.9561 39.4965 11.8205C39.5705 11.8089 39.6928 11.7906 39.865 11.7656Z" fill="#333333"/>
</svg>
