<svg width="121" height="30" viewBox="0 0 121 30" fill="none" xmlns="http://www.w3.org/2000/svg">
<path d="M13.4852 19.345C16.4275 19.345 18.8127 21.7302 18.8127 24.6725C18.8127 27.6148 16.4275 30 13.4852 30C10.5429 30 8.15774 27.6148 8.15774 24.6725C8.15774 21.7302 10.5429 19.345 13.4852 19.345Z" fill="#002A6A"/>
<path d="M26.8924 1.83642V6.1296C26.8924 6.58746 26.683 7.02019 26.324 7.30438L14.6053 16.5817C14.0564 17.0163 13.2797 17.0128 12.7347 16.5733L0.55776 6.7532C0.205047 6.46875 1.98397e-07 6.03997 1.7859e-07 5.58685L0 1.50118C-5.50378e-08 0.242064 1.45885 -0.455575 2.43896 0.33484L12.7249 8.62996C13.2744 9.07306 14.0585 9.07261 14.6074 8.62889L24.4521 0.671145C25.4319 -0.120886 26.8924 0.576506 26.8924 1.83642Z" fill="#002A6A"/>
<path d="M37.6634 25.9287C35.5406 25.9287 33.7545 25.4592 32.3052 24.5202C30.856 23.5609 29.8354 22.2647 29.2434 20.6317L32.8564 18.5191C33.6933 20.7032 35.3364 21.7952 37.7859 21.7952C38.9698 21.7952 39.8373 21.5809 40.3884 21.1522C40.9396 20.7236 41.2151 20.1826 41.2151 19.5295C41.2151 18.7742 40.8783 18.1925 40.2047 17.7842C39.5311 17.3556 38.3268 16.8963 36.5918 16.4064C35.6324 16.1206 34.8159 15.8349 34.1423 15.5491C33.4891 15.2633 32.8258 14.8857 32.1522 14.4162C31.499 13.9263 30.9989 13.314 30.6519 12.5791C30.3049 11.8443 30.1314 10.987 30.1314 10.0072C30.1314 8.06807 30.8152 6.52696 32.1828 5.38388C33.5708 4.22039 35.2344 3.63864 37.1735 3.63864C38.9086 3.63864 40.4293 4.0673 41.7356 4.92461C43.0624 5.7615 44.0932 6.9352 44.8281 8.44569L41.2764 10.4971C40.4191 8.66002 39.0514 7.74147 37.1735 7.74147C36.2958 7.74147 35.6018 7.9456 35.0915 8.35384C34.6016 8.74167 34.3567 9.25197 34.3567 9.88474C34.3567 10.5583 34.6322 11.1095 35.1833 11.5381C35.7549 11.9464 36.8367 12.3954 38.4289 12.8853C39.0821 13.0894 39.572 13.2527 39.8985 13.3752C40.2455 13.4773 40.7048 13.6508 41.2764 13.8957C41.8683 14.1203 42.3174 14.3346 42.6236 14.5387C42.9502 14.7428 43.3176 15.0184 43.7258 15.3654C44.1341 15.7124 44.4402 16.0696 44.6444 16.437C44.8689 16.8044 45.0526 17.2535 45.1955 17.7842C45.3588 18.2945 45.4404 18.8559 45.4404 19.4682C45.4404 21.4482 44.7158 23.0199 43.2665 24.1834C41.8377 25.3469 39.97 25.9287 37.6634 25.9287ZM60.5967 25.5H56.0039L50.4314 18.5497V25.5H46.4817V4.0673H50.4314V16.9269L55.6977 10.1909H60.4129L54.2587 17.7536L60.5967 25.5ZM61.0373 25.5V3.14875H64.987V25.5H61.0373ZM67.0712 25.5V3.14875H71.0209V25.5H67.0712ZM86.1484 23.6017C84.5767 25.153 82.658 25.9287 80.3922 25.9287C78.1265 25.9287 76.2078 25.153 74.636 23.6017C73.0847 22.0299 72.309 20.1112 72.309 17.8455C72.309 15.5797 73.0847 13.6712 74.636 12.1199C76.2078 10.5481 78.1265 9.76227 80.3922 9.76227C82.658 9.76227 84.5767 10.5481 86.1484 12.1199C87.7202 13.6712 88.506 15.5797 88.506 17.8455C88.506 20.1112 87.7202 22.0299 86.1484 23.6017ZM77.4223 20.8767C78.2183 21.6727 79.2083 22.0708 80.3922 22.0708C81.5761 22.0708 82.5661 21.6727 83.3622 20.8767C84.1583 20.0806 84.5563 19.0702 84.5563 17.8455C84.5563 16.6207 84.1583 15.6103 83.3622 14.8143C82.5661 14.0182 81.5761 13.6202 80.3922 13.6202C79.2083 13.6202 78.2183 14.0182 77.4223 14.8143C76.6466 15.6103 76.2588 16.6207 76.2588 17.8455C76.2588 19.0702 76.6466 20.0806 77.4223 20.8767ZM98.2656 9.76227C99.9394 9.76227 101.317 10.3236 102.399 11.4463C103.501 12.5689 104.052 14.1203 104.052 16.1002V25.5H100.103V16.5901C100.103 15.5695 99.8271 14.7939 99.276 14.2631C98.7249 13.712 97.99 13.4365 97.0715 13.4365C96.0509 13.4365 95.2344 13.7528 94.622 14.3856C94.0097 15.0184 93.7035 15.9676 93.7035 17.2331V25.5H89.7537V10.1909H93.7035V11.9055C94.6628 10.4767 96.1835 9.76227 98.2656 9.76227Z" fill="#3572EF"/>
<path d="M107.854 8.35384C107.2 8.35384 106.629 8.1191 106.139 7.64962C105.67 7.15973 105.435 6.58819 105.435 5.935C105.435 5.28182 105.67 4.71028 106.139 4.22039C106.629 3.7305 107.2 3.48555 107.854 3.48555C108.527 3.48555 109.099 3.7305 109.568 4.22039C110.058 4.71028 110.303 5.28182 110.303 5.935C110.303 6.58819 110.058 7.15973 109.568 7.64962C109.099 8.1191 108.527 8.35384 107.854 8.35384ZM105.894 25.5V10.1909H109.844V25.5H105.894ZM120.685 13.9876H117.225V20.3562C117.225 20.8869 117.358 21.2747 117.623 21.5196C117.888 21.7646 118.276 21.9075 118.786 21.9483C119.297 21.9687 119.93 21.9585 120.685 21.9177V25.5C117.97 25.8062 116.051 25.551 114.929 24.7345C113.826 23.9181 113.275 22.4586 113.275 20.3562V13.9876H110.611V10.1909H113.275V7.09849L117.225 5.90439V10.1909H120.685V13.9876Z" fill="#002A6A"/>
<circle cx="57.9786" cy="6.70714" r="2.42394" fill="#002A6A"/>
<path d="M60.4143 10.4062H55.694L49.7617 17.9332L56.0129 25.7153H60.6056L54.2907 17.9332L60.4143 10.4062Z" fill="#3572EF"/>
</svg>
