<svg width="156" height="48" viewBox="0 0 156 48" fill="none" xmlns="http://www.w3.org/2000/svg">
<g opacity="0.75">
<path d="M143.303 47.7517H12.1139C6.32852 47.7517 1.63965 43.062 1.63965 37.2775V17.5802C1.63965 11.7948 6.32935 7.10596 12.1139 7.10596H143.302C149.088 7.10596 153.777 11.7957 153.777 17.5802V37.2775C153.778 43.062 149.088 47.7517 143.303 47.7517Z" fill="#C6C6C6"/>
<path d="M143.146 47.5191H12.2708C6.5303 47.5191 1.8772 42.866 1.8772 37.1256V17.6929C1.8772 11.9524 6.5303 7.29932 12.2708 7.29932H143.146C148.886 7.29932 153.539 11.9524 153.539 17.6929V37.1256C153.539 42.866 148.885 47.5191 143.146 47.5191Z" fill="#C3C3C3"/>
<path d="M142.987 47.2868H12.4268C6.73124 47.2868 2.11475 42.6703 2.11475 36.9748V17.8067C2.11475 12.1111 6.73124 7.49463 12.4268 7.49463H142.987C148.683 7.49463 153.299 12.1111 153.299 17.8067V36.9748C153.299 42.6695 148.683 47.2868 142.987 47.2868Z" fill="#C1C1C1"/>
<path d="M142.832 47.0514H12.5862C6.9356 47.0514 2.35571 42.4707 2.35571 36.8209V17.9165C2.35571 12.2659 6.93643 7.68604 12.5862 7.68604H142.832C148.483 7.68604 153.063 12.2668 153.063 17.9165V36.8201C153.063 42.4707 148.483 47.0514 142.832 47.0514Z" fill="#BEBEBE"/>
<path d="M142.675 46.8185H12.7431C7.13737 46.8185 2.59326 42.2744 2.59326 36.6687V18.0297C2.59326 12.424 7.13737 7.87988 12.7431 7.87988H142.675C148.28 7.87988 152.824 12.424 152.824 18.0297V36.6687C152.824 42.2744 148.28 46.8185 142.675 46.8185Z" fill="#BBBBBB"/>
<path d="M142.516 46.5851H12.8991C7.33832 46.5851 2.83081 42.0775 2.83081 36.5168V18.1415C2.83081 12.5808 7.33832 8.07324 12.8991 8.07324H142.516C148.077 8.07324 152.584 12.5808 152.584 18.1415V36.5168C152.584 42.0767 148.077 46.5851 142.516 46.5851Z" fill="#B8B8B8"/>
<path d="M142.358 46.3531H13.0559C7.54009 46.3531 3.06836 41.8814 3.06836 36.3655V18.2556C3.06836 12.7398 7.54009 8.26807 13.0559 8.26807H142.359C147.875 8.26807 152.346 12.7398 152.346 18.2556V36.3664C152.346 41.8822 147.874 46.3531 142.358 46.3531Z" fill="#B6B6B6"/>
<path d="M142.203 46.1201H13.2154C7.74445 46.1201 3.30933 41.685 3.30933 36.2141V18.3679C3.30933 12.897 7.74445 8.46191 13.2154 8.46191H142.204C147.675 8.46191 152.11 12.897 152.11 18.3679V36.2141C152.109 41.685 147.674 46.1201 142.203 46.1201Z" fill="#B3B3B3"/>
<path d="M142.047 45.8859H13.3714C7.9454 45.8859 3.54688 41.4874 3.54688 36.0614V18.4798C3.54688 13.0538 7.9454 8.65527 13.3714 8.65527H142.046C147.472 8.65527 151.87 13.0538 151.87 18.4798V36.0614C151.871 41.4865 147.473 45.8859 142.047 45.8859Z" fill="#B0B0B0"/>
<path d="M141.889 45.6525H13.5282C8.14717 45.6525 3.78442 41.2905 3.78442 35.9087V18.5924C3.78442 13.2114 8.14634 8.84863 13.5282 8.84863H141.888C147.269 8.84863 151.632 13.2106 151.632 18.5924V35.9095C151.632 41.2905 147.27 45.6525 141.889 45.6525Z" fill="#AEAEAE"/>
<path d="M141.731 45.419H13.6842C8.34811 45.419 4.02197 41.0929 4.02197 35.7568V18.7043C4.02197 13.3681 8.34811 9.04199 13.6842 9.04199H141.731C147.067 9.04199 151.393 13.3681 151.393 18.7043V35.7568C151.393 41.0929 147.067 45.419 141.731 45.419Z" fill="#ABABAB"/>
<path d="M141.576 45.1875H13.8437C8.55248 45.1875 4.26294 40.898 4.26294 35.6068V18.818C4.26294 13.5268 8.55248 9.2373 13.8437 9.2373H141.576C146.867 9.2373 151.156 13.5268 151.156 18.818V35.606C151.156 40.898 146.867 45.1875 141.576 45.1875Z" fill="#A8A8A8"/>
<path d="M141.418 44.9533H14.0005C8.75425 44.9533 4.50049 40.7004 4.50049 35.4532V18.9307C4.50049 13.6844 8.75342 9.43066 14.0005 9.43066H141.418C146.664 9.43066 150.918 13.6836 150.918 18.9307V35.4541C150.918 40.7004 146.664 44.9533 141.418 44.9533Z" fill="#A5A5A5"/>
<path d="M141.259 44.7199H14.1565C8.95519 44.7199 4.73804 40.5027 4.73804 35.3013V19.0425C4.73804 13.8412 8.95519 9.62402 14.1565 9.62402H141.259C146.461 9.62402 150.678 13.8412 150.678 19.0425V35.3013C150.678 40.5027 146.462 44.7199 141.259 44.7199Z" fill="#A3A3A3"/>
<path d="M141.104 44.4884H14.316C9.15955 44.4884 4.979 40.3078 4.979 35.1514V19.1563C4.979 13.9999 9.15955 9.81934 14.316 9.81934H141.104C146.261 9.81934 150.441 13.9999 150.441 19.1563V35.1506C150.442 40.3078 146.262 44.4884 141.104 44.4884Z" fill="#A0A0A0"/>
<path d="M140.947 44.2541H14.4728C9.3605 44.2541 5.21655 40.1102 5.21655 34.9978V19.269C5.21655 14.1575 9.3605 10.0127 14.4728 10.0127H140.948C146.06 10.0127 150.204 14.1566 150.204 19.269V34.9987C150.203 40.1102 146.059 44.2541 140.947 44.2541Z" fill="#9D9D9D"/>
<path d="M140.788 44.0226H14.6288C9.56144 44.0226 5.4541 39.9153 5.4541 34.8479V19.3828C5.4541 14.3153 9.56144 10.208 14.6288 10.208H140.789C145.857 10.208 149.964 14.3153 149.964 19.3828V34.8479C149.963 39.9153 145.856 44.0226 140.788 44.0226Z" fill="#9B9B9B"/>
<path d="M140.632 43.7873H14.7849C9.76238 43.7873 5.69165 39.7157 5.69165 34.694V19.4926C5.69165 14.4701 9.76322 10.3994 14.7849 10.3994H140.631C145.653 10.3994 149.724 14.471 149.724 19.4926V34.6932C149.725 39.7157 145.653 43.7873 140.632 43.7873Z" fill="#989898"/>
<path d="M140.474 43.5538H14.9417C9.96416 43.5538 5.9292 39.5189 5.9292 34.5413V19.6053C5.9292 14.6277 9.96416 10.5928 14.9417 10.5928H140.473C145.451 10.5928 149.486 14.6277 149.486 19.6053V34.5413C149.486 39.5189 145.451 43.5538 140.474 43.5538Z" fill="#959595"/>
<path d="M140.319 43.32H15.1012C10.1685 43.32 6.17017 39.3217 6.17017 34.3891V19.7176C6.17017 14.785 10.1685 10.7866 15.1012 10.7866H140.319C145.251 10.7866 149.25 14.785 149.25 19.7176V34.3899C149.25 39.3217 145.251 43.32 140.319 43.32Z" fill="#929292"/>
<path d="M140.16 43.0866H15.2572C10.3695 43.0866 6.40771 39.1249 6.40771 34.2372V19.8294C6.40771 14.9417 10.3695 10.98 15.2572 10.98H140.16C145.048 10.98 149.01 14.9417 149.01 19.8294V34.2372C149.01 39.124 145.048 43.0866 140.16 43.0866Z" fill="#909090"/>
<path d="M140.003 42.854H15.414C10.5712 42.854 6.64526 38.928 6.64526 34.0853V19.9421C6.64526 15.0993 10.5712 11.1733 15.414 11.1733H140.003C144.846 11.1733 148.771 15.0993 148.771 19.9421V34.0853C148.771 38.9289 144.846 42.854 140.003 42.854Z" fill="#8D8D8D"/>
<path d="M139.844 42.6197H15.57C10.7722 42.6197 6.88281 38.7304 6.88281 33.9325V20.0539C6.88281 15.2561 10.7722 11.3667 15.57 11.3667H139.844C144.642 11.3667 148.532 15.2561 148.532 20.0539V33.9325C148.532 38.7304 144.642 42.6197 139.844 42.6197Z" fill="#8A8A8A"/>
<path d="M139.69 42.3874H15.7295C10.9765 42.3874 7.12378 38.5347 7.12378 33.7817V20.1677C7.12378 15.4148 10.9765 11.562 15.7295 11.562H139.69C144.443 11.562 148.296 15.4148 148.296 20.1677V33.7817C148.297 38.5347 144.443 42.3874 139.69 42.3874Z" fill="#888888"/>
<path d="M139.532 42.1548H15.8863C11.1783 42.1548 7.36133 38.3379 7.36133 33.6298V20.2804C7.36133 15.5724 11.1783 11.7554 15.8863 11.7554H139.532C144.24 11.7554 148.057 15.5724 148.057 20.2804V33.6298C148.057 38.3379 144.24 42.1548 139.532 42.1548Z" fill="#858585"/>
<path d="M139.374 41.9206H16.0423C11.3793 41.9206 7.59888 38.1402 7.59888 33.4771V20.3922C7.59888 15.7291 11.3793 11.9487 16.0423 11.9487H139.374C144.037 11.9487 147.817 15.7291 147.817 20.3922V33.4771C147.817 38.1402 144.037 41.9206 139.374 41.9206Z" fill="#828282"/>
<path d="M139.216 41.6897H16.1984C11.5802 41.6897 7.83643 37.946 7.83643 33.3278V20.5074C7.83643 15.8893 11.5802 12.1455 16.1984 12.1455H139.216C143.834 12.1455 147.577 15.8893 147.577 20.5074V33.3278C147.578 37.946 143.835 41.6897 139.216 41.6897Z" fill="#808080"/>
<path d="M139.062 41.4557H16.3586C11.7854 41.4557 8.07739 37.7485 8.07739 33.1744V20.6186C8.07739 16.0454 11.7846 12.3374 16.3586 12.3374H139.061C143.635 12.3374 147.343 16.0446 147.343 20.6186V33.1744C147.343 37.7477 143.635 41.4557 139.062 41.4557Z" fill="#7D7D7D"/>
<path d="M138.904 41.2214H16.5146C11.9863 41.2214 8.31494 37.55 8.31494 33.0217V20.7305C8.31494 16.2022 11.9863 12.5308 16.5146 12.5308H138.904C143.432 12.5308 147.103 16.2022 147.103 20.7305V33.0217C147.103 37.5508 143.432 41.2214 138.904 41.2214Z" fill="#7A7A7A"/>
<path d="M138.745 40.988H16.6707C12.1873 40.988 8.55249 37.3532 8.55249 32.8698V20.8423C8.55249 16.3589 12.1873 12.7241 16.6707 12.7241H138.745C143.229 12.7241 146.863 16.3589 146.863 20.8423V32.8698C146.863 37.3532 143.229 40.988 138.745 40.988Z" fill="#777777"/>
<path d="M138.588 40.7539H16.8275C12.3891 40.7539 8.79004 37.1557 8.79004 32.7164V20.9535C8.79004 16.515 12.3882 12.916 16.8275 12.916H138.588C143.026 12.916 146.625 16.5142 146.625 20.9535V32.7156C146.625 37.1549 143.027 40.7539 138.588 40.7539Z" fill="#757575"/>
<path d="M138.433 40.5222H16.9869C12.5926 40.5222 9.03101 36.9598 9.03101 32.5663V21.0687C9.03101 16.6744 12.5934 13.1128 16.9869 13.1128H138.433C142.827 13.1128 146.389 16.6752 146.389 21.0687V32.5663C146.389 36.9607 142.827 40.5222 138.433 40.5222Z" fill="#727272"/>
<path d="M138.275 40.2888H17.143C12.7935 40.2888 9.26855 36.763 9.26855 32.4144V21.1806C9.26855 16.8311 12.7944 13.3062 17.143 13.3062H138.275C142.624 13.3062 146.149 16.832 146.149 21.1806V32.4144C146.15 36.763 142.624 40.2888 138.275 40.2888Z" fill="#6F6F6F"/>
<path d="M138.116 40.0562H17.2998C12.9953 40.0562 9.5061 36.567 9.5061 32.2625V21.2932C9.5061 16.9887 12.9953 13.4995 17.2998 13.4995H138.117C142.422 13.4995 145.911 16.9887 145.911 21.2932V32.2625C145.91 36.567 142.421 40.0562 138.116 40.0562Z" fill="#6D6D6D"/>
<path d="M137.959 39.8231H17.4558C13.1962 39.8231 9.74365 36.3705 9.74365 32.1109V21.407C9.74365 17.1474 13.1962 13.6948 17.4558 13.6948H137.959C142.218 13.6948 145.671 17.1474 145.671 21.407V32.1117C145.671 36.3705 142.218 39.8231 137.959 39.8231Z" fill="#6A6A6A"/>
<path d="M137.805 39.5882H17.6153C13.4006 39.5882 9.98462 36.1713 9.98462 31.9575V21.5174C9.98462 17.3027 13.4014 13.8867 17.6153 13.8867H137.804C142.018 13.8867 145.434 17.3035 145.434 21.5174V31.9575C145.435 36.1713 142.018 39.5882 137.805 39.5882Z" fill="#676767"/>
<path d="M137.647 39.357H17.7721C13.6024 39.357 10.2222 35.9768 10.2222 31.8071V21.6315C10.2222 17.4618 13.6024 14.0815 17.7721 14.0815H137.646C141.816 14.0815 145.196 17.4618 145.196 21.6315V31.8071C145.197 35.9768 141.817 39.357 137.647 39.357Z" fill="#646464"/>
<path d="M137.489 39.1228H17.9281C13.8033 39.1228 10.4597 35.7792 10.4597 31.6543V21.7433C10.4597 17.6185 13.8033 14.2749 17.9281 14.2749H137.489C141.613 14.2749 144.957 17.6185 144.957 21.7433V31.6543C144.957 35.7792 141.613 39.1228 137.489 39.1228Z" fill="#626262"/>
<path d="M137.33 38.8905H18.0842C14.0043 38.8905 10.6973 35.5834 10.6973 31.5036V21.8571C10.6973 17.7772 14.0043 14.4702 18.0842 14.4702H137.33C141.41 14.4702 144.717 17.7772 144.717 21.8571V31.5036C144.717 35.5834 141.41 38.8905 137.33 38.8905Z" fill="#5F5F5F"/>
<path d="M137.176 38.6579H18.2444C14.2095 38.6579 10.9382 35.3866 10.9382 31.3517V21.9698C10.9382 17.9348 14.2095 14.6636 18.2444 14.6636H137.176C141.211 14.6636 144.482 17.9348 144.482 21.9698V31.3517C144.482 35.3866 141.211 38.6579 137.176 38.6579Z" fill="#5C5C5C"/>
<path d="M137.017 38.4236H18.4004C14.4104 38.4236 11.1758 35.189 11.1758 31.1989V22.0816C11.1758 18.0916 14.4104 14.8569 18.4004 14.8569H137.017C141.007 14.8569 144.242 18.0916 144.242 22.0816V31.1989C144.242 35.189 141.007 38.4236 137.017 38.4236Z" fill="#5A5A5A"/>
<path d="M136.861 38.1895H18.5573C14.6122 38.1895 11.4133 34.9915 11.4133 31.0456V22.1928C11.4133 18.2477 14.6113 15.0488 18.5573 15.0488H136.861C140.806 15.0488 144.005 18.2468 144.005 22.1928V31.0456C144.005 34.9915 140.807 38.1895 136.861 38.1895Z" fill="#575757"/>
<path d="M136.701 37.9572H18.7133C14.8131 37.9572 11.6509 34.795 11.6509 30.8948V22.3066C11.6509 18.4064 14.8131 15.2441 18.7133 15.2441H136.702C140.602 15.2441 143.765 18.4064 143.765 22.3066V30.8948C143.764 34.795 140.602 37.9572 136.701 37.9572Z" fill="#545454"/>
<path d="M136.548 37.723H18.8727C15.0175 37.723 11.8918 34.5973 11.8918 30.7421V22.4184C11.8918 18.5631 15.0175 15.4375 18.8727 15.4375H136.547C140.402 15.4375 143.528 18.5631 143.528 22.4184V30.7421C143.529 34.5982 140.403 37.723 136.548 37.723Z" fill="#515151"/>
<path d="M136.387 37.4904H19.0262C15.2158 37.4904 12.126 34.4013 12.126 30.5902V22.5311C12.126 18.7207 15.215 15.6309 19.0262 15.6309H136.386C140.196 15.6309 143.286 18.7199 143.286 22.5311V30.5902C143.286 34.4013 140.197 37.4904 136.387 37.4904Z" fill="#4F4F4F"/>
<path d="M136.232 37.2561H19.1856C15.4202 37.2561 12.3669 34.2037 12.3669 30.4374V22.6429C12.3669 18.8775 15.4194 15.8242 19.1856 15.8242H136.232C139.997 15.8242 143.051 18.8766 143.051 22.6429V30.4374C143.051 34.2028 139.997 37.2561 136.232 37.2561Z" fill="#4C4C4C"/>
<path d="M136.073 37.0246H19.3416C15.6203 37.0246 12.6045 34.008 12.6045 30.2875V22.7567C12.6045 19.0354 15.6211 16.0195 19.3416 16.0195H136.073C139.795 16.0195 142.811 19.0362 142.811 22.7567V30.2875C142.811 34.008 139.794 37.0246 136.073 37.0246Z" fill="#494949"/>
<path d="M135.919 36.7901H19.5019C15.8255 36.7901 12.8455 33.81 12.8455 30.1336V22.8674C12.8455 19.191 15.8255 16.2109 19.5019 16.2109H135.919C139.596 16.2109 142.576 19.191 142.576 22.8674V30.1336C142.576 33.81 139.596 36.7901 135.919 36.7901Z" fill="#474747"/>
<path d="M135.761 36.5577H19.6579C16.0264 36.5577 13.083 33.6143 13.083 29.9828V22.9812C13.083 19.3497 16.0264 16.4062 19.6579 16.4062H135.761C139.392 16.4062 142.336 19.3497 142.336 22.9812V29.9828C142.336 33.6143 139.392 36.5577 135.761 36.5577Z" fill="#444444"/>
<path d="M135.602 36.3235H19.8139C16.2274 36.3235 13.3206 33.4158 13.3206 29.8301V23.093C13.3206 19.5064 16.2282 16.5996 19.8139 16.5996H135.602C139.189 16.5996 142.096 19.5073 142.096 23.093V29.8301C142.096 33.4158 139.189 36.3235 135.602 36.3235Z" fill="#414141"/>
<path d="M135.445 36.0909H19.9708C16.4292 36.0909 13.5581 33.2198 13.5581 29.6782V23.2056C13.5581 19.664 16.4292 16.793 19.9708 16.793H135.445C138.987 16.793 141.858 19.664 141.858 23.2056V29.6782C141.858 33.2198 138.987 36.0909 135.445 36.0909Z" fill="#3E3E3E"/>
<path d="M135.29 35.8571H20.1302C16.6335 35.8571 13.7991 33.0227 13.7991 29.526V23.318C13.7991 19.8213 16.6335 16.9868 20.1302 16.9868H135.29C138.787 16.9868 141.622 19.8213 141.622 23.318V29.526C141.621 33.0227 138.786 35.8571 135.29 35.8571Z" fill="#3C3C3C"/>
<path d="M135.133 35.6243H20.2862C16.8345 35.6243 14.0366 32.8265 14.0366 29.3747V23.4313C14.0366 19.9795 16.8345 17.1816 20.2862 17.1816H135.132C138.584 17.1816 141.382 19.9795 141.382 23.4313V29.3747C141.382 32.8256 138.585 35.6243 135.133 35.6243Z" fill="#393939"/>
<path d="M134.975 35.3909H20.4433C17.0365 35.3909 14.2744 32.6288 14.2744 29.222V23.5439C14.2744 20.1371 17.0365 17.375 20.4433 17.375H134.975C138.381 17.375 141.144 20.1371 141.144 23.5439V29.2228C141.144 32.6296 138.382 35.3909 134.975 35.3909Z" fill="#363636"/>
<path d="M134.817 35.1579H20.5993C17.2374 35.1579 14.512 32.4325 14.512 29.0706V23.6562C14.512 20.2943 17.2374 17.5688 20.5993 17.5688H134.817C138.179 17.5688 140.904 20.2943 140.904 23.6562V29.0706C140.904 32.4325 138.179 35.1579 134.817 35.1579Z" fill="#343434"/>
<path d="M134.662 34.9251H20.7585C17.4415 34.9251 14.7527 32.2363 14.7527 28.9193V23.7695C14.7527 20.4525 17.4415 17.7637 20.7585 17.7637H134.662C137.979 17.7637 140.668 20.4525 140.668 23.7695V28.9193C140.668 32.2354 137.979 34.9251 134.662 34.9251Z" fill="#313131"/>
<path d="M134.501 34.6925H20.9122C17.6402 34.6925 14.9871 32.0403 14.9871 28.7674V23.8822C14.9871 20.6101 17.6393 17.957 20.9122 17.957H134.501C137.773 17.957 140.426 20.6093 140.426 23.8822V28.7674C140.426 32.0403 137.773 34.6925 134.501 34.6925Z" fill="#2E2E2E"/>
<path d="M134.346 34.4588H21.0716C17.8445 34.4588 15.228 31.8423 15.228 28.6152V23.9945C15.228 20.7674 17.8445 18.1509 21.0716 18.1509H134.346C137.573 18.1509 140.189 20.7674 140.189 23.9945V28.6152C140.189 31.8423 137.573 34.4588 134.346 34.4588Z" fill="#2B2B2B"/>
<path d="M134.187 34.2245H21.2277C18.0455 34.2245 15.4656 31.6446 15.4656 28.4624V24.1063C15.4656 20.9241 18.0455 18.3442 21.2277 18.3442H134.187C137.37 18.3442 139.949 20.9241 139.949 24.1063V28.4624C139.95 31.6446 137.37 34.2245 134.187 34.2245Z" fill="#292929"/>
<path d="M134.034 33.9919H21.3879C18.2506 33.9919 15.7065 31.4486 15.7065 28.3105V24.219C15.7065 21.0817 18.2498 18.5376 21.3879 18.5376H134.034C137.171 18.5376 139.715 21.0809 139.715 24.219V28.3105C139.715 31.4486 137.172 33.9919 134.034 33.9919Z" fill="#262626"/>
<path d="M133.875 33.7604H21.5439C18.4516 33.7604 15.9441 31.2529 15.9441 28.1606V24.3328C15.9441 21.2404 18.4516 18.7329 21.5439 18.7329H133.876C136.968 18.7329 139.475 21.2404 139.475 24.3328V28.1606C139.475 31.2529 136.968 33.7604 133.875 33.7604Z" fill="#232323"/>
<path d="M133.718 33.5276H21.7C18.6517 33.5276 16.1816 31.0567 16.1816 28.0093V24.4461C16.1816 21.3978 18.6525 18.9277 21.7 18.9277H133.717C136.765 18.9277 139.235 21.3986 139.235 24.4461V28.0093C139.236 31.0567 136.765 33.5276 133.718 33.5276Z" fill="#212121"/>
<path d="M133.56 33.2916H21.8568C18.8535 33.2916 16.4192 30.8573 16.4192 27.854V24.5553C16.4192 21.552 18.8535 19.1177 21.8568 19.1177H133.559C136.563 19.1177 138.997 21.552 138.997 24.5553V27.854C138.997 30.8573 136.563 33.2916 133.56 33.2916Z" fill="#1E1E1E"/>
<path d="M133.405 33.0608H22.0163C19.0578 33.0608 16.6602 30.6631 16.6602 27.7047V24.6705C16.6602 21.7121 19.0578 19.3145 22.0163 19.3145H133.405C136.364 19.3145 138.761 21.7121 138.761 24.6705V27.7047C138.761 30.6631 136.363 33.0608 133.405 33.0608Z" fill="#1B1B1B"/>
<path d="M133.247 32.827H22.1723C19.2588 32.827 16.8977 30.4651 16.8977 27.5524V24.7829C16.8977 21.8694 19.2596 19.5083 22.1723 19.5083H133.247C136.16 19.5083 138.521 21.8702 138.521 24.7829V27.5524C138.521 30.4651 136.16 32.827 133.247 32.827Z" fill="#181818"/>
<path d="M133.089 32.5944H22.3291C19.4606 32.5944 17.1353 30.2691 17.1353 27.4005V24.8955C17.1353 22.027 19.4606 19.7017 22.3291 19.7017H133.089C135.958 19.7017 138.283 22.027 138.283 24.8955V27.4005C138.283 30.2691 135.958 32.5944 133.089 32.5944Z" fill="#161616"/>
<path d="M132.931 32.3601H22.4851C19.6615 32.3601 17.3728 30.0714 17.3728 27.2478V25.0074C17.3728 22.1837 19.6615 19.895 22.4851 19.895H132.931C135.754 19.895 138.043 22.1837 138.043 25.0074V27.2478C138.043 30.0714 135.754 32.3601 132.931 32.3601Z" fill="#131313"/>
<path d="M132.776 32.1259H22.6446C19.8659 32.1259 17.6138 29.8729 17.6138 27.0951V25.1192C17.6138 22.3405 19.8667 20.0884 22.6446 20.0884H132.776C135.554 20.0884 137.806 22.3413 137.806 25.1192V27.0951C137.807 29.8729 135.554 32.1259 132.776 32.1259Z" fill="#101010"/>
<path d="M132.615 31.8933H22.798C20.0642 31.8933 17.8479 29.677 17.8479 26.9432V25.2318C17.8479 22.4981 20.0642 20.2817 22.798 20.2817H132.615C135.349 20.2817 137.566 22.4981 137.566 25.2318V26.9432C137.566 29.677 135.349 31.8933 132.615 31.8933Z" fill="#0E0E0E"/>
<path d="M132.46 31.659H22.9574C20.2686 31.659 18.0889 29.4793 18.0889 26.7904V25.3437C18.0889 22.6548 20.2686 20.4751 22.9574 20.4751H132.46C135.149 20.4751 137.329 22.6548 137.329 25.3437V26.7904C137.329 29.4793 135.149 31.659 132.46 31.659Z" fill="#0B0B0B"/>
<path d="M132.303 31.4267H23.1135C20.4695 31.4267 18.3264 29.2836 18.3264 26.6397V25.4575C18.3264 22.8135 20.4695 20.6704 23.1135 20.6704H132.302C134.946 20.6704 137.089 22.8135 137.089 25.4575V26.6397C137.09 29.2828 134.947 31.4267 132.303 31.4267Z" fill="#080808"/>
<path d="M132.149 31.1926H23.2737C20.6747 31.1926 18.5674 29.0853 18.5674 26.4863V25.5686C18.5674 22.9696 20.6747 20.8623 23.2737 20.8623H132.148C134.747 20.8623 136.854 22.9696 136.854 25.5686V26.4863C136.855 29.0853 134.748 31.1926 132.149 31.1926Z" fill="#050505"/>
<path d="M131.987 30.9598H23.4263C20.8722 30.9598 18.8015 28.8891 18.8015 26.335V25.6819C18.8015 23.1279 20.8722 21.0571 23.4263 21.0571H131.987C134.541 21.0571 136.611 23.1279 136.611 25.6819V26.335C136.611 28.8891 134.541 30.9598 131.987 30.9598Z" fill="#030303"/>
<path d="M131.832 30.7277H23.5866C21.0774 30.7277 19.0425 28.6936 19.0425 26.1836V25.7951C19.0425 23.2859 21.0766 21.251 23.5866 21.251H131.832C134.342 21.251 136.377 23.2851 136.377 25.7951V26.1836C136.376 28.6936 134.342 30.7277 131.832 30.7277Z" fill="black"/>
</g>
<path opacity="0.8452" d="M134.646 25.6983H22.7345C16.8701 25.6983 12.1155 20.9437 12.1155 15.0792V10.6425C12.1155 4.77804 16.8701 0.0234375 22.7345 0.0234375H134.646C140.51 0.0234375 145.265 4.77804 145.265 10.6425V15.0792C145.266 20.9437 140.511 25.6983 134.646 25.6983Z" fill="white"/>
<path opacity="0.8571" d="M134.373 25.525H22.9469C17.0866 25.525 12.3362 20.7746 12.3362 14.9143V10.7088C12.3362 4.84858 17.0866 0.0981445 22.9469 0.0981445H134.373C140.234 0.0981445 144.984 4.84858 144.984 10.7088V14.9143C144.984 20.7738 140.234 25.525 134.373 25.525Z" fill="white"/>
<path opacity="0.869" d="M134.097 25.3538H23.1558C17.3006 25.3538 12.5535 20.6067 12.5535 14.7514V10.7772C12.5535 4.92191 17.3006 0.174805 23.1558 0.174805H134.096C139.952 0.174805 144.699 4.92191 144.699 10.7772V14.7514C144.7 20.6067 139.953 25.3538 134.097 25.3538Z" fill="white"/>
<path opacity="0.881" d="M133.824 25.182H23.368C17.5169 25.182 12.7739 20.4391 12.7739 14.588V10.845C12.7739 4.99393 17.5169 0.250977 23.368 0.250977H133.824C139.675 0.250977 144.418 4.99393 144.418 10.845V14.588C144.418 20.4383 139.675 25.182 133.824 25.182Z" fill="white"/>
<path opacity="0.8929" d="M133.547 25.0103H23.5769C17.7308 25.0103 12.9912 20.2707 12.9912 14.4245V10.9129C12.9912 5.06677 17.7308 0.327148 23.5769 0.327148H133.547C139.393 0.327148 144.132 5.06677 144.132 10.9129V14.4245C144.133 20.2707 139.394 25.0103 133.547 25.0103Z" fill="white"/>
<path opacity="0.9048" d="M133.274 24.8371H23.7893C17.9474 24.8371 13.2119 20.1016 13.2119 14.2597V10.9793C13.2119 5.13732 17.9474 0.401855 23.7893 0.401855H133.274C139.116 0.401855 143.851 5.13732 143.851 10.9793V14.2597C143.851 20.1016 139.116 24.8371 133.274 24.8371Z" fill="white"/>
<path opacity="0.9167" d="M133.001 24.6639H24.0015C18.1645 24.6639 13.4324 19.9317 13.4324 14.0948V11.0457C13.4324 5.20869 18.1645 0.476562 24.0015 0.476562H133.001C138.838 0.476562 143.57 5.20869 143.57 11.0457V14.0948C143.57 19.9317 138.838 24.6639 133.001 24.6639Z" fill="white"/>
<path opacity="0.9286" d="M132.728 24.4941H24.2139C18.381 24.4941 13.6531 19.7661 13.6531 13.9333V11.1155C13.6531 5.28266 18.381 0.554688 24.2139 0.554688H132.728C138.56 0.554688 143.288 5.28266 143.288 11.1155V13.9333C143.288 19.7661 138.56 24.4941 132.728 24.4941Z" fill="white"/>
<path opacity="0.9405" d="M132.451 24.3215H24.4226C18.5948 24.3215 13.8701 19.5968 13.8701 13.769V11.1833C13.8701 5.3555 18.5948 0.630859 24.4226 0.630859H132.451C138.279 0.630859 143.004 5.3555 143.004 11.1833V13.769C143.004 19.5968 138.279 24.3215 132.451 24.3215Z" fill="white"/>
<path opacity="0.9524" d="M132.178 24.1468H24.635C18.8113 24.1468 14.0908 19.4263 14.0908 13.6027V11.2482C14.0908 5.42459 18.8113 0.704102 24.635 0.704102H132.178C138.002 0.704102 142.722 5.42459 142.722 11.2482V13.6027C142.722 19.4263 138.001 24.1468 132.178 24.1468Z" fill="white"/>
<path opacity="0.9643" d="M131.905 23.975H24.8471C19.0284 23.975 14.3113 19.2579 14.3113 13.4392V11.3161C14.3113 5.49743 19.0284 0.780273 24.8471 0.780273H131.905C137.724 0.780273 142.441 5.49743 142.441 11.3161V13.4392C142.441 19.2579 137.724 23.975 131.905 23.975Z" fill="white"/>
<path opacity="0.9762" d="M131.628 23.8053H25.0561C19.2416 23.8053 14.5286 19.0923 14.5286 13.2778V11.3859C14.5286 5.5714 19.2416 0.858398 25.0561 0.858398H131.628C137.443 0.858398 142.156 5.5714 142.156 11.3859V13.2778C142.156 19.0923 137.443 23.8053 131.628 23.8053Z" fill="white"/>
<path opacity="0.9881" d="M131.355 23.632H25.2684C19.4589 23.632 14.7493 18.9224 14.7493 13.1129V11.4523C14.7493 5.64277 19.4589 0.933105 25.2684 0.933105H131.355C137.165 0.933105 141.875 5.64277 141.875 11.4523V13.1129C141.875 18.9224 137.165 23.632 131.355 23.632Z" fill="white"/>
<path d="M131.082 23.4588H25.4806C19.6752 23.4588 14.9697 18.7533 14.9697 12.948V11.5187C14.9697 5.71333 19.6752 1.00781 25.4806 1.00781H131.082C136.887 1.00781 141.593 5.71333 141.593 11.5187V12.948C141.593 18.7533 136.886 23.4588 131.082 23.4588Z" fill="white"/>
<path d="M143.969 47.3806H11.4127C5.36336 47.3806 0.459033 42.4763 0.459033 36.4269V11.4127C0.459033 5.36336 5.36336 0.459033 11.4127 0.459033H143.969C150.018 0.459033 154.923 5.36336 154.923 11.4127V36.4278C154.923 42.4771 150.019 47.3806 143.969 47.3806Z" fill="#ECECEC" stroke="white" stroke-width="0.918065"/>
<path d="M61.195 12.2342C62.9147 12.2342 63.9305 13.3066 63.9305 15.1303C63.9305 16.958 62.918 18.0304 61.195 18.0304H59.2466V12.2334H61.195V12.2342ZM59.9704 17.3798H61.1476C62.4612 17.3798 63.1925 16.5762 63.1925 15.1386C63.1925 13.6885 62.4654 12.8848 61.1476 12.8848H59.9704V17.3798Z" fill="#333333"/>
<path d="M64.9243 15.9422C64.9243 14.6086 65.7039 13.7808 66.8603 13.7808C68.0134 13.7808 68.7929 14.6086 68.7929 15.9422C68.7929 17.2716 68.0134 18.1036 66.8603 18.1036C65.7039 18.1036 64.9243 17.2716 64.9243 15.9422ZM68.0824 15.9422C68.0824 14.958 67.6007 14.3956 66.8611 14.3956C66.1215 14.3956 65.6356 14.958 65.6356 15.9422C65.6356 16.9264 66.1215 17.4888 66.8611 17.4888C67.5999 17.4888 68.0824 16.9264 68.0824 15.9422Z" fill="#333333"/>
<path d="M74.0583 18.0321H73.347L72.4028 14.7983H72.387L71.4469 18.0321H70.7355L69.5667 13.854H70.2613L71.0966 17.2525H71.1124L72.0567 13.854H72.7314L73.6798 17.2525H73.6956L74.5309 13.854H75.2222L74.0583 18.0321Z" fill="#333333"/>
<path d="M76.2057 13.8523H76.8646V14.5195H76.8804C77.1133 14.0694 77.5593 13.7808 78.2057 13.7808C79.1217 13.7808 79.6516 14.3714 79.6516 15.319V18.0304H78.9528V15.443C78.9528 14.7683 78.635 14.3989 77.9927 14.3989C77.3338 14.3989 76.9037 14.8648 76.9037 15.572V18.0304H76.2048V13.8523H76.2057Z" fill="#333333"/>
<path d="M80.9863 12.2349H81.6852V18.0319H80.9863V12.2349Z" fill="#333333"/>
<path d="M82.8359 15.9422C82.8359 14.6086 83.6155 13.7808 84.7719 13.7808C85.925 13.7808 86.7045 14.6086 86.7045 15.9422C86.7045 17.2716 85.925 18.1036 84.7719 18.1036C83.6146 18.1036 82.8359 17.2716 82.8359 15.9422ZM85.9932 15.9422C85.9932 14.958 85.5115 14.3956 84.7719 14.3956C84.0323 14.3956 83.5464 14.958 83.5464 15.9422C83.5464 16.9264 84.0323 17.4888 84.7719 17.4888C85.5115 17.4888 85.9932 16.9264 85.9932 15.9422Z" fill="#333333"/>
<path d="M87.6482 16.8498C87.6482 16.1343 88.199 15.6851 89.1623 15.6285L90.3595 15.5603V15.2109C90.3595 14.7009 90.0218 14.3956 89.4435 14.3956C88.9053 14.3956 88.5675 14.6485 88.4793 15.0586H87.8046C87.8529 14.3357 88.4718 13.7808 89.4594 13.7808C90.4394 13.7808 91.0584 14.3107 91.0584 15.1427V18.0312H90.3953V17.3124H90.3795C90.1307 17.7908 89.6 18.1036 89.0376 18.1036C88.2064 18.1036 87.6482 17.6011 87.6482 16.8498ZM90.3603 16.4438V16.1027L89.2439 16.171C88.6815 16.2067 88.3603 16.4563 88.3603 16.8498C88.3603 17.2475 88.694 17.5087 89.1956 17.5087C89.8537 17.5087 90.3603 17.047 90.3603 16.4438Z" fill="#333333"/>
<path d="M92.155 15.9429C92.155 14.6334 92.8738 13.7815 93.9263 13.7815C94.5244 13.7815 95.007 14.0743 95.2557 14.5327H95.2715V12.2349H95.9704V18.0319H95.3031V17.3247H95.2915C95.0219 17.8064 94.5444 18.1043 93.9421 18.1043C92.878 18.1043 92.155 17.2524 92.155 15.9429ZM92.8697 15.9429C92.8697 16.8913 93.3356 17.4895 94.0752 17.4895C94.794 17.4895 95.2765 16.8788 95.2765 15.9429C95.2765 15.0111 94.7948 14.3963 94.0752 14.3963C93.3364 14.3963 92.8697 14.9986 92.8697 15.9429Z" fill="#333333"/>
<path d="M99.2207 15.9422C99.2207 14.6086 100 13.7808 101.157 13.7808C102.31 13.7808 103.089 14.6086 103.089 15.9422C103.089 17.2716 102.31 18.1036 101.157 18.1036C100 18.1036 99.2207 17.2716 99.2207 15.9422ZM102.379 15.9422C102.379 14.958 101.897 14.3956 101.157 14.3956C100.418 14.3956 99.932 14.958 99.932 15.9422C99.932 16.9264 100.418 17.4888 101.157 17.4888C101.897 17.4888 102.379 16.9264 102.379 15.9422Z" fill="#333333"/>
<path d="M104.2 13.8523H104.859V14.5195H104.875C105.108 14.0694 105.554 13.7808 106.2 13.7808C107.116 13.7808 107.646 14.3714 107.646 15.319V18.0304H106.947V15.443C106.947 14.7683 106.63 14.3989 105.987 14.3989C105.328 14.3989 104.898 14.8648 104.898 15.572V18.0304H104.199V13.8523H104.2Z" fill="#333333"/>
<path d="M111.972 12.8442V13.8526H112.783V14.4274H111.972V16.91C111.972 17.2918 112.132 17.4641 112.49 17.4641C112.571 17.4641 112.731 17.4516 112.78 17.4441V18.0306C112.696 18.0506 112.503 18.0631 112.338 18.0631C111.571 18.0631 111.273 17.7494 111.273 16.9466V14.4274H110.651V13.8526H111.273V12.8442H111.972Z" fill="#333333"/>
<path d="M113.974 12.2349H114.673V14.5211H114.688C114.921 14.0552 115.38 13.7823 116.014 13.7823C116.93 13.7823 117.484 14.4013 117.484 15.333V18.0327H116.785V15.462C116.785 14.7989 116.451 14.4013 115.797 14.4013C115.102 14.4013 114.672 14.8755 114.672 15.5984V18.0327H113.973V12.2349H113.974Z" fill="#333333"/>
<path d="M122.242 16.834C122.121 17.5653 121.414 18.1036 120.502 18.1036C119.305 18.1036 118.578 17.2716 118.578 15.958C118.578 14.6601 119.317 13.7808 120.47 13.7808C121.599 13.7808 122.294 14.6002 122.294 15.8656V16.131H119.297V16.171C119.297 16.9705 119.767 17.4963 120.518 17.4963C121.048 17.4963 121.438 17.2275 121.555 16.8332H122.242V16.834ZM119.301 15.5844H121.571C121.555 14.8856 121.116 14.3873 120.457 14.3873C119.804 14.3873 119.345 14.8898 119.301 15.5844Z" fill="#333333"/>
<path d="M62.8427 22.6724H64.6513L68.5673 33.4553H66.8111L65.8244 30.5409H61.6696L60.6754 33.4553H58.9192L62.8427 22.6724ZM62.118 29.1957H65.3685L63.762 24.4577H63.732L62.118 29.1957Z" fill="#333333"/>
<path d="M70.3254 25.5942H71.9394V26.947H71.9769C72.4477 26.0127 73.3146 25.4453 74.4353 25.4453C76.4378 25.4453 77.7231 27.0144 77.7231 29.5252V29.5327C77.7231 32.036 76.4303 33.6126 74.4577 33.6126C73.3446 33.6126 72.4403 33.0443 71.9769 32.1334H71.9394V36.0718H70.3254V25.5942ZM76.0792 29.5319V29.5244C76.0792 27.8505 75.2797 26.8272 74.0168 26.8272C72.7913 26.8272 71.9319 27.8879 71.9319 29.5244V29.5319C71.9319 31.1608 72.7988 32.2224 74.0168 32.2224C75.2872 32.2224 76.0792 31.1908 76.0792 29.5319Z" fill="#333333"/>
<path d="M79.7361 25.5942H81.3501V26.947H81.3875C81.8584 26.0127 82.7253 25.4453 83.8459 25.4453C85.8484 25.4453 87.1338 27.0144 87.1338 29.5252V29.5327C87.1338 32.036 85.8409 33.6126 83.8684 33.6126C82.7552 33.6126 81.8509 33.0443 81.3875 32.1334H81.3501V36.0718H79.7361V25.5942ZM85.4899 29.5319V29.5244C85.4899 27.8505 84.6903 26.8272 83.4274 26.8272C82.202 26.8272 81.3426 27.8879 81.3426 29.5244V29.5319C81.3426 31.1608 82.2095 32.2224 83.4274 32.2224C84.6978 32.2224 85.4899 31.1908 85.4899 29.5319Z" fill="#333333"/>
<path d="M92.7311 30.5859L92.7236 30.4736H94.3526L94.3676 30.5709C94.5173 31.5651 95.5107 32.1849 96.9533 32.1849C98.3959 32.1849 99.3069 31.5351 99.3069 30.526V30.5185C99.3069 29.6516 98.7162 29.1807 97.2894 28.8671L96.1163 28.6208C94.0015 28.1724 92.9782 27.2007 92.9782 25.6017V25.5942C92.9857 23.7556 94.6072 22.4927 96.8867 22.4927C99.1363 22.4927 100.675 23.7181 100.788 25.5268L100.795 25.6541H99.1663L99.1588 25.5493C99.009 24.5476 98.1421 23.9428 96.8651 23.9428C95.5273 23.9503 94.6754 24.585 94.6754 25.5268V25.5343C94.6754 26.3413 95.2885 26.8346 96.633 27.1258L97.8135 27.3721C100.041 27.843 100.997 28.7473 100.997 30.4137V30.4212C100.997 32.3862 99.4425 33.6342 96.8867 33.6342C94.4649 33.635 92.8659 32.4844 92.7311 30.5859Z" fill="#333333"/>
<path d="M103.524 31.387V26.8811H102.396V25.5958H103.524V23.5483H105.175V25.5958H106.647V26.8811H105.175V31.2896C105.175 32.0891 105.534 32.3279 106.213 32.3279C106.386 32.3279 106.527 32.3129 106.647 32.298V33.5459C106.46 33.5758 106.153 33.6133 105.825 33.6133C104.271 33.6133 103.524 32.956 103.524 31.387Z" fill="#333333"/>
<path d="M108.206 29.5252V29.5102C108.206 26.9994 109.692 25.4453 111.927 25.4453C114.169 25.4453 115.663 26.9919 115.663 29.5102V29.5252C115.663 32.0585 114.184 33.6126 111.934 33.6126C109.677 33.6126 108.206 32.051 108.206 29.5252ZM114.012 29.5252V29.5102C114.012 27.7914 113.19 26.7981 111.927 26.7981C110.686 26.7981 109.857 27.7922 109.857 29.5102V29.5252C109.857 31.2665 110.679 32.2598 111.942 32.2598C113.205 32.2598 114.012 31.259 114.012 29.5252Z" fill="#333333"/>
<path d="M117.677 25.5942H119.291V26.9395H119.329C119.582 26.0202 120.24 25.4453 121.137 25.4453C121.369 25.4453 121.571 25.4828 121.698 25.5052V27.0069C121.571 26.9545 121.287 26.917 120.973 26.917C119.935 26.917 119.292 27.5967 119.292 28.7706V33.4562H117.678V25.5942H117.677Z" fill="#333333"/>
<path d="M122.775 29.5551V29.5477C122.775 27.0892 124.195 25.4453 126.399 25.4453C128.602 25.4453 129.955 27.0293 129.955 29.3904V29.9362H124.388C124.418 31.4229 125.232 32.2898 126.518 32.2898C127.474 32.2898 128.109 31.7964 128.311 31.2066L128.334 31.1467H129.865L129.85 31.229C129.597 32.477 128.386 33.6126 126.48 33.6126C124.172 33.6126 122.775 32.036 122.775 29.5551ZM124.412 28.7931H128.357C128.222 27.4328 127.46 26.7681 126.407 26.7681C125.36 26.7681 124.553 27.4778 124.412 28.7931Z" fill="#333333"/>
<path d="M44.5401 20.5377C43.5334 21.2374 42.8496 21.9395 42.4877 22.645C42.1258 23.3505 41.9444 24.1151 41.9444 24.9371C41.9444 25.5877 42.0517 26.1825 42.2664 26.7224C42.481 27.2624 42.7847 27.7748 43.1774 28.2599C43.5701 28.7449 44.2265 29.2266 45.1474 29.705C44.7914 30.7482 44.2389 31.8123 43.491 32.8988C42.7423 33.9845 42.0642 34.7549 41.4569 35.2092C40.8496 35.6634 40.2697 35.8905 39.7173 35.8905C39.2755 35.8905 38.6799 35.7499 37.9319 35.4671L37.5825 35.3381L37.0118 35.0985C36.6066 34.9762 36.159 34.9146 35.6682 34.9146C35.1649 34.9146 34.6008 35.0253 33.9743 35.2458L33.5326 35.4113L32.9802 35.6326C32.5384 35.8048 32.0966 35.8905 31.6549 35.8905C30.7222 35.8905 29.7222 35.2374 28.654 33.9305C27.5866 32.6235 26.7796 31.2183 26.233 29.715C25.6865 28.2116 25.4136 26.6933 25.4136 25.1592C25.4136 23.1833 25.9751 21.5394 27.0983 20.2257C28.2214 18.9129 29.7455 18.2565 31.6723 18.2565C32.372 18.2565 33.0284 18.3855 33.6416 18.6434L34.065 18.8089L34.5068 18.9928C34.8995 19.1525 35.2123 19.2324 35.4452 19.2324C35.7888 19.2324 36.1324 19.165 36.476 19.0302L37.065 18.8089L37.4885 18.6434C38.1757 18.3855 38.9361 18.2565 39.7714 18.2565C41.7481 18.2557 43.3371 19.0161 44.5401 20.5377ZM39.8645 11.7656C39.8887 12.036 39.9012 12.244 39.9012 12.3913C39.9012 13.1525 39.6799 13.9378 39.2381 14.7473C38.7963 15.5568 38.219 16.1866 37.5076 16.6342C36.7955 17.0826 36.0101 17.3064 35.1516 17.3064C35.1149 17.0119 35.0966 16.7973 35.0966 16.6625C35.0966 16.0119 35.2897 15.328 35.6765 14.6101C36.0634 13.8921 36.5875 13.2814 37.2506 12.7781C37.9136 12.2748 38.6615 11.9561 39.496 11.8205C39.57 11.8089 39.6923 11.7906 39.8645 11.7656Z" fill="#333333"/>
</svg>
