<svg width="40" height="45" viewBox="0 0 40 45" fill="none" xmlns="http://www.w3.org/2000/svg">
<path d="M20.0581 29.0175C24.4345 29.0175 27.9823 32.5953 27.9823 37.0087C27.9823 41.4222 24.4345 45 20.0581 45C15.6817 45 12.1339 41.4222 12.1339 37.0087C12.1339 32.5953 15.6817 29.0175 20.0581 29.0175Z" fill="#002A6A"/>
<path d="M40 2.75463V9.1944C40 9.88119 39.6886 10.5303 39.1547 10.9566L21.7241 24.8726C20.9076 25.5244 19.7523 25.5192 18.9417 24.8599L0.829618 10.1298C0.30499 9.70313 2.95097e-07 9.05996 2.65637e-07 8.38028L0 2.25178C-8.18638e-08 0.363097 2.1699 -0.683362 3.62774 0.502261L18.9272 12.9449C19.7444 13.6096 20.9108 13.6089 21.7273 12.9433L36.3703 1.00672C37.8277 -0.181329 40 0.864759 40 2.75463Z" fill="#002A6A"/>
</svg>
