<svg width="938" height="1090" viewBox="0 0 938 1090" fill="none" xmlns="http://www.w3.org/2000/svg">
<path d="M450.919 702.868C557.813 702.868 644.467 789.53 644.467 896.434C644.467 1003.34 557.813 1090 450.919 1090C344.025 1090 257.371 1003.34 257.371 896.434C257.371 789.53 344.025 702.868 450.919 702.868Z" fill="#002A6A" fill-opacity="0.05"/>
<path d="M938 66.7233V222.709C938 239.344 930.395 255.067 917.353 265.393L491.611 602.469C471.668 618.259 443.45 618.131 423.651 602.162L-18.7366 245.366C-31.5506 235.031 -39 219.452 -39 202.989L-39 54.543C-39 8.79501 13.9999 -16.5526 49.6075 12.1659L423.296 313.555C443.257 329.654 471.746 329.638 491.689 313.516L849.344 24.3849C884.942 -4.39218 938 20.9464 938 66.7233Z" fill="#002A6A" fill-opacity="0.05"/>
</svg>
