<svg width="25" height="25" viewBox="0 0 25 25" fill="none" xmlns="http://www.w3.org/2000/svg">
<path d="M8.66406 9.5H16.6641M8.66406 13.5H14.6641M12.6641 20.5L9.66406 17.5H7.66406C6.86841 17.5 6.10535 17.1839 5.54274 16.6213C4.98013 16.0587 4.66406 15.2956 4.66406 14.5V8.5C4.66406 7.70435 4.98013 6.94129 5.54274 6.37868C6.10535 5.81607 6.86841 5.5 7.66406 5.5H17.6641C18.4597 5.5 19.2228 5.81607 19.7854 6.37868C20.348 6.94129 20.6641 7.70435 20.6641 8.5V14.5C20.6641 15.2956 20.348 16.0587 19.7854 16.6213C19.2228 17.1839 18.4597 17.5 17.6641 17.5H15.6641L12.6641 20.5Z" stroke="#1B1A1F" stroke-width="1.5" stroke-linecap="round" stroke-linejoin="round"/>
</svg>
