<svg width="17" height="17" viewBox="0 0 17 17" fill="none" xmlns="http://www.w3.org/2000/svg">
<path d="M11.9297 8.13281H5.26302C4.52664 8.13281 3.92969 8.72977 3.92969 9.46615V13.4661C3.92969 14.2025 4.52664 14.7995 5.26302 14.7995H11.9297C12.6661 14.7995 13.263 14.2025 13.263 13.4661V9.46615C13.263 8.72977 12.6661 8.13281 11.9297 8.13281Z" stroke="#1B1A1F" stroke-linecap="round" stroke-linejoin="round"/>
<path d="M8.59635 12.1331C8.96454 12.1331 9.26302 11.8347 9.26302 11.4665C9.26302 11.0983 8.96454 10.7998 8.59635 10.7998C8.22816 10.7998 7.92969 11.0983 7.92969 11.4665C7.92969 11.8347 8.22816 12.1331 8.59635 12.1331Z" stroke="#1B1A1F" stroke-linecap="round" stroke-linejoin="round"/>
<path d="M5.92969 8.13314V5.46647C5.92969 4.75923 6.21064 4.08095 6.71074 3.58085C7.21083 3.08076 7.88911 2.7998 8.59635 2.7998C9.3036 2.7998 9.98188 3.08076 10.482 3.58085C10.9821 4.08095 11.263 4.75923 11.263 5.46647V8.13314" stroke="#1B1A1F" stroke-linecap="round" stroke-linejoin="round"/>
</svg>
