<svg width="41" height="40" viewBox="0 0 41 40" fill="none" xmlns="http://www.w3.org/2000/svg">
<rect x="0.578125" width="40" height="40" rx="16" fill="#1B1A1F" fill-opacity="0.8"/>
<path d="M17.5781 19C19.7873 19 21.5781 17.2091 21.5781 15C21.5781 12.7909 19.7873 11 17.5781 11C15.369 11 13.5781 12.7909 13.5781 15C13.5781 17.2091 15.369 19 17.5781 19Z" stroke="white" stroke-width="1.5" stroke-linecap="round" stroke-linejoin="round"/>
<path d="M11.5781 29V27C11.5781 25.9391 11.9996 24.9217 12.7497 24.1716C13.4998 23.4214 14.5173 23 15.5781 23H19.5781C20.639 23 21.6564 23.4214 22.4066 24.1716C23.1567 24.9217 23.5781 25.9391 23.5781 27V29M24.5781 19H30.5781M27.5781 16V22" stroke="white" stroke-width="1.5" stroke-linecap="round" stroke-linejoin="round"/>
</svg>
