<svg width="25" height="24" viewBox="0 0 25 24" fill="none" xmlns="http://www.w3.org/2000/svg">
<path d="M9.39062 17V18C9.39062 18.7956 9.7067 19.5587 10.2693 20.1213C10.8319 20.6839 11.595 21 12.3906 21C13.1863 21 13.9493 20.6839 14.5119 20.1213C15.0746 19.5587 15.3906 18.7956 15.3906 18V17M10.3906 5C10.3906 4.46957 10.6013 3.96086 10.9764 3.58579C11.3515 3.21071 11.8602 3 12.3906 3C12.9211 3 13.4298 3.21071 13.8048 3.58579C14.1799 3.96086 14.3906 4.46957 14.3906 5C15.539 5.54303 16.518 6.38833 17.2227 7.4453C17.9273 8.50227 18.3311 9.73107 18.3906 11V14C18.4659 14.6217 18.6861 15.2171 19.0334 15.7381C19.3808 16.2592 19.8457 16.6914 20.3906 17H4.39062C4.93556 16.6914 5.40043 16.2592 5.74781 15.7381C6.09519 15.2171 6.31537 14.6217 6.39062 14V11C6.45019 9.73107 6.85393 8.50227 7.55857 7.4453C8.26322 6.38833 9.24222 5.54303 10.3906 5Z" stroke="white" stroke-width="1.5" stroke-linecap="round" stroke-linejoin="round"/>
</svg>
