<svg width="21" height="21" viewBox="0 0 21 21" fill="none" xmlns="http://www.w3.org/2000/svg">
<path fill-rule="evenodd" clip-rule="evenodd" d="M1.68457 10.8545C1.68457 7.07523 1.68457 5.1856 2.58514 3.82455C2.98729 3.21677 3.50779 2.69627 4.11556 2.29412C5.47661 1.39355 7.36625 1.39355 11.1455 1.39355C14.9248 1.39355 16.8144 1.39355 18.1755 2.29412C18.7832 2.69627 19.3037 3.21677 19.7059 3.82455C20.6065 5.1856 20.6065 7.07523 20.6065 10.8545C20.6065 14.6338 20.6065 16.5234 19.7059 17.8845C19.3037 18.4922 18.7832 19.0127 18.1755 19.4149C16.8144 20.3154 14.9248 20.3154 11.1455 20.3154C7.36625 20.3154 5.47661 20.3154 4.11556 19.4149C3.50779 19.0127 2.98729 18.4922 2.58514 17.8845C1.68457 16.5234 1.68457 14.6338 1.68457 10.8545ZM16.0433 10.8549C16.0433 13.56 13.8504 15.7529 11.1453 15.7529C8.44013 15.7529 6.2472 13.56 6.2472 10.8549C6.2472 8.14975 8.44013 5.95682 11.1453 5.95682C13.8504 5.95682 16.0433 8.14975 16.0433 10.8549ZM11.1453 14.0958C12.9352 14.0958 14.3862 12.6448 14.3862 10.8549C14.3862 9.06496 12.9352 7.61396 11.1453 7.61396C9.35535 7.61396 7.90435 9.06496 7.90435 10.8549C7.90435 12.6448 9.35535 14.0958 11.1453 14.0958ZM16.236 6.86115C16.8716 6.86115 17.3869 6.34587 17.3869 5.71025C17.3869 5.07463 16.8716 4.55936 16.236 4.55936C15.6004 4.55936 15.0851 5.07463 15.0851 5.71025C15.0851 6.34587 15.6004 6.86115 16.236 6.86115Z" fill="white"/>
</svg>
