<svg width="21" height="20" viewBox="0 0 21 20" fill="none" xmlns="http://www.w3.org/2000/svg">
<path d="M1.78247 3.46247C1.78247 2.8557 1.99556 2.35512 2.42172 1.96073C2.84789 1.56633 3.40192 1.36914 4.08378 1.36914C4.75348 1.36914 5.29531 1.56329 5.70931 1.95163C6.13547 2.3521 6.34857 2.8739 6.34857 3.51708C6.34857 4.09957 6.14157 4.58497 5.72758 4.97331C5.30141 5.37377 4.7413 5.574 4.04725 5.574H4.02899C3.35929 5.574 2.81746 5.37377 2.40346 4.97331C1.98946 4.57285 1.78247 4.06923 1.78247 3.46247ZM2.01991 19.39V7.23047H6.0746V19.39H2.01991ZM8.32112 19.39H12.3758V12.6003C12.3758 12.1756 12.4245 11.8479 12.5219 11.6174C12.6924 11.2048 12.9511 10.8559 13.2982 10.5707C13.6452 10.2855 14.0805 10.1429 14.6041 10.1429C15.9678 10.1429 16.6497 11.0591 16.6497 12.8916V19.39H20.7044V12.4183C20.7044 10.6223 20.2782 9.26009 19.4259 8.33174C18.5735 7.40339 17.4472 6.93922 16.0469 6.93922C14.4762 6.93922 13.2525 7.61273 12.3758 8.95974V8.99615H12.3575L12.3758 8.95974V7.23047H8.32112C8.34546 7.61879 8.35765 8.82624 8.35765 10.8528C8.35765 12.8794 8.34546 15.7251 8.32112 19.39Z" fill="white"/>
</svg>
