<svg width="218" height="54" viewBox="0 0 218 54" fill="none" xmlns="http://www.w3.org/2000/svg">
<path d="M24.2734 34.821C29.5696 34.821 33.8629 39.1143 33.8629 44.4105C33.8629 49.7066 29.5696 54 24.2734 54C18.9773 54 14.6839 49.7066 14.6839 44.4105C14.6839 39.1143 18.9773 34.821 24.2734 34.821Z" fill="white"/>
<path d="M48.4063 3.30556V11.0333C48.4063 11.8574 48.0294 12.6363 47.3833 13.1479L26.2895 29.8471C25.3015 30.6293 23.9034 30.623 22.9224 29.8319L1.00397 12.1558C0.369085 11.6438 3.57114e-07 10.8719 3.21463e-07 10.0563L0 2.70213C-9.9068e-08 0.435716 2.62592 -0.820035 4.39013 0.602713L22.9049 15.5339C23.8938 16.3315 25.3053 16.3307 26.2934 15.532L44.0137 1.20806C45.7774 -0.217594 48.4063 1.03771 48.4063 3.30556Z" fill="white"/>
<path d="M67.7937 47.2716C63.9726 47.2716 60.7577 46.4265 58.149 44.7364C55.5403 43.0095 53.7032 40.6764 52.6377 37.7371L59.141 33.9343C60.6474 37.8657 63.6051 39.8314 68.0142 39.8314C70.1452 39.8314 71.7067 39.4456 72.6987 38.674C73.6908 37.9024 74.1868 36.9288 74.1868 35.753C74.1868 34.3936 73.5805 33.3464 72.3681 32.6116C71.1556 31.84 68.9878 31.0133 65.8648 30.1315C64.1379 29.6172 62.6682 29.1028 61.4558 28.5884C60.28 28.074 59.0859 27.3943 57.8734 26.5492C56.6977 25.6674 55.7975 24.5652 55.1729 23.2425C54.5483 21.9198 54.236 20.3766 54.236 18.613C54.236 15.1225 55.4668 12.3485 57.9285 10.291C60.427 8.1967 63.4214 7.14956 66.9119 7.14956C70.035 7.14956 72.7722 7.92114 75.1237 9.46429C77.5119 10.9707 79.3674 13.0834 80.6901 15.8022L74.297 19.4948C72.7538 16.188 70.2921 14.5347 66.9119 14.5347C65.332 14.5347 64.0828 14.9021 63.1642 15.6369C62.2824 16.335 61.8415 17.2535 61.8415 18.3925C61.8415 19.605 62.3376 20.597 63.3296 21.3686C64.3584 22.1035 66.3057 22.9118 69.1715 23.7936C70.3473 24.161 71.2291 24.4549 71.8169 24.6754C72.4415 24.8591 73.2682 25.1714 74.297 25.6123C75.3625 26.0165 76.1708 26.4022 76.722 26.7697C77.3098 27.1371 77.9712 27.6331 78.706 28.2577C79.4409 28.8823 79.992 29.5253 80.3594 30.1867C80.7636 30.848 81.0942 31.6563 81.3514 32.6116C81.6454 33.5302 81.7923 34.5406 81.7923 35.6428C81.7923 39.2068 80.488 42.0359 77.8793 44.1302C75.3074 46.2244 71.9455 47.2716 67.7937 47.2716ZM109.074 46.5H100.807L90.7761 33.9894V46.5H83.6666V7.92114H90.7761V31.0685L100.255 18.9437H108.743L97.6652 32.5565L109.074 46.5ZM109.867 46.5V6.26776H116.976V46.5H109.867ZM120.728 46.5V6.26776H127.837V46.5H120.728ZM155.067 43.083C152.238 45.8754 148.784 47.2716 144.706 47.2716C140.627 47.2716 137.174 45.8754 134.344 43.083C131.552 40.2539 130.156 36.8002 130.156 32.7218C130.156 28.6435 131.552 25.2081 134.344 22.4158C137.174 19.5867 140.627 18.1721 144.706 18.1721C148.784 18.1721 152.238 19.5867 155.067 22.4158C157.896 25.2081 159.31 28.6435 159.31 32.7218C159.31 36.8002 157.896 40.2539 155.067 43.083ZM139.36 38.178C140.793 39.6109 142.575 40.3274 144.706 40.3274C146.837 40.3274 148.619 39.6109 150.052 38.178C151.484 36.7451 152.201 34.9263 152.201 32.7218C152.201 30.5173 151.484 28.6986 150.052 27.2657C148.619 25.8328 146.837 25.1163 144.706 25.1163C142.575 25.1163 140.793 25.8328 139.36 27.2657C137.963 28.6986 137.265 30.5173 137.265 32.7218C137.265 34.9263 137.963 36.7451 139.36 38.178ZM176.878 18.1721C179.89 18.1721 182.37 19.1825 184.318 21.2033C186.302 23.2241 187.294 26.0165 187.294 29.5804V46.5H180.184V30.4622C180.184 28.6251 179.688 27.2289 178.696 26.2737C177.704 25.2816 176.382 24.7856 174.728 24.7856C172.891 24.7856 171.421 25.3551 170.319 26.4941C169.217 27.6331 168.666 29.3416 168.666 31.6196V46.5H161.556V18.9437H168.666V22.03C170.393 19.4581 173.13 18.1721 176.878 18.1721Z" fill="#3572EF"/>
<path d="M194.136 15.6369C192.96 15.6369 191.932 15.2144 191.05 14.3693C190.205 13.4875 189.782 12.4587 189.782 11.283C189.782 10.1073 190.205 9.0785 191.05 8.1967C191.932 7.3149 192.96 6.874 194.136 6.874C195.349 6.874 196.377 7.3149 197.222 8.1967C198.104 9.0785 198.545 10.1073 198.545 11.283C198.545 12.4587 198.104 13.4875 197.222 14.3693C196.377 15.2144 195.349 15.6369 194.136 15.6369ZM190.609 46.5V18.9437H197.718V46.5H190.609ZM217.232 25.7776H211.004V37.2411C211.004 38.1964 211.243 38.8945 211.721 39.3354C212.198 39.7763 212.897 40.0334 213.815 40.1069C214.734 40.1437 215.873 40.1253 217.232 40.0518V46.5C212.345 47.0511 208.892 46.5919 206.871 45.1222C204.887 43.6525 203.895 41.0255 203.895 37.2411V25.7776H199.1V18.9437H203.895V13.3773L211.004 11.2279V18.9437H217.232V25.7776Z" fill="white"/>
<circle cx="104.36" cy="12.0735" r="4.36308" fill="white"/>
<path d="M108.745 18.7329H100.248L89.57 32.2814L100.822 46.2892H109.089L97.7221 32.2814L108.745 18.7329Z" fill="#3572EF"/>
</svg>
