<svg width="17" height="17" viewBox="0 0 17 17" fill="none" xmlns="http://www.w3.org/2000/svg">
<path fill-rule="evenodd" clip-rule="evenodd" d="M16.192 8.96484C16.192 13.3831 12.6103 16.9648 8.19202 16.9648C3.77374 16.9648 0.192017 13.3831 0.192017 8.96484C0.192017 4.54657 3.77374 0.964844 8.19202 0.964844C12.6103 0.964844 16.192 4.54657 16.192 8.96484ZM8.4787 6.8708C7.70058 7.19444 6.14544 7.86431 3.81328 8.88039C3.43457 9.03099 3.23619 9.17832 3.21813 9.32238C3.18761 9.56584 3.49249 9.66171 3.90766 9.79226C3.96414 9.81002 4.02265 9.82842 4.08264 9.84792C4.49111 9.98069 5.04057 10.136 5.32621 10.1422C5.58531 10.1478 5.8745 10.041 6.19378 9.82174C8.37279 8.35084 9.4976 7.60738 9.56822 7.59136C9.61804 7.58005 9.68708 7.56583 9.73386 7.60741C9.78064 7.64898 9.77604 7.72772 9.77108 7.74885C9.74088 7.8776 8.5441 8.99024 7.92476 9.56603C7.73169 9.74553 7.59473 9.87286 7.56674 9.90193C7.50402 9.96707 7.4401 10.0287 7.37867 10.0879C6.99919 10.4537 6.71462 10.7281 7.39443 11.176C7.72111 11.3913 7.98253 11.5693 8.24332 11.7469C8.52814 11.9409 8.81221 12.1344 9.17976 12.3753C9.2734 12.4367 9.36284 12.5004 9.44994 12.5625C9.7814 12.7988 10.0792 13.0111 10.4471 12.9773C10.6608 12.9576 10.8817 12.7566 10.9938 12.1571C11.2588 10.7403 11.7798 7.67048 11.9002 6.40549C11.9107 6.29466 11.8974 6.15282 11.8868 6.09056C11.8761 6.0283 11.8539 5.93958 11.7729 5.87391C11.6771 5.79613 11.5291 5.77973 11.4629 5.7809C11.162 5.7862 10.7004 5.94672 8.4787 6.8708Z" fill="white"/>
</svg>
