<svg width="25" height="24" viewBox="0 0 25 24" fill="none" xmlns="http://www.w3.org/2000/svg">
<path d="M6.45312 15C8.10998 15 9.45312 13.6569 9.45312 12C9.45312 10.3431 8.10998 9 6.45312 9C4.79627 9 3.45312 10.3431 3.45312 12C3.45312 13.6569 4.79627 15 6.45312 15Z" stroke="#545759" stroke-width="1.5" stroke-linecap="round" stroke-linejoin="round"/>
<path d="M18.4531 9C20.11 9 21.4531 7.65685 21.4531 6C21.4531 4.34315 20.11 3 18.4531 3C16.7963 3 15.4531 4.34315 15.4531 6C15.4531 7.65685 16.7963 9 18.4531 9Z" stroke="#545759" stroke-width="1.5" stroke-linecap="round" stroke-linejoin="round"/>
<path d="M18.4531 21C20.11 21 21.4531 19.6569 21.4531 18C21.4531 16.3431 20.11 15 18.4531 15C16.7963 15 15.4531 16.3431 15.4531 18C15.4531 19.6569 16.7963 21 18.4531 21Z" stroke="#545759" stroke-width="1.5" stroke-linecap="round" stroke-linejoin="round"/>
<path d="M9.15625 10.6998L15.7563 7.2998M9.15625 13.2998L15.7563 16.6998" stroke="#545759" stroke-width="1.5" stroke-linecap="round" stroke-linejoin="round"/>
</svg>
