<svg width="1067" height="571" viewBox="0 0 1067 571" fill="none" xmlns="http://www.w3.org/2000/svg">
<path d="M186 42H997C1033.45 42 1063 71.5492 1063 108V202C1063 238.451 1033.45 268 997 268H70C33.5492 268 4 297.549 4 334V466C4 502.451 33.5492 532 70 532H555.5" stroke="#427DF5" stroke-width="7"/>
<circle cx="189.5" cy="39.5" r="14.5" fill="#427DF5"/>
<g filter="url(#filter0_f_197_2363)">
<circle cx="189.5" cy="39.5" r="14.5" fill="#427DF5"/>
</g>
<circle cx="189.5" cy="39.5" r="8.5" fill="white"/>
<circle cx="189.5" cy="267.5" r="14.5" fill="#427DF5"/>
<g filter="url(#filter1_f_197_2363)">
<circle cx="189.5" cy="267.5" r="14.5" fill="#427DF5"/>
</g>
<circle cx="189.5" cy="267.5" r="8.5" fill="white"/>
<circle cx="189.5" cy="531.5" r="14.5" fill="#427DF5"/>
<g filter="url(#filter2_f_197_2363)">
<circle cx="189.5" cy="531.5" r="14.5" fill="#427DF5"/>
</g>
<circle cx="189.5" cy="531.5" r="8.5" fill="white"/>
<circle cx="555.5" cy="531.5" r="14.5" fill="#427DF5"/>
<g filter="url(#filter3_f_197_2363)">
<circle cx="555.5" cy="531.5" r="14.5" fill="#427DF5"/>
</g>
<circle cx="555.5" cy="531.5" r="8.5" fill="white"/>
<circle cx="555.5" cy="267.5" r="14.5" fill="#427DF5"/>
<g filter="url(#filter4_f_197_2363)">
<circle cx="555.5" cy="267.5" r="14.5" fill="#427DF5"/>
</g>
<circle cx="555.5" cy="267.5" r="8.5" fill="white"/>
<circle cx="928.5" cy="267.5" r="14.5" fill="#427DF5"/>
<g filter="url(#filter5_f_197_2363)">
<circle cx="928.5" cy="267.5" r="14.5" fill="#427DF5"/>
</g>
<circle cx="928.5" cy="267.5" r="8.5" fill="white"/>
<circle cx="555.5" cy="39.5" r="14.5" fill="#427DF5"/>
<g filter="url(#filter6_f_197_2363)">
<circle cx="555.5" cy="39.5" r="14.5" fill="#427DF5"/>
</g>
<circle cx="555.5" cy="39.5" r="8.5" fill="white"/>
<circle cx="928.5" cy="39.5" r="14.5" fill="#427DF5"/>
<g filter="url(#filter7_f_197_2363)">
<circle cx="928.5" cy="39.5" r="14.5" fill="#427DF5"/>
</g>
<circle cx="928.5" cy="39.5" r="8.5" fill="white"/>
<defs>
<filter id="filter0_f_197_2363" x="150.8" y="0.799999" width="77.4" height="77.4" filterUnits="userSpaceOnUse" color-interpolation-filters="sRGB">
<feFlood flood-opacity="0" result="BackgroundImageFix"/>
<feBlend mode="normal" in="SourceGraphic" in2="BackgroundImageFix" result="shape"/>
<feGaussianBlur stdDeviation="12.1" result="effect1_foregroundBlur_197_2363"/>
</filter>
<filter id="filter1_f_197_2363" x="150.8" y="228.8" width="77.4" height="77.4" filterUnits="userSpaceOnUse" color-interpolation-filters="sRGB">
<feFlood flood-opacity="0" result="BackgroundImageFix"/>
<feBlend mode="normal" in="SourceGraphic" in2="BackgroundImageFix" result="shape"/>
<feGaussianBlur stdDeviation="12.1" result="effect1_foregroundBlur_197_2363"/>
</filter>
<filter id="filter2_f_197_2363" x="150.8" y="492.8" width="77.4" height="77.4" filterUnits="userSpaceOnUse" color-interpolation-filters="sRGB">
<feFlood flood-opacity="0" result="BackgroundImageFix"/>
<feBlend mode="normal" in="SourceGraphic" in2="BackgroundImageFix" result="shape"/>
<feGaussianBlur stdDeviation="12.1" result="effect1_foregroundBlur_197_2363"/>
</filter>
<filter id="filter3_f_197_2363" x="516.8" y="492.8" width="77.4" height="77.4" filterUnits="userSpaceOnUse" color-interpolation-filters="sRGB">
<feFlood flood-opacity="0" result="BackgroundImageFix"/>
<feBlend mode="normal" in="SourceGraphic" in2="BackgroundImageFix" result="shape"/>
<feGaussianBlur stdDeviation="12.1" result="effect1_foregroundBlur_197_2363"/>
</filter>
<filter id="filter4_f_197_2363" x="516.8" y="228.8" width="77.4" height="77.4" filterUnits="userSpaceOnUse" color-interpolation-filters="sRGB">
<feFlood flood-opacity="0" result="BackgroundImageFix"/>
<feBlend mode="normal" in="SourceGraphic" in2="BackgroundImageFix" result="shape"/>
<feGaussianBlur stdDeviation="12.1" result="effect1_foregroundBlur_197_2363"/>
</filter>
<filter id="filter5_f_197_2363" x="889.8" y="228.8" width="77.4" height="77.4" filterUnits="userSpaceOnUse" color-interpolation-filters="sRGB">
<feFlood flood-opacity="0" result="BackgroundImageFix"/>
<feBlend mode="normal" in="SourceGraphic" in2="BackgroundImageFix" result="shape"/>
<feGaussianBlur stdDeviation="12.1" result="effect1_foregroundBlur_197_2363"/>
</filter>
<filter id="filter6_f_197_2363" x="516.8" y="0.799999" width="77.4" height="77.4" filterUnits="userSpaceOnUse" color-interpolation-filters="sRGB">
<feFlood flood-opacity="0" result="BackgroundImageFix"/>
<feBlend mode="normal" in="SourceGraphic" in2="BackgroundImageFix" result="shape"/>
<feGaussianBlur stdDeviation="12.1" result="effect1_foregroundBlur_197_2363"/>
</filter>
<filter id="filter7_f_197_2363" x="889.8" y="0.799999" width="77.4" height="77.4" filterUnits="userSpaceOnUse" color-interpolation-filters="sRGB">
<feFlood flood-opacity="0" result="BackgroundImageFix"/>
<feBlend mode="normal" in="SourceGraphic" in2="BackgroundImageFix" result="shape"/>
<feGaussianBlur stdDeviation="12.1" result="effect1_foregroundBlur_197_2363"/>
</filter>
</defs>
</svg>
