<svg width="219" height="245" viewBox="0 0 219 245" fill="none" xmlns="http://www.w3.org/2000/svg">
<path d="M109.874 157.991C133.822 157.991 153.236 177.36 153.236 201.254C153.236 225.148 133.822 244.517 109.874 244.517C85.9249 244.517 66.5107 225.148 66.5107 201.254C66.5107 177.36 85.9249 157.991 109.874 157.991Z" fill="#8BBAFF"/>
<path d="M219 15.8086V50.6723C219 54.3905 217.296 57.9045 214.374 60.2124L118.99 135.551C114.522 139.08 108.2 139.052 103.764 135.483L4.65118 55.7364C1.7803 53.4265 0.11133 49.9445 0.11133 46.2648L0.111328 13.0862C0.111328 2.86125 11.9855 -2.80409 19.9631 3.61466L103.685 70.9771C108.157 74.5753 114.54 74.5717 119.008 70.9684L199.137 6.3457C207.113 -0.0861725 219 5.57715 219 15.8086Z" fill="#8BBAFF"/>
</svg>
