<svg width="17" height="17" viewBox="0 0 17 17" fill="none" xmlns="http://www.w3.org/2000/svg">
<path d="M8.0348 4.86365C6.02648 4.86365 4.39844 6.49193 4.39844 8.4995C4.39844 10.5081 6.02648 12.1364 8.0348 12.1364C10.0431 12.1364 11.6712 10.5081 11.6712 8.4995C11.6712 6.49193 10.0431 4.86365 8.0348 4.86365Z" fill="#ADADAD"/>
<path d="M7.12217 3.48762H8.94726C9.03162 3.48762 9.10973 3.44606 9.15882 3.37679C9.20668 3.30877 9.21802 3.21935 9.18908 3.13999L8.27591 0.668778C8.23809 0.566756 8.14238 0.5 8.03409 0.5C7.92573 0.5 7.83002 0.568015 7.79227 0.668778L6.87911 3.14125C6.85009 3.2206 6.86144 3.30877 6.90929 3.37804C6.95846 3.44732 7.0378 3.48762 7.12217 3.48762Z" fill="#ADADAD"/>
<path d="M12.2219 5.60102C12.2698 5.65014 12.3366 5.67659 12.4033 5.67659C12.4184 5.67659 12.4335 5.67533 12.4486 5.67281C12.5318 5.6577 12.601 5.60353 12.6375 5.52671L13.7406 3.13232C13.7859 3.03408 13.7645 2.91946 13.6889 2.84263C13.6121 2.7658 13.4963 2.74564 13.3981 2.78973L11.0056 3.89434C10.9288 3.92961 10.8747 4.00015 10.8595 4.08327C10.8444 4.1664 10.8721 4.25079 10.93 4.31125L12.2219 5.60102Z" fill="#ADADAD"/>
<path d="M15.8643 8.2574L13.3912 7.34554C13.3119 7.31652 13.2238 7.32787 13.1545 7.37572C13.0852 7.42365 13.0449 7.50169 13.0449 7.58612L13.0462 9.41114C13.0462 9.49558 13.0878 9.57492 13.157 9.62278C13.2011 9.65172 13.2527 9.66809 13.3043 9.66809C13.3346 9.66809 13.3648 9.66307 13.3937 9.65172L15.8668 8.73987C15.9675 8.70329 16.0355 8.60634 16.0355 8.49674C16.033 8.39092 15.9663 8.29522 15.8643 8.2574Z" fill="#ADADAD"/>
<path d="M12.6375 11.4718C12.6201 11.4339 12.5939 11.401 12.561 11.3755C12.528 11.3501 12.4896 11.333 12.4486 11.3256C12.3655 11.3118 12.2799 11.3382 12.2219 11.3974L10.9313 12.6885C10.8721 12.7476 10.8444 12.8333 10.8595 12.9164C10.8746 12.9983 10.9288 13.0701 11.0056 13.1054L13.3993 14.2087C13.4333 14.2251 13.4699 14.2314 13.5076 14.2314C13.5744 14.2314 13.6398 14.2049 13.6889 14.1558C13.7657 14.079 13.7859 13.9643 13.7406 13.8661L12.6375 11.4718Z" fill="#ADADAD"/>
<path d="M8.94498 13.5099L7.11996 13.5111C7.0356 13.5111 6.95749 13.5527 6.90963 13.622C6.86178 13.6912 6.85043 13.7794 6.87814 13.8575L7.79131 16.3312C7.82905 16.432 7.92476 16.5 8.03312 16.5C8.14141 16.5 8.23712 16.432 8.27494 16.3312L9.18811 13.8575C9.21705 13.7781 9.20571 13.69 9.15785 13.6207C9.10876 13.5514 9.03065 13.5099 8.94498 13.5099Z" fill="#ADADAD"/>
<path d="M3.84683 11.3975C3.78766 11.3383 3.70329 11.3118 3.62018 11.3256C3.53707 11.3407 3.46656 11.3949 3.4313 11.4717L2.32825 13.8661C2.28291 13.9644 2.30432 14.0802 2.38113 14.1558C2.41829 14.1931 2.46601 14.2181 2.51781 14.2273C2.56961 14.2365 2.623 14.2296 2.67075 14.2075L5.06448 13.1029C5.10223 13.0855 5.13523 13.0592 5.16066 13.0263C5.18609 12.9934 5.20321 12.9549 5.21054 12.9139C5.22566 12.8308 5.19795 12.7464 5.13877 12.6872L3.84683 11.3975Z" fill="#ADADAD"/>
<path d="M2.76648 9.66941C2.8181 9.66941 2.86973 9.65298 2.9138 9.6228C2.98306 9.57494 3.02461 9.4956 3.02461 9.41116L3.02335 7.58614C3.02336 7.54461 3.01335 7.50374 2.99419 7.46701C2.97502 7.43021 2.94726 7.39858 2.91326 7.37487C2.87927 7.35109 2.84004 7.33596 2.79892 7.33065C2.7578 7.32527 2.71599 7.33 2.67708 7.34425L0.204014 8.25741C0.154494 8.2756 0.111753 8.30854 0.081549 8.35181C0.0513526 8.39501 0.0351562 8.44651 0.0351562 8.49931C0.0351562 8.55203 0.0513526 8.60352 0.081549 8.64672C0.111753 8.69 0.154494 8.72294 0.204014 8.74112L2.67833 9.65298C2.70729 9.66432 2.73625 9.66941 2.76648 9.66941Z" fill="#ADADAD"/>
<path d="M3.43027 5.52674C3.44771 5.56448 3.474 5.59745 3.50691 5.62285C3.53982 5.64824 3.57838 5.66532 3.6193 5.67261C3.66022 5.67991 3.7023 5.67721 3.74195 5.66475C3.78161 5.65229 3.81766 5.63044 3.84707 5.60105L5.13649 4.31003C5.19566 4.24957 5.22211 4.16517 5.207 4.08205C5.19189 4.00018 5.13774 3.92965 5.06093 3.89437L2.66594 2.79102C2.56772 2.74568 2.45314 2.76709 2.37632 2.84392C2.29952 2.92075 2.27937 3.03537 2.3247 3.13362L3.43027 5.52674Z" fill="#ADADAD"/>
</svg>
