<svg width="121" height="31" viewBox="0 0 121 31" fill="none" xmlns="http://www.w3.org/2000/svg">
<path d="M13.4852 19.845C16.4275 19.845 18.8127 22.2302 18.8127 25.1725C18.8127 28.1148 16.4275 30.5 13.4852 30.5C10.5429 30.5 8.15774 28.1148 8.15774 25.1725C8.15774 22.2302 10.5429 19.845 13.4852 19.845Z" fill="#002A6A"/>
<path d="M26.8924 2.33642V6.6296C26.8924 7.08746 26.683 7.52019 26.324 7.80438L14.6053 17.0817C14.0564 17.5163 13.2797 17.5128 12.7347 17.0733L0.55776 7.2532C0.205047 6.96875 1.98397e-07 6.53997 1.7859e-07 6.08685L0 2.00118C-5.50378e-08 0.742064 1.45885 0.0444252 2.43896 0.83484L12.7249 9.12996C13.2744 9.57306 14.0585 9.57261 14.6074 9.12889L24.4521 1.17115C25.4319 0.379114 26.8924 1.07651 26.8924 2.33642Z" fill="#002A6A"/>
<path d="M37.6634 26.4287C35.5406 26.4287 33.7545 25.9592 32.3052 25.0202C30.856 24.0609 29.8354 22.7647 29.2434 21.1317L32.8564 19.0191C33.6933 21.2032 35.3364 22.2952 37.7859 22.2952C38.9698 22.2952 39.8373 22.0809 40.3884 21.6522C40.9396 21.2236 41.2151 20.6826 41.2151 20.0295C41.2151 19.2742 40.8783 18.6925 40.2047 18.2842C39.5311 17.8556 38.3268 17.3963 36.5918 16.9064C35.6324 16.6206 34.8159 16.3349 34.1423 16.0491C33.4891 15.7633 32.8258 15.3857 32.1522 14.9162C31.499 14.4263 30.9989 13.814 30.6519 13.0791C30.3049 12.3443 30.1314 11.487 30.1314 10.5072C30.1314 8.56807 30.8152 7.02696 32.1828 5.88388C33.5708 4.72039 35.2344 4.13864 37.1735 4.13864C38.9086 4.13864 40.4293 4.5673 41.7356 5.42461C43.0624 6.2615 44.0932 7.4352 44.8281 8.94569L41.2764 10.9971C40.4191 9.16002 39.0514 8.24147 37.1735 8.24147C36.2958 8.24147 35.6018 8.4456 35.0915 8.85384C34.6016 9.24167 34.3567 9.75197 34.3567 10.3847C34.3567 11.0583 34.6322 11.6095 35.1833 12.0381C35.7549 12.4464 36.8367 12.8954 38.4289 13.3853C39.0821 13.5894 39.572 13.7527 39.8985 13.8752C40.2455 13.9773 40.7048 14.1508 41.2764 14.3957C41.8683 14.6203 42.3174 14.8346 42.6236 15.0387C42.9502 15.2428 43.3176 15.5184 43.7258 15.8654C44.1341 16.2124 44.4402 16.5696 44.6444 16.937C44.8689 17.3044 45.0526 17.7535 45.1955 18.2842C45.3588 18.7945 45.4404 19.3559 45.4404 19.9682C45.4404 21.9482 44.7158 23.5199 43.2665 24.6834C41.8377 25.8469 39.97 26.4287 37.6634 26.4287ZM60.5967 26H56.0039L50.4314 19.0497V26H46.4817V4.5673H50.4314V17.4269L55.6977 10.6909H60.4129L54.2587 18.2536L60.5967 26ZM61.0373 26V3.64875H64.987V26H61.0373ZM67.0712 26V3.64875H71.0209V26H67.0712ZM86.1484 24.1017C84.5767 25.653 82.658 26.4287 80.3922 26.4287C78.1265 26.4287 76.2078 25.653 74.636 24.1017C73.0847 22.5299 72.309 20.6112 72.309 18.3455C72.309 16.0797 73.0847 14.1712 74.636 12.6199C76.2078 11.0481 78.1265 10.2623 80.3922 10.2623C82.658 10.2623 84.5767 11.0481 86.1484 12.6199C87.7202 14.1712 88.506 16.0797 88.506 18.3455C88.506 20.6112 87.7202 22.5299 86.1484 24.1017ZM77.4223 21.3767C78.2183 22.1727 79.2083 22.5708 80.3922 22.5708C81.5761 22.5708 82.5661 22.1727 83.3622 21.3767C84.1583 20.5806 84.5563 19.5702 84.5563 18.3455C84.5563 17.1207 84.1583 16.1103 83.3622 15.3143C82.5661 14.5182 81.5761 14.1202 80.3922 14.1202C79.2083 14.1202 78.2183 14.5182 77.4223 15.3143C76.6466 16.1103 76.2588 17.1207 76.2588 18.3455C76.2588 19.5702 76.6466 20.5806 77.4223 21.3767ZM98.2656 10.2623C99.9394 10.2623 101.317 10.8236 102.399 11.9463C103.501 13.0689 104.052 14.6203 104.052 16.6002V26H100.103V17.0901C100.103 16.0695 99.8271 15.2939 99.276 14.7631C98.7249 14.212 97.99 13.9365 97.0715 13.9365C96.0509 13.9365 95.2344 14.2528 94.622 14.8856C94.0097 15.5184 93.7035 16.4676 93.7035 17.7331V26H89.7537V10.6909H93.7035V12.4055C94.6628 10.9767 96.1835 10.2623 98.2656 10.2623Z" fill="#3572EF"/>
<path d="M107.854 8.85384C107.2 8.85384 106.629 8.6191 106.139 8.14962C105.67 7.65973 105.435 7.08819 105.435 6.435C105.435 5.78182 105.67 5.21028 106.139 4.72039C106.629 4.2305 107.2 3.98555 107.854 3.98555C108.527 3.98555 109.099 4.2305 109.568 4.72039C110.058 5.21028 110.303 5.78182 110.303 6.435C110.303 7.08819 110.058 7.65973 109.568 8.14962C109.099 8.6191 108.527 8.85384 107.854 8.85384ZM105.894 26V10.6909H109.844V26H105.894ZM120.685 14.4876H117.225V20.8562C117.225 21.3869 117.358 21.7747 117.623 22.0196C117.888 22.2646 118.276 22.4075 118.786 22.4483C119.297 22.4687 119.93 22.4585 120.685 22.4177V26C117.97 26.3062 116.051 26.051 114.929 25.2345C113.826 24.4181 113.275 22.9586 113.275 20.8562V14.4876H110.611V10.6909H113.275V7.59849L117.225 6.40439V10.6909H120.685V14.4876Z" fill="#002A6A"/>
<circle cx="57.9786" cy="7.20763" r="2.42394" fill="#002A6A"/>
<path d="M60.4143 10.9072H55.694L49.7617 18.4342L56.0129 26.2163H60.6056L54.2907 18.4342L60.4143 10.9072Z" fill="#3572EF"/>
</svg>
