<svg width="22" height="32" viewBox="0 0 22 32" fill="none" xmlns="http://www.w3.org/2000/svg">
<path d="M12.3443 22.9745C12.8122 23.221 13.329 23.3507 13.8461 23.4402C14.3645 23.5283 14.8904 23.568 15.4152 23.5673C15.6778 23.5686 15.94 23.5542 16.2013 23.535C16.4626 23.513 16.7225 23.4803 16.981 23.4373C17.2383 23.3899 17.4956 23.3419 17.7474 23.2712C18.0007 23.2103 18.2502 23.1235 18.4923 23.0381C18.727 22.9464 18.9433 22.8078 19.1056 22.6251C19.2677 22.4415 19.3694 22.2119 19.4081 21.9688C19.4471 21.7254 19.4325 21.4717 19.3835 21.2245C19.3333 20.9748 19.2518 20.7394 19.1358 20.5047C19.0151 20.2569 18.9517 19.9557 18.9967 19.6661C19.0184 19.5208 19.0684 19.3787 19.1477 19.2483C19.186 19.1854 19.244 19.1178 19.2974 19.0704L19.4418 18.9396C19.6247 18.7779 19.7031 18.5738 19.6878 18.3395C19.6814 18.2077 19.6577 18.1163 19.6072 18.0184C19.5611 17.9314 19.4684 17.8546 19.4017 17.834L19.072 17.7314L19.3776 17.5696C19.6005 17.4516 19.8521 17.2779 20.033 17.1048C20.1203 17.0171 20.1641 16.9316 20.1595 16.8358C20.1539 16.7348 20.1056 16.6112 20.0467 16.4892C19.9276 16.2399 19.7777 16.0025 19.6524 15.7217C19.5972 15.5871 19.5228 15.3987 19.6056 15.185C19.7015 14.9908 19.8428 14.906 19.9586 14.8181C20.4336 14.4906 20.9325 14.1956 21.0696 13.714C21.14 13.4842 21.0944 13.2437 20.9653 13.0364C20.8342 12.8405 20.6076 12.6392 20.411 12.4448C20.0022 12.055 19.5744 11.6786 19.1488 11.2988L18.508 10.7242C18.2994 10.53 18.0768 10.3035 17.9203 10.0199C17.843 9.87481 17.789 9.7052 17.7746 9.53602C17.7593 9.36641 17.7786 9.20653 17.8007 9.06016C17.8492 8.76389 17.899 8.5119 17.9059 8.23467C17.9283 7.68441 17.8804 7.12706 17.7719 6.58566C17.5556 5.50175 17.068 4.47696 16.339 3.657C15.5917 2.8346 14.6957 2.17318 13.6986 1.67053C11.7115 0.675639 9.35493 0.391321 7.19837 0.973466C6.12153 1.26088 5.09894 1.75379 4.1988 2.42163C3.75216 2.7571 3.32944 3.1373 2.94879 3.54031C2.76367 3.75509 2.55685 3.96125 2.39653 4.186L2.14122 4.51749L1.90937 4.86912C1.74595 5.09852 1.62748 5.3545 1.48577 5.59741C1.37306 5.85427 1.23842 6.10294 1.14985 6.37021C0.942363 6.89323 0.809057 7.44393 0.722032 8.00039C0.553298 9.11619 0.620837 10.2639 0.853566 11.3715C1.08164 12.4826 1.47004 13.5586 1.94857 14.5895C2.42554 15.6232 3.0057 16.6052 3.61709 17.5682C4.21275 18.5432 4.76412 19.5465 5.21674 20.5961C5.32989 20.8583 5.43065 21.1262 5.51612 21.399C5.60093 21.6707 5.66448 21.9564 5.64965 22.2431C5.61776 22.8138 5.62595 23.3833 5.64057 23.9539C5.61577 23.385 5.59739 22.8115 5.61909 22.2429C5.62839 21.9573 5.56151 21.6827 5.47228 21.4128C5.38282 21.1437 5.27786 20.8793 5.16049 20.6202C4.69149 19.5839 4.12307 18.5924 3.51345 17.6336C2.25149 15.739 1.12438 13.6883 0.613972 11.4226C0.356221 10.2966 0.265655 9.11774 0.417781 7.95721C0.491962 7.37794 0.615301 6.80001 0.816586 6.24776C0.90206 5.96565 1.03426 5.70215 1.14586 5.42979C1.28625 5.17204 1.4045 4.8999 1.56814 4.65522L1.80109 4.28011L2.06416 3.91829C2.23688 3.66608 2.42709 3.46768 2.60911 3.24403C3.00924 2.79297 3.42798 2.39174 3.89167 2.01862C4.8186 1.28436 5.88968 0.717711 7.03517 0.378698C8.1811 0.040793 9.39324 -0.0661585 10.5852 0.0385788C11.7788 0.143981 12.9457 0.489636 14.0232 1.01244C14.5618 1.27572 15.0777 1.58728 15.5611 1.94555L15.9178 2.22323L16.2648 2.5288C16.4637 2.71879 16.6977 2.94355 16.8908 3.17671C17.6942 4.10916 18.2181 5.26548 18.4354 6.45634C18.5447 7.05333 18.5875 7.65717 18.5532 8.26722C18.5416 8.57036 18.4732 8.91048 18.428 9.16003C18.3833 9.42796 18.3873 9.55861 18.4723 9.73044C18.6614 10.0892 19.1402 10.4656 19.5501 10.8538C19.9703 11.2395 20.3948 11.6235 20.8111 12.0316L21.1223 12.3458C21.2099 12.4368 21.3477 12.584 21.4431 12.7386C21.6446 13.0528 21.7206 13.5003 21.5935 13.8712C21.4708 14.2448 21.2409 14.5114 20.9777 14.7317C20.9059 14.7953 20.8579 14.8238 20.7976 14.8703L20.6059 15.0014L20.2516 15.2337C20.1397 15.303 20.0569 15.3896 20.0636 15.3829C20.0684 15.3778 20.0605 15.3694 20.0649 15.4018C20.0684 15.4314 20.0839 15.4815 20.1041 15.5344C20.1949 15.7549 20.3459 16.0129 20.4719 16.2893C20.5332 16.4319 20.6079 16.5895 20.6196 16.8216C20.6214 16.9378 20.5957 17.0694 20.5401 17.1739C20.4852 17.2782 20.4214 17.3563 20.3512 17.4241C20.085 17.6615 19.8722 17.7988 19.5602 17.9602L19.5109 17.4166C19.9734 17.5787 20.0946 18.0138 20.101 18.3143C20.1072 18.4867 20.0837 18.6522 20.0142 18.8218C19.9438 18.9881 19.8246 19.1291 19.7135 19.2277L19.5598 19.361C19.5184 19.3973 19.5042 19.4132 19.475 19.4548C19.4263 19.5308 19.3873 19.6256 19.3703 19.7259C19.3357 19.9307 19.3663 20.1408 19.465 20.3579C19.5782 20.5994 19.6721 20.8829 19.7199 21.1594C19.7695 21.4393 19.7821 21.7336 19.7221 22.0252C19.665 22.3158 19.5266 22.6007 19.3182 22.8177C19.1094 23.035 18.8505 23.1831 18.5824 23.2765C18.3191 23.3585 18.0658 23.4349 17.8012 23.4878C17.5401 23.5498 17.2748 23.5885 17.0104 23.6264C16.7449 23.6598 16.4792 23.6824 16.2126 23.6939C15.9462 23.7028 15.6798 23.7068 15.4141 23.6948C14.8826 23.674 14.3536 23.6127 13.8348 23.5029C13.3178 23.3921 12.8018 23.2398 12.3443 22.9745Z" fill="#002A6A"/>
<path d="M8.24421 23.3354L7.88593 17.593L7.90431 17.706C7.87663 17.6141 7.87331 17.5744 7.86689 17.5109C7.86179 17.4529 7.86224 17.3953 7.86733 17.3375C7.87752 17.2221 7.90874 17.1074 7.95701 17.0011C8.05776 16.7894 8.22273 16.6305 8.38814 16.5246C8.46631 16.4726 8.56817 16.4225 8.62708 16.3944L8.8288 16.2976L9.23226 16.1041L9.23359 16.1035L9.0168 16.444V13.2197C9.0168 13.012 9.18509 12.8438 9.3928 12.8438H10.3647C10.5724 12.8438 10.7407 13.012 10.7407 13.2197V16.3105V16.3118L10.6304 16.0457C10.597 16.0162 10.626 16.0434 10.6293 16.0459L10.6627 16.0729L10.742 16.1314L10.9174 16.2494C11.0407 16.3331 11.1495 16.3858 11.3228 16.5164C11.486 16.6247 11.6483 16.8847 11.6689 17.0735C11.7053 17.2662 11.7017 17.4252 11.7008 17.5826C11.6816 18.1993 11.6417 18.7863 11.6131 19.3886L11.4251 22.9816L11.2371 19.3886C11.2033 18.7934 11.18 18.1823 11.1373 17.6017C11.1247 17.4604 11.1076 17.3182 11.0755 17.2188C11.0376 17.1132 11.0219 17.1063 10.9351 17.0481C10.8651 17.0036 10.7002 16.9301 10.5664 16.8607L10.3558 16.7489L10.2467 16.6852L10.1882 16.6477C10.1616 16.6278 10.1603 16.6329 10.0992 16.578C10.0263 16.5124 9.98913 16.4223 9.98869 16.3315V16.3118V16.3105V13.2197L10.3647 13.5957H9.3928L9.7688 13.2197V16.444V16.4464C9.7688 16.5964 9.67978 16.7257 9.55201 16.7848L9.55068 16.7855L9.14346 16.971L8.93974 17.0638C8.90343 17.0797 8.87221 17.0948 8.85228 17.1059C8.82903 17.1183 8.80245 17.1289 8.78385 17.1433C8.69771 17.1958 8.64346 17.2549 8.61246 17.312C8.59895 17.3417 8.58921 17.372 8.58523 17.405C8.58323 17.4214 8.58234 17.4387 8.58345 17.4549C8.58212 17.4657 8.59076 17.5002 8.58412 17.4799L8.60249 17.593L8.24421 23.3354Z" fill="#427DF5"/>
<path d="M8.5127 16.4425L4.90418 9.7127C4.80586 9.52936 4.87473 9.30128 5.05808 9.20297C5.24121 9.10465 5.46951 9.17374 5.56783 9.35686C5.57358 9.36771 5.57912 9.37923 5.58377 9.3903L8.5127 16.4425Z" fill="#002A6A"/>
<path d="M11.1211 16.3097L13.6906 9.31511C13.7624 9.12003 13.9787 9.01994 14.1738 9.09146C14.3691 9.16321 14.4692 9.37955 14.3975 9.57463C14.393 9.58658 14.3879 9.59854 14.3826 9.60961L11.1211 16.3097Z" fill="#002A6A"/>
<path d="M5.50781 9.4221C5.51047 9.42786 5.57779 9.34416 5.76047 9.28725C5.93851 9.2237 6.26047 9.27042 6.51534 9.53171C6.64422 9.6566 6.75937 9.82068 6.85591 10.0122C6.90552 10.1079 6.95113 10.2104 6.97637 10.3333C6.98722 10.3942 6.9952 10.4622 6.96663 10.539C6.94382 10.6218 6.83554 10.6778 6.75693 10.667C6.59772 10.6506 6.48457 10.5554 6.39156 10.4478C6.29989 10.3348 6.237 10.2038 6.21153 10.0428C6.18053 9.71926 6.36632 9.43207 6.5893 9.21063C6.70622 9.10014 6.84418 9.00204 7.01158 8.94248C7.17456 8.88026 7.38824 8.87295 7.56628 8.97082C7.74586 9.06715 7.85481 9.23676 7.92988 9.40129C8.00118 9.57422 8.04635 9.7279 8.0871 9.91191C8.10459 10.002 8.11832 10.095 8.11876 10.1962C8.11389 10.2961 8.11765 10.4104 8.01491 10.5397C7.96176 10.6037 7.85481 10.6464 7.76978 10.6324C7.68475 10.6214 7.62119 10.5833 7.57115 10.5414C7.47173 10.4555 7.41593 10.3435 7.39157 10.2252C7.32469 9.77794 7.53993 9.38512 7.83842 9.09793C7.99276 8.95732 8.18896 8.83331 8.43697 8.81294C8.68985 8.78548 8.94738 8.94669 9.06762 9.13623C9.20291 9.32733 9.25849 9.5295 9.3154 9.72148C9.34242 9.81979 9.36722 9.91988 9.38316 10.0275C9.39224 10.14 9.4239 10.2374 9.35836 10.4159C9.33799 10.4602 9.29326 10.5277 9.20734 10.5574C9.12275 10.5853 9.05145 10.5638 9.00783 10.5443C8.91881 10.5014 8.87496 10.4509 8.83201 10.4017C8.75185 10.3019 8.70047 10.1962 8.66327 10.0844C8.59086 9.8632 8.58754 9.60744 8.68453 9.37959C8.77665 9.15262 8.97151 8.97437 9.15043 8.86852C9.3391 8.75603 9.55256 8.63867 9.83932 8.67455C9.97883 8.69403 10.113 8.77242 10.2016 8.86719C10.293 8.96197 10.3526 9.06759 10.3987 9.171C10.4903 9.37937 10.5302 9.58707 10.5656 9.78879C10.5789 9.89796 10.6053 9.96439 10.6006 10.1269C10.5955 10.1969 10.5798 10.2771 10.5267 10.3574C10.4771 10.4383 10.369 10.5062 10.2634 10.5098C10.0472 10.5131 9.92568 10.3698 9.86301 10.2503C9.79902 10.1234 9.78507 9.99317 9.79038 9.87427C9.82028 9.4097 10.0995 8.99917 10.4957 8.79257C10.6905 8.69226 10.9518 8.62849 11.1996 8.74784C11.4481 8.87361 11.5448 9.12959 11.5763 9.33132C11.6064 9.54367 11.6093 9.7279 11.5805 9.93649C11.5643 10.0383 11.5406 10.1418 11.4864 10.2476C11.4585 10.3001 11.4244 10.3546 11.365 10.4046C11.3103 10.4538 11.2047 10.5011 11.0977 10.471C10.8914 10.3942 10.8703 10.2418 10.84 10.1415C10.819 10.0321 10.8187 9.93007 10.8294 9.83242C10.8553 9.62006 10.9361 9.4438 11.0408 9.28459C11.1469 9.12738 11.2815 8.99252 11.4438 8.89376C11.6037 8.79611 11.8079 8.73765 12.0058 8.78238C12.2036 8.82711 12.3546 8.96108 12.4527 9.09992C12.5557 9.24341 12.6141 9.388 12.6713 9.53282C12.7266 9.67896 12.7702 9.82688 12.7862 9.98299C12.7942 10.1311 12.8094 10.3211 12.6352 10.456C12.5435 10.5186 12.4157 10.4967 12.3477 10.4405C12.2738 10.3867 12.2335 10.3127 12.2087 10.2412C12.1582 10.097 12.181 9.94933 12.1992 9.83419C12.2441 9.58242 12.3557 9.34327 12.5586 9.22082C12.7609 9.09992 12.9828 9.11807 13.1522 9.16458C13.499 9.26511 13.7187 9.43605 13.8869 9.51665C13.9678 9.56382 14.0298 9.59991 14.0714 9.62427C14.1347 9.66169 14.0687 9.64508 14.0776 9.64309C14.0703 9.6422 14.1338 9.66191 14.0687 9.6287C14.0256 9.60744 13.9611 9.576 13.8774 9.53503C13.7063 9.4655 13.4651 9.31471 13.1356 9.23632C12.9726 9.20023 12.7747 9.19978 12.615 9.30851C12.4549 9.41479 12.3666 9.6287 12.3384 9.85079C12.3249 9.97391 12.3176 10.0848 12.359 10.1858C12.3938 10.2881 12.4952 10.3468 12.5344 10.3043C12.588 10.2669 12.6095 10.1294 12.5889 10.0051C12.5718 9.87692 12.5287 9.74274 12.4737 9.61165C12.3663 9.34659 12.2069 9.07069 11.956 9.02242C11.7098 8.97636 11.4334 9.18207 11.2762 9.43782C11.1965 9.56559 11.1391 9.71816 11.1279 9.85589C11.1217 9.93294 11.1267 10.0096 11.1416 10.0742C11.1513 10.1391 11.2042 10.1834 11.1777 10.163C11.1274 10.167 11.1732 10.1654 11.2 10.1003C11.2286 10.0439 11.2481 9.96727 11.2589 9.88844C11.2806 9.73388 11.2744 9.54367 11.2494 9.38734C11.2233 9.22813 11.1522 9.09615 11.0499 9.0501C10.9487 8.99894 10.7933 9.02153 10.6538 9.09704C10.3686 9.24739 10.1608 9.56603 10.1467 9.888C10.1433 9.96395 10.1566 10.0352 10.183 10.0842C10.2065 10.1356 10.2525 10.1511 10.2408 10.1457C10.2133 10.1504 10.2257 10.1697 10.2333 10.1023C10.2392 10.0665 10.214 9.93804 10.1996 9.85146C10.1659 9.66346 10.123 9.47879 10.0548 9.32157C9.98702 9.16037 9.89047 9.0532 9.77975 9.03814C9.66416 9.01511 9.49166 9.08265 9.3464 9.17299C9.18431 9.26821 9.07581 9.37737 9.01292 9.51909C8.95202 9.65748 8.95003 9.82289 8.99831 9.97612C9.022 10.0519 9.05942 10.1258 9.10238 10.1796C9.12209 10.2053 9.14999 10.2255 9.14999 10.2255C9.14999 10.2255 9.13095 10.2153 9.0933 10.2274C9.05499 10.2418 9.04304 10.2675 9.04304 10.2675C9.05056 10.2616 9.05544 10.1548 9.04082 10.0762C9.02909 9.99052 9.00805 9.90084 8.98436 9.8116C8.93409 9.63246 8.88117 9.45465 8.79193 9.33087C8.70357 9.20023 8.58976 9.13446 8.45734 9.14354C8.32337 9.15107 8.17611 9.23012 8.0572 9.33884C7.81672 9.55275 7.6584 9.89353 7.69604 10.1679C7.70468 10.2255 7.73346 10.2819 7.76845 10.3136C7.78506 10.3295 7.80255 10.3362 7.80521 10.3371C7.80831 10.3364 7.79215 10.3424 7.79812 10.3417C7.81119 10.3342 7.83444 10.2615 7.83377 10.1916C7.83599 10.1192 7.8278 10.0406 7.81517 9.9624C7.7545 9.65328 7.66438 9.30674 7.44737 9.1834C7.23368 9.0532 6.93076 9.18583 6.73324 9.36674C6.5324 9.5492 6.37606 9.79787 6.39311 10.0286C6.41216 10.2505 6.58421 10.4936 6.76712 10.5259C6.84418 10.5423 6.86964 10.4613 6.85525 10.3526C6.84063 10.2518 6.80321 10.1493 6.76092 10.0569C6.67854 9.86895 6.57735 9.70753 6.46242 9.5833C6.23479 9.32755 5.94338 9.25824 5.76512 9.30718C5.58509 9.34925 5.50958 9.42808 5.50781 9.4221Z" fill="#427DF5"/>
<path d="M5.40663 25.8945C5.40663 25.8945 5.41659 25.8559 5.43563 25.784C5.4673 25.6708 5.53462 25.518 5.67611 25.3761C5.8165 25.2344 6.00251 25.1389 6.19383 25.0772C6.38847 25.0096 6.59729 24.9698 6.82094 24.9392C7.71111 24.8207 8.85394 24.8739 9.98659 24.9222C11.1203 24.9664 12.2534 25.0309 13.0995 25.0194C13.5189 25.009 13.8819 24.9842 14.0885 24.8526C14.1903 24.7862 14.2313 24.6919 14.2437 24.6279C14.2583 24.5634 14.255 24.5271 14.2568 24.5273C14.2548 24.5273 14.261 24.563 14.2517 24.6294C14.2444 24.6947 14.2103 24.7977 14.1066 24.8779C13.8967 25.0351 13.5282 25.0871 13.1064 25.1321C12.2541 25.2116 11.119 25.2373 9.98592 25.2831C9.41882 25.3052 8.8535 25.3241 8.33069 25.3683C7.80788 25.4109 7.32271 25.4702 6.93166 25.5577C6.73701 25.6015 6.56496 25.6522 6.43785 25.7109C6.30499 25.766 6.2255 25.8296 6.19715 25.8703C6.16792 25.9091 6.16039 25.9436 6.1584 25.9578C6.14866 26.0154 6.14357 26.0461 6.14357 26.0461L6.14246 26.0528C6.10791 26.2578 5.91371 26.3962 5.70866 26.3617C5.50361 26.3271 5.36544 26.1329 5.39976 25.9279C5.40131 25.9164 5.40397 25.9051 5.40663 25.8945Z" fill="#002A6A"/>
<path d="M5.40663 27.08C5.40663 27.08 5.41659 27.0415 5.43563 26.9695C5.4673 26.8564 5.53462 26.7036 5.67611 26.5616C5.8165 26.4199 6.00251 26.3245 6.19383 26.2627C6.38847 26.1952 6.59729 26.1553 6.82094 26.1248C7.71111 26.0063 8.85394 26.0594 9.98659 26.1077C11.1203 26.152 12.2534 26.2164 13.0995 26.2049C13.5189 26.1945 13.8819 26.1697 14.0885 26.0382C14.1903 25.9717 14.2313 25.8774 14.2437 25.8134C14.2583 25.749 14.255 25.7127 14.2568 25.7129C14.2548 25.7129 14.261 25.7485 14.2517 25.815C14.2444 25.8803 14.2103 25.9833 14.1066 26.0634C13.8967 26.2206 13.5282 26.2727 13.1064 26.3176C12.2541 26.3971 11.119 26.4228 9.98592 26.4686C9.41882 26.4908 8.8535 26.5096 8.33069 26.5539C7.80788 26.5964 7.32271 26.6557 6.93166 26.7432C6.73701 26.7871 6.56496 26.8378 6.43785 26.8964C6.30499 26.9516 6.2255 27.0151 6.19715 27.0559C6.16792 27.0946 6.16039 27.1292 6.1584 27.1433C6.14866 27.2009 6.14357 27.2317 6.14357 27.2317L6.14246 27.2381C6.10791 27.4432 5.91371 27.5816 5.70866 27.547C5.50361 27.5125 5.36544 27.3183 5.39976 27.1132C5.40131 27.1019 5.40397 27.0904 5.40663 27.08Z" fill="#002A6A"/>
<path d="M5.40663 28.2636C5.40663 28.2636 5.41659 28.2253 5.43563 28.1531C5.4673 28.04 5.53462 27.8872 5.67611 27.7452C5.8165 27.6035 6.00251 27.5081 6.19383 27.4463C6.38847 27.3788 6.59729 27.3389 6.82094 27.3083C7.71111 27.1899 8.85394 27.243 9.98659 27.2913C11.1203 27.3356 12.2534 27.4 13.0995 27.3885C13.5189 27.3781 13.8819 27.3533 14.0885 27.2218C14.1903 27.1553 14.2313 27.061 14.2437 26.997C14.2583 26.9326 14.255 26.8963 14.2568 26.8965C14.2548 26.8965 14.261 26.9321 14.2517 26.9986C14.2444 27.0639 14.2103 27.1669 14.1066 27.247C13.8967 27.4042 13.5282 27.4563 13.1064 27.5012C12.2541 27.5807 11.119 27.6064 9.98592 27.6522C9.41882 27.6744 8.8535 27.6932 8.33069 27.7375C7.80788 27.78 7.32271 27.8393 6.93166 27.9268C6.73701 27.9707 6.56496 28.0214 6.43785 28.08C6.30499 28.1352 6.2255 28.1987 6.19715 28.2395C6.16792 28.2782 6.16039 28.3128 6.1584 28.3269C6.14866 28.3845 6.14357 28.4153 6.14357 28.4153L6.14246 28.4217C6.10791 28.6268 5.91371 28.7651 5.70866 28.7306C5.50361 28.6961 5.36544 28.5019 5.39976 28.2968C5.40131 28.2855 5.40397 28.2742 5.40663 28.2636Z" fill="#002A6A"/>
<path d="M5.40663 29.4507C5.40663 29.4507 5.41659 29.4124 5.43563 29.3402C5.4673 29.227 5.53462 29.0742 5.67611 28.9323C5.81673 28.7906 6.00273 28.6951 6.19383 28.6334C6.38847 28.5658 6.59729 28.526 6.82094 28.4954C7.71111 28.3769 8.85372 28.4301 9.98636 28.4784C11.1201 28.5226 12.2532 28.5871 13.0993 28.5756C13.5187 28.5652 13.8816 28.5406 14.0882 28.409C14.1903 28.3426 14.2313 28.2483 14.2435 28.1845C14.2581 28.1201 14.2548 28.0838 14.2565 28.084C14.2545 28.0838 14.2607 28.1196 14.2514 28.1861C14.2441 28.2514 14.2098 28.3544 14.1062 28.4343C13.8963 28.5913 13.5278 28.6433 13.106 28.6883C12.2536 28.7678 11.1186 28.7935 9.9857 28.8393C9.41838 28.8614 8.85328 28.8803 8.33047 28.9245C7.80766 28.9671 7.32249 29.0264 6.93143 29.1139C6.73679 29.1577 6.56474 29.2084 6.43763 29.2671C6.30477 29.3222 6.22527 29.3858 6.19715 29.4265C6.16792 29.4653 6.16039 29.4998 6.1584 29.514C6.14866 29.5716 6.14357 29.6023 6.14357 29.6023L6.14246 29.6088C6.10791 29.8138 5.91371 29.9522 5.70866 29.9177C5.50361 29.8831 5.36544 29.6889 5.39976 29.4839C5.40131 29.4726 5.40397 29.4611 5.40663 29.4507Z" fill="#002A6A"/>
<path d="M6.08203 29.764C6.08203 29.764 6.16175 29.8878 6.33978 30.0362C6.51671 30.1881 6.80723 30.3154 7.18434 30.3378C7.375 30.3504 7.57407 30.3366 7.8068 30.3209C8.04373 30.303 8.29351 30.2851 8.55193 30.278C9.06876 30.2529 9.62014 30.2448 10.1715 30.251C10.7229 30.2547 11.2743 30.2813 11.7911 30.3132C11.9204 30.3205 12.0473 30.3267 12.1717 30.3393C12.23 30.3448 12.2876 30.3502 12.3445 30.3557C12.4054 30.3581 12.4656 30.3606 12.5249 30.3628C12.734 30.3637 12.9231 30.3521 13.0863 30.297C13.2448 30.2419 13.3721 30.1544 13.4632 30.0395C13.5524 29.9248 13.6124 29.7961 13.6525 29.6856C13.7331 29.462 13.7683 29.3223 13.7683 29.3223C13.7683 29.3223 13.7723 29.3573 13.7798 29.4228C13.7851 29.4883 13.8013 29.5853 13.7971 29.7118C13.7935 29.8373 13.7853 29.9987 13.7101 30.1781C13.6394 30.3568 13.4904 30.5523 13.276 30.6781C13.0679 30.8074 12.8099 30.8849 12.5473 30.9172C12.4884 30.9241 12.4286 30.9312 12.3679 30.9383C12.3033 30.9425 12.2377 30.9469 12.1717 30.9513C12.0473 30.9615 11.9202 30.9655 11.7911 30.9702C11.2743 30.9923 10.7229 31.0085 10.1715 31.0018C9.62014 30.9976 9.06876 30.979 8.55193 30.9443C8.29351 30.9323 8.04373 30.9097 7.8068 30.8871C7.56588 30.8701 7.31543 30.8351 7.10019 30.7658C6.88164 30.702 6.68854 30.6046 6.5404 30.489C6.38983 30.3756 6.2893 30.2445 6.22375 30.1336C6.1551 30.0238 6.1292 29.9246 6.10728 29.8621C6.09089 29.7981 6.08203 29.764 6.08203 29.764Z" fill="#002A6A"/>
<path d="M11.9652 30.8855C11.9606 30.8844 11.9763 30.9692 11.9316 31.1178C11.8937 31.2621 11.7438 31.4882 11.4716 31.6011C11.3425 31.6612 11.1873 31.697 11.0425 31.7161C10.9087 31.7364 10.7677 31.7557 10.622 31.7708C10.3301 31.8013 10.019 31.8177 9.70768 31.8208C9.39634 31.8239 9.08523 31.8104 8.79359 31.786C8.72074 31.779 8.649 31.7719 8.5788 31.7652C8.47185 31.7533 8.44971 31.7493 8.34275 31.7238C8.16206 31.6822 8.01038 31.5969 7.89412 31.4747C7.77787 31.3549 7.73203 31.211 7.71631 31.1003C7.69815 30.9876 7.71055 30.8948 7.72051 30.8221C7.7462 30.6771 7.77433 30.5996 7.77433 30.5996C7.77433 30.5996 7.80776 30.6736 7.86622 30.8031C7.92202 30.9258 8.02256 31.0965 8.16184 31.1441C8.22672 31.1702 8.32083 31.1758 8.40453 31.1687C8.42955 31.166 8.54559 31.1607 8.5788 31.1516C8.649 31.1432 8.72074 31.1346 8.79359 31.126C9.08545 31.095 9.39656 31.0746 9.70768 31.0706C10.019 31.0666 10.3301 31.0759 10.622 31.0998C10.7679 31.1116 10.909 31.1277 11.0425 31.145C11.1649 31.1638 11.2637 31.1793 11.3607 31.1795C11.5472 31.1784 11.7004 31.1182 11.8053 31.0343C11.9103 30.9541 11.9652 30.8855 11.9652 30.8855Z" fill="#002A6A"/>
</svg>
