<svg width="156" height="48" viewBox="0 0 156 48" fill="none" xmlns="http://www.w3.org/2000/svg">
<path d="M144.335 47.3806H11.7784C5.72909 47.3806 0.824755 42.4763 0.824755 36.4269V11.4127C0.824755 5.36336 5.72909 0.459033 11.7784 0.459033H144.335C150.384 0.459033 155.288 5.36336 155.288 11.4127V36.4278C155.288 42.4771 150.384 47.3806 144.335 47.3806Z" fill="#ECECEC" stroke="white" stroke-width="0.918065"/>
<path d="M61.5064 15.8907C61.5064 16.6062 61.2942 17.1761 60.8699 17.6004C60.3882 18.1054 59.7601 18.3583 58.9881 18.3583C58.2485 18.3583 57.6195 18.102 57.1029 17.5896C56.5854 17.0771 56.3267 16.4415 56.3267 15.6827C56.3267 14.924 56.5854 14.2884 57.1029 13.7759C57.6195 13.2634 58.2485 13.0063 58.9881 13.0063C59.355 13.0063 59.706 13.0779 60.0396 13.221C60.3733 13.3641 60.6412 13.5546 60.8408 13.7934L60.3907 14.2443C60.0513 13.8391 59.5846 13.6361 58.9881 13.6361C58.449 13.6361 57.9822 13.8258 57.5887 14.2044C57.1952 14.5837 56.998 15.0762 56.998 15.6819C56.998 16.2876 57.1944 16.7801 57.5887 17.1594C57.9822 17.5388 58.4481 17.7277 58.9881 17.7277C59.5605 17.7277 60.0372 17.5371 60.419 17.1561C60.6669 16.9074 60.81 16.5621 60.8483 16.1187H58.9881V15.503H61.4706C61.4947 15.6386 61.5064 15.7668 61.5064 15.8907Z" fill="#333333"/>
<path d="M65.4396 13.7505H63.1068V15.3745H65.2108V15.9901H63.1068V17.6141H65.4396V18.2439H62.4487V13.1216H65.4396V13.7505Z" fill="#333333"/>
<path d="M68.2141 18.2447H67.5552V13.7514H66.1243V13.1216H69.6442V13.7514H68.2133V18.2447H68.2141Z" fill="#333333"/>
<path d="M72.1956 18.2439V13.1216H72.8536V18.2439H72.1956Z" fill="#333333"/>
<path d="M75.7718 18.2447H75.1128V13.7514H73.6819V13.1216H77.2019V13.7514H75.7709V18.2447H75.7718Z" fill="#333333"/>
<path d="M83.8671 17.5835C83.3637 18.101 82.7373 18.3598 81.9885 18.3598C81.2397 18.3598 80.6133 18.101 80.1108 17.5835C79.6075 17.0661 79.3562 16.433 79.3562 15.6842C79.3562 14.9354 79.6075 14.3023 80.1108 13.7849C80.6133 13.2674 81.2397 13.0078 81.9885 13.0078C82.7331 13.0078 83.3579 13.2682 83.8637 13.7882C84.3687 14.3082 84.6216 14.9396 84.6216 15.6842C84.6216 16.433 84.3704 17.0661 83.8671 17.5835ZM80.5975 17.1543C80.9769 17.5378 81.4402 17.73 81.9893 17.73C82.5384 17.73 83.0027 17.5386 83.3812 17.1543C83.7606 16.7707 83.9502 16.2799 83.9502 15.6842C83.9502 15.0885 83.7597 14.5977 83.3812 14.2141C83.0027 13.8306 82.5384 13.6384 81.9893 13.6384C81.4402 13.6384 80.9769 13.8298 80.5975 14.2141C80.2189 14.5977 80.0293 15.0885 80.0293 15.6842C80.0293 16.2799 80.2189 16.7707 80.5975 17.1543Z" fill="#333333"/>
<path d="M85.5461 18.2439V13.1216H86.3473L88.8365 17.1066H88.8648L88.8365 16.1191V13.1216H89.4954V18.2439H88.8082L86.2034 14.0658H86.1751L86.2034 15.0534V18.2439H85.5461Z" fill="#333333"/>
<path d="M79.1917 25.7157C78.1801 25.7157 77.2624 26.1034 76.601 26.7573C75.9496 27.4012 75.5469 28.303 75.5469 29.3471C75.5469 30.4511 76.0037 31.4021 76.73 32.0535C77.3789 32.6358 78.2441 32.9786 79.1917 32.9786C80.0827 32.9786 80.9005 32.6749 81.5353 32.155C82.3307 31.5027 82.8373 30.5102 82.8373 29.3471C82.8373 28.4861 82.5628 27.7215 82.1019 27.1192C81.4355 26.249 80.3781 25.7157 79.1917 25.7157ZM79.1917 31.5476C78.091 31.5476 77.1426 30.64 77.1426 29.3471C77.1426 28.0401 78.0919 27.1466 79.1917 27.1466C80.2924 27.1466 81.2408 28.041 81.2408 29.3471C81.2416 30.64 80.2924 31.5476 79.1917 31.5476ZM71.2408 25.7157C70.4879 25.7157 69.7865 25.9303 69.205 26.3097C68.2349 26.942 67.596 28.0318 67.596 29.3471C67.596 30.3929 68.0053 31.3006 68.665 31.947C69.3256 32.5934 70.2366 32.9786 71.2408 32.9786C72.0736 32.9786 72.8423 32.714 73.4571 32.2548C74.3248 31.6067 74.8855 30.5718 74.8855 29.348C74.8855 28.65 74.7058 28.016 74.3922 27.4794C73.7591 26.3979 72.5827 25.7157 71.2408 25.7157ZM71.2408 31.5476C70.1401 31.5476 69.1917 30.64 69.1917 29.3471C69.1917 28.0401 70.1409 27.1466 71.2408 27.1466C72.3414 27.1466 73.2899 28.041 73.2899 29.3471C73.2899 30.64 72.3406 31.5476 71.2408 31.5476ZM61.7815 26.8305V28.3713H63.7125H65.4679C65.358 29.2382 65.0693 29.8704 64.6284 30.3105C64.0918 30.8471 63.2532 31.4387 61.7815 31.4387C59.5119 31.4387 57.7374 29.6092 57.7374 27.3396C57.7374 25.0701 59.5119 23.2406 61.7815 23.2406C63.0053 23.2406 63.8996 23.7223 64.5602 24.3413L65.6467 23.2548C64.7249 22.3746 63.5011 21.7007 61.7815 21.7007C60.7257 21.7007 59.7266 21.9927 58.868 22.5002C57.1991 23.4869 56.0593 25.2872 56.0593 27.3396C56.0593 29.457 57.2715 31.3064 59.0269 32.2706C59.8489 32.7224 60.7898 32.9794 61.7807 32.9794C63.4587 32.9794 64.7241 32.4295 65.7141 31.3979C66.7316 30.3804 67.0486 28.9495 67.0486 27.7939C67.0486 27.4361 67.0211 27.1059 66.9662 26.8313H64.3073H61.7815V26.8305ZM100.465 28.0268C100.162 27.2157 99.2409 25.7165 97.3565 25.7165C96.552 25.7165 95.8049 25.9894 95.2159 26.4719C94.4355 27.1109 93.9314 28.1175 93.9314 29.348C93.9314 31.3838 95.4721 32.9794 97.5354 32.9794C99.1993 32.9794 100.163 31.962 100.561 31.3704L99.3232 30.5451C98.9106 31.15 98.3465 31.5493 97.5354 31.5493C96.7234 31.5493 96.146 31.1783 95.775 30.4486L100.63 28.4403L100.465 28.0268ZM95.5129 29.2373C95.4713 27.8347 96.5994 27.1192 97.4106 27.1192C98.0437 27.1192 98.5795 27.4353 98.7584 27.8896L97.0628 28.5934L95.5129 29.2373ZM91.5653 32.7581H93.161V22.085H91.5653V32.7581ZM88.9522 26.5277H88.8973C88.5395 26.1017 87.8523 25.7165 86.9854 25.7165C86.146 25.7165 85.339 26.0576 84.7134 26.6275C83.9862 27.2897 83.5054 28.2598 83.5054 29.3621C83.5054 30.6342 84.1551 31.7298 85.0861 32.3721C85.6443 32.7573 86.3041 32.9803 86.9846 32.9803C87.8515 32.9803 88.5387 32.5951 88.8964 32.155H88.9513V32.6774C88.9513 34.0668 88.2084 34.8097 87.012 34.8097C86.0353 34.8097 85.4305 34.1084 85.1826 33.5169L83.7932 34.0943C84.1917 35.0568 85.2508 36.2398 87.012 36.2398C88.8831 36.2398 90.4646 35.1392 90.4646 32.457V25.937H88.9513V26.5277H88.9522ZM87.1227 31.5476C86.022 31.5476 85.1011 30.6258 85.1011 29.3605C85.1011 28.0817 86.0229 27.1458 87.1227 27.1458C88.2092 27.1458 89.062 28.0809 89.062 29.3605C89.062 30.6267 88.2092 31.5476 87.1227 31.5476ZM107.938 22.085H104.121V32.7581H105.714V28.714H107.939C108.954 28.714 109.96 28.2914 110.631 27.5451C111.127 26.9936 111.441 26.2648 111.441 25.3995C111.441 24.5468 111.136 23.8263 110.652 23.2772C109.981 22.5168 108.965 22.085 107.938 22.085ZM107.98 27.229H105.714V23.5701H107.98C109.171 23.5701 109.847 24.5559 109.847 25.3995C109.847 26.2273 109.17 27.229 107.98 27.229ZM117.825 25.6965C116.672 25.6965 115.477 26.2049 114.982 27.3305L116.397 27.9212C116.699 27.3305 117.262 27.1383 117.852 27.1383C118.675 27.1383 119.513 27.6325 119.527 28.511V28.6208C119.238 28.4561 118.621 28.209 117.866 28.209C117.21 28.209 116.55 28.3638 116.01 28.6649C115.294 29.0643 114.79 29.7199 114.79 30.6117C114.79 31.3862 115.158 32.011 115.718 32.4212C116.19 32.7673 116.799 32.9595 117.441 32.9595C118.511 32.9595 119.102 32.4786 119.473 31.9162H119.528V32.7398H121.066V30.229V28.6483C121.066 27.5235 120.568 26.6941 119.781 26.2049C119.241 25.8713 118.567 25.6965 117.825 25.6965ZM117.633 31.546C117.111 31.546 116.383 31.2848 116.383 30.64C116.383 29.8164 117.289 29.5002 118.072 29.5002C118.773 29.5002 119.102 29.6516 119.528 29.8571C119.404 30.8455 118.553 31.546 117.633 31.546ZM126.668 25.9295L125.912 27.8455L124.842 30.5568H124.787L122.892 25.9295H121.175L122.546 29.0493L124.018 32.3971L122.397 35.9944H124.059L127.166 28.8538L128.439 25.9287H126.668V25.9295ZM112.318 32.7581H113.911V22.085H112.318V32.7581Z" fill="#333333"/>
<path d="M43.986 20.1964L31.2988 12.7521C30.6499 12.3711 29.8828 12.5891 29.4868 13.124L40.2323 23.9319L43.986 20.1964Z" fill="url(#paint0_linear_640_12278)"/>
<path d="M29.2153 33.8582C29.2153 34.1594 29.3077 34.4281 29.4608 34.6469L40.2287 23.9314L29.4832 13.1235C29.3168 13.3482 29.2153 13.6277 29.2153 13.943V33.8582Z" fill="url(#paint1_linear_640_12278)"/>
<path d="M43.9183 27.6449L48.2669 25.0933C49.1762 24.5592 49.1762 23.2447 48.2669 22.7106L43.9824 20.1973L40.2278 23.9336L43.9183 27.6449Z" fill="url(#paint2_linear_640_12278)"/>
<path d="M29.4631 34.6476C29.8525 35.2051 30.637 35.4388 31.2984 35.0503L43.9216 27.6443L40.2311 23.9321L29.4631 34.6476Z" fill="url(#paint3_linear_640_12278)"/>
<defs>
<linearGradient id="paint0_linear_640_12278" x1="12.2962" y1="-2.42933" x2="38.4653" y2="19.0708" gradientUnits="userSpaceOnUse">
<stop stop-color="#32A071"/>
<stop offset="0.0685" stop-color="#2DA771"/>
<stop offset="0.4762" stop-color="#15CF74"/>
<stop offset="0.8009" stop-color="#06E775"/>
<stop offset="1" stop-color="#00F076"/>
</linearGradient>
<linearGradient id="paint1_linear_640_12278" x1="47.7348" y1="23.7771" x2="28.1945" y2="23.8924" gradientUnits="userSpaceOnUse">
<stop stop-color="#00A0FF"/>
<stop offset="0.00657445" stop-color="#00A1FF"/>
<stop offset="0.2601" stop-color="#00BEFF"/>
<stop offset="0.5122" stop-color="#00D2FF"/>
<stop offset="0.7604" stop-color="#00DFFF"/>
<stop offset="1" stop-color="#00E3FF"/>
</linearGradient>
<linearGradient id="paint2_linear_640_12278" x1="50.4714" y1="24.4326" x2="32.8333" y2="23.0492" gradientUnits="userSpaceOnUse">
<stop stop-color="#FFE000"/>
<stop offset="0.4087" stop-color="#FFBD00"/>
<stop offset="0.7754" stop-color="#FFA500"/>
<stop offset="1" stop-color="#FF9C00"/>
</linearGradient>
<linearGradient id="paint3_linear_640_12278" x1="48.1781" y1="21.7382" x2="14.2275" y2="44.2758" gradientUnits="userSpaceOnUse">
<stop stop-color="#FF3A44"/>
<stop offset="1" stop-color="#C31162"/>
</linearGradient>
</defs>
</svg>
