<svg width="151" height="47" viewBox="0 0 151 47" fill="none" xmlns="http://www.w3.org/2000/svg">
<path d="M139.535 45.737H11.5768C5.73732 45.737 1.00311 41.0028 1.00311 35.1633V11.0168C1.00311 5.17731 5.73732 0.443109 11.5768 0.443109H139.535C145.374 0.443109 150.109 5.17731 150.109 11.0168V35.1641C150.109 41.0036 145.374 45.737 139.535 45.737Z" fill="white" stroke="black" stroke-width="0.886219"/>
<path d="M59.5801 15.34C59.5801 16.0306 59.3753 16.5808 58.9657 16.9903C58.5008 17.4778 57.8944 17.7219 57.1492 17.7219C56.4352 17.7219 55.8281 17.4746 55.3293 16.9799C54.8298 16.4852 54.5801 15.8716 54.5801 15.1392C54.5801 14.4068 54.8298 13.7932 55.3293 13.2985C55.8281 12.8038 56.4352 12.5557 57.1492 12.5557C57.5033 12.5557 57.8422 12.6247 58.1643 12.7629C58.4863 12.901 58.7449 13.0849 58.9376 13.3154L58.5032 13.7507C58.1755 13.3596 57.725 13.1636 57.1492 13.1636C56.6288 13.1636 56.1782 13.3467 55.7984 13.7121C55.4185 14.0783 55.2282 14.5538 55.2282 15.1384C55.2282 15.7231 55.4177 16.1985 55.7984 16.5647C56.1782 16.9309 56.628 17.1132 57.1492 17.1132C57.7017 17.1132 58.1619 16.9293 58.5305 16.5615C58.7698 16.3214 58.9079 15.9881 58.9449 15.56H57.1492V14.9657H59.5456C59.5689 15.0966 59.5801 15.2203 59.5801 15.34Z" fill="#333333"/>
<path d="M63.3787 13.2751H61.1268V14.8427H63.1578V15.437H61.1268V17.0047H63.3787V17.6126H60.4916V12.668H63.3787V13.2751Z" fill="#333333"/>
<path d="M66.0578 17.6114H65.4217V13.274H64.0404V12.666H67.4383V13.274H66.057V17.6114H66.0578Z" fill="#333333"/>
<path d="M69.8973 17.6126V12.668H70.5326V17.6126H69.8973Z" fill="#333333"/>
<path d="M73.3515 17.6114H72.7154V13.274H71.3341V12.666H74.732V13.274H73.3507V17.6114H73.3515Z" fill="#333333"/>
<path d="M81.1647 16.9746C80.6788 17.4741 80.0741 17.7239 79.3513 17.7239C78.6285 17.7239 78.0238 17.4741 77.5387 16.9746C77.0528 16.4751 76.8103 15.8639 76.8103 15.1412C76.8103 14.4184 77.0528 13.8072 77.5387 13.3077C78.0238 12.8082 78.6285 12.5576 79.3513 12.5576C80.0701 12.5576 80.6732 12.809 81.1615 13.3109C81.6489 13.8128 81.8931 14.4224 81.8931 15.1412C81.8931 15.8639 81.6505 16.4751 81.1647 16.9746ZM78.0085 16.5602C78.3747 16.9304 78.8221 17.116 79.3521 17.116C79.8821 17.116 80.3303 16.9313 80.6957 16.5602C81.0619 16.19 81.245 15.7162 81.245 15.1412C81.245 14.5661 81.0611 14.0923 80.6957 13.7221C80.3303 13.3519 79.8821 13.1664 79.3521 13.1664C78.8221 13.1664 78.3747 13.3511 78.0085 13.7221C77.6431 14.0923 77.46 14.5661 77.46 15.1412C77.46 15.7162 77.6431 16.19 78.0085 16.5602Z" fill="#333333"/>
<path d="M82.7854 17.6126V12.668H83.5588L85.9616 16.5148H85.9889L85.9616 15.5615V12.668H86.5977V17.6126H85.9343L83.4198 13.5795H83.3925L83.4198 14.5327V17.6126H82.7854Z" fill="#333333"/>
<path d="M76.6537 24.824C75.6771 24.824 74.7913 25.1982 74.1529 25.8294C73.524 26.451 73.1353 27.3216 73.1353 28.3295C73.1353 29.3952 73.5762 30.3131 74.2773 30.9419C74.9038 31.5041 75.739 31.8349 76.6537 31.8349C77.5138 31.8349 78.3032 31.5418 78.916 31.0399C79.6838 30.4103 80.1728 29.4522 80.1728 28.3295C80.1728 27.4983 79.9078 26.7602 79.4629 26.1788C78.8196 25.3387 77.7989 24.824 76.6537 24.824ZM76.6537 30.4536C75.5912 30.4536 74.6757 29.5775 74.6757 28.3295C74.6757 27.0678 75.592 26.2053 76.6537 26.2053C77.7162 26.2053 78.6317 27.0686 78.6317 28.3295C78.6325 29.5775 77.7162 30.4536 76.6537 30.4536ZM68.9786 24.824C68.2518 24.824 67.5747 25.0312 67.0134 25.3974C66.077 26.0077 65.4602 27.0598 65.4602 28.3295C65.4602 29.3389 65.8553 30.2151 66.4922 30.8391C67.1298 31.4631 68.0092 31.8349 68.9786 31.8349C69.7824 31.8349 70.5245 31.5796 71.118 31.1363C71.9556 30.5106 72.4969 29.5116 72.4969 28.3303C72.4969 27.6565 72.3234 27.0445 72.0206 26.5265C71.4095 25.4825 70.2739 24.824 68.9786 24.824ZM68.9786 30.4536C67.9161 30.4536 67.0005 29.5775 67.0005 28.3295C67.0005 27.0678 67.9169 26.2053 68.9786 26.2053C70.041 26.2053 70.9566 27.0686 70.9566 28.3295C70.9566 29.5775 70.0402 30.4536 68.9786 30.4536ZM59.8474 25.9001V27.3874H61.7114H63.4059C63.2999 28.2242 63.0212 28.8346 62.5956 29.2594C62.0776 29.7774 61.2681 30.3484 59.8474 30.3484C57.6566 30.3484 55.9436 28.5824 55.9436 26.3916C55.9436 24.2008 57.6566 22.4348 59.8474 22.4348C61.0287 22.4348 61.8921 22.8998 62.5297 23.4973L63.5786 22.4484C62.6887 21.5987 61.5074 20.9482 59.8474 20.9482C58.8283 20.9482 57.8638 21.2301 57.035 21.72C55.424 22.6725 54.3237 24.4104 54.3237 26.3916C54.3237 28.4355 55.4938 30.2207 57.1884 31.1515C57.9818 31.5876 58.8901 31.8357 59.8466 31.8357C61.4664 31.8357 62.6879 31.3049 63.6436 30.3091C64.6258 29.3269 64.9318 27.9456 64.9318 26.8301C64.9318 26.4847 64.9053 26.1659 64.8523 25.9009H62.2856H59.8474V25.9001ZM97.1887 27.0549C96.8964 26.2719 96.0074 24.8248 94.1884 24.8248C93.4118 24.8248 92.6906 25.0882 92.122 25.554C91.3687 26.1707 90.882 27.1425 90.882 28.3303C90.882 30.2954 92.3694 31.8357 94.361 31.8357C95.9672 31.8357 96.8972 30.8536 97.2819 30.2826L96.0869 29.4859C95.6885 30.0697 95.144 30.4552 94.361 30.4552C93.5772 30.4552 93.0199 30.0971 92.6617 29.3927L97.3485 27.4541L97.1887 27.0549ZM92.4087 28.2234C92.3686 26.8694 93.4575 26.1788 94.2406 26.1788C94.8517 26.1788 95.3689 26.4839 95.5416 26.9224L93.9049 27.6019L92.4087 28.2234ZM88.598 31.6221H90.1384V21.3193H88.598V31.6221ZM86.0755 25.6078H86.0225C85.6772 25.1966 85.0139 24.8248 84.177 24.8248C83.3667 24.8248 82.5877 25.154 81.9838 25.7041C81.2819 26.3434 80.8177 27.2798 80.8177 28.3439C80.8177 29.5718 81.4449 30.6295 82.3436 31.2495C82.8825 31.6213 83.5193 31.8365 84.1762 31.8365C85.0131 31.8365 85.6764 31.4647 86.0217 31.0399H86.0747V31.5442C86.0747 32.8854 85.3576 33.6025 84.2027 33.6025C83.2599 33.6025 82.6761 32.9255 82.4367 32.3545L81.0956 32.9119C81.4803 33.8411 82.5026 34.9831 84.2027 34.9831C86.0089 34.9831 87.5356 33.9206 87.5356 31.3314V25.0376H86.0747V25.6078H86.0755ZM84.3095 30.4536C83.2471 30.4536 82.358 29.5638 82.358 28.3423C82.358 27.1079 83.2479 26.2045 84.3095 26.2045C85.3584 26.2045 86.1816 27.1071 86.1816 28.3423C86.1816 29.5646 85.3584 30.4536 84.3095 30.4536ZM104.403 21.3193H100.718V31.6221H102.256V27.7183H104.404C105.383 27.7183 106.354 27.3103 107.002 26.59C107.481 26.0575 107.784 25.354 107.784 24.5188C107.784 23.6956 107.49 23.0001 107.023 22.4701C106.374 21.7361 105.394 21.3193 104.403 21.3193ZM104.443 26.2848H102.256V22.7528H104.443C105.593 22.7528 106.246 23.7045 106.246 24.5188C106.245 25.3179 105.592 26.2848 104.443 26.2848ZM113.947 24.8055C112.834 24.8055 111.68 25.2962 111.203 26.3828L112.568 26.953C112.859 26.3828 113.403 26.1972 113.973 26.1972C114.768 26.1972 115.576 26.6743 115.59 27.5223V27.6284C115.311 27.4693 114.715 27.2308 113.986 27.2308C113.353 27.2308 112.716 27.3802 112.194 27.6709C111.504 28.0564 111.017 28.6892 111.017 29.5501C111.017 30.2978 111.372 30.9009 111.913 31.2969C112.369 31.631 112.957 31.8165 113.576 31.8165C114.609 31.8165 115.18 31.3523 115.538 30.8094H115.591V31.6045H117.076V29.1807V27.6549C117.076 26.5691 116.595 25.7684 115.835 25.2962C115.314 24.9741 114.663 24.8055 113.947 24.8055ZM113.761 30.452C113.258 30.452 112.555 30.1999 112.555 29.5775C112.555 28.7824 113.43 28.4772 114.185 28.4772C114.862 28.4772 115.18 28.6234 115.591 28.8217C115.471 29.7758 114.65 30.452 113.761 30.452ZM122.483 25.0304L121.753 26.8799L120.72 29.4971H120.667L118.838 25.0304H117.181L118.504 28.0419L119.925 31.2736L118.361 34.7461H119.964L122.964 27.8532L124.193 25.0296H122.483V25.0304ZM108.631 31.6221H110.169V21.3193H108.631V31.6221Z" fill="#333333"/>
<path d="M42.6653 19.4955L30.4181 12.3094C29.7917 11.9416 29.0513 12.152 28.669 12.6684L39.0417 23.1014L42.6653 19.4955Z" fill="url(#paint0_linear_2_12019)"/>
<path d="M28.4103 32.6834C28.4103 32.9741 28.4995 33.2335 28.6472 33.4447L39.0417 23.1009L28.6689 12.668C28.5083 12.8848 28.4103 13.1546 28.4103 13.459V32.6834Z" fill="url(#paint1_linear_2_12019)"/>
<path d="M42.6034 26.6854L46.8012 24.2223C47.6789 23.7067 47.6789 22.4378 46.8012 21.9222L42.6652 19.4961L39.0409 23.1028L42.6034 26.6854Z" fill="url(#paint2_linear_2_12019)"/>
<path d="M28.6465 33.4454C29.0223 33.9834 29.7797 34.2091 30.4181 33.8341L42.6034 26.685L39.0409 23.1016L28.6465 33.4454Z" fill="url(#paint3_linear_2_12019)"/>
<defs>
<linearGradient id="paint0_linear_2_12019" x1="12.0747" y1="-2.3454" x2="37.336" y2="18.4089" gradientUnits="userSpaceOnUse">
<stop stop-color="#32A071"/>
<stop offset="0.0685" stop-color="#2DA771"/>
<stop offset="0.4762" stop-color="#15CF74"/>
<stop offset="0.8009" stop-color="#06E775"/>
<stop offset="1" stop-color="#00F076"/>
</linearGradient>
<linearGradient id="paint1_linear_2_12019" x1="46.2874" y1="22.952" x2="27.4249" y2="23.0633" gradientUnits="userSpaceOnUse">
<stop stop-color="#00A0FF"/>
<stop offset="0.00657445" stop-color="#00A1FF"/>
<stop offset="0.2601" stop-color="#00BEFF"/>
<stop offset="0.5122" stop-color="#00D2FF"/>
<stop offset="0.7604" stop-color="#00DFFF"/>
<stop offset="1" stop-color="#00E3FF"/>
</linearGradient>
<linearGradient id="paint2_linear_2_12019" x1="48.9292" y1="23.5845" x2="31.9029" y2="22.2491" gradientUnits="userSpaceOnUse">
<stop stop-color="#FFE000"/>
<stop offset="0.4087" stop-color="#FFBD00"/>
<stop offset="0.7754" stop-color="#FFA500"/>
<stop offset="1" stop-color="#FF9C00"/>
</linearGradient>
<linearGradient id="paint3_linear_2_12019" x1="46.7122" y1="20.9837" x2="13.9394" y2="42.7396" gradientUnits="userSpaceOnUse">
<stop stop-color="#FF3A44"/>
<stop offset="1" stop-color="#C31162"/>
</linearGradient>
</defs>
</svg>
