<svg width="156" height="48" viewBox="0 0 156 48" fill="none" xmlns="http://www.w3.org/2000/svg">
<path d="M144.334 47.3806H11.7779C5.7286 47.3806 0.824267 42.4763 0.824267 36.4269V11.4127C0.824267 5.36336 5.7286 0.459033 11.7779 0.459033H144.334C150.384 0.459033 155.288 5.36336 155.288 11.4127V36.4278C155.288 42.4771 150.384 47.3806 144.334 47.3806Z" fill="#ECECEC" stroke="white" stroke-width="0.918065"/>
<path d="M61.5059 15.8912C61.5059 16.6067 61.2937 17.1766 60.8694 17.6009C60.3877 18.1059 59.7596 18.3588 58.9876 18.3588C58.248 18.3588 57.619 18.1025 57.1024 17.5901C56.5849 17.0776 56.3262 16.442 56.3262 15.6832C56.3262 14.9245 56.5849 14.2889 57.1024 13.7764C57.619 13.2639 58.248 13.0068 58.9876 13.0068C59.3545 13.0068 59.7055 13.0784 60.0392 13.2215C60.3728 13.3646 60.6407 13.5551 60.8403 13.7939L60.3902 14.2448C60.0508 13.8396 59.5841 13.6366 58.9876 13.6366C58.4485 13.6366 57.9817 13.8263 57.5882 14.2048C57.1947 14.5842 56.9975 15.0767 56.9975 15.6824C56.9975 16.288 57.1939 16.7806 57.5882 17.1599C57.9817 17.5393 58.4476 17.7282 58.9876 17.7282C59.56 17.7282 60.0367 17.5376 60.4185 17.1566C60.6665 16.9079 60.8095 16.5626 60.8478 16.1192H58.9876V15.5035H61.4701C61.4942 15.6391 61.5059 15.7672 61.5059 15.8912Z" fill="#333333"/>
<path d="M65.4401 13.751H63.1073V15.375H65.2113V15.9906H63.1073V17.6146H65.4401V18.2444H62.4492V13.1221H65.4401V13.751Z" fill="#333333"/>
<path d="M68.2129 18.2452H67.554V13.7519H66.123V13.1221H69.643V13.7519H68.2121V18.2452H68.2129Z" fill="#333333"/>
<path d="M72.1953 18.2444V13.1221H72.8534V18.2444H72.1953Z" fill="#333333"/>
<path d="M75.7715 18.2452H75.1126V13.7519H73.6816V13.1221H77.2016V13.7519H75.7707V18.2452H75.7715Z" fill="#333333"/>
<path d="M83.8663 17.5845C83.363 18.102 82.7365 18.3607 81.9878 18.3607C81.239 18.3607 80.6126 18.102 80.1101 17.5845C79.6067 17.067 79.3555 16.4339 79.3555 15.6852C79.3555 14.9364 79.6067 14.3033 80.1101 13.7858C80.6126 13.2684 81.239 13.0088 81.9878 13.0088C82.7324 13.0088 83.3572 13.2692 83.863 13.7892C84.368 14.3091 84.6209 14.9406 84.6209 15.6852C84.6209 16.4339 84.3697 17.067 83.8663 17.5845ZM80.5968 17.1552C80.9761 17.5388 81.4395 17.7309 81.9886 17.7309C82.5377 17.7309 83.0019 17.5396 83.3805 17.1552C83.7598 16.7717 83.9495 16.2809 83.9495 15.6852C83.9495 15.0895 83.759 14.5986 83.3805 14.2151C83.0019 13.8316 82.5377 13.6394 81.9886 13.6394C81.4395 13.6394 80.9761 13.8308 80.5968 14.2151C80.2182 14.5986 80.0285 15.0895 80.0285 15.6852C80.0285 16.2809 80.2182 16.7717 80.5968 17.1552Z" fill="#333333"/>
<path d="M85.5449 18.2444V13.1221H86.3461L88.8353 17.1071H88.8636L88.8353 16.1196V13.1221H89.4942V18.2444H88.807L86.2022 14.0663H86.1739L86.2022 15.0539V18.2444H85.5449Z" fill="#333333"/>
<path d="M79.191 25.7162C78.1793 25.7162 77.2617 26.1039 76.6003 26.7578C75.9489 27.4017 75.5462 28.3035 75.5462 29.3476C75.5462 30.4516 76.003 31.4025 76.7292 32.054C77.3782 32.6363 78.2434 32.9791 79.191 32.9791C80.082 32.9791 80.8998 32.6754 81.5346 32.1555C82.3299 31.5032 82.8366 30.5107 82.8366 29.3476C82.8366 28.4866 82.562 27.722 82.1011 27.1197C81.4347 26.2494 80.3773 25.7162 79.191 25.7162ZM79.191 31.5481C78.0903 31.5481 77.1419 30.6405 77.1419 29.3476C77.1419 28.0406 78.0911 27.1471 79.191 27.1471C80.2916 27.1471 81.2401 28.0415 81.2401 29.3476C81.2409 30.6405 80.2916 31.5481 79.191 31.5481ZM71.24 25.7162C70.4871 25.7162 69.7858 25.9308 69.2042 26.3102C68.2342 26.9425 67.5953 28.0323 67.5953 29.3476C67.5953 30.3934 68.0046 31.3011 68.6643 31.9475C69.3249 32.5939 70.2359 32.9791 71.24 32.9791C72.0728 32.9791 72.8415 32.7145 73.4563 32.2553C74.3241 31.6072 74.8848 30.5723 74.8848 29.3485C74.8848 28.6505 74.7051 28.0165 74.3915 27.4799C73.7583 26.3984 72.582 25.7162 71.24 25.7162ZM71.24 31.5481C70.1394 31.5481 69.1909 30.6405 69.1909 29.3476C69.1909 28.0406 70.1402 27.1471 71.24 27.1471C72.3407 27.1471 73.2891 28.0415 73.2891 29.3476C73.2891 30.6405 72.3399 31.5481 71.24 31.5481ZM61.7808 26.831V28.3717H63.7117H65.4671C65.3573 29.2386 65.0686 29.8709 64.6277 30.311C64.0911 30.8476 63.2525 31.4391 61.7808 31.4391C59.5112 31.4391 57.7367 29.6097 57.7367 27.3401C57.7367 25.0706 59.5112 23.2411 61.7808 23.2411C63.0045 23.2411 63.8989 23.7228 64.5595 24.3418L65.646 23.2553C64.7242 22.3751 63.5004 21.7012 61.7808 21.7012C60.725 21.7012 59.7258 21.9932 58.8673 22.5007C57.1984 23.4874 56.0586 25.2877 56.0586 27.3401C56.0586 29.4574 57.2708 31.3069 59.0262 32.2711C59.8481 32.7228 60.7891 32.9799 61.7799 32.9799C63.458 32.9799 64.7234 32.43 65.7134 31.3984C66.7309 30.3809 67.0478 28.95 67.0478 27.7944C67.0478 27.4366 67.0204 27.1064 66.9655 26.8318H64.3066H61.7808V26.831ZM100.464 28.0273C100.161 27.2162 99.2402 25.717 97.3558 25.717C96.5513 25.717 95.8042 25.9899 95.2152 26.4724C94.4348 27.1113 93.9307 28.118 93.9307 29.3485C93.9307 31.3842 95.4714 32.9799 97.5346 32.9799C99.1985 32.9799 100.162 31.9625 100.56 31.3709L99.3225 30.5456C98.9099 31.1505 98.3458 31.5498 97.5346 31.5498C96.7227 31.5498 96.1453 31.1788 95.7742 30.4491L100.63 28.4408L100.464 28.0273ZM95.5122 29.2378C95.4706 27.8351 96.5987 27.1197 97.4099 27.1197C98.043 27.1197 98.5788 27.4358 98.7576 27.8901L97.0621 28.5939L95.5122 29.2378ZM91.5646 32.7586H93.1603V22.0855H91.5646V32.7586ZM88.9514 26.5281H88.8965C88.5388 26.1022 87.8516 25.717 86.9847 25.717C86.1453 25.717 85.3383 26.0581 84.7126 26.628C83.9855 27.2902 83.5046 28.2603 83.5046 29.3626C83.5046 30.6347 84.1544 31.7303 85.0854 32.3726C85.6436 32.7578 86.3033 32.9808 86.9839 32.9808C87.8508 32.9808 88.5379 32.5956 88.8957 32.1555H88.9506V32.6779C88.9506 34.0673 88.2077 34.8102 87.0113 34.8102C86.0346 34.8102 85.4298 34.1089 85.1819 33.5174L83.7925 34.0947C84.191 35.0573 85.2501 36.2403 87.0113 36.2403C88.8824 36.2403 90.4639 35.1397 90.4639 32.4575V25.9375H88.9506V26.5281H88.9514ZM87.122 31.5481C86.0213 31.5481 85.1003 30.6263 85.1003 29.3609C85.1003 28.0822 86.0221 27.1463 87.122 27.1463C88.2085 27.1463 89.0612 28.0814 89.0612 29.3609C89.0612 30.6272 88.2085 31.5481 87.122 31.5481ZM107.937 22.0855H104.12V32.7586H105.714V28.7145H107.938C108.953 28.7145 109.959 28.2919 110.63 27.5456C111.126 26.994 111.44 26.2653 111.44 25.4C111.44 24.5473 111.135 23.8268 110.651 23.2777C109.98 22.5173 108.964 22.0855 107.937 22.0855ZM107.979 27.2295H105.714V23.5706H107.979C109.17 23.5706 109.847 24.5564 109.847 25.4C109.846 26.2278 109.169 27.2295 107.979 27.2295ZM117.824 25.697C116.671 25.697 115.476 26.2053 114.981 27.331L116.396 27.9217C116.698 27.331 117.261 27.1388 117.851 27.1388C118.675 27.1388 119.512 27.633 119.526 28.5115V28.6213C119.238 28.4566 118.62 28.2095 117.865 28.2095C117.209 28.2095 116.549 28.3643 116.009 28.6654C115.293 29.0648 114.789 29.7203 114.789 30.6122C114.789 31.3867 115.157 32.0115 115.717 32.4217C116.189 32.7678 116.798 32.96 117.44 32.96C118.511 32.96 119.101 32.4791 119.472 31.9167H119.527V32.7403H121.066V30.2295V28.6488C121.066 27.524 120.567 26.6945 119.78 26.2054C119.24 25.8717 118.566 25.697 117.824 25.697ZM117.632 31.5465C117.11 31.5465 116.382 31.2852 116.382 30.6405C116.382 29.8168 117.288 29.5007 118.071 29.5007C118.772 29.5007 119.101 29.6521 119.527 29.8576C119.403 30.846 118.552 31.5465 117.632 31.5465ZM126.667 25.93L125.911 27.846L124.841 30.5573H124.786L122.891 25.93H121.175L122.546 29.0498L124.017 32.3976L122.397 35.9949H124.058L127.165 28.8543L128.438 25.9291H126.667V25.93ZM112.318 32.7586H113.911V22.0855H112.318V32.7586Z" fill="#333333"/>
<path d="M43.9856 20.1959L31.2983 12.7516C30.6494 12.3706 29.8823 12.5886 29.4863 13.1235L40.2318 23.9314L43.9856 20.1959Z" fill="url(#paint0_linear_1_13986)"/>
<path d="M29.2148 33.8577C29.2148 34.1589 29.3072 34.4276 29.4603 34.6464L40.2282 23.9309L29.4827 13.123C29.3163 13.3477 29.2148 13.6272 29.2148 13.9425V33.8577Z" fill="url(#paint1_linear_1_13986)"/>
<path d="M43.9171 27.6449L48.2657 25.0933C49.175 24.5592 49.175 23.2447 48.2657 22.7106L43.9811 20.1973L40.2266 23.9336L43.9171 27.6449Z" fill="url(#paint2_linear_1_13986)"/>
<path d="M29.4629 34.6481C29.8522 35.2055 30.6368 35.4393 31.2982 35.0508L43.9214 27.6448L40.2308 23.9326L29.4629 34.6481Z" fill="url(#paint3_linear_1_13986)"/>
<defs>
<linearGradient id="paint0_linear_1_13986" x1="12.2957" y1="-2.42982" x2="38.4648" y2="19.0703" gradientUnits="userSpaceOnUse">
<stop stop-color="#32A071"/>
<stop offset="0.0685" stop-color="#2DA771"/>
<stop offset="0.4762" stop-color="#15CF74"/>
<stop offset="0.8009" stop-color="#06E775"/>
<stop offset="1" stop-color="#00F076"/>
</linearGradient>
<linearGradient id="paint1_linear_1_13986" x1="47.7343" y1="23.7766" x2="28.194" y2="23.8919" gradientUnits="userSpaceOnUse">
<stop stop-color="#00A0FF"/>
<stop offset="0.00657445" stop-color="#00A1FF"/>
<stop offset="0.2601" stop-color="#00BEFF"/>
<stop offset="0.5122" stop-color="#00D2FF"/>
<stop offset="0.7604" stop-color="#00DFFF"/>
<stop offset="1" stop-color="#00E3FF"/>
</linearGradient>
<linearGradient id="paint2_linear_1_13986" x1="50.4702" y1="24.4326" x2="32.8321" y2="23.0492" gradientUnits="userSpaceOnUse">
<stop stop-color="#FFE000"/>
<stop offset="0.4087" stop-color="#FFBD00"/>
<stop offset="0.7754" stop-color="#FFA500"/>
<stop offset="1" stop-color="#FF9C00"/>
</linearGradient>
<linearGradient id="paint3_linear_1_13986" x1="48.1778" y1="21.7387" x2="14.2273" y2="44.2763" gradientUnits="userSpaceOnUse">
<stop stop-color="#FF3A44"/>
<stop offset="1" stop-color="#C31162"/>
</linearGradient>
</defs>
</svg>
