<svg width="45" height="40" viewBox="0 0 45 40" fill="none" xmlns="http://www.w3.org/2000/svg">
<circle cx="20" cy="20" r="18.5" stroke="#E6E6E6" stroke-width="3" stroke-dasharray="4 4"/>
<mask id="path-2-inside-1_165_2159" fill="white">
<path d="M37.3207 30C35.524 33.1121 32.922 35.6826 29.7882 37.4412C26.6545 39.1999 23.1049 40.0817 19.5125 39.9941C15.9201 39.9065 12.4176 38.8526 9.3734 36.9432C6.32916 35.0339 3.85557 32.3396 2.21271 29.1436C0.569849 25.9477 -0.181604 22.3682 0.0373588 18.7814C0.256321 15.1946 1.43761 11.733 3.45703 8.76067C5.47645 5.7883 8.25939 3.41492 11.5133 1.89004C14.7672 0.36517 18.3718 -0.25486 21.9482 0.0951412L20.0002 20L37.3207 30Z"/>
</mask>
<path d="M37.3207 30C35.524 33.1121 32.922 35.6826 29.7882 37.4412C26.6545 39.1999 23.1049 40.0817 19.5125 39.9941C15.9201 39.9065 12.4176 38.8526 9.3734 36.9432C6.32916 35.0339 3.85557 32.3396 2.21271 29.1436C0.569849 25.9477 -0.181604 22.3682 0.0373588 18.7814C0.256321 15.1946 1.43761 11.733 3.45703 8.76067C5.47645 5.7883 8.25939 3.41492 11.5133 1.89004C14.7672 0.36517 18.3718 -0.25486 21.9482 0.0951412L20.0002 20L37.3207 30Z" stroke="url(#paint0_linear_165_2159)" stroke-width="6" mask="url(#path-2-inside-1_165_2159)"/>
<mask id="path-3-inside-2_165_2159" fill="white">
<path d="M20 -8.74228e-07C15.7764 -6.89609e-07 11.6612 1.3371 8.24429 3.81966C4.82734 6.30222 2.28403 9.80279 0.978868 13.8197C-0.326291 17.8365 -0.326291 22.1635 0.978869 26.1803C2.28403 30.1972 4.82734 33.6978 8.2443 36.1803C11.6612 38.6629 15.7764 40 20 40C24.2236 40 28.3388 38.6629 31.7557 36.1803C35.1727 33.6978 37.716 30.1972 39.0211 26.1803C40.3263 22.1635 40.3263 17.8365 39.0211 13.8197L20 20L20 -8.74228e-07Z"/>
</mask>
<path d="M20 -8.74228e-07C15.7764 -6.89609e-07 11.6612 1.3371 8.24429 3.81966C4.82734 6.30222 2.28403 9.80279 0.978868 13.8197C-0.326291 17.8365 -0.326291 22.1635 0.978869 26.1803C2.28403 30.1972 4.82734 33.6978 8.2443 36.1803C11.6612 38.6629 15.7764 40 20 40C24.2236 40 28.3388 38.6629 31.7557 36.1803C35.1727 33.6978 37.716 30.1972 39.0211 26.1803C40.3263 22.1635 40.3263 17.8365 39.0211 13.8197L20 20L20 -8.74228e-07Z" stroke="url(#paint1_linear_165_2159)" stroke-width="6" mask="url(#path-3-inside-2_165_2159)"/>
<circle cx="20" cy="20" r="17" fill="#FAFAFA"/>
<path d="M40.1797 12.0391L43.5312 12.5312C43.8125 12.5781 44.0469 12.7656 44.1406 13.0469C44.2344 13.3047 44.1641 13.6094 43.9531 13.7969L41.5156 16.2109L42.1016 19.6328C42.1484 19.9141 42.0312 20.1953 41.7969 20.3594C41.5625 20.5469 41.2578 20.5469 41 20.4297L38 18.8125L34.9766 20.4297C34.7422 20.5469 34.4141 20.5469 34.2031 20.3594C33.9688 20.1953 33.8516 19.9141 33.8984 19.6328L34.4609 16.2109L32.0234 13.7969C31.8125 13.6094 31.7422 13.3047 31.8359 13.0469C31.9297 12.7656 32.1641 12.5781 32.4453 12.5312L35.8203 12.0391L37.3203 8.92188C37.4375 8.66406 37.6953 8.5 38 8.5C38.2812 8.5 38.5391 8.66406 38.6562 8.92188L40.1797 12.0391Z" fill="#FF991F"/>
<defs>
<linearGradient id="paint0_linear_165_2159" x1="37.3207" y1="30" x2="4.75815" y2="11.2" gradientUnits="userSpaceOnUse">
<stop stop-color="#FFC887"/>
<stop offset="1" stop-color="#FFF1E0"/>
</linearGradient>
<linearGradient id="paint1_linear_165_2159" x1="38.5" y1="15" x2="20" y2="9.13912e-07" gradientUnits="userSpaceOnUse">
<stop stop-color="#FFC887"/>
<stop offset="1" stop-color="#FFF1E0"/>
</linearGradient>
</defs>
</svg>
