<svg width="99" height="25" viewBox="0 0 99 25" fill="none" xmlns="http://www.w3.org/2000/svg">
<path d="M11.2886 16.024C13.6879 16.024 15.6329 17.969 15.6329 20.3683C15.6329 22.7676 13.6879 24.7127 11.2886 24.7127C8.88928 24.7127 6.94426 22.7676 6.94426 20.3683C6.94426 17.969 8.88928 16.024 11.2886 16.024Z" fill="#002A6A"/>
<path d="M22.2215 1.74654V5.24743C22.2215 5.6208 22.0508 5.97367 21.7581 6.20542L12.202 13.7707C11.7543 14.125 11.121 14.1222 10.6765 13.7638L0.74682 5.75595C0.459199 5.524 0.291992 5.17435 0.291992 4.80485L0.291992 1.47317C0.291992 0.446416 1.48161 -0.122477 2.28085 0.522071L10.6686 7.28637C11.1166 7.64769 11.7561 7.64733 12.2037 7.28549L20.2316 0.796312C21.0306 0.150447 22.2215 0.719138 22.2215 1.74654Z" fill="#002A6A"/>
<path d="M31.0043 21.33C29.2732 21.33 27.8167 20.9472 26.6349 20.1815C25.4531 19.3992 24.6209 18.3422 24.1381 17.0106L27.0843 15.2878C27.7668 17.0689 29.1067 17.9594 31.1041 17.9594C32.0696 17.9594 32.777 17.7846 33.2264 17.4351C33.6758 17.0855 33.9005 16.6444 33.9005 16.1118C33.9005 15.4959 33.6259 15.0215 33.0766 14.6886C32.5273 14.3391 31.5452 13.9645 30.1304 13.5651C29.3481 13.332 28.6823 13.099 28.133 12.866C27.6003 12.6329 27.0594 12.325 26.5101 11.9422C25.9774 11.5427 25.5696 11.0433 25.2867 10.4441C25.0037 9.84487 24.8622 9.14577 24.8622 8.34681C24.8622 6.76552 25.4198 5.50881 26.535 4.57669C27.6669 3.62791 29.0235 3.15353 30.6048 3.15353C32.0196 3.15353 33.2597 3.50307 34.325 4.20217C35.4069 4.88462 36.2475 5.84171 36.8467 7.07346L33.9505 8.74629C33.2514 7.24823 32.1361 6.4992 30.6048 6.4992C29.889 6.4992 29.3231 6.66565 28.907 6.99855C28.5075 7.31481 28.3077 7.73094 28.3077 8.24694C28.3077 8.79623 28.5325 9.24565 28.9819 9.59519C29.4479 9.9281 30.3301 10.2943 31.6285 10.6938C32.1611 10.8602 32.5606 10.9934 32.8269 11.0933C33.1099 11.1765 33.4844 11.318 33.9505 11.5177C34.4332 11.7008 34.7994 11.8756 35.049 12.042C35.3154 12.2085 35.615 12.4332 35.9479 12.7162C36.2808 12.9991 36.5304 13.2904 36.6969 13.59C36.88 13.8896 37.0298 14.2558 37.1463 14.6886C37.2795 15.1047 37.3461 15.5625 37.3461 16.0618C37.3461 17.6764 36.7552 18.9581 35.5734 19.9069C34.4082 20.8556 32.8852 21.33 31.0043 21.33ZM49.7053 20.9805H45.9601L41.416 15.3128V20.9805H38.1952V3.50307H41.416V13.9895L45.7104 8.49662H49.5555L44.537 14.6636L49.7053 20.9805ZM50.0646 20.9805V2.75404H53.2854V20.9805H50.0646ZM54.985 20.9805V2.75404H58.2058V20.9805H54.985ZM70.5416 19.4325C69.2599 20.6975 67.6953 21.33 65.8477 21.33C64.0001 21.33 62.4354 20.6975 61.1537 19.4325C59.8887 18.1508 59.2562 16.5862 59.2562 14.7385C59.2562 12.8909 59.8887 11.3346 61.1537 10.0696C62.4354 8.78791 64.0001 8.14707 65.8477 8.14707C67.6953 8.14707 69.2599 8.78791 70.5416 10.0696C71.8233 11.3346 72.4641 12.8909 72.4641 14.7385C72.4641 16.5862 71.8233 18.1508 70.5416 19.4325ZM63.4258 17.2103C64.075 17.8595 64.8823 18.1841 65.8477 18.1841C66.8131 18.1841 67.6204 17.8595 68.2695 17.2103C68.9187 16.5612 69.2433 15.7373 69.2433 14.7385C69.2433 13.7398 68.9187 12.9159 68.2695 12.2667C67.6204 11.6176 66.8131 11.293 65.8477 11.293C64.8823 11.293 64.075 11.6176 63.4258 12.2667C62.7933 12.9159 62.477 13.7398 62.477 14.7385C62.477 15.7373 62.7933 16.5612 63.4258 17.2103ZM80.4226 8.14707C81.7875 8.14707 82.911 8.60481 83.7932 9.52029C84.692 10.4358 85.1415 11.7008 85.1415 13.3154V20.9805H81.9206V13.7149C81.9206 12.8826 81.6959 12.2501 81.2465 11.8173C80.7971 11.3679 80.1979 11.1432 79.4488 11.1432C78.6166 11.1432 77.9508 11.4012 77.4514 11.9172C76.9521 12.4332 76.7024 13.2072 76.7024 14.2392V20.9805H73.4815V8.49662H76.7024V9.89481C77.4847 8.72965 78.7248 8.14707 80.4226 8.14707Z" fill="#3572EF"/>
<path d="M88.2412 6.99855C87.7085 6.99855 87.2425 6.80713 86.843 6.4243C86.4601 6.02481 86.2687 5.55875 86.2687 5.0261C86.2687 4.49346 86.4601 4.0274 86.843 3.62791C87.2425 3.22843 87.7085 3.02869 88.2412 3.02869C88.7905 3.02869 89.2565 3.22843 89.6394 3.62791C90.0388 4.0274 90.2386 4.49346 90.2386 5.0261C90.2386 5.55875 90.0388 6.02481 89.6394 6.4243C89.2565 6.80713 88.7905 6.99855 88.2412 6.99855ZM86.6432 20.9805V8.49662H89.8641V20.9805H86.6432ZM98.7044 11.5926H95.883V16.7859C95.883 17.2187 95.9912 17.5349 96.2076 17.7347C96.424 17.9344 96.7403 18.0509 97.1564 18.0842C97.5725 18.1009 98.0885 18.0925 98.7044 18.0592V20.9805C96.4906 21.2301 94.9259 21.0221 94.0105 20.3563C93.1116 19.6905 92.6622 18.5003 92.6622 16.7859V11.5926H90.49V8.49662H92.6622V5.97488L95.883 5.00114V8.49662H98.7044V11.5926Z" fill="#002A6A"/>
<circle cx="47.5704" cy="5.7188" r="1.97661" fill="#002A6A"/>
<path d="M49.5568 8.73633H45.7076L40.8701 14.8742L45.9677 21.2202H49.7128L44.5633 14.8742L49.5568 8.73633Z" fill="#3572EF"/>
</svg>
