<svg width="18" height="17" viewBox="0 0 18 17" fill="none" xmlns="http://www.w3.org/2000/svg">
<path fill-rule="evenodd" clip-rule="evenodd" d="M14.6383 8.74072C14.6383 8.32414 14.6009 7.92359 14.5315 7.53906H8.99854V9.81152H12.1602C12.024 10.5459 11.6101 11.1681 10.9879 11.5846V13.0587H12.8866C13.9974 12.0359 14.6383 10.5298 14.6383 8.74072Z" fill="#4285F4"/>
<path fill-rule="evenodd" clip-rule="evenodd" d="M8.99842 14.4822C10.5846 14.4822 11.9144 13.9561 12.8864 13.0589L10.9878 11.5849C10.4618 11.9373 9.78884 12.1456 8.99842 12.1456C7.46832 12.1456 6.1732 11.1122 5.71124 9.72363H3.74854V11.2457C4.7152 13.1657 6.70193 14.4822 8.99842 14.4822Z" fill="#34A853"/>
<path fill-rule="evenodd" clip-rule="evenodd" d="M5.71109 9.72325C5.5936 9.37076 5.52684 8.99425 5.52684 8.60705C5.52684 8.21985 5.5936 7.84333 5.71109 7.49084V5.96875H3.74839C3.35051 6.76184 3.12354 7.65908 3.12354 8.60705C3.12354 9.55502 3.35051 10.4523 3.74839 11.2453L5.71109 9.72325Z" fill="#FBBC05"/>
<path fill-rule="evenodd" clip-rule="evenodd" d="M8.99842 5.06897C9.86094 5.06897 10.6353 5.36538 11.2442 5.94751L12.9292 4.26253C11.9118 3.31456 10.5819 2.73242 8.99842 2.73242C6.70193 2.73242 4.7152 4.0489 3.74854 5.96887L5.71123 7.49097C6.1732 6.10239 7.46832 5.06897 8.99842 5.06897Z" fill="#EA4335"/>
</svg>
