<svg width="372" height="402" viewBox="0 0 372 402" fill="none" xmlns="http://www.w3.org/2000/svg">
<g opacity="0.15">
<path d="M186.54 259.223C227.241 259.223 260.235 291.185 260.235 330.611C260.235 370.038 227.241 402 186.54 402C145.84 402 112.845 370.038 112.845 330.611C112.845 291.185 145.84 259.223 186.54 259.223Z" fill="#002A6A"/>
<path d="M372 24.608V82.1367C372 88.272 369.104 94.0705 364.138 97.8787L202.034 222.195C194.441 228.018 183.696 227.971 176.158 222.082L7.71545 90.4928C2.8364 86.6813 2.74441e-06 80.9356 2.47043e-06 74.8638L0 20.1159C-7.61333e-07 3.24366 20.1801 -6.1047 33.738 4.48686L176.023 115.642C183.623 121.579 194.47 121.573 202.064 115.627L338.244 8.99335C351.798 -1.61987 372 7.72518 372 24.608Z" fill="#002A6A"/>
</g>
</svg>
