<svg width="199" height="46" viewBox="0 0 199 46" fill="none" xmlns="http://www.w3.org/2000/svg">
<path d="M20.5495 29.4753C25.0331 29.4753 28.6678 33.1096 28.6678 37.5927C28.6679 42.0757 25.0332 45.71 20.5495 45.71C16.0659 45.71 12.4312 42.0757 12.4312 37.5927C12.4312 33.1096 16.0659 29.4753 20.5495 29.4753Z" fill="white"/>
<path d="M40.98 2.79809V9.33947C40.98 10.0371 40.661 10.6964 40.114 11.1294L22.2563 25.265C21.4198 25.9272 20.2362 25.9218 19.4058 25.2522L0.849944 10.2896C0.312462 9.85622 3.02327e-07 9.2029 2.72145e-07 8.5125L0 2.2873C-8.38696e-08 0.368825 2.22307 -0.694144 3.71662 0.510185L19.3909 13.1492C20.2281 13.8243 21.4231 13.8236 22.2596 13.1476L37.2614 1.0226C38.7545 -0.18419 40.98 0.878403 40.98 2.79809Z" fill="white"/>
<path d="M56.1044 38.8548C50.5519 38.8548 45.6059 36.9884 41.8731 33.5356L45.8392 28.8229C48.8721 31.4359 52.325 33.0223 56.3844 33.0223C59.8372 33.0223 61.6103 31.4359 61.6103 29.4295C61.6103 27.1432 59.7439 26.4433 54.8446 25.3234C48.0789 23.7837 43.2729 21.8706 43.2729 15.6648C43.2729 9.739 48.1256 5.67958 55.1246 5.67958C60.3505 5.67958 64.4099 7.31268 67.6761 10.1123L64.0833 15.0582C61.237 12.7719 58.0175 11.5121 54.9379 11.5121C51.9984 11.5121 50.2253 13.0519 50.2253 14.9649C50.2253 17.2979 52.1383 18.0445 57.0843 19.1643C63.99 20.7041 68.5627 22.7571 68.5627 28.683C68.5627 34.7954 63.9433 38.8548 56.1044 38.8548ZM93.517 14.1717L84.1383 24.8568L93.4237 38.2949H85.5848L79.6123 29.2429L76.7194 32.3691V38.2949H69.907V5.67958H76.7194V24.5769L85.6781 14.1717H93.517ZM96.8433 10.8588C94.7436 10.8588 93.1105 9.17908 93.1105 7.12604C93.1105 5.21298 94.7436 3.48656 96.8433 3.48656C98.8497 3.48656 100.483 5.21298 100.483 7.12604C100.483 9.17908 98.8497 10.8588 96.8433 10.8588ZM93.3905 38.2949V14.1717H100.203V38.2949H93.3905ZM102.884 38.2949V5.67958H109.696V38.2949H102.884ZM112.376 38.2949V5.67958H119.189V38.2949H112.376ZM133.72 38.8548C126.535 38.8548 120.516 33.069 120.516 26.21C120.516 19.351 126.535 13.6118 133.72 13.6118C140.859 13.6118 146.832 19.351 146.832 26.21C146.832 33.069 140.859 38.8548 133.72 38.8548ZM133.72 33.1157C137.313 33.1157 140.346 29.9428 140.346 26.21C140.346 22.4772 137.313 19.351 133.72 19.351C130.081 19.351 127.048 22.4772 127.048 26.21C127.048 29.9428 130.081 33.1157 133.72 33.1157ZM162.127 13.6118C167.352 13.6118 171.085 17.4846 171.085 22.9438V38.2949H164.506V24.3902C164.506 21.404 162.64 19.351 159.934 19.351C157.087 19.351 154.894 21.404 154.894 24.017L154.848 23.877V38.2949H148.035V14.1717H154.848V17.2046C156.294 15.0116 159 13.6118 162.127 13.6118Z" fill="#3572EF"/>
<path d="M176.976 10.8588C174.877 10.8588 173.244 9.17908 173.244 7.12604C173.244 5.21298 174.877 3.48656 176.976 3.48656C178.983 3.48656 180.616 5.21298 180.616 7.12604C180.616 9.17908 178.983 10.8588 176.976 10.8588ZM173.524 38.2949V14.1717H180.336V38.2949H173.524ZM195.709 32.3224L197.342 36.7551C195.942 38.015 193.749 38.8548 191.789 38.8548C187.543 38.8548 184.557 35.8219 184.557 31.4826V19.6776H181.244V14.1717H184.557V7.54598H191.089V14.1717H196.315V19.6776H191.089V30.4094C191.089 31.9958 192.116 33.1157 193.376 33.1157C194.309 33.1157 195.242 32.789 195.709 32.3224Z" fill="white"/>
</svg>
