<svg width="296" height="65" viewBox="0 0 296 65" fill="none" xmlns="http://www.w3.org/2000/svg">
<path d="M28.4918 41.4435C34.7083 41.4435 39.7478 46.5535 39.7478 52.8569C39.7478 59.1603 34.7083 64.2702 28.4918 64.2702C22.2753 64.2702 17.2358 59.1603 17.2358 52.8569C17.2358 46.5535 22.2753 41.4435 28.4918 41.4435Z" fill="#002A6A"/>
<path d="M56.8186 3.93424V13.1317C56.8186 14.1126 56.3763 15.0396 55.6178 15.6485L30.8583 35.5237C29.6985 36.4547 28.0575 36.4472 26.906 35.5056L1.17844 14.4676C0.433227 13.8583 4.19175e-07 12.9397 3.77328e-07 11.9689L0 3.21605C-1.16285e-07 0.518584 3.08227 -0.975996 5.15307 0.717342L26.8854 18.4883C28.0462 19.4376 29.703 19.4366 30.8628 18.486L51.6627 1.43782C53.7329 -0.258979 56.8186 1.23507 56.8186 3.93424Z" fill="#002A6A"/>
<path d="M80.0427 57.6639C71.6382 57.6639 64.1517 54.8389 58.5016 49.6125L64.5049 42.4792C69.0956 46.4343 74.322 48.8356 80.4665 48.8356C85.6929 48.8356 88.3767 46.4343 88.3767 43.3974C88.3767 39.9366 85.5516 38.8772 78.1358 37.1822C67.895 34.8515 60.6204 31.9558 60.6204 22.5625C60.6204 13.5929 67.9656 7.44841 78.5596 7.44841C86.4698 7.44841 92.6143 9.92034 97.5581 14.1579L92.1199 21.6444C87.8117 18.1837 82.9384 16.2767 78.2771 16.2767C73.8276 16.2767 71.1438 18.6074 71.1438 21.5031C71.1438 25.0344 74.0395 26.1645 81.5259 27.8595C91.9786 30.1902 98.9 33.2977 98.9 42.2673C98.9 51.5194 91.908 57.6639 80.0427 57.6639ZM136.672 20.3025L122.476 36.4759L136.531 56.8164H124.666L115.625 43.1148L111.246 47.8468V56.8164H100.935V7.44841H111.246V36.0522L124.807 20.3025H136.672ZM141.707 15.288C138.529 15.288 136.057 12.7454 136.057 9.63783C136.057 6.74214 138.529 4.12896 141.707 4.12896C144.744 4.12896 147.216 6.74214 147.216 9.63783C147.216 12.7454 144.744 15.288 141.707 15.288ZM136.481 56.8164V20.3025H146.792V56.8164H136.481ZM150.85 56.8164V7.44841H161.162V56.8164H150.85ZM165.218 56.8164V7.44841H175.53V56.8164H165.218ZM197.526 57.6639C186.649 57.6639 177.538 48.9062 177.538 38.5241C177.538 28.142 186.649 19.4549 197.526 19.4549C208.332 19.4549 217.372 28.142 217.372 38.5241C217.372 48.9062 208.332 57.6639 197.526 57.6639ZM197.526 48.9769C202.964 48.9769 207.555 44.1742 207.555 38.5241C207.555 32.874 202.964 28.142 197.526 28.142C192.017 28.142 187.426 32.874 187.426 38.5241C187.426 44.1742 192.017 48.9769 197.526 48.9769ZM240.522 19.4549C248.433 19.4549 254.083 25.3169 254.083 33.5803V56.8164H244.124V35.7697C244.124 31.2496 241.299 28.142 237.203 28.142C232.895 28.142 229.575 31.2496 229.575 35.2047L229.505 34.9928V56.8164H219.193V20.3025H229.505V24.8932C231.694 21.5737 235.79 19.4549 240.522 19.4549Z" fill="#3572EF"/>
<path d="M263 15.288C259.822 15.288 257.35 12.7454 257.35 9.63783C257.35 6.74214 259.822 4.12896 263 4.12896C266.037 4.12896 268.509 6.74214 268.509 9.63783C268.509 12.7454 266.037 15.288 263 15.288ZM257.773 56.8164V20.3025H268.085V56.8164H257.773ZM291.354 47.7762L293.826 54.4857C291.707 56.3926 288.387 57.6639 285.421 57.6639C278.994 57.6639 274.474 53.0732 274.474 46.5049V28.6364H269.459V20.3025H274.474V10.2735H284.362V20.3025H292.272V28.6364H284.362V44.8805C284.362 47.2818 285.915 48.9769 287.822 48.9769C289.235 48.9769 290.647 48.4825 291.354 47.7762Z" fill="#002A6A"/>
</svg>
