<svg width="21" height="21" viewBox="0 0 21 21" fill="none" xmlns="http://www.w3.org/2000/svg">
<path d="M19.8108 17.6008C20.3811 18.2092 20.3811 19.1597 19.8108 19.768C19.2025 20.3383 18.252 20.3383 17.6437 19.768L13.1193 15.2056C11.5605 16.2321 9.65946 16.7644 7.60637 16.4983C4.10853 16.004 1.29504 13.1525 0.838801 9.69268C0.19246 4.52195 4.56477 0.149642 9.7355 0.795983C13.1953 1.25222 16.0468 4.06571 16.5411 7.56355C16.8072 9.61664 16.2749 11.5176 15.2484 13.0384L19.8108 17.6008ZM3.80437 8.62812C3.80437 11.3275 5.97151 13.4947 8.67093 13.4947C11.3323 13.4947 13.5375 11.3275 13.5375 8.62812C13.5375 5.96671 11.3323 3.76155 8.67093 3.76155C5.97151 3.76155 3.80437 5.96671 3.80437 8.62812Z" fill="#427DF5"/>
</svg>
