<svg width="89" height="15" viewBox="0 0 89 15" fill="none" xmlns="http://www.w3.org/2000/svg">
<g clip-path="url(#clip0_927_603)">
<path d="M44 15C44.5269 15 45.0475 14.9728 45.5604 14.9198C57.6463 13.6706 68.8497 0 81 0H772C774.761 0 777 -2.23858 777 -5C777 -7.76142 774.761 -10 772 -10H65.0149C58.757 -10 52.9194 -13.5977 46.7677 -14.7452C45.8707 -14.9125 44.9456 -15 44 -15C43.0544 -15 42.1293 -14.9125 41.2323 -14.7452C35.0806 -13.5977 29.243 -10 22.9851 -10H-28C-30.7614 -10 -33 -7.76142 -33 -5C-33 -2.23858 -30.7614 0 -28 0H7C19.1503 0 30.3537 13.6706 42.4396 14.9198C42.9525 14.9728 43.4731 15 44 15Z" fill="white"/>
</g>
<defs>
<clipPath id="clip0_927_603">
<rect width="89" height="15" fill="white"/>
</clipPath>
</defs>
</svg>
