<svg width="191" height="30" viewBox="0 0 191 30" fill="none" xmlns="http://www.w3.org/2000/svg">
<g clip-path="url(#clip0_25_4526)">
<path d="M19.0909 1.36328L23.323 10.5384L33.3568 11.728L25.9385 18.5882L27.9077 28.4985L19.0909 23.5633L10.2741 28.4985L12.2433 18.5882L4.82507 11.728L14.8589 10.5384L19.0909 1.36328Z" fill="#FFC800" stroke="#FFC800" stroke-width="2.72727" stroke-linejoin="round"/>
</g>
<g clip-path="url(#clip1_25_4526)">
<path d="M57.2727 1.36328L61.5048 10.5384L71.5386 11.728L64.1203 18.5882L66.0895 28.4985L57.2727 23.5633L48.456 28.4985L50.4251 18.5882L43.0069 11.728L53.0407 10.5384L57.2727 1.36328Z" fill="#FFC800" stroke="#FFC800" stroke-width="2.72727" stroke-linejoin="round"/>
</g>
<g clip-path="url(#clip2_25_4526)">
<path d="M95.4546 1.36328L99.6866 10.5384L109.72 11.728L102.302 18.5882L104.271 28.4985L95.4546 23.5633L86.6378 28.4985L88.607 18.5882L81.1887 11.728L91.2225 10.5384L95.4546 1.36328Z" fill="#FFC800" stroke="#FFC800" stroke-width="2.72727" stroke-linejoin="round"/>
</g>
<g clip-path="url(#clip3_25_4526)">
<path d="M133.636 1.36328L137.868 10.5384L147.902 11.728L140.484 18.5882L142.453 28.4985L133.636 23.5633L124.82 28.4985L126.789 18.5882L119.371 11.728L129.404 10.5384L133.636 1.36328Z" fill="#FFC800" stroke="#FFC800" stroke-width="2.72727" stroke-linejoin="round"/>
</g>
<g clip-path="url(#clip4_25_4526)">
<path d="M171.818 23.5633L180.635 28.4985L179.474 22.6552L167.381 10.5626L157.552 11.728L164.971 18.5882L163.001 28.4985L171.818 23.5633Z" fill="#FFC800"/>
<path d="M171.818 1.36328L173.057 0.792127C172.834 0.309038 172.35 -0.000355244 171.818 -0.000355124C171.286 -0.000355005 170.803 0.309039 170.58 0.792128L171.818 1.36328ZM176.05 10.5384L174.812 11.1095C175.011 11.5402 175.419 11.8367 175.89 11.8925L176.05 10.5384ZM186.084 11.728L187.01 12.7292C187.401 12.368 187.545 11.8126 187.381 11.3066C187.217 10.8007 186.773 10.4365 186.245 10.3739L186.084 11.728ZM180.635 28.4985L179.969 29.6884C180.433 29.9483 181.006 29.9144 181.437 29.6017C181.867 29.289 182.076 28.7546 181.973 28.2328L180.635 28.4985ZM171.818 23.5633L172.484 22.3734C172.071 22.1417 171.566 22.1417 171.152 22.3734L171.818 23.5633ZM163.001 28.4985L161.664 28.2328C161.56 28.7546 161.77 29.289 162.2 29.6017C162.63 29.9144 163.203 29.9483 163.668 29.6884L163.001 28.4985ZM164.971 18.5882L166.308 18.854C166.401 18.3888 166.245 17.909 165.897 17.587L164.971 18.5882ZM157.552 11.728L157.392 10.3739C156.864 10.4365 156.42 10.8007 156.256 11.3066C156.091 11.8126 156.236 12.368 156.627 12.7292L157.552 11.728ZM167.381 10.5626L168.346 9.5984L167.878 9.13059L167.221 9.20849L167.381 10.5626ZM179.474 22.6552L180.811 22.3895L180.731 21.9836L180.438 21.691L179.474 22.6552ZM168.711 4.84497C168.395 5.52884 168.694 6.33894 169.378 6.65438C170.062 6.96982 170.872 6.67115 171.187 5.98728L168.711 4.84497ZM180.055 15.4466C179.502 15.9579 179.468 16.8206 179.979 17.3736C180.491 17.9265 181.353 17.9602 181.906 17.4489L180.055 15.4466ZM170.58 1.93444L174.812 11.1095L177.289 9.96721L173.057 0.792127L170.58 1.93444ZM175.89 11.8925L185.924 13.0822L186.245 10.3739L176.211 9.18421L175.89 11.8925ZM181.301 27.3086L172.484 22.3734L171.152 24.7532L179.969 29.6884L181.301 27.3086ZM171.152 22.3734L162.335 27.3086L163.668 29.6884L172.484 24.7532L171.152 22.3734ZM164.339 28.7643L166.308 18.854L163.633 18.3224L161.664 28.2328L164.339 28.7643ZM165.897 17.587L158.478 10.7269L156.627 12.7292L164.045 19.5894L165.897 17.587ZM157.713 13.0822L167.542 11.9168L167.221 9.20849L157.392 10.3739L157.713 13.0822ZM178.137 22.921L179.298 28.7643L181.973 28.2328L180.811 22.3895L178.137 22.921ZM166.417 11.5269L178.51 23.6194L180.438 21.691L168.346 9.5984L166.417 11.5269ZM171.187 5.98728L173.057 1.93443L170.58 0.792128L168.711 4.84497L171.187 5.98728ZM185.158 10.7269L180.055 15.4466L181.906 17.4489L187.01 12.7292L185.158 10.7269Z" fill="#FFC800"/>
<path d="M160.909 4.09082L182.727 25.909" stroke="#CD7900" stroke-width="2.72727" stroke-linecap="round"/>
</g>
<defs>
<clipPath id="clip0_25_4526">
<rect width="38.1818" height="30" fill="white"/>
</clipPath>
<clipPath id="clip1_25_4526">
<rect width="38.1818" height="30" fill="white" transform="translate(38.1818)"/>
</clipPath>
<clipPath id="clip2_25_4526">
<rect width="38.1818" height="30" fill="white" transform="translate(76.3636)"/>
</clipPath>
<clipPath id="clip3_25_4526">
<rect width="38.1818" height="30" fill="white" transform="translate(114.545)"/>
</clipPath>
<clipPath id="clip4_25_4526">
<rect width="38.1818" height="30" fill="white" transform="translate(152.727)"/>
</clipPath>
</defs>
</svg>
