<svg width="32" height="32" viewBox="0 0 32 32" fill="none" xmlns="http://www.w3.org/2000/svg">
<path d="M31.2726 13.5101L28.4514 13.2635C28.1251 11.7715 27.5374 10.3773 26.7388 9.1313L28.56 6.96133C28.8258 6.64482 28.8054 6.17785 28.5131 5.88576L26.1142 3.48691C25.8221 3.19462 25.3552 3.17425 25.0387 3.44002L22.8687 5.26121C21.6227 4.46255 20.2285 3.8749 18.7365 3.5486L18.4899 0.72736C18.454 0.315734 18.1094 0 17.6963 0H14.3037C13.8906 0 13.546 0.315734 13.5101 0.72736L13.2635 3.5486C11.7715 3.8749 10.3773 4.46255 9.1313 5.26121L6.96133 3.44002C6.64482 3.17425 6.17785 3.19462 5.88576 3.48691L3.48691 5.88576C3.19462 6.17785 3.17425 6.64482 3.44002 6.96133L5.26121 9.1313C4.46255 10.3773 3.8749 11.7715 3.5486 13.2635L0.72736 13.5101C0.315734 13.546 0 13.8906 0 14.3037V17.6963C0 18.1094 0.315734 18.454 0.72736 18.4899L3.5486 18.7365C3.8749 20.2285 4.46255 21.6227 5.26121 22.8687L3.44002 25.0387C3.17425 25.3552 3.19462 25.8221 3.48691 26.1142L5.88576 28.5131C6.17785 28.8054 6.64482 28.8258 6.96133 28.56L9.1313 26.7388C10.3773 27.5374 11.7715 28.1251 13.2635 28.4514L13.5101 31.2726C13.546 31.6843 13.8906 32 14.3037 32H17.6963C18.1094 32 18.454 31.6843 18.4899 31.2726L18.7365 28.4514C20.2285 28.1251 21.6227 27.5374 22.8687 26.7388L25.0387 28.56C25.3552 28.8258 25.8221 28.8054 26.1142 28.5131L28.5131 26.1142C28.8054 25.8221 28.8258 25.3552 28.56 25.0387L26.7388 22.8687C27.5374 21.6227 28.1251 20.2285 28.4514 18.7365L31.2726 18.4899C31.6843 18.454 32 18.1094 32 17.6963V14.3037C32 13.8906 31.6843 13.546 31.2726 13.5101ZM16 25.223C10.9064 25.223 6.77704 21.0936 6.77704 16C6.77704 10.9064 10.9064 6.77704 16 6.77704C21.0936 6.77704 25.223 10.9064 25.223 16C25.223 21.0936 21.0936 25.223 16 25.223Z" fill="#002A6A"/>
<path d="M15.9996 23.7922C20.3034 23.7922 23.7922 20.3034 23.7922 15.9996C23.7922 11.6959 20.3034 8.20703 15.9996 8.20703C11.6959 8.20703 8.20703 11.6959 8.20703 15.9996C8.20703 20.3034 11.6959 23.7922 15.9996 23.7922Z" fill="#427DF5"/>
<path d="M16.0006 21.7786C19.1917 21.7786 21.7786 19.1917 21.7786 16.0006C21.7786 12.8095 19.1917 10.2227 16.0006 10.2227C12.8095 10.2227 10.2227 12.8095 10.2227 16.0006C10.2227 19.1917 12.8095 21.7786 16.0006 21.7786Z" fill="white"/>
<path d="M16.0016 19.7631C18.0801 19.7631 19.765 18.0781 19.765 15.9997C19.765 13.9212 18.0801 12.2363 16.0016 12.2363C13.9232 12.2363 12.2383 13.9212 12.2383 15.9997C12.2383 18.0781 13.9232 19.7631 16.0016 19.7631Z" fill="#427DF5"/>
<path d="M15.9987 17.7494C16.9645 17.7494 17.7475 16.9665 17.7475 16.0007C17.7475 15.0349 16.9645 14.252 15.9987 14.252C15.0329 14.252 14.25 15.0349 14.25 16.0007C14.25 16.9665 15.0329 17.7494 15.9987 17.7494Z" fill="white"/>
<path d="M23.9025 10.0648L22.2503 11.7169C22.205 11.7623 22.1425 11.786 22.0785 11.7823L20.5184 11.6896C20.405 11.6829 20.3146 11.5925 20.3079 11.4791L20.2152 9.91906C20.2114 9.85503 20.2352 9.79254 20.2806 9.7472L21.9327 8.09507C22.048 7.97969 22.244 8.0222 22.3012 8.17505L22.6798 9.18642C22.7025 9.24704 22.7504 9.29501 22.8111 9.31774L23.8225 9.69632C23.9753 9.75353 24.0178 9.94942 23.9025 10.0648Z" fill="#EDB835"/>
<path d="M15.8341 16.3838C15.7786 16.3838 15.7231 16.3627 15.6807 16.3203C15.596 16.2356 15.596 16.0983 15.6807 16.0135L23.2987 8.39556C23.3834 8.31085 23.5208 8.31085 23.6055 8.39556C23.6902 8.48027 23.6902 8.61761 23.6055 8.70232L15.9875 16.3203C15.9451 16.3627 15.8896 16.3838 15.8341 16.3838Z" fill="#895A3A"/>
</svg>
