<svg width="201" height="211" viewBox="0 0 201 211" fill="none" xmlns="http://www.w3.org/2000/svg">
<g filter="url(#filter0_d_423_11221)">
<rect x="4" width="192.17" height="202.33" rx="25" fill="white"/>
<rect x="46" y="47" width="108" height="108" rx="16.875" fill="black"/>
<path d="M108.233 85.6016H124.925C129.91 85.6016 133.614 87.1565 136.358 89.6718C139.422 92.5072 141.343 96.5773 141.343 101.059C141.343 105.129 139.834 108.788 137.364 111.486C134.529 114.596 130.459 116.517 124.925 116.517H108.233C106.907 116.517 106.221 115.876 106.221 114.55V87.5223C106.221 86.2418 106.907 85.6016 108.233 85.6016ZM124.925 93.7877H115.093C114.681 93.7877 114.498 93.9706 114.498 94.4279V107.736C114.498 108.193 114.681 108.376 115.093 108.376H124.925C127.852 108.376 129.819 107.462 131.145 105.998C132.334 104.718 133.066 102.98 133.066 101.105C133.066 99.0469 132.197 97.1261 130.779 95.7999C129.453 94.5651 127.715 93.7877 124.925 93.7877Z" fill="white"/>
<path d="M90.7253 85.6016H101.472C101.244 85.9217 100.924 86.2876 100.558 86.6077L86.7008 100.007L102.341 115.556C102.661 115.876 102.89 116.197 103.119 116.517H91.2741C91.0454 116.151 90.8167 115.876 90.5423 115.602L80.7099 105.358L70.3286 115.602C70.0085 115.922 69.7341 116.242 69.5054 116.517H58.6211C58.8498 116.151 59.0784 115.922 59.4443 115.556L75.4049 100.007L61.5937 86.6077C61.1821 86.2418 60.9534 85.9674 60.7248 85.6016H72.2494C72.4323 85.876 72.7067 86.2418 73.0268 86.6077L81.2129 94.931L89.8563 86.6077C90.2222 86.2876 90.4966 85.9217 90.7253 85.6016Z" fill="white"/>
</g>
<defs>
<filter id="filter0_d_423_11221" x="0" y="0" width="200.17" height="210.33" filterUnits="userSpaceOnUse" color-interpolation-filters="sRGB">
<feFlood flood-opacity="0" result="BackgroundImageFix"/>
<feColorMatrix in="SourceAlpha" type="matrix" values="0 0 0 0 0 0 0 0 0 0 0 0 0 0 0 0 0 0 127 0" result="hardAlpha"/>
<feOffset dy="4"/>
<feGaussianBlur stdDeviation="2"/>
<feComposite in2="hardAlpha" operator="out"/>
<feColorMatrix type="matrix" values="0 0 0 0 0 0 0 0 0 0 0 0 0 0 0 0 0 0 0.25 0"/>
<feBlend mode="normal" in2="BackgroundImageFix" result="effect1_dropShadow_423_11221"/>
<feBlend mode="normal" in="SourceGraphic" in2="effect1_dropShadow_423_11221" result="shape"/>
</filter>
</defs>
</svg>
