<svg width="15" height="15" viewBox="0 0 15 15" fill="none" xmlns="http://www.w3.org/2000/svg">
<path d="M1.93359 5.30729V4.43341C1.93359 3.81276 2.43654 3.30957 3.05716 3.30957H3.68136V4.30857H4.93004V3.30957H9.17516V4.30857H10.4239V3.30957H11.0481C11.6687 3.30957 12.1716 3.81279 12.1716 4.43341V10.6763C12.1716 11.2969 11.6687 11.7998 11.0481 11.7998H3.05716C2.43654 11.7998 1.93359 11.2969 1.93359 10.6763V5.30729ZM9.94904 9.87724C9.6912 9.87724 10.2875 9.9876 9.94904 9.9876C9.64341 9.9876 10.102 9.57137 9.94904 9.87724C10.2546 9.87724 9.83091 9.87724 9.94904 9.87724C9.94904 9.53937 9.61145 9.87724 9.94904 9.87724C9.94904 10.4888 10.1093 9.64208 9.94904 9.9876C10.5605 9.37577 9.94904 10.4888 9.94904 9.87724ZM8.6758 10.3018V9.8021H8.17644V10.3018H8.6758ZM8.6758 7.30504V6.80568H8.17644V7.30504H8.6758ZM7.6768 10.3018V9.8021H7.17744V10.3018H7.6768ZM7.6768 8.30404V7.8044H7.17744V8.30404H7.6768ZM7.6768 7.30504V6.80568H7.17744V7.30504H7.6768ZM6.67808 10.3018V9.8021H6.17872V10.3018H6.67808ZM6.67808 9.30276V8.8034H6.17872V9.30276H6.67808ZM6.67808 8.30404V7.8044H6.17872V8.30404H6.67808ZM6.67808 7.30504V6.80568H6.17872V7.30504H6.67808ZM5.67908 10.3018V9.8021H5.17972V10.3018H5.67908ZM5.67908 9.30276V8.8034H5.17972V9.30276H5.67908ZM5.67908 8.30404V7.8044H5.17972V8.30404H5.67908ZM5.67908 7.30504V6.80568H5.17972V7.30504H5.67908ZM4.68036 10.3018V9.8021H4.181V10.3018H4.68036ZM4.68036 9.30276V8.8034H4.181V9.30276H4.68036ZM4.68036 8.30404V7.8044H4.181V8.30404H4.68036ZM4.68036 7.30504V6.80568H4.181V7.30504H4.68036ZM3.68136 10.3018V9.8021H3.182V10.3018H3.68136ZM3.68136 9.30276V8.8034H3.182V9.30276H3.68136ZM3.68136 8.30404V7.8044H3.182V8.30404H3.68136ZM3.68136 7.30504V6.80568H3.182V7.30504H3.68136Z" fill="#1CB0F6"/>
<path d="M10.4245 3.30927V4.30827H9.17578V3.30927V2.31055H10.4245V3.30927Z" fill="#2B70C9"/>
<path d="M9.42381 3.60324V2.60451H10.4245V2.31055H9.17578V3.30927V4.30827H9.42381V3.60324Z" fill="#00649E"/>
<path d="M2.2 10.925V5.55602V4.68214C2.2 4.06149 2.70295 3.5583 3.32357 3.5583H3.68136V3.30859H3.05716C2.43654 3.30859 1.93359 3.81181 1.93359 4.43243V5.30632V10.6753C1.93359 11.0648 2.13174 11.4078 2.43273 11.6094C2.28689 11.4199 2.2 11.1827 2.2 10.925Z" fill="#2B70C9"/>
<path d="M4.93227 3.30927V4.30827H3.68359V3.30927V2.31055H4.93227V3.30927Z" fill="#2B70C9"/>
<path d="M3.93327 3.60321V2.60451H4.93227V2.31055H3.68359V3.30927V4.30827H3.93327V3.60321Z" fill="#00649E"/>
<path d="M8.67905 9.80176H8.17969V10.3014H8.67905V9.80176Z" fill="#2B70C9"/>
<path d="M8.67905 6.80566H8.17969V7.30503H8.67905V6.80566Z" fill="#2B70C9"/>
<path d="M7.67905 9.80176H7.17969V10.3014H7.67905V9.80176Z" fill="#2B70C9"/>
<path d="M7.67905 7.80371H7.17969V8.30335H7.67905V7.80371Z" fill="#2B70C9"/>
<path d="M7.67905 6.80566H7.17969V7.30503H7.67905V6.80566Z" fill="#2B70C9"/>
<path d="M6.67905 9.80176H6.17969V10.3014H6.67905V9.80176Z" fill="#2B70C9"/>
<path d="M6.67905 8.80273H6.17969V9.3021H6.67905V8.80273Z" fill="#2B70C9"/>
<path d="M6.67905 7.80371H6.17969V8.30335H6.67905V7.80371Z" fill="#2B70C9"/>
<path d="M6.67905 6.80566H6.17969V7.30503H6.67905V6.80566Z" fill="#2B70C9"/>
<path d="M5.67905 9.80176H5.17969V10.3014H5.67905V9.80176Z" fill="#2B70C9"/>
<path d="M5.67905 8.80273H5.17969V9.3021H5.67905V8.80273Z" fill="#2B70C9"/>
<path d="M5.67905 7.80371H5.17969V8.30335H5.67905V7.80371Z" fill="#2B70C9"/>
<path d="M5.67905 6.80566H5.17969V7.30503H5.67905V6.80566Z" fill="#2B70C9"/>
<path d="M4.68296 9.80176H4.18359V10.3014H4.68296V9.80176Z" fill="#2B70C9"/>
<path d="M4.68296 8.80273H4.18359V9.3021H4.68296V8.80273Z" fill="#2B70C9"/>
<path d="M4.68296 7.80371H4.18359V8.30335H4.68296V7.80371Z" fill="#2B70C9"/>
<path d="M4.68296 6.80566H4.18359V7.30503H4.68296V6.80566Z" fill="#2B70C9"/>
<path d="M3.68296 9.80176H3.18359V10.3014H3.68296V9.80176Z" fill="#2B70C9"/>
<path d="M3.68296 8.80273H3.18359V9.3021H3.68296V8.80273Z" fill="#2B70C9"/>
<path d="M3.68296 7.80371H3.18359V8.30335H3.68296V7.80371Z" fill="#2B70C9"/>
<path d="M3.68296 6.80566H3.18359V7.30503H3.68296V6.80566Z" fill="#2B70C9"/>
<path d="M9.9256 5.44453H2.18467C2.10858 5.44453 2.04688 5.38283 2.04688 5.30674C2.04688 5.23062 2.10858 5.16895 2.18467 5.16895H9.9256C10.0017 5.16895 10.0634 5.23062 10.0634 5.30674C10.0634 5.38283 10.0017 5.44453 9.9256 5.44453Z" fill="#2B70C9"/>
<path d="M11.1727 5.44453H10.9229C10.8468 5.44453 10.7852 5.38283 10.7852 5.30674C10.7852 5.23062 10.8468 5.16895 10.9229 5.16895H11.1727C11.2488 5.16895 11.3105 5.23062 11.3105 5.30674C11.3105 5.38283 11.2488 5.44453 11.1727 5.44453Z" fill="#2B70C9"/>
<rect x="9.64062" y="9.6416" width="0.470333" height="0.470333" fill="#1CB0F6"/>
<path d="M9.72745 9.18253C10.1292 9.58429 10.7806 9.58429 11.1824 9.18253C11.5841 8.78077 11.5841 8.12939 11.1824 7.72763C10.7806 7.32587 10.1292 7.32587 9.72745 7.72763C9.52644 7.92864 9.426 8.19213 9.42613 8.45559L9.42613 8.68369" stroke="#2B70C9" stroke-width="0.228616" stroke-linecap="round" stroke-linejoin="round"/>
<path d="M9.19922 8.45508L9.42783 8.68369L9.65645 8.45508" stroke="#E1F5FF" stroke-width="0.228616" stroke-linecap="round" stroke-linejoin="round"/>
<path d="M10.3398 7.99805L10.3398 8.56959L10.9114 8.56959" stroke="#E1F5FF" stroke-width="0.228616" stroke-linecap="round" stroke-linejoin="round"/>
</svg>
