<svg width="15" height="15" viewBox="0 0 15 15" fill="none" xmlns="http://www.w3.org/2000/svg">
<g clip-path="url(#clip0_52_4137)">
<path d="M12.5427 7.24743C12.5427 8.33897 12.2121 9.35331 11.6456 10.1958C10.6958 11.6084 9.08258 12.5378 7.25231 12.5378C5.42205 12.5378 3.80886 11.6084 2.85898 10.1958C2.29249 9.35331 1.96191 8.33897 1.96191 7.24743C1.96191 4.32562 4.33051 1.95703 7.25231 1.95703C10.1741 1.95703 12.5427 4.32562 12.5427 7.24743Z" fill="#EBE3E3" stroke="#EBE3E3" stroke-width="1.17564"/>
<path d="M8.42844 5.48424C8.42844 6.13353 7.90208 6.65988 7.25279 6.65988C6.6035 6.65988 6.07715 6.13353 6.07715 5.48424C6.07715 4.83495 6.6035 4.30859 7.25279 4.30859C7.90208 4.30859 8.42844 4.83495 8.42844 5.48424Z" fill="#1CB0F6" stroke="#1CB0F6" stroke-width="1.17564"/>
<path d="M9.01608 9.01074H5.48915C4.42416 9.01074 3.52454 9.71878 3.23535 10.6898C4.20562 11.821 5.64542 12.5377 7.25261 12.5377C8.8598 12.5377 10.2996 11.821 11.2699 10.6898C10.9807 9.71878 10.0811 9.01074 9.01608 9.01074Z" fill="#1899D6" stroke="#1899D6" stroke-width="1.17564"/>
</g>
<defs>
<clipPath id="clip0_52_4137">
<rect width="14.1077" height="14.1077" fill="white" transform="translate(0.198242 0.193359)"/>
</clipPath>
</defs>
</svg>
