<svg width="32" height="32" viewBox="0 0 32 32" fill="none" xmlns="http://www.w3.org/2000/svg">
<path d="M16.8313 21.9215L14.5014 28.2438C14.4324 28.4296 14.3082 28.5899 14.1455 28.703C13.9828 28.8162 13.7894 28.8768 13.5912 28.8768C13.3931 28.8768 13.1996 28.8162 13.0369 28.703C12.8742 28.5899 12.7501 28.4296 12.6811 28.2438L10.3512 21.9215C10.302 21.7881 10.2245 21.6669 10.1239 21.5663C10.0234 21.4658 9.90219 21.3882 9.76874 21.3391L3.44645 19.0092C3.26066 18.9402 3.10043 18.816 2.98728 18.6533C2.87413 18.4906 2.81348 18.2972 2.81348 18.099C2.81348 17.9009 2.87413 17.7074 2.98728 17.5448C3.10043 17.3821 3.26066 17.2579 3.44645 17.1889L9.76874 14.859C9.90219 14.8099 10.0234 14.7323 10.1239 14.6317C10.2245 14.5312 10.302 14.41 10.3512 14.2766L12.6811 7.95426C12.7501 7.76847 12.8742 7.60824 13.0369 7.49509C13.1996 7.38194 13.3931 7.32129 13.5912 7.32129C13.7894 7.32129 13.9828 7.38194 14.1455 7.49509C14.3082 7.60824 14.4324 7.76847 14.5014 7.95426L16.8313 14.2766C16.8804 14.41 16.958 14.5312 17.0585 14.6317C17.1591 14.7323 17.2803 14.8099 17.4137 14.859L23.736 17.1889C23.9218 17.2579 24.082 17.3821 24.1952 17.5448C24.3083 17.7074 24.369 17.9009 24.369 18.099C24.369 18.2972 24.3083 18.4906 24.1952 18.6533C24.082 18.816 23.9218 18.9402 23.736 19.0092L17.4137 21.3391C17.2803 21.3882 17.1591 21.4658 17.0585 21.5663C16.958 21.6669 16.8804 21.7881 16.8313 21.9215Z" fill="#427DF5"/>
<path d="M21.3574 2.56543V8.39019" stroke="#427DF5" stroke-width="1.94159" stroke-linecap="round" stroke-linejoin="round"/>
<path d="M24.2701 5.47754H18.4453" stroke="#427DF5" stroke-width="1.94159" stroke-linecap="round" stroke-linejoin="round"/>
<path d="M27.1826 9.36133V13.2445" stroke="#427DF5" stroke-width="1.94159" stroke-linecap="round" stroke-linejoin="round"/>
<path d="M29.1234 11.3027H25.2402" stroke="#427DF5" stroke-width="1.94159" stroke-linecap="round" stroke-linejoin="round"/>
</svg>
