<svg width="44" height="44" viewBox="0 0 44 44" fill="none" xmlns="http://www.w3.org/2000/svg">
<path d="M27.2144 26.357L25.9669 35.8173C25.9354 36.0446 25.835 36.2569 25.6793 36.4256C25.5236 36.5942 25.32 36.7112 25.0959 36.7608C24.8718 36.8103 24.6378 36.7901 24.4255 36.7028C24.2132 36.6156 24.0327 36.4654 23.9083 36.2725L18.7877 28.2207C18.6988 28.0821 18.5807 27.9644 18.4419 27.8758C18.303 27.7872 18.1465 27.7298 17.9833 27.7076L8.52308 26.4601C8.29571 26.4286 8.08343 26.3282 7.91477 26.1725C7.7461 26.0168 7.62913 25.8132 7.57956 25.5891C7.52999 25.365 7.55021 25.1311 7.63748 24.9187C7.72476 24.7064 7.87492 24.5259 8.06779 24.4015L16.1196 19.281C16.2583 19.192 16.3759 19.074 16.4645 18.9351C16.5531 18.7962 16.6105 18.6397 16.6327 18.4765L17.8802 9.0163C17.9118 8.78893 18.0121 8.57665 18.1678 8.40799C18.3235 8.23932 18.5271 8.12235 18.7512 8.07278C18.9753 8.02321 19.2093 8.04342 19.4216 8.1307C19.6339 8.21798 19.8144 8.36814 19.9389 8.56101L25.0594 16.6129C25.1484 16.7515 25.2664 16.8692 25.4053 16.9577C25.5441 17.0463 25.7006 17.1037 25.8638 17.1259L35.324 18.3734C35.5514 18.405 35.7637 18.5053 35.9323 18.661C36.101 18.8167 36.218 19.0203 36.2675 19.2444C36.3171 19.4686 36.2969 19.7025 36.2096 19.9148C36.1224 20.1271 35.9722 20.3076 35.7793 20.4321L27.7275 25.5526C27.5888 25.6416 27.4712 25.7596 27.3826 25.8985C27.294 26.0374 27.2366 26.1938 27.2144 26.357V26.357Z" fill="#002A6A"/>
</svg>
