<svg width="41" height="41" viewBox="0 0 41 41" fill="none" xmlns="http://www.w3.org/2000/svg">
<path d="M36.5 0.55957H4.5C2.29086 0.55957 0.5 2.35043 0.5 4.55957V36.5596C0.5 38.7687 2.29086 40.5596 4.5 40.5596H36.5C38.7091 40.5596 40.5 38.7687 40.5 36.5596V4.55957C40.5 2.35043 38.7091 0.55957 36.5 0.55957Z" fill="#F0F3F4"/>
<path d="M14.25 10.5596C13.2554 10.5596 12.3016 10.9547 11.5983 11.6579C10.8951 12.3612 10.5 13.315 10.5 14.3096V21.8096C10.5 22.8041 10.8951 23.758 11.5983 24.4612C12.3016 25.1645 13.2554 25.5596 14.25 25.5596H21.75C22.7446 25.5596 23.6984 25.1645 24.4017 24.4612C25.1049 23.758 25.5 22.8041 25.5 21.8096V14.3096C25.5 13.315 25.1049 12.3612 24.4017 11.6579C23.6984 10.9547 22.7446 10.5596 21.75 10.5596H14.25Z" fill="#5E6D74"/>
<path d="M19.25 30.5596C18.2554 30.5596 17.3016 30.1645 16.5983 29.4612C15.8951 28.758 15.5 27.8041 15.5 26.8096H18C18 27.4996 18.56 28.0596 19.25 28.0596H26.75C27.44 28.0596 28 27.4996 28 26.8096V19.3096C28 18.6196 27.44 18.0596 26.75 18.0596V15.5596C27.7446 15.5596 28.6984 15.9547 29.4017 16.6579C30.1049 17.3612 30.5 18.315 30.5 19.3096V26.8096C30.5 27.8041 30.1049 28.758 29.4017 29.4612C28.6984 30.1645 27.7446 30.5596 26.75 30.5596H19.25Z" fill="#5E6D74"/>
</svg>
