<svg width="41" height="41" viewBox="0 0 41 41" fill="none" xmlns="http://www.w3.org/2000/svg">
<path d="M36.5 0.55957H4.5C2.29086 0.55957 0.5 2.35043 0.5 4.55957V36.5596C0.5 38.7687 2.29086 40.5596 4.5 40.5596H36.5C38.7091 40.5596 40.5 38.7687 40.5 36.5596V4.55957C40.5 2.35043 38.7091 0.55957 36.5 0.55957Z" fill="#FF5700"/>
<path d="M11.13 18.0176C10.052 18.0176 9.08301 18.6976 8.68601 19.7306C8.4913 20.235 8.44833 20.7854 8.5624 21.314C8.67646 21.8426 8.94259 22.3263 9.32801 22.7056C9.53601 22.9086 9.77401 23.0746 10.035 23.1956C10.0124 23.4671 10.0124 23.74 10.035 24.0116C10.035 28.1736 14.745 31.5596 20.536 31.5596C26.326 31.5596 31.039 28.1736 31.039 24.0116C31.06 23.7403 31.06 23.4678 31.039 23.1966C32.133 22.6486 32.711 21.3916 32.431 20.1706C32.151 18.9506 31.087 18.0946 29.871 18.1106H29.776C29.1267 18.1368 28.5112 18.4068 28.052 18.8666C26.0175 17.4344 23.6034 16.639 21.116 16.5816L22.287 10.7846L26.139 11.6206C26.239 12.5626 27.009 13.2766 27.928 13.2776C27.994 13.2776 28.059 13.2736 28.124 13.2666C29.079 13.1676 29.792 12.3136 29.744 11.3246C29.696 10.3356 28.904 9.55957 27.944 9.55957C27.8757 9.56134 27.8076 9.56701 27.74 9.57657C27.4559 9.6093 27.1837 9.70929 26.946 9.86824C26.7082 10.0272 26.5118 10.2405 26.373 10.4906L21.963 9.57657C21.9236 9.56785 21.8834 9.56349 21.843 9.56357C21.715 9.5667 21.5918 9.61324 21.4937 9.69554C21.3956 9.77785 21.3284 9.89104 21.303 10.0166L19.956 16.4696C17.448 16.5066 15.005 17.2996 12.93 18.7536C12.4496 18.2819 11.8033 18.0177 11.13 18.0176ZM20.81 29.1316H20.201C18.6989 29.1232 17.2418 28.6179 16.057 27.6946C15.9744 27.5912 15.9352 27.4598 15.9477 27.328C15.9602 27.1963 16.0234 27.0746 16.124 26.9886C16.2101 26.9158 16.3192 26.8758 16.432 26.8758C16.5448 26.8758 16.6539 26.9158 16.74 26.9886C17.7414 27.749 18.9647 28.1596 20.222 28.1576H20.806C22.0472 28.158 23.2554 27.7578 24.251 27.0166C24.2974 26.9678 24.3533 26.929 24.4152 26.9024C24.477 26.8759 24.5437 26.8622 24.611 26.8622C24.6783 26.8622 24.745 26.8759 24.8069 26.9024C24.8687 26.929 24.9246 26.9678 24.971 27.0166C25.065 27.1179 25.1166 27.2514 25.1151 27.3897C25.1136 27.5279 25.0592 27.6603 24.963 27.7596V27.6856C23.7777 28.6151 22.3164 29.1232 20.81 29.1296V29.1316ZM24.642 24.5896H24.612L24.627 24.5176C23.835 24.4616 23.187 23.8446 23.069 23.0346C22.952 22.2246 23.397 21.4386 24.139 21.1466C24.5009 21.0054 24.9008 20.9953 25.2694 21.1181C25.638 21.2408 25.952 21.4886 26.157 21.8186C26.593 22.5036 26.508 23.4086 25.953 23.9956C25.7957 24.174 25.6038 24.3187 25.389 24.4208C25.1741 24.5229 24.9407 24.5803 24.703 24.5896H24.64H24.642ZM16.288 24.4416C15.293 24.4416 14.486 23.6096 14.486 22.5826C14.486 21.5566 15.293 20.7246 16.288 20.7246C17.283 20.7246 18.089 21.5566 18.089 22.5826C18.089 23.6096 17.283 24.4416 16.288 24.4416Z" fill="white"/>
</svg>
