<svg width="41" height="41" viewBox="0 0 41 41" fill="none" xmlns="http://www.w3.org/2000/svg">
<path d="M36.5 0.55957H4.5C2.29086 0.55957 0.5 2.35043 0.5 4.55957V36.5596C0.5 38.7687 2.29086 40.5596 4.5 40.5596H36.5C38.7091 40.5596 40.5 38.7687 40.5 36.5596V4.55957C40.5 2.35043 38.7091 0.55957 36.5 0.55957Z" fill="#1877F2"/>
<path d="M7.16606 20.558C7.167 23.7327 8.30013 26.803 10.3618 29.2172C12.4235 31.6314 15.2786 33.2311 18.4141 33.729V24.411H15.0321V20.558H18.4181V17.624C18.3433 16.9375 18.4206 16.243 18.6445 15.5897C18.8683 14.9365 19.2333 14.3405 19.7134 13.8442C20.1935 13.3478 20.777 12.9633 21.4224 12.7179C22.0679 12.4724 22.7595 12.3721 23.4481 12.424C24.4501 12.441 25.4481 12.53 26.4351 12.691V15.97H24.7501C24.4637 15.9326 24.1725 15.96 23.8982 16.0502C23.6238 16.1404 23.3732 16.2911 23.1649 16.4912C22.9566 16.6912 22.7959 16.9355 22.6946 17.206C22.5934 17.4765 22.5543 17.7663 22.5801 18.054V20.558H26.2741L25.6841 24.412H22.5791V33.729C29.5841 32.622 34.4971 26.224 33.7581 19.169C33.0181 12.116 26.8861 6.875 19.8031 7.245C12.7201 7.615 7.16606 13.465 7.16406 20.558H7.16606Z" fill="white"/>
</svg>
