<svg width="41" height="41" viewBox="0 0 41 41" fill="none" xmlns="http://www.w3.org/2000/svg">
<path d="M36.5 0.55957H4.5C2.29086 0.55957 0.5 2.35043 0.5 4.55957V36.5596C0.5 38.7687 2.29086 40.5596 4.5 40.5596H36.5C38.7091 40.5596 40.5 38.7687 40.5 36.5596V4.55957C40.5 2.35043 38.7091 0.55957 36.5 0.55957Z" fill="#0077B5"/>
<path fill-rule="evenodd" clip-rule="evenodd" d="M18.167 28.5596H22.611V21.0596C22.5916 20.7886 22.6271 20.5166 22.7155 20.2597C22.8038 20.0028 22.9431 19.7664 23.125 19.5647C23.3069 19.363 23.5277 19.2001 23.7741 19.0858C24.0205 18.9715 24.2875 18.9082 24.559 18.8996C25.1655 18.8985 25.7519 19.1164 26.2105 19.5133C26.6691 19.9101 26.969 20.4592 27.055 21.0596V28.5596H31.5V20.5036C31.5037 19.1799 30.9824 17.9088 30.0504 16.9689C29.1184 16.029 27.8517 15.497 26.528 15.4896C25.771 15.5069 25.0272 15.6915 24.35 16.0302C23.6728 16.3689 23.0789 16.8532 22.611 17.4486V15.2266H18.167V28.5596ZM11.5 15.2266V28.5596H15.944V15.2266H11.5ZM11.5 10.7816C11.5 11.3709 11.7341 11.9361 12.1508 12.3528C12.5675 12.7695 13.1327 13.0036 13.722 13.0036C14.3113 13.0036 14.8765 12.7695 15.2932 12.3528C15.7099 11.9361 15.944 11.3709 15.944 10.7816C15.944 10.1923 15.7099 9.62708 15.2932 9.21038C14.8765 8.79367 14.3113 8.55957 13.722 8.55957C13.1327 8.55957 12.5675 8.79367 12.1508 9.21038C11.7341 9.62708 11.5 10.1923 11.5 10.7816Z" fill="white"/>
</svg>
