<svg width="41" height="41" viewBox="0 0 41 41" fill="none" xmlns="http://www.w3.org/2000/svg">
<path d="M36.5 0.55957H4.5C2.29086 0.55957 0.5 2.35043 0.5 4.55957V36.5596C0.5 38.7687 2.29086 40.5596 4.5 40.5596H36.5C38.7091 40.5596 40.5 38.7687 40.5 36.5596V4.55957C40.5 2.35043 38.7091 0.55957 36.5 0.55957Z" fill="#2AABEE"/>
<path fill-rule="evenodd" clip-rule="evenodd" d="M8.35383 20.3428C10.2838 19.2638 12.3948 18.3288 14.4498 17.4188C14.9478 17.1988 15.4418 16.9798 15.9288 16.7608C20.2308 14.9208 24.5508 13.1118 28.9138 11.4278C29.7628 11.1408 31.2878 10.8608 31.4368 12.1368C31.3788 13.4148 31.1938 14.6888 31.0078 15.9598V15.9648C30.9301 16.4872 30.8568 17.0102 30.7878 17.5338C30.2908 20.8768 29.7278 24.2108 29.1668 27.5438L29.1628 27.5678L28.8628 29.3528C28.6338 30.6628 27.0148 31.3428 25.9788 30.5028C25.3688 30.0838 24.7558 29.6668 24.1428 29.2488L24.1268 29.2378C22.2468 27.9637 20.3787 26.6719 18.5228 25.3628C17.7178 24.5328 18.4638 23.3418 19.1828 22.7488C20.0088 21.9238 20.8548 21.1488 21.6968 20.3768L21.7008 20.3728C22.9498 19.2278 24.1918 18.0888 25.3518 16.8028C25.8428 15.5998 24.5158 16.4728 23.9258 16.8608L23.8978 16.8788L23.8168 16.9318C23.1318 17.4108 22.4508 17.8968 21.7698 18.3818L21.7458 18.3998C19.6438 19.8998 17.5398 21.4018 15.3108 22.6998C13.9538 23.4578 12.3948 22.9548 10.9968 22.5028C10.8368 22.4518 10.6808 22.4008 10.5258 22.3528C10.3333 22.2728 10.14 22.1948 9.94583 22.1188L9.94183 22.1178C8.68583 21.6208 7.34583 21.0908 8.35383 20.3428Z" fill="white"/>
</svg>
