<svg width="41" height="41" viewBox="0 0 41 41" fill="none" xmlns="http://www.w3.org/2000/svg">
<path d="M36.5 0.55957H4.5C2.29086 0.55957 0.5 2.35043 0.5 4.55957V36.5596C0.5 38.7687 2.29086 40.5596 4.5 40.5596H36.5C38.7091 40.5596 40.5 38.7687 40.5 36.5596V4.55957C40.5 2.35043 38.7091 0.55957 36.5 0.55957Z" fill="#101318"/>
<path d="M27.8151 9.55957H31.4951L23.4551 18.8786L32.9141 31.5596H25.5071L19.7061 23.8696L13.0701 31.5596H9.38706L17.9871 21.5916L8.91406 9.55957H16.5071L21.7511 16.5896L27.8151 9.55957ZM26.5231 29.3256H28.5631L15.3991 11.6756H13.2111L26.5231 29.3256Z" fill="white"/>
</svg>
