<svg width="41" height="41" viewBox="0 0 41 41" fill="none" xmlns="http://www.w3.org/2000/svg">
<path d="M36.5 0.55957H4.5C2.29086 0.55957 0.5 2.35043 0.5 4.55957V36.5596C0.5 38.7687 2.29086 40.5596 4.5 40.5596H36.5C38.7091 40.5596 40.5 38.7687 40.5 36.5596V4.55957C40.5 2.35043 38.7091 0.55957 36.5 0.55957Z" fill="#25D366"/>
<path fill-rule="evenodd" clip-rule="evenodd" d="M29.003 12.0446C27.8933 10.9352 26.5752 10.0562 25.1245 9.45812C23.6738 8.86003 22.1191 8.55468 20.55 8.55963C13.963 8.55963 8.603 13.8896 8.6 20.4426C8.6 22.5376 9.15 24.5826 10.195 26.3826L8.5 32.5436L14.835 30.8906C16.5884 31.8401 18.551 32.3371 20.545 32.3366H20.55C27.136 32.3366 32.498 27.0056 32.5 20.4536C32.5042 18.8902 32.1972 17.3416 31.5968 15.8981C30.9964 14.4545 30.1147 13.1449 29.003 12.0456V12.0446ZM20.55 30.3286H20.546C18.7684 30.3293 17.023 29.8542 15.491 28.9526L15.128 28.7376L11.368 29.7186L12.372 26.0736L12.136 25.6996C11.1419 24.127 10.6155 22.3041 10.618 20.4436C10.62 14.9976 15.076 10.5666 20.555 10.5666C21.8584 10.5631 23.1497 10.8173 24.3546 11.3144C25.5595 11.8116 26.6543 12.542 27.576 13.4636C28.5002 14.3771 29.2332 15.4655 29.7323 16.6653C30.2314 17.8651 30.4866 19.1522 30.483 20.4516C30.48 25.8976 26.025 30.3286 20.55 30.3286ZM25.998 22.9316C25.7 22.7826 24.232 22.0646 23.958 21.9656C23.684 21.8656 23.485 21.8166 23.286 22.1146C23.088 22.4116 22.516 23.0806 22.341 23.2786C22.167 23.4766 21.993 23.5016 21.694 23.3526C21.396 23.2036 20.434 22.8906 19.293 21.8796C18.405 21.0916 17.806 20.1196 17.632 19.8216C17.457 19.5246 17.613 19.3636 17.762 19.2166C17.896 19.0826 18.061 18.8696 18.21 18.6966C18.36 18.5226 18.41 18.3986 18.509 18.2006C18.609 18.0026 18.559 17.8296 18.484 17.6806C18.41 17.5316 17.813 16.0706 17.564 15.4756C17.321 14.8966 17.074 14.9756 16.892 14.9656C16.718 14.9576 16.519 14.9556 16.32 14.9556C16.12 14.9556 15.797 15.0296 15.523 15.3276C15.249 15.6246 14.478 16.3436 14.478 17.8046C14.478 19.2646 15.548 20.6776 15.698 20.8766C15.847 21.0746 17.803 24.0736 20.798 25.3596C21.51 25.6656 22.067 25.8496 22.5 25.9856C23.215 26.2116 23.866 26.1806 24.38 26.1036C24.954 26.0186 26.147 25.3856 26.396 24.6916C26.645 23.9986 26.645 23.4036 26.57 23.2796C26.496 23.1556 26.296 23.0806 25.998 22.9316Z" fill="white"/>
</svg>
