<svg width="41" height="41" viewBox="0 0 41 41" fill="none" xmlns="http://www.w3.org/2000/svg">
<path d="M36.5 0.55957H4.5C2.29086 0.55957 0.5 2.35043 0.5 4.55957V36.5596C0.5 38.7687 2.29086 40.5596 4.5 40.5596H36.5C38.7091 40.5596 40.5 38.7687 40.5 36.5596V4.55957C40.5 2.35043 38.7091 0.55957 36.5 0.55957Z" fill="#FABC2C"/>
<path d="M20.9424 17.6838C20.8843 17.6251 20.8152 17.5786 20.739 17.5468C20.6627 17.515 20.581 17.4987 20.4984 17.4987C20.4159 17.4987 20.3341 17.515 20.2579 17.5468C20.1817 17.5786 20.1125 17.6251 20.0544 17.6838L12.7024 25.1138C12.6445 25.1723 12.5756 25.2187 12.4996 25.2505C12.4237 25.2823 12.3422 25.2987 12.2598 25.2989C12.1775 25.2991 12.096 25.283 12.0199 25.2516C11.9438 25.2202 11.8746 25.174 11.8164 25.1158L10.9404 24.2388C10.8235 24.1216 10.7578 23.9628 10.7578 23.7973C10.7578 23.6317 10.8235 23.473 10.9404 23.3558L20.0564 14.2388C20.1145 14.1807 20.1834 14.1347 20.2592 14.1033C20.3351 14.0718 20.4163 14.0557 20.4984 14.0557C20.5805 14.0557 20.6618 14.0718 20.7376 14.1033C20.8135 14.1347 20.8824 14.1807 20.9404 14.2388L30.0564 23.3558C30.1734 23.473 30.239 23.6317 30.239 23.7973C30.239 23.9628 30.1734 24.1216 30.0564 24.2388L29.1804 25.1158C29.1222 25.1739 29.053 25.22 28.9768 25.2514C28.9007 25.2827 28.8191 25.2987 28.7368 25.2984C28.6545 25.2981 28.573 25.2816 28.4971 25.2497C28.4212 25.2179 28.3523 25.1713 28.2944 25.1128L20.9424 17.6828V17.6838Z" fill="#714203"/>
</svg>
