<svg width="16" height="15" viewBox="0 0 16 15" fill="none" xmlns="http://www.w3.org/2000/svg">
<path d="M0.677886 12.9548C0.525515 12.7666 0.447089 12.5918 0.442607 12.4305C0.442607 12.2737 0.50983 12.1459 0.644275 12.0473C0.765275 11.9577 0.892997 11.9107 1.02744 11.9062C1.16637 11.9017 1.3165 11.8905 1.47783 11.8726C1.63917 11.8546 1.8117 11.7762 1.99544 11.6373C2.1523 11.5208 2.25985 11.3729 2.31811 11.1936C2.37637 11.0099 2.42791 10.8127 2.47272 10.6021C2.51754 10.3869 2.59596 10.1696 2.708 9.95C2.82004 9.72592 3.0105 9.51305 3.27939 9.31138C3.6155 9.05146 3.99195 8.91029 4.40873 8.88788C4.82551 8.86099 5.23556 8.9439 5.6389 9.13661C6.04223 9.32483 6.38955 9.61389 6.68085 10.0038C7.00799 10.434 7.19846 10.8844 7.25224 11.3549C7.3105 11.821 7.23879 12.2714 7.03712 12.7061C6.83546 13.1408 6.50607 13.5285 6.04896 13.8691C5.6501 14.1648 5.20419 14.3598 4.71123 14.4539C4.21827 14.5525 3.71858 14.557 3.21217 14.4673C2.71024 14.3822 2.23745 14.2097 1.79378 13.9497C1.35011 13.6898 0.978146 13.3582 0.677886 12.9548ZM7.04385 9.02233C6.7884 8.7624 6.50383 8.54505 6.19012 8.37027C5.87642 8.19549 5.57616 8.08121 5.28934 8.02744C5.33416 7.77647 5.41482 7.53895 5.53134 7.31488C5.65234 7.0908 5.8204 6.86897 6.03551 6.64938C6.06688 6.61353 6.10049 6.57767 6.13634 6.54182C6.1722 6.50597 6.21029 6.47012 6.25062 6.43427C6.67188 6.50597 7.07074 6.64266 7.44718 6.84432C7.82811 7.04151 8.1687 7.29247 8.46896 7.59721C8.7737 7.90196 9.02691 8.24479 9.22857 8.62572C9.43472 9.00216 9.56917 9.40326 9.63191 9.829C9.60054 9.86485 9.56693 9.9007 9.53107 9.93655C9.49522 9.9724 9.45937 10.006 9.42352 10.0374C9.20841 10.248 8.99106 10.4138 8.77146 10.5348C8.55187 10.6558 8.30987 10.7387 8.04546 10.7836C7.99616 10.5012 7.88189 10.2032 7.70263 9.8895C7.52785 9.57131 7.30825 9.28225 7.04385 9.02233ZM13.4367 0.854808C13.6697 0.684511 13.905 0.597122 14.1425 0.59264C14.3801 0.588159 14.6019 0.646418 14.808 0.767418C15.0142 0.888419 15.1755 1.04975 15.292 1.25142C15.413 1.45309 15.4735 1.67716 15.4735 1.92364C15.4735 2.16564 15.3906 2.4054 15.2248 2.64292C15.18 2.70118 15.0792 2.84459 14.9223 3.07315C14.7655 3.29722 14.5638 3.58404 14.3173 3.93359C14.0708 4.28315 13.7907 4.6708 13.477 5.09654C13.1678 5.52228 12.8384 5.96371 12.4889 6.42082C12.1438 6.87345 11.792 7.32384 11.4335 7.77199C11.0794 8.22014 10.7299 8.63692 10.3848 9.02233C10.1249 8.22462 9.70137 7.53447 9.1143 6.95188C8.5317 6.36928 7.84379 5.94802 7.05057 5.6881C7.44046 5.3475 7.85724 4.99795 8.30091 4.63943C8.74905 4.28091 9.20169 3.92911 9.6588 3.58404C10.1204 3.23448 10.5641 2.90509 10.9898 2.59587C11.4155 2.28664 11.801 2.00879 12.146 1.76231C12.4911 1.51583 12.7779 1.31416 13.0065 1.15731C13.235 0.995975 13.3784 0.895141 13.4367 0.854808Z" fill="black"/>
</svg>
