<svg width="9" height="9" viewBox="0 0 9 9" fill="none" xmlns="http://www.w3.org/2000/svg">
<path d="M4.37495 4.39193C4.37495 4.53033 4.26275 4.64252 4.12435 4.64252C3.98595 4.64252 3.87375 4.53033 3.87375 4.39193C3.87375 4.25353 3.98595 4.14133 4.12435 4.14133C4.26275 4.14133 4.37495 4.25353 4.37495 4.39193Z" fill="#1C1D1D"/>
<path d="M4.37495 4.39193C4.37495 4.53033 4.26275 4.64252 4.12435 4.64252C3.98595 4.64252 3.87375 4.53033 3.87375 4.39193C3.87375 4.25353 3.98595 4.14133 4.12435 4.14133M4.37495 4.39193C4.37495 4.25353 4.26275 4.14133 4.12435 4.14133M4.37495 4.39193H5.62793M4.12435 4.14133V2.55422M7.13151 4.39193C7.13151 6.05274 5.78516 7.39909 4.12435 7.39909C2.46354 7.39909 1.11719 6.05274 1.11719 4.39193C1.11719 2.73112 2.46354 1.38477 4.12435 1.38477C5.78516 1.38477 7.13151 2.73112 7.13151 4.39193Z" stroke="#1C1D1D" stroke-width="0.501194" stroke-linecap="round" stroke-linejoin="round"/>
</svg>
