<svg width="8" height="9" viewBox="0 0 8 9" fill="none" xmlns="http://www.w3.org/2000/svg">
<path d="M1.90402 8.39139C1.49341 8.39139 1.18292 8.28747 0.972547 8.07963C0.762175 7.87179 0.656988 7.56384 0.656988 7.15577V3.41468C0.656988 3.00914 0.762175 2.70246 0.972547 2.49462C1.18292 2.28425 1.49341 2.17906 1.90402 2.17906H3.00657V2.92804H1.94964C1.77222 2.92804 1.63662 2.97493 1.54283 3.06871C1.45159 3.15995 1.40597 3.29809 1.40597 3.48312V7.09113C1.40597 7.27616 1.45159 7.4143 1.54283 7.50554C1.63662 7.59932 1.77222 7.64621 1.94964 7.64621H6.2344C6.40929 7.64621 6.54362 7.59932 6.6374 7.50554C6.73372 7.4143 6.78187 7.27616 6.78187 7.09113V3.48312C6.78187 3.29809 6.73372 3.15995 6.6374 3.06871C6.54362 2.97493 6.40929 2.92804 6.2344 2.92804H5.18127V2.17906H6.28382C6.69443 2.17906 7.00492 2.28425 7.21529 2.49462C7.42566 2.70246 7.53085 3.00914 7.53085 3.41468V7.15577C7.53085 7.5613 7.42566 7.86799 7.21529 8.07583C7.00492 8.2862 6.69443 8.39139 6.28382 8.39139H1.90402ZM4.09392 5.92775C4.0483 5.92775 4.00394 5.92014 3.96085 5.90494C3.91776 5.88719 3.87214 5.85551 3.82398 5.80989L2.54654 4.57807C2.48317 4.51217 2.45149 4.4374 2.45149 4.35375C2.45149 4.26504 2.48064 4.19281 2.53894 4.13705C2.59977 4.08128 2.67454 4.0534 2.76325 4.0534C2.85956 4.0534 2.93814 4.08762 2.99897 4.15606L3.53124 4.72254L3.77836 5.00008L3.74034 4.43359V0.494811C3.74034 0.40103 3.77456 0.319923 3.84299 0.251488C3.91396 0.183054 3.9976 0.148837 4.09392 0.148837C4.19023 0.148837 4.27261 0.183054 4.34104 0.251488C4.41201 0.319923 4.4475 0.40103 4.4475 0.494811V4.43359L4.40948 5.00008L4.6528 4.72254L5.18507 4.15606C5.24843 4.08762 5.32701 4.0534 5.42079 4.0534C5.50696 4.0534 5.58047 4.08128 5.6413 4.13705C5.70466 4.19281 5.73635 4.26504 5.73635 4.35375C5.73635 4.4374 5.7034 4.51217 5.6375 4.57807L4.36005 5.80989C4.31443 5.85551 4.27007 5.88719 4.22699 5.90494C4.1839 5.92014 4.13954 5.92775 4.09392 5.92775Z" fill="#3572EF"/>
</svg>
