<svg width="42" height="43" viewBox="0 0 42 43" fill="none" xmlns="http://www.w3.org/2000/svg">
<path d="M31.7464 16.5296V27.032C31.7464 28.1422 31.7464 28.6972 31.5406 29.1829C31.4729 29.3428 31.3893 29.4955 31.2911 29.6387C30.9927 30.0737 30.5251 30.3727 29.5898 30.9708L23.6024 34.7993C22.5183 35.4925 21.9763 35.8391 21.3787 35.9073C21.1828 35.9297 20.9849 35.9297 20.7889 35.9073C20.1914 35.8391 19.6493 35.4925 18.5653 34.7993L12.5778 30.9708C11.6425 30.3727 11.1749 30.0737 10.8765 29.6387C10.7783 29.4955 10.6947 29.3428 10.627 29.1829C10.4212 28.6972 10.4212 28.1421 10.4212 27.032V16.5296M36.6676 14.1471L23.0387 7.8735C22.1853 7.48068 21.7586 7.28427 21.3076 7.24526C21.1587 7.23238 21.0089 7.23238 20.86 7.24526C20.409 7.28427 19.9823 7.48068 19.1289 7.8735L5.5 14.1471L19.0466 20.7054C19.9344 21.1352 20.3783 21.3501 20.8499 21.3928C21.0055 21.4068 21.1621 21.4068 21.3177 21.3928C21.7894 21.3501 22.2332 21.1352 23.121 20.7054L36.6676 14.1471ZM36.6676 14.1471V30.1762C36.6676 31.1937 36.6676 31.7024 36.491 32.1566C36.4327 32.3063 36.3607 32.4503 36.2759 32.5868C36.0185 33.0006 35.6115 33.3058 34.7976 33.9163L32.7717 35.4357" stroke="#1C1D1D" stroke-width="2.5973" stroke-linecap="round" stroke-linejoin="round"/>
</svg>
