<svg width="9" height="9" viewBox="0 0 9 9" fill="none" xmlns="http://www.w3.org/2000/svg">
<path d="M4.11357 3.05581C4.11357 3.24034 3.96398 3.38994 3.77944 3.38994C3.59491 3.38994 3.44531 3.24034 3.44531 3.05581C3.44531 2.87127 3.59491 2.72168 3.77944 2.72168C3.96398 2.72168 4.11357 2.87127 4.11357 3.05581Z" fill="#1C1D1D"/>
<path d="M4.87016 3.05541H6.03961M3.7007 4.39193H6.03961M3.7007 5.72845H6.03961M4.33555 7.39909H5.40476C6.1565 7.39909 6.53237 7.39909 6.79586 7.20765C6.88096 7.14583 6.95579 7.07099 7.01762 6.98589C7.20906 6.7224 7.20906 6.34653 7.20906 5.5948V3.18906C7.20906 2.43733 7.20906 2.06146 7.01762 1.79796C6.95579 1.71287 6.88096 1.63803 6.79586 1.5762C6.53237 1.38477 6.1565 1.38477 5.40476 1.38477H4.33555C3.58381 1.38477 3.20794 1.38477 2.94445 1.5762C2.85935 1.63803 2.78452 1.71287 2.72269 1.79796C2.53125 2.06146 2.53125 2.43733 2.53125 3.18906V5.59479C2.53125 6.34653 2.53125 6.7224 2.72269 6.98589C2.78452 7.07099 2.85935 7.14583 2.94445 7.20765C3.20794 7.39909 3.58381 7.39909 4.33555 7.39909Z" stroke="#1C1D1D" stroke-width="0.501194" stroke-linecap="round" stroke-linejoin="round"/>
</svg>
