<svg width="25" height="34" viewBox="0 0 25 34" fill="none" xmlns="http://www.w3.org/2000/svg">
<path d="M4.36547 0.811523H15.0916C15.6291 0.811638 16.1444 1.02522 16.5244 1.40528L24.0365 8.91745C24.4166 9.29741 24.6302 9.81277 24.6303 10.3502V29.1823C24.6303 30.2572 24.2033 31.2881 23.4432 32.0482C22.6831 32.8082 21.6522 33.2352 20.5773 33.2352H4.36547C3.29055 33.2352 2.25966 32.8082 1.49959 32.0482C0.739507 31.2881 0.3125 30.2572 0.3125 29.1823V4.86449C0.3125 3.78958 0.739507 2.75869 1.49959 1.99861C2.25966 1.23853 3.29055 0.811523 4.36547 0.811523V0.811523ZM15.5111 3.85125V7.90421C15.5111 8.44167 15.7246 8.95711 16.1047 9.33715C16.4847 9.71719 17.0001 9.9307 17.5376 9.9307H21.5906L15.5111 3.85125Z" fill="#F1351B"/>
<path d="M6.03516 22.2742C5.85277 22.2742 5.70281 22.2215 5.58528 22.1162C5.47179 22.0067 5.41505 21.873 5.41505 21.7149C5.41505 21.5528 5.47179 21.417 5.58528 21.3076C5.70281 21.1982 5.85277 21.1434 6.03516 21.1434C6.21349 21.1434 6.35939 21.1982 6.47288 21.3076C6.59041 21.417 6.64918 21.5528 6.64918 21.7149C6.64918 21.873 6.59041 22.0067 6.47288 22.1162C6.35939 22.2215 6.21349 22.2742 6.03516 22.2742ZM10.8211 19.3318C10.8211 19.579 10.7643 19.806 10.6508 20.0127C10.5374 20.2153 10.3631 20.3795 10.128 20.5051C9.89293 20.6307 9.60112 20.6936 9.25256 20.6936H8.60814V22.2256H7.56855V17.9578H9.25256C9.59301 17.9578 9.88077 18.0166 10.1158 18.1341C10.3509 18.2517 10.5272 18.4138 10.6448 18.6205C10.7623 18.8272 10.8211 19.0643 10.8211 19.3318ZM9.17353 19.8668C9.37212 19.8668 9.52006 19.8202 9.61733 19.7269C9.7146 19.6337 9.76324 19.502 9.76324 19.3318C9.76324 19.1615 9.7146 19.0298 9.61733 18.9366C9.52006 18.8434 9.37212 18.7968 9.17353 18.7968H8.60814V19.8668H9.17353ZM13.2651 17.9578C13.715 17.9578 14.1082 18.047 14.4446 18.2253C14.7809 18.4036 15.0403 18.6549 15.2227 18.9792C15.4092 19.2993 15.5024 19.6702 15.5024 20.0917C15.5024 20.5092 15.4092 20.88 15.2227 21.2042C15.0403 21.5285 14.7789 21.7798 14.4385 21.9581C14.1021 22.1364 13.711 22.2256 13.2651 22.2256H11.6662V17.9578H13.2651ZM13.1983 21.3258C13.5914 21.3258 13.8974 21.2184 14.1163 21.0036C14.3351 20.7888 14.4446 20.4848 14.4446 20.0917C14.4446 19.6986 14.3351 19.3926 14.1163 19.1737C13.8974 18.9548 13.5914 18.8454 13.1983 18.8454H12.7058V21.3258H13.1983ZM19.1656 17.9578V18.7907H17.4269V19.6905H18.7279V20.499H17.4269V22.2256H16.3873V17.9578H19.1656Z" fill="white"/>
</svg>
