<svg width="48" height="47" viewBox="0 0 48 47" fill="none" xmlns="http://www.w3.org/2000/svg">
<rect x="0.744077" y="0.645444" width="46.6814" height="45.7089" rx="11.1841" fill="white"/>
<rect x="0.744077" y="0.645444" width="46.6814" height="45.7089" rx="11.1841" stroke="#E7EAE9" stroke-width="0.972529"/>
<path d="M14.5781 21.8005C14.5781 20.7227 14.7801 19.7122 15.1843 18.7691C15.5949 17.8196 16.1595 16.9856 16.878 16.2671C17.5966 15.5421 18.4274 14.9775 19.3705 14.5733C20.32 14.1692 21.3337 13.9671 22.4115 13.9671C23.4957 13.9671 24.5094 14.1692 25.4525 14.5733C26.402 14.9775 27.236 15.5421 27.9545 16.2671C28.6731 16.9856 29.2344 17.8196 29.6386 18.7691C30.0492 19.7122 30.2545 20.7227 30.2545 21.8005C30.2545 22.6473 30.123 23.4525 29.86 24.2159C29.6033 24.9794 29.2473 25.6755 28.7918 26.3042L33.18 30.7117C33.3147 30.84 33.4142 30.9908 33.4783 31.164C33.5489 31.3372 33.5842 31.5201 33.5842 31.7125C33.5842 31.982 33.5232 32.2258 33.4013 32.4439C33.2795 32.662 33.1126 32.8321 32.9009 32.954C32.6892 33.0823 32.4454 33.1464 32.1696 33.1464C31.9771 33.1464 31.791 33.1111 31.6114 33.0406C31.4382 32.9764 31.281 32.8738 31.1399 32.7326L26.7227 28.3155C26.1068 28.7261 25.4332 29.0501 24.7018 29.2875C23.9769 29.5184 23.2134 29.6339 22.4115 29.6339C21.3337 29.6339 20.32 29.4318 19.3705 29.0276C18.4274 28.6234 17.5966 28.0621 16.878 27.3435C16.1595 26.625 15.5949 25.7942 15.1843 24.8511C14.7801 23.9016 14.5781 22.8847 14.5781 21.8005ZM16.6278 21.8005C16.6278 22.6024 16.7754 23.3531 17.0705 24.0524C17.372 24.7516 17.7891 25.3675 18.3215 25.9C18.854 26.4261 19.4699 26.8399 20.1692 27.1414C20.8685 27.443 21.6159 27.5937 22.4115 27.5937C23.2134 27.5937 23.964 27.443 24.6633 27.1414C25.3626 26.8399 25.9753 26.4261 26.5014 25.9C27.0339 25.3675 27.4509 24.7516 27.7524 24.0524C28.054 23.3531 28.2047 22.6024 28.2047 21.8005C28.2047 21.005 28.054 20.2575 27.7524 19.5582C27.4509 18.8589 27.0339 18.243 26.5014 17.7106C25.9753 17.1781 25.3626 16.7643 24.6633 16.4691C23.964 16.1676 23.2134 16.0168 22.4115 16.0168C21.6159 16.0168 20.8685 16.1676 20.1692 16.4691C19.4699 16.7643 18.854 17.1781 18.3215 17.7106C17.7891 18.243 17.372 18.8589 17.0705 19.5582C16.7754 20.2575 16.6278 21.005 16.6278 21.8005Z" fill="black"/>
</svg>
