<svg width="19" height="19" viewBox="0 0 19 19" fill="none" xmlns="http://www.w3.org/2000/svg">
<path d="M14.366 16.0258L8.90642 10.6973C8.81907 10.6157 8.75792 10.5313 8.72298 10.4439C8.68804 10.3566 8.67057 10.2518 8.67057 10.1295V2.3026H10.0682V9.05501L15.7986 5.77053L16.5062 6.98474L10.636 10.3391L15.423 15.0475L14.366 16.0258ZM9.36066 18.9696C8.12607 18.9696 6.96427 18.7338 5.87526 18.2621C4.78626 17.7962 3.82537 17.1468 2.9926 16.3141C2.16566 15.4813 1.51633 14.5204 1.04462 13.4314C0.572916 12.3424 0.337062 11.1806 0.337062 9.94602C0.337062 8.71143 0.572916 7.54963 1.04462 6.46062C1.51633 5.37162 2.16566 4.41364 2.9926 3.5867C3.82537 2.75393 4.78335 2.10169 5.86653 1.62998C6.95553 1.15827 8.11733 0.922419 9.35193 0.922419C10.5923 0.922419 11.7571 1.15827 12.8461 1.62998C13.9351 2.10169 14.896 2.75393 15.7287 3.5867C16.5615 4.41364 17.2137 5.37162 17.6854 6.46062C18.1571 7.54963 18.393 8.71143 18.393 9.94602C18.393 11.1806 18.1571 12.3424 17.6854 13.4314C17.2137 14.5204 16.5615 15.4813 15.7287 16.3141C14.896 17.1468 13.9351 17.7962 12.8461 18.2621C11.7571 18.7338 10.5953 18.9696 9.36066 18.9696ZM9.36066 17.1876C10.3681 17.1876 11.3086 17.0013 12.1822 16.6285C13.0557 16.2558 13.8244 15.7375 14.4883 15.0737C15.1522 14.4098 15.6705 13.6411 16.0432 12.7675C16.4159 11.894 16.6023 10.9535 16.6023 9.94602C16.6023 8.94437 16.4159 8.00677 16.0432 7.13324C15.6705 6.25388 15.1522 5.48226 14.4883 4.81838C13.8244 4.15449 13.0528 3.6362 12.1734 3.26349C11.2999 2.89078 10.3594 2.70443 9.35193 2.70443C8.35027 2.70443 7.40977 2.89078 6.53041 3.26349C5.65688 3.6362 4.89108 4.15449 4.23302 4.81838C3.57496 5.48226 3.05957 6.25388 2.68687 7.13324C2.31416 8.00677 2.12781 8.94437 2.12781 9.94602C2.12781 10.9535 2.31416 11.894 2.68687 12.7675C3.05957 13.6411 3.57496 14.4098 4.23302 15.0737C4.89691 15.7375 5.66562 16.2558 6.53915 16.6285C7.41851 17.0013 8.35901 17.1876 9.36066 17.1876Z" fill="#727272"/>
</svg>
