<svg width="18" height="16" viewBox="0 0 18 16" fill="none" xmlns="http://www.w3.org/2000/svg">
<path d="M5.53733 15.9335C5.24681 15.9335 5.01923 15.8391 4.8546 15.6502C4.69481 15.4614 4.61492 15.2048 4.61492 14.8803V13.0936H4.22271C3.52061 13.0936 2.91778 12.9581 2.4142 12.6869C1.91547 12.4157 1.53053 12.0284 1.25937 11.5248C0.993057 11.0164 0.859901 10.4014 0.859901 9.67997V4.04382C0.859901 3.32235 0.993057 2.70983 1.25937 2.20625C1.52568 1.69784 1.91063 1.30805 2.4142 1.0369C2.92262 0.765741 3.5424 0.630163 4.27355 0.630163H13.7228C14.4491 0.630163 15.0665 0.765741 15.5749 1.0369C16.0833 1.30805 16.4707 1.69784 16.737 2.20625C17.0033 2.70983 17.1365 3.32235 17.1365 4.04382V9.67997C17.1365 10.4014 17.0033 11.0164 16.737 11.5248C16.4707 12.0284 16.0833 12.4157 15.5749 12.6869C15.0665 12.9581 14.4491 13.0936 13.7228 13.0936H9.23425L6.75027 15.2943C6.50332 15.5122 6.29027 15.672 6.11112 15.7737C5.93196 15.8802 5.7407 15.9335 5.53733 15.9335ZM5.89322 14.3284L8.19562 12.0477C8.35057 11.8928 8.49341 11.7911 8.62415 11.7427C8.75972 11.6894 8.93888 11.6628 9.16161 11.6628H13.6793C14.3668 11.6628 14.8752 11.4933 15.2045 11.1544C15.5386 10.8106 15.7057 10.3022 15.7057 9.62913V4.08739C15.7057 3.41919 15.5386 2.91562 15.2045 2.57667C14.8752 2.23289 14.3668 2.06099 13.6793 2.06099H4.30987C3.62714 2.06099 3.11872 2.23289 2.78462 2.57667C2.45536 2.91562 2.29073 3.41919 2.29073 4.08739V9.62913C2.29073 10.3022 2.45536 10.8106 2.78462 11.1544C3.11872 11.4933 3.62714 11.6628 4.30987 11.6628H5.30491C5.50828 11.6628 5.65596 11.7088 5.74796 11.8008C5.8448 11.888 5.89322 12.0405 5.89322 12.2584V14.3284ZM6.06754 9.73808C5.69954 9.73808 5.41144 9.64124 5.20323 9.44756C4.99986 9.24903 4.89818 8.96819 4.89818 8.60504V5.15507C4.89818 4.79191 5.0047 4.51107 5.21776 4.31255C5.43081 4.10918 5.71407 4.0075 6.06754 4.0075H9.77898C10.147 4.0075 10.4278 4.10918 10.6215 4.31255C10.82 4.51107 10.9193 4.79191 10.9193 5.15507V8.59051C10.9193 8.94882 10.8152 9.22966 10.607 9.43303C10.4036 9.6364 10.1179 9.73808 9.74992 9.73808H6.06754ZM11.326 7.90778V5.84506L12.6261 4.73381C12.6987 4.68055 12.7714 4.63697 12.844 4.60307C12.9166 4.56434 12.9893 4.54497 13.0619 4.54497C13.2023 4.54497 13.3161 4.59097 13.4033 4.68297C13.4904 4.77013 13.534 4.89118 13.534 5.04612V8.69946C13.534 8.85925 13.4904 8.98514 13.4033 9.07714C13.3161 9.1643 13.2023 9.20787 13.0619 9.20787C12.9893 9.20787 12.9166 9.19093 12.844 9.15703C12.7714 9.1183 12.6987 9.06988 12.6261 9.01177L11.326 7.90778Z" fill="#727272"/>
</svg>
