<svg width="22" height="22" viewBox="0 0 22 22" fill="none" xmlns="http://www.w3.org/2000/svg">
<path d="M8.10156 13.2939H13.414" stroke="#727272" stroke-width="1.59373" stroke-linecap="round" stroke-linejoin="round"/>
<path d="M8.10156 10.6377H13.414" stroke="#727272" stroke-width="1.59373" stroke-linecap="round" stroke-linejoin="round"/>
<path d="M13.4297 3.99707H16.7498C16.926 3.99707 17.0949 4.06703 17.2194 4.19157C17.3439 4.3161 17.4139 4.48501 17.4139 4.66112V18.6063C17.4139 18.7824 17.3439 18.9513 17.2194 19.0758C17.0949 19.2004 16.926 19.2703 16.7498 19.2703H4.79687C4.62075 19.2703 4.45184 19.2004 4.32731 19.0758C4.20278 18.9513 4.13281 18.7824 4.13281 18.6063V4.66112C4.13281 4.48501 4.20278 4.3161 4.32731 4.19157C4.45184 4.06703 4.62075 3.99707 4.79687 3.99707H8.11696" stroke="#727272" stroke-width="1.59373" stroke-linecap="round" stroke-linejoin="round"/>
<path d="M7.45312 6.65327V5.98922C7.45313 5.10863 7.80294 4.2641 8.42561 3.64143C9.04828 3.01876 9.8928 2.66895 10.7734 2.66895C11.654 2.66895 12.4985 3.01876 13.1212 3.64143C13.7439 4.2641 14.0937 5.10863 14.0937 5.98922V6.65327H7.45312Z" stroke="#727272" stroke-width="1.59373" stroke-linecap="round" stroke-linejoin="round"/>
</svg>
