<svg width="22" height="22" viewBox="0 0 22 22" fill="none" xmlns="http://www.w3.org/2000/svg">
<path d="M17.2733 3.49512H3.99218C3.62543 3.49512 3.32812 3.79242 3.32812 4.15917V17.4403C3.32812 17.807 3.62543 18.1043 3.99218 18.1043H17.2733C17.64 18.1043 17.9373 17.807 17.9373 17.4403V4.15917C17.9373 3.79242 17.64 3.49512 17.2733 3.49512Z" stroke="#727272" stroke-width="1.59373" stroke-linecap="round" stroke-linejoin="round"/>
<path d="M14.6094 2.16699V4.82321" stroke="#727272" stroke-width="1.59373" stroke-linecap="round" stroke-linejoin="round"/>
<path d="M6.64062 2.16699V4.82321" stroke="#727272" stroke-width="1.59373" stroke-linecap="round" stroke-linejoin="round"/>
<path d="M3.32812 7.48047H17.9373" stroke="#727272" stroke-width="1.59373" stroke-linecap="round" stroke-linejoin="round"/>
<path d="M7.64062 10.7988H9.96481L8.63671 12.459C8.85508 12.459 9.07009 12.5128 9.26268 12.6157C9.45528 12.7187 9.61953 12.8675 9.74088 13.049C9.86223 13.2306 9.93694 13.4393 9.95839 13.6566C9.97984 13.8739 9.94738 14.0932 9.86387 14.2949C9.78037 14.4967 9.64839 14.6748 9.47964 14.8134C9.31089 14.952 9.11056 15.0468 8.8964 15.0895C8.68224 15.1322 8.46086 15.1215 8.25185 15.0582C8.04285 14.9949 7.85267 14.8811 7.69816 14.7268" stroke="#727272" stroke-width="1.59373" stroke-linecap="round" stroke-linejoin="round"/>
<path d="M11.9531 11.7949L13.2812 10.7988V15.1152" stroke="#727272" stroke-width="1.59373" stroke-linecap="round" stroke-linejoin="round"/>
</svg>
