<svg width="19" height="16" viewBox="0 0 19 16" fill="none" xmlns="http://www.w3.org/2000/svg">
<path d="M8.38347 11.5521H7.32417L5.26646 13.3602C5.01482 13.5794 4.79363 13.7377 4.60288 13.8351C4.41618 13.9325 4.21934 13.9812 4.01235 13.9812C3.71201 13.9812 3.47661 13.8858 3.30615 13.695C3.13569 13.5043 3.05046 13.2425 3.05046 12.9097V11.5521H2.87391C2.30976 11.5521 1.81056 11.4324 1.37628 11.1929C0.946072 10.9534 0.607179 10.6105 0.359604 10.164C0.116087 9.7176 -0.005671 9.18593 -0.005671 8.56902V3.74131C-0.005671 3.12846 0.114058 2.59881 0.353516 2.15236C0.592973 1.70591 0.933896 1.36296 1.37628 1.1235C1.82273 0.879988 2.35644 0.75823 2.9774 0.75823H10.6116C11.2326 0.75823 11.7663 0.879988 12.2128 1.1235C12.6592 1.36296 13.0001 1.70591 13.2355 2.15236C13.475 2.59881 13.5947 3.12846 13.5947 3.74131V4.7519H12.024V3.83871C12.024 3.3395 11.8982 2.96408 11.6466 2.71245C11.399 2.45676 11.0236 2.32891 10.5203 2.32891H3.07481C2.56749 2.32891 2.18801 2.45676 1.93637 2.71245C1.6888 2.96408 1.56501 3.3395 1.56501 3.83871V8.4777C1.56501 8.97691 1.6888 9.35233 1.93637 9.60396C2.18801 9.8556 2.56749 9.98141 3.07481 9.98141H3.82971C4.01235 9.98141 4.15034 10.0261 4.24369 10.1153C4.3411 10.2006 4.3898 10.3447 4.3898 10.5476V12.2339L6.29532 10.365C6.44548 10.2148 6.58145 10.1133 6.70321 10.0606C6.82902 10.0078 6.99745 9.98141 7.2085 9.98141H7.74424L8.38347 11.5521ZM9.78978 12.8001C9.20939 12.8001 8.71019 12.6966 8.29215 12.4896C7.87817 12.2826 7.55957 11.9843 7.33635 11.5947C7.11718 11.2051 7.0076 10.7363 7.0076 10.1884V6.4626C7.0076 5.8944 7.11718 5.40736 7.33635 5.0015C7.55957 4.59564 7.87817 4.28516 8.29215 4.07005C8.71019 3.85089 9.20939 3.74131 9.78978 3.74131H15.6829C16.2673 3.74131 16.7665 3.85089 17.1805 4.07005C17.5945 4.28516 17.911 4.59564 18.1302 5.0015C18.3534 5.40736 18.465 5.8944 18.465 6.4626V10.1884C18.465 10.7363 18.3595 11.2051 18.1485 11.5947C17.9374 11.9843 17.633 12.2826 17.2353 12.4896C16.8375 12.6966 16.3586 12.8001 15.7985 12.8001H15.7011V14.0908C15.7011 14.4154 15.6159 14.6752 15.4454 14.87C15.275 15.0648 15.0416 15.1622 14.7453 15.1622C14.5586 15.1622 14.3598 15.1054 14.1487 14.9918C13.9377 14.8822 13.7205 14.732 13.4973 14.5413L11.47 12.8001H9.78978ZM10.015 11.3025H11.4761C11.6466 11.3025 11.817 11.341 11.9875 11.4182C12.158 11.4912 12.3163 11.5988 12.4624 11.7408L14.3618 13.488V11.9235C14.3618 11.7246 14.4186 11.5724 14.5323 11.4669C14.6459 11.3573 14.792 11.3025 14.9706 11.3025H15.4637C15.9467 11.3025 16.312 11.1767 16.5595 10.925C16.8071 10.6734 16.9309 10.3142 16.9309 9.84748V6.70003C16.9309 6.22923 16.8071 5.86802 16.5595 5.61638C16.312 5.36475 15.9467 5.23893 15.4637 5.23893H10.015C9.528 5.23893 9.16069 5.36475 8.91312 5.61638C8.6696 5.86802 8.54784 6.22923 8.54784 6.70003V9.84748C8.54784 10.3142 8.6696 10.6734 8.91312 10.925C9.16069 11.1767 9.528 11.3025 10.015 11.3025Z" fill="#727272"/>
</svg>
