<svg width="10" height="7" viewBox="0 0 10 7" fill="none" xmlns="http://www.w3.org/2000/svg">
<path d="M1.52765 6.37149C1.06338 6.37149 0.701883 6.24817 0.443152 6.00153C0.186838 5.75731 0.0586812 5.40669 0.0586812 4.94968V1.74697C0.0586812 1.29238 0.191674 0.93934 0.45766 0.687862C0.723646 0.433967 1.08031 0.307019 1.52765 0.307019H5.29981C5.76408 0.307019 6.12437 0.433967 6.38068 0.687862C6.63699 0.93934 6.76515 1.29238 6.76515 1.74697V4.92792C6.76515 5.38493 6.63699 5.73917 6.38068 5.99065C6.12437 6.24455 5.76408 6.37149 5.29981 6.37149H1.52765ZM1.64371 5.72225H5.18012C5.46303 5.72225 5.68186 5.64729 5.83662 5.49737C5.99379 5.34745 6.07238 5.12378 6.07238 4.82636V1.85215C6.07238 1.55473 5.995 1.33106 5.84024 1.18114C5.68549 1.02881 5.46545 0.952639 5.18012 0.952639H1.64371C1.3608 0.952639 1.14076 1.0276 0.983586 1.17752C0.828831 1.32744 0.751453 1.55232 0.751453 1.85215V4.82636C0.751453 5.12378 0.828831 5.34745 0.983586 5.49737C1.14076 5.64729 1.3608 5.72225 1.64371 5.72225ZM6.64546 2.30554L8.07453 1.0941C8.15916 1.02397 8.24379 0.967147 8.32842 0.923622C8.41547 0.880097 8.50252 0.858335 8.58957 0.858335C8.75642 0.858335 8.89062 0.912741 8.99218 1.02155C9.09615 1.13037 9.14814 1.27424 9.14814 1.45318V5.23985C9.14814 5.41878 9.09615 5.56387 8.99218 5.6751C8.89062 5.78391 8.75642 5.83831 8.58957 5.83831C8.50252 5.83831 8.41547 5.81655 8.32842 5.77303C8.24379 5.7295 8.15916 5.67147 8.07453 5.59893L6.64546 4.38748V3.61854L8.34656 5.01134C8.36348 5.02101 8.37799 5.03068 8.39008 5.04036C8.40217 5.04761 8.41547 5.05124 8.42998 5.05124C8.46867 5.05124 8.48801 5.02464 8.48801 4.97144V1.72521C8.48801 1.66959 8.46867 1.64178 8.42998 1.64178C8.41547 1.64178 8.40217 1.64662 8.39008 1.65629C8.37799 1.66355 8.36348 1.67322 8.34656 1.68531L6.64546 3.07811V2.30554Z" fill="white"/>
</svg>
