<svg width="96" height="24" viewBox="0 0 96 24" fill="none" xmlns="http://www.w3.org/2000/svg">
<path d="M38.2668 14.0571L43.4838 20.5714H39.3642L34.7213 14.5886V20.5714H31.3446V3.42862H34.7213V13.5086L39.0096 8.57137H43.3148L38.2668 14.0571ZM24.7602 8.22863C24.0209 8.23987 23.2953 8.43288 22.6455 8.79113C21.9957 9.14939 21.4411 9.66221 21.0292 10.2857V8.57137H17.8383V20.5714H21.2148V14.9657C21.1704 14.5588 21.2091 14.147 21.3282 13.7559C21.4474 13.3649 21.6446 13.0029 21.9074 12.6925C22.1703 12.3822 22.4933 12.1301 22.8563 11.9519C23.2193 11.7738 23.6145 11.6734 24.0174 11.6571C25.9759 11.6571 26.2798 13.6114 26.2798 14.9657V20.5714H29.6565V14.2114C29.6565 10.44 28.4239 8.22863 24.8278 8.22863H24.7602ZM54.981 14.8457C54.9939 15.0969 54.9939 15.3487 54.981 15.6H46.1174V15.72C46.2613 16.4349 46.6513 17.0743 47.2175 17.5235C47.7838 17.9728 48.4891 18.2025 49.2071 18.1714C49.7766 18.1965 50.3453 18.1047 50.8791 17.9015C51.4128 17.6983 51.9008 17.3878 52.3136 16.9886L54.5591 18.7029C53.8474 19.4404 52.9914 20.0181 52.0463 20.399C51.1012 20.7799 50.0879 20.9555 49.0719 20.9143C48.2305 20.9683 47.3875 20.8383 46.5998 20.5331C45.8121 20.228 45.098 19.7547 44.5059 19.1453C43.9138 18.5359 43.4573 17.8046 43.1674 17.0008C42.8774 16.1969 42.7608 15.3392 42.8253 14.4857C42.808 13.6431 42.9618 12.8059 43.2771 12.0263C43.5925 11.2467 44.0626 10.5414 44.6581 9.95434C45.2537 9.36731 45.962 8.91113 46.7388 8.61422C47.5156 8.31732 48.3443 8.18606 49.1733 8.22863C52.3474 8.22863 54.981 10.5086 54.981 14.8457ZM51.8409 13.3714C51.8285 13.0318 51.7481 12.6984 51.6046 12.3914C51.4612 12.0844 51.2577 11.8103 51.0065 11.5857C50.7554 11.3612 50.4618 11.1909 50.1438 11.0853C49.8257 10.9797 49.4898 10.9409 49.1565 10.9714C47.6718 10.8084 46.3273 11.8703 46.1174 13.3714H51.8409ZM4.33176 3.42862H0.955078V20.5714H11.0849V17.1431H4.33176V3.42862ZM65.111 3.42862H68.4875V20.5714H65.2966V19.3714C64.8914 19.8783 64.375 20.2818 63.7887 20.5497C63.2024 20.8177 62.5625 20.9425 61.9201 20.9143C61.1353 20.8939 60.363 20.7106 59.6505 20.376C58.938 20.0413 58.3005 19.5621 57.7771 18.9681C57.2537 18.374 56.8555 17.6775 56.6069 16.9214C56.3584 16.1653 56.2647 15.3656 56.3318 14.5714C56.2521 13.7761 56.3363 12.9726 56.579 12.2121C56.8218 11.4517 57.2178 10.7508 57.7418 10.1542C58.2659 9.5576 58.9065 9.07829 59.6229 8.74678C60.3393 8.41526 61.1159 8.2388 61.9031 8.22863C62.4895 8.20254 63.0751 8.29521 63.6259 8.50123C64.1766 8.70725 64.6815 9.0225 65.111 9.42863V3.42862ZM65.3642 14.5714C65.4173 14.1755 65.3862 13.7727 65.2729 13.3901C65.1597 13.0075 64.967 12.654 64.7078 12.3534C64.4486 12.0529 64.1289 11.8123 63.7704 11.6478C63.4118 11.4833 63.0227 11.3988 62.6292 11.4C61.014 11.5191 59.7901 12.9294 59.8772 14.5714C59.7901 16.2133 61.014 17.6239 62.6292 17.7429C63.0227 17.7441 63.4118 17.6596 63.7704 17.4951C64.129 17.3307 64.4487 17.09 64.7079 16.7894C64.9671 16.4889 65.1598 16.1353 65.273 15.7527C65.3862 15.3701 65.4173 14.9672 65.3642 14.5714ZM14.4616 3.08569C13.9186 3.0935 13.3988 3.31023 13.0071 3.69211C12.6154 4.07398 12.3809 4.59256 12.3512 5.14313C12.3512 6.32644 13.2961 7.28588 14.4616 7.28588C15.6272 7.28588 16.5717 6.32625 16.5717 5.14313C16.5419 4.59263 16.3075 4.07412 15.9158 3.69229C15.5241 3.31045 15.0046 3.09354 14.4616 3.08569ZM12.7733 20.5714H16.15V8.57137H12.7733V20.5714ZM95.5006 1.71431V22.2857C95.5006 22.7404 95.3227 23.1764 95.0061 23.4979C94.6894 23.8194 94.26 24 93.8122 24H73.5525C73.1048 24 72.6753 23.8194 72.3587 23.4979C72.0421 23.1764 71.8642 22.7404 71.8642 22.2857V1.71431C71.8642 1.25965 72.0421 0.823606 72.3587 0.50211C72.6753 0.180615 73.1048 0 73.5525 0H93.8122C94.26 0 94.6894 0.180615 95.0061 0.50211C95.3227 0.823606 95.5006 1.25965 95.5006 1.71431ZM78.6174 8.57137H75.2409V20.5714H78.6174V8.57137ZM79.0395 5.14294C79.0395 3.95944 78.0946 3 76.9292 3C75.7636 3 74.8187 3.95944 74.8187 5.14294C74.8187 6.32625 75.7636 7.28569 76.9292 7.28569C78.0946 7.28569 79.0395 6.32625 79.0395 5.14294ZM92.1239 14.2114C92.1239 10.44 90.8915 8.22863 87.2954 8.22863C86.5446 8.22869 85.8053 8.41637 85.1428 8.77512C84.4803 9.13386 83.915 9.65264 83.4966 10.2857V8.57137H80.3057V20.5714H83.6824V14.9657C83.638 14.5588 83.6766 14.147 83.7958 13.7559C83.915 13.3649 84.1121 13.0029 84.375 12.6925C84.6379 12.3822 84.9609 12.1301 85.3239 11.9519C85.6869 11.7738 86.0821 11.6734 86.4849 11.6571C88.4434 11.6571 88.7474 13.6114 88.7474 14.9657V20.5714H92.1239V14.2114Z" fill="#0A66C2"/>
</svg>
