<svg width="33" height="24" viewBox="0 0 33 24" fill="none" xmlns="http://www.w3.org/2000/svg">
<path d="M9.59577 0.52002H6.09809C3.20504 0.52002 0.851562 2.7138 0.851562 5.41053V8.67088C0.851562 11.3676 3.20504 13.5614 6.09809 13.5614H9.59577C10.1573 13.5614 10.6882 13.4572 11.1958 13.304C10.4907 17.1435 6.919 20.0821 2.6004 20.0821C1.63376 20.0821 0.851562 20.8112 0.851562 21.7122C0.851562 22.6133 1.63376 23.3424 2.6004 23.3424C9.34989 23.3424 14.8423 18.2227 14.8423 11.9312V5.41053C14.8423 2.7138 12.4888 0.52002 9.59577 0.52002ZM27.0842 0.52002H23.5865C20.6935 0.52002 18.34 2.7138 18.34 5.41053V8.67088C18.34 11.3676 20.6935 13.5614 23.5865 13.5614H27.0842C27.6457 13.5614 28.1766 13.4572 28.6843 13.304C27.9791 17.1435 24.4074 20.0821 20.0888 20.0821C19.1222 20.0821 18.34 20.8112 18.34 21.7122C18.34 22.6133 19.1222 23.3424 20.0888 23.3424C26.8383 23.3424 32.3307 18.2227 32.3307 11.9312V5.41053C32.3307 2.7138 29.9773 0.52002 27.0842 0.52002Z" fill="#427DF5"/>
</svg>
