<svg width="155" height="64" viewBox="0 0 155 64" fill="none" xmlns="http://www.w3.org/2000/svg">
<g clip-path="url(#clip0_81_9794)">
<path d="M149.091 0H5.81818C2.60489 0 0 2.60489 0 5.81818V58.1818C0 61.3951 2.60489 64 5.81818 64H149.091C152.304 64 154.909 61.3951 154.909 58.1818V5.81818C154.909 2.60489 152.304 0 149.091 0Z" fill="white"/>
<path d="M34.4321 50.2663C33.9499 50.2663 33.5266 50.1608 33.1623 49.9507C32.8019 49.7353 32.5082 49.4244 32.3135 49.0525C32.1121 48.6692 32.0117 48.227 32.0117 47.7267C32.0117 47.2263 32.1121 46.787 32.3135 46.4081C32.5082 46.0362 32.8019 45.7253 33.1623 45.5099C33.5266 45.2947 33.9499 45.187 34.4321 45.187C34.9179 45.187 35.3412 45.2947 35.7012 45.5099C36.0663 45.7252 36.3492 46.0241 36.5506 46.4081C36.7514 46.7863 36.8517 47.2263 36.8517 47.7267C36.8517 48.227 36.7514 48.6692 36.5506 49.0525C36.3585 49.4265 36.0639 49.738 35.7012 49.9507C35.3412 50.1616 34.9179 50.2663 34.4321 50.2663ZM34.4321 49.747C34.7921 49.747 35.1077 49.667 35.379 49.5085C35.6554 49.3447 35.8775 49.1031 36.0175 48.8139C36.1717 48.5099 36.2488 48.1478 36.2488 47.7267C36.2488 47.3056 36.1717 46.9456 36.0168 46.6467C35.8779 46.3586 35.6557 46.1189 35.379 45.9587C35.1077 45.795 34.7921 45.7136 34.4321 45.7136C34.0714 45.7136 33.7535 45.795 33.4779 45.9587C33.203 46.1215 32.9813 46.3605 32.8394 46.6467C32.6895 46.9456 32.6146 47.3056 32.6146 47.7267C32.6146 48.1478 32.6895 48.5099 32.8394 48.8139C32.9935 49.1136 33.2066 49.3448 33.4779 49.5085C33.7543 49.6678 34.0714 49.747 34.4321 49.747ZM37.8561 50.1819V47.2001H37.3303V46.7027H37.8561V46.099C37.8561 45.7623 37.9404 45.5172 38.1092 45.3623C38.2772 45.2081 38.523 45.131 38.8452 45.131H39.1964V45.6365H38.9368C38.7586 45.6365 38.6328 45.6736 38.5579 45.7485C38.483 45.8183 38.4459 45.9405 38.4459 46.1136V46.7027H39.3012V47.2008H38.4459V50.1819H37.8561ZM40.1928 50.1819V47.2001H39.6663V46.7027H40.1928V46.099C40.1928 45.7623 40.2764 45.5172 40.4452 45.3623C40.6132 45.2081 40.859 45.131 41.1819 45.131H41.5324V45.6365H41.2728C41.0954 45.6365 40.9688 45.6736 40.8939 45.7485C40.819 45.8183 40.7819 45.9405 40.7819 46.1136V46.7027H42.9419V50.1819H42.3528V47.2001H40.7819V50.1819H40.1928ZM42.6546 46.0365C42.5477 46.0384 42.4444 45.9978 42.3674 45.9238C42.3284 45.8854 42.2977 45.8395 42.2772 45.7888C42.2567 45.7382 42.2468 45.6839 42.2481 45.6292C42.2481 45.5172 42.2874 45.4234 42.3674 45.3485C42.4446 45.2747 42.5478 45.2344 42.6546 45.2365C42.771 45.2365 42.8677 45.2736 42.9419 45.3485C43.0219 45.4234 43.0619 45.5172 43.0619 45.6292C43.0632 45.6839 43.0533 45.7382 43.0328 45.7888C43.0123 45.8395 42.9816 45.8854 42.9426 45.9238C42.9048 45.9611 42.8598 45.9903 42.8102 46.0096C42.7607 46.0288 42.7077 46.0385 42.6546 46.0365ZM45.5826 50.2663C45.2503 50.2663 44.9514 50.1914 44.6844 50.0416C44.4234 49.8879 44.208 49.6675 44.0604 49.403C43.9106 49.1267 43.8357 48.8067 43.8357 48.4423C43.8357 48.0772 43.9106 47.7594 44.0604 47.4881C44.2052 47.2215 44.4213 47.0005 44.6844 46.8496C44.9578 46.6935 45.2679 46.6137 45.5826 46.6183C45.9943 46.6183 46.3405 46.7259 46.6212 46.9412C46.9063 47.1565 47.0866 47.4438 47.1608 47.8038H46.5572C46.5371 47.7016 46.4963 47.6047 46.4372 47.519C46.3782 47.4333 46.3022 47.3607 46.2139 47.3056C46.0242 47.182 45.8017 47.1187 45.5754 47.1238C45.379 47.1238 45.1943 47.1725 45.0212 47.2707C44.8481 47.3688 44.7084 47.5165 44.6008 47.7128C44.4932 47.9092 44.4394 48.1521 44.4394 48.4423C44.4394 48.7325 44.4932 48.9754 44.6008 49.1718C44.7084 49.3681 44.8481 49.5179 45.0212 49.6205C45.1943 49.7187 45.379 49.7681 45.5754 49.7681C45.819 49.7681 46.0314 49.7099 46.2139 49.5928C46.3025 49.5348 46.3787 49.4596 46.4377 49.3717C46.4968 49.2837 46.5377 49.1848 46.5579 49.0808H47.1615C47.0967 49.4226 46.9063 49.7277 46.6277 49.9361C46.3426 50.1565 45.9943 50.2663 45.5826 50.2663ZM48.3419 45.931C48.2327 45.9338 48.1268 45.8933 48.0474 45.8183C47.9723 45.7389 47.9318 45.633 47.9346 45.5238C47.9346 45.4118 47.9724 45.3179 48.0474 45.243C48.1269 45.1683 48.2328 45.1281 48.3419 45.131C48.4539 45.131 48.5499 45.1688 48.6292 45.243C48.7092 45.3179 48.7484 45.4118 48.7484 45.5238C48.7497 45.5784 48.7398 45.6327 48.7193 45.6834C48.6988 45.734 48.6681 45.78 48.6292 45.8183C48.5521 45.8924 48.4488 45.9329 48.3419 45.931ZM48.0474 50.1819V46.7027H48.6364V50.1819H48.0474ZM50.8197 50.2663C50.5303 50.2663 50.2888 50.2168 50.0975 50.1187C49.9237 50.0355 49.7775 49.9039 49.6766 49.7397C49.5757 49.5754 49.5244 49.3855 49.5288 49.1928C49.5288 48.8372 49.6648 48.5638 49.9361 48.3718C50.2074 48.1805 50.5761 48.0845 51.0444 48.0845H51.9841V48.0423C51.9841 47.7383 51.9048 47.5092 51.7455 47.355C51.587 47.1958 51.3746 47.1165 51.1077 47.1165C50.8779 47.1165 50.6794 47.1747 50.5114 47.2918C50.3477 47.4038 50.2444 47.5703 50.2023 47.7899H49.5986C49.6226 47.5376 49.707 47.3245 49.8517 47.1514C50.0015 46.9783 50.1863 46.8474 50.4059 46.7587C50.6255 46.6648 50.8597 46.6183 51.1077 46.6183C51.5935 46.6183 51.9586 46.7492 52.2015 47.011C52.4495 47.2685 52.5739 47.6118 52.5739 48.0423V50.1819H52.0474L52.0124 49.5572C51.9104 49.7583 51.7612 49.9318 51.5775 50.0627C51.3906 50.1979 51.1375 50.2663 50.8197 50.2663ZM50.9114 49.7681C51.1354 49.7681 51.3274 49.7099 51.4859 49.5928C51.6503 49.4758 51.7739 49.3238 51.8583 49.1368C51.9419 48.9499 51.9841 48.7528 51.9841 48.5478V48.5405H51.0932C50.747 48.5405 50.5019 48.6016 50.3564 48.7223C50.2897 48.7748 50.236 48.8421 50.1996 48.9188C50.1631 48.9955 50.1449 49.0796 50.1463 49.1645C50.1463 49.347 50.2117 49.4947 50.3426 49.6067C50.4786 49.7143 50.6677 49.7681 50.9114 49.7681ZM53.4575 50.1819V45.131H54.0466V50.1819H53.4575ZM55.0124 50.1819V45.131H55.6015V50.1819H55.0124ZM56.947 51.7252L57.8095 49.8452H57.6059L56.2241 46.7027H56.8626L58.0132 49.4103L59.2335 46.7027H59.8444L57.5637 51.7252H56.947ZM62.0481 50.1819L63.8575 45.2714H64.4823L66.2859 50.1819H65.6612L65.2124 48.9194H63.1223L62.6663 50.1819H62.0481ZM63.2968 48.4423H65.0364L64.1666 46.0147L63.2968 48.4423ZM68.1746 50.2663C67.763 50.2663 67.435 50.1427 67.1928 49.8947C66.9492 49.6416 66.8277 49.2561 66.8277 48.7368V46.7027H67.4168V48.6736C67.4168 49.3987 67.7135 49.7608 68.3077 49.7608C68.6117 49.7608 68.8619 49.6532 69.0583 49.4387C69.259 49.2183 69.3601 48.9078 69.3601 48.5056V46.7019H69.9492V50.1819H69.4161L69.3739 49.5572C69.2663 49.7776 69.1048 49.9499 68.8895 50.0765C68.6794 50.203 68.4408 50.2663 68.1746 50.2663ZM72.2946 50.1819C71.9768 50.1819 71.7266 50.1048 71.5441 49.9507C71.3623 49.7958 71.2706 49.5179 71.2706 49.1158V47.2001H70.667V46.7019H71.2706L71.3477 45.867H71.8597V46.7019H72.8837V47.2001H71.8597V49.115C71.8597 49.3347 71.9041 49.4845 71.9928 49.5638C72.0823 49.6387 72.2386 49.6758 72.4634 49.6758H72.8277V50.1819H72.2946ZM73.6328 50.1819V45.131H74.2219V47.2983C74.339 47.0838 74.5048 46.9179 74.7201 46.8008C74.9354 46.6794 75.1688 46.6183 75.4212 46.6183C75.8234 46.6183 76.1463 46.7448 76.3892 46.9965C76.6328 47.2452 76.7543 47.6285 76.7543 48.1478V50.1819H76.1717V48.211C76.1717 47.4859 75.8801 47.123 75.2954 47.123C74.9914 47.123 74.7361 47.2336 74.5303 47.4532C74.3245 47.6685 74.2219 47.9769 74.2219 48.379V50.1819H73.6328ZM79.2328 50.2663C78.9048 50.2663 78.6103 50.1914 78.3484 50.0416C78.0867 49.892 77.8709 49.6737 77.7244 49.4103C77.5746 49.1339 77.4997 48.8118 77.4997 48.4423C77.4997 48.0728 77.5768 47.7521 77.731 47.4808C77.8859 47.2052 78.0939 46.9921 78.3557 46.843C78.628 46.6918 78.9352 46.6143 79.2466 46.6183C79.5739 46.6183 79.8685 46.6932 80.1303 46.843C80.3921 46.9921 80.5979 47.2052 80.7477 47.4808C80.9019 47.7521 80.979 48.0728 80.979 48.4423C80.979 48.8118 80.9019 49.1347 80.7477 49.4103C80.5997 49.6751 80.3812 49.8936 80.1165 50.0416C79.8546 50.1914 79.5601 50.2663 79.2328 50.2663ZM79.2328 49.7608C79.4335 49.7608 79.6204 49.7121 79.7935 49.6139C79.9666 49.5158 80.107 49.3681 80.2146 49.1718C80.3223 48.9754 80.3761 48.7325 80.3761 48.4423C80.3761 48.1521 80.3223 47.9092 80.2146 47.7128C80.1228 47.5282 79.979 47.3745 79.8008 47.2707C79.6323 47.1736 79.4411 47.1226 79.2466 47.123C79.0452 47.123 78.8583 47.1725 78.6852 47.2707C78.5059 47.3754 78.3599 47.5287 78.2641 47.7128C78.1572 47.9092 78.1034 48.1521 78.1034 48.4423C78.1034 48.7325 78.1572 48.9754 78.2641 49.1718C78.3717 49.3681 78.5099 49.5158 78.6779 49.6139C78.851 49.7121 79.0357 49.7608 79.2328 49.7608ZM81.7986 50.1819V46.7027H82.3317L82.3805 47.3688C82.4862 47.1417 82.6574 46.9512 82.8721 46.8219C83.0917 46.6859 83.363 46.6183 83.6859 46.6183V47.2358H83.5244C83.3292 47.2335 83.1356 47.2717 82.9557 47.3478C82.7808 47.4197 82.6351 47.5483 82.5419 47.7128C82.4394 47.8859 82.3877 48.1245 82.3877 48.4285V50.1819H81.7986ZM84.7048 45.931C84.5956 45.934 84.4896 45.8934 84.4103 45.8183C84.3352 45.7389 84.2947 45.633 84.2975 45.5238C84.2975 45.4118 84.3354 45.3179 84.4103 45.243C84.4897 45.1682 84.5957 45.1279 84.7048 45.131C84.8168 45.131 84.9128 45.1688 84.9921 45.243C85.0721 45.3179 85.1114 45.4118 85.1114 45.5238C85.1128 45.5784 85.1029 45.6328 85.0824 45.6835C85.0619 45.7341 85.0311 45.78 84.9921 45.8183C84.915 45.8924 84.8117 45.933 84.7048 45.931ZM84.4103 50.1819V46.7027H84.9994V50.1819H84.4103ZM87.3579 50.2663C86.9419 50.2663 86.5957 50.1608 86.3201 49.9507C86.0437 49.7398 85.883 49.4547 85.8357 49.0947H86.4394C86.4765 49.2765 86.5724 49.4365 86.7266 49.5718C86.8859 49.7027 87.099 49.7681 87.3652 49.7681C87.6132 49.7681 87.7957 49.7172 87.9121 49.6139C87.967 49.5672 88.0112 49.5092 88.0416 49.4438C88.072 49.3784 88.0878 49.3071 88.0881 49.235C88.0881 49.0241 88.0103 48.8845 87.8561 48.8139C87.7063 48.7441 87.4939 48.6808 87.2175 48.6248C87.0266 48.5862 86.8391 48.5322 86.6568 48.4634C86.4808 48.4003 86.3205 48.2998 86.187 48.1688C86.0605 48.0379 85.9972 47.867 85.9972 47.6568C85.9972 47.3528 86.1092 47.1041 86.3339 46.9128C86.563 46.7165 86.8721 46.6183 87.2597 46.6183C87.6292 46.6183 87.931 46.7121 88.1652 46.899C88.4037 47.0808 88.5412 47.3427 88.579 47.6845H87.9965C87.9887 47.6033 87.9641 47.5245 87.9243 47.4533C87.8845 47.382 87.8303 47.3199 87.7652 47.2707C87.6386 47.1681 87.4684 47.1165 87.2532 47.1165C87.0423 47.1165 86.8786 47.1601 86.7623 47.2496C86.7083 47.2903 86.6648 47.3434 86.6354 47.4044C86.6061 47.4654 86.5917 47.5325 86.5935 47.6001C86.5935 47.7405 86.6663 47.8503 86.811 47.9303C86.9608 48.0103 87.1615 48.0772 87.4146 48.1339C87.6292 48.1805 87.8328 48.2387 88.0248 48.3085C88.2212 48.3739 88.3797 48.475 88.5019 48.6103C88.6277 48.7412 88.691 48.9332 88.691 49.1856C88.6961 49.499 88.5768 49.7587 88.3332 49.9645C88.0946 50.1659 87.7695 50.2663 87.3579 50.2663ZM91.0975 50.2663C90.7652 50.2663 90.4706 50.1914 90.2132 50.0416C89.9563 49.8872 89.7456 49.6667 89.603 49.403C89.4583 49.1318 89.3855 48.8118 89.3855 48.4423C89.3855 48.0772 89.4583 47.7594 89.603 47.4881C89.7387 47.2217 89.9483 47 90.2066 46.8496C90.4685 46.6954 90.7695 46.6183 91.1114 46.6183C91.4481 46.6183 91.7375 46.6954 91.9812 46.8496C92.2292 46.9994 92.4183 47.1987 92.5492 47.4459C92.7048 47.7385 92.7708 48.0703 92.739 48.4001V48.5754H89.9681C89.9819 48.8423 90.0423 49.0641 90.1499 49.2416C90.2626 49.4147 90.4001 49.5463 90.5637 49.6343C90.7324 49.7238 90.9099 49.7681 91.0975 49.7681C91.3405 49.7681 91.5441 49.7121 91.7077 49.5994C91.8714 49.4874 91.9906 49.3354 92.0655 49.1434H92.6474C92.5567 49.4625 92.3679 49.7449 92.1077 49.9507C91.8452 50.1616 91.5084 50.2663 91.0975 50.2663ZM91.0975 47.1165C90.8168 47.1165 90.5666 47.203 90.3463 47.3761C90.1317 47.5441 90.0074 47.7921 89.9746 48.1194H92.1637C92.1492 47.8067 92.0415 47.5608 91.8408 47.3827C91.6394 47.2052 91.3921 47.1165 91.0975 47.1165ZM95.1048 50.2656C94.7594 50.2656 94.4554 50.1863 94.1935 50.0278C93.9366 49.8694 93.7278 49.6438 93.5899 49.3754C93.4459 49.0832 93.3738 48.7608 93.3797 48.435C93.3797 48.0845 93.4517 47.7732 93.5972 47.5019C93.7419 47.2263 93.9426 47.011 94.2001 46.8568C94.4575 46.6976 94.7615 46.6183 95.1121 46.6183C95.3972 46.6183 95.6503 46.6765 95.8699 46.7936C96.0895 46.9099 96.2605 47.0743 96.3819 47.2845V45.1318H96.971V50.1819H96.4379L96.3819 49.6074C96.2536 49.791 96.0887 49.946 95.8975 50.0627C95.6874 50.1979 95.4234 50.2656 95.1048 50.2656ZM95.1681 49.7543C95.4023 49.7543 95.6081 49.7005 95.7855 49.5928C95.9671 49.4816 96.1132 49.3209 96.2066 49.1296C96.3092 48.9332 96.3608 48.7041 96.3608 48.4423C96.3608 48.1805 96.3092 47.9514 96.2066 47.755C96.1143 47.5649 95.9678 47.4062 95.7855 47.299C95.6003 47.1845 95.3859 47.1259 95.1681 47.1303C94.939 47.1303 94.7332 47.1863 94.5506 47.299C94.3708 47.409 94.2253 47.5669 94.1303 47.755C94.028 47.9694 93.9775 48.2048 93.9826 48.4423C93.9826 48.7041 94.0321 48.9332 94.1303 49.1296C94.2328 49.3259 94.3732 49.4801 94.5506 49.5928C94.7332 49.7005 94.939 49.7543 95.1681 49.7543ZM99.8234 50.1819V45.2714H101.436C101.82 45.2714 102.136 45.3347 102.384 45.4605C102.631 45.587 102.814 45.7579 102.931 45.9732C103.052 46.1878 103.114 46.4314 103.114 46.7027C103.114 46.9688 103.055 47.2103 102.938 47.4248C102.812 47.649 102.621 47.8299 102.391 47.9441C102.143 48.0707 101.825 48.1332 101.436 48.1332H100.412V50.1819H99.8234ZM100.412 47.6358H101.423C101.815 47.6358 102.094 47.5536 102.258 47.3899C102.426 47.2219 102.51 46.9921 102.51 46.7027C102.51 46.4081 102.426 46.179 102.258 46.0154C102.094 45.8467 101.815 45.7623 101.423 45.7623H100.412V47.6358ZM104.844 50.2663C104.554 50.2663 104.313 50.2168 104.121 50.1187C103.947 50.035 103.802 49.9033 103.701 49.7392C103.6 49.575 103.549 49.3854 103.553 49.1928C103.553 48.8372 103.689 48.5638 103.96 48.3718C104.231 48.1805 104.601 48.0845 105.068 48.0845H106.008V48.0423C106.008 47.7383 105.929 47.5092 105.77 47.355C105.611 47.1958 105.398 47.1165 105.131 47.1165C104.902 47.1165 104.703 47.1747 104.535 47.2918C104.371 47.4038 104.268 47.5703 104.226 47.7899H103.623C103.647 47.5376 103.73 47.3245 103.876 47.1514C104.026 46.9783 104.21 46.8474 104.43 46.7587C104.652 46.6646 104.89 46.6168 105.131 46.6183C105.618 46.6183 105.983 46.7492 106.226 47.011C106.474 47.2685 106.597 47.6118 106.597 48.0423V50.1819H106.071L106.036 49.5572C105.934 49.7582 105.785 49.9316 105.602 50.0627C105.414 50.1979 105.162 50.2663 104.844 50.2663ZM104.935 49.7681C105.159 49.7681 105.351 49.7099 105.51 49.5928C105.674 49.4758 105.798 49.3238 105.882 49.1368C105.965 48.9518 106.009 48.7509 106.008 48.5478V48.5405H105.117C104.771 48.5405 104.526 48.6016 104.38 48.7223C104.314 48.7748 104.26 48.842 104.224 48.9187C104.187 48.9955 104.169 49.0796 104.17 49.1645C104.17 49.347 104.236 49.4947 104.367 49.6067C104.502 49.7143 104.692 49.7681 104.935 49.7681ZM107.482 50.1819V46.7027H108.015L108.063 47.3688C108.169 47.1417 108.34 46.9512 108.555 46.8219C108.775 46.6859 109.046 46.6183 109.369 46.6183V47.2358H109.207C109.012 47.2335 108.818 47.2717 108.639 47.3478C108.464 47.4197 108.318 47.5483 108.225 47.7128C108.122 47.8859 108.071 48.1245 108.071 48.4285V50.1819H107.482ZM111.404 50.1819C111.087 50.1819 110.836 50.1048 110.654 49.9507C110.472 49.7958 110.38 49.5179 110.38 49.1158V47.2001H109.778V46.7019H110.38L110.458 45.867H110.97V46.7019H111.994V47.2001H110.97V49.115C110.97 49.3347 111.015 49.4845 111.103 49.5638C111.192 49.6387 111.348 49.6758 111.573 49.6758H111.938V50.1819H111.404ZM112.743 50.1819V46.7027H113.276L113.311 47.3267C113.42 47.1111 113.588 46.931 113.795 46.8074C114.005 46.6816 114.244 46.6183 114.511 46.6183C114.922 46.6183 115.25 46.7448 115.492 46.9965C115.74 47.2452 115.864 47.6285 115.864 48.1478V50.1819H115.275V48.211C115.275 47.4859 114.976 47.123 114.378 47.123C114.078 47.123 113.828 47.2336 113.626 47.4532C113.43 47.6685 113.332 47.9769 113.332 48.379V50.1819H112.743ZM118.322 50.2663C117.989 50.2663 117.695 50.1914 117.438 50.0416C117.181 49.8874 116.97 49.6669 116.827 49.403C116.682 49.1318 116.61 48.8118 116.61 48.4423C116.61 48.0772 116.682 47.7594 116.827 47.4881C116.972 47.2118 117.173 46.9994 117.431 46.8496C117.692 46.6954 117.994 46.6183 118.335 46.6183C118.672 46.6183 118.962 46.6954 119.205 46.8496C119.453 46.9994 119.643 47.1987 119.774 47.4459C119.929 47.7385 119.995 48.0704 119.963 48.4001V48.5754H117.192C117.206 48.8423 117.267 49.0641 117.375 49.2416C117.487 49.4147 117.625 49.5463 117.788 49.6343C117.956 49.7238 118.135 49.7681 118.322 49.7681C118.564 49.7681 118.768 49.7121 118.932 49.5994C119.095 49.4874 119.215 49.3354 119.29 49.1434H119.872C119.781 49.4624 119.592 49.7447 119.332 49.9507C119.07 50.1616 118.733 50.2663 118.322 50.2663ZM118.322 47.1165C118.041 47.1165 117.791 47.203 117.571 47.3761C117.356 47.5441 117.232 47.7921 117.199 48.1194H119.388C119.374 47.8067 119.266 47.5608 119.065 47.3827C118.864 47.2052 118.616 47.1165 118.322 47.1165ZM120.751 50.1819V46.7027H121.284L121.333 47.3688C121.441 47.1398 121.604 46.9572 121.824 46.8219C122.044 46.6859 122.316 46.6183 122.638 46.6183V47.2358H122.476C122.271 47.2358 122.082 47.2728 121.908 47.3478C121.733 47.4195 121.588 47.5481 121.495 47.7128C121.392 47.8859 121.34 48.1245 121.34 48.4285V50.1819H120.751Z" fill="#707070"/>
<path opacity="0.8" d="M45.9969 35.8075V25.7144H49.5489C50.0289 25.7144 50.4747 25.7944 50.8885 25.9544C51.2947 26.0947 51.6686 26.3151 51.9882 26.6024C52.2997 26.8868 52.5493 27.2324 52.7213 27.6177C52.9033 28.0203 52.9946 28.458 52.9889 28.8998C52.9889 29.3798 52.8995 29.8162 52.7213 30.2111C52.5424 30.5966 52.298 30.9297 51.9882 31.2118C51.667 31.5004 51.2938 31.7253 50.8885 31.8744C50.4587 32.0275 50.0052 32.1038 49.5489 32.0998H47.9002V35.8075H45.9969ZM49.5773 30.2955C50.0755 30.2955 50.4515 30.1544 50.7045 29.8729C50.9515 29.6093 51.0878 29.261 51.0856 28.8998C51.0856 28.7217 51.0529 28.5478 50.9867 28.3784C50.9316 28.2113 50.8347 28.0611 50.7053 27.942C50.5753 27.805 50.4162 27.6989 50.2398 27.6315C50.0284 27.5522 49.8038 27.514 49.578 27.5188H47.9002V30.2955H49.5773ZM58.0951 35.0744H57.9824C57.7597 35.3431 57.4929 35.5718 57.1933 35.7508C56.8922 35.9391 56.5024 36.0329 56.0231 36.0329C55.6667 36.0329 55.3278 35.9718 55.0085 35.8497C54.708 35.7426 54.4305 35.5797 54.1904 35.3697C53.9559 35.1633 53.7686 34.9088 53.6413 34.6235C53.5096 34.3326 53.4435 34.0126 53.4435 33.6649C53.4435 33.3078 53.514 32.9886 53.6544 32.7064C53.7962 32.4155 53.9933 32.166 54.2471 31.9588C54.5099 31.7471 54.8115 31.589 55.1351 31.4933C55.4996 31.3781 55.8801 31.3212 56.2624 31.3246C56.7133 31.3246 57.0849 31.3624 57.3765 31.4373C57.6675 31.5028 57.9075 31.574 58.0951 31.6482V31.4373C58.0951 31.0708 57.9496 30.7704 57.6587 30.5355C57.3671 30.2911 57.0049 30.1689 56.5729 30.1689C55.9336 30.1689 55.3933 30.4366 54.9518 30.9726L53.6129 30.0562C54.346 29.1348 55.3467 28.6744 56.6151 28.6744C57.6864 28.6744 58.5038 28.9289 59.0682 29.4358C59.6318 29.934 59.914 30.6766 59.914 31.6628V35.8075H58.0958V35.0744H58.0951ZM58.0951 33.0017C57.8787 32.8983 57.652 32.8181 57.4187 32.7624C57.1757 32.6942 56.9242 32.6609 56.6718 32.6635C56.2296 32.6635 55.8864 32.7624 55.6427 32.9595C55.4078 33.1478 55.29 33.3828 55.29 33.6649C55.29 33.9464 55.4027 34.1718 55.6282 34.3413C55.8631 34.5108 56.1315 34.5951 56.4318 34.5951C56.6762 34.5951 56.9016 34.5529 57.1082 34.4678C57.3155 34.374 57.4893 34.2569 57.6304 34.1158C57.7802 33.9653 57.8929 33.7958 57.9685 33.6082C58.0529 33.4111 58.0951 33.2075 58.0951 33.0017ZM63.1155 29.8584H63.2289C63.4176 29.5098 63.701 29.2216 64.0464 29.0271C64.4135 28.8107 64.8326 28.6986 65.2587 28.7028C65.4187 28.7028 65.5453 28.7071 65.6391 28.7173C65.7336 28.726 65.8224 28.7449 65.9067 28.7733V30.606C65.7938 30.5559 65.6758 30.5181 65.5547 30.4933C65.4065 30.4623 65.2552 30.4479 65.1038 30.4504C64.5205 30.4504 64.0602 30.6293 63.722 30.9864C63.3933 31.334 63.2289 31.8133 63.2289 32.4242V35.8075H61.3816V28.8998H63.1155V29.8584ZM67.9511 30.4788H66.7387V28.9006H67.9511V26.7857H69.7976V28.8998H71.4893V30.4788H69.7976V33.1573C69.7976 33.3173 69.8122 33.4671 69.8398 33.6082C69.8776 33.7398 69.9431 33.8526 70.0369 33.9464C70.1685 34.0969 70.3569 34.1718 70.6013 34.1718C70.7613 34.1718 70.8878 34.158 70.9816 34.1297C71.0762 34.0926 71.1649 34.0453 71.2493 33.9886L71.7707 35.6104C71.5547 35.7137 71.3198 35.7886 71.066 35.8358C70.8216 35.8918 70.5496 35.9202 70.2485 35.9202C69.9009 35.9202 69.586 35.8686 69.3038 35.7653C69.0459 35.6623 68.8111 35.509 68.6129 35.3144C68.1715 34.8911 67.9511 34.2889 67.9511 33.5093V30.4788ZM74.6515 29.8024H74.7642C74.978 29.4573 75.2797 29.1751 75.6384 28.9849C76.0049 28.7777 76.4231 28.6744 76.8929 28.6744C77.3256 28.6744 77.706 28.7449 78.0347 28.886C78.3635 29.0271 78.6318 29.2293 78.8384 29.4918C79.0544 29.7464 79.2144 30.0562 79.3176 30.4228C79.4347 30.8111 79.4916 31.215 79.4864 31.6206V35.8075H77.6398V31.846C77.6398 31.3486 77.5271 30.982 77.3016 30.7471C77.0856 30.502 76.7664 30.3798 76.3431 30.3798C76.1066 30.3756 75.8732 30.434 75.6667 30.5493C75.4726 30.6578 75.3042 30.8069 75.1729 30.9864C75.0329 31.1831 74.9281 31.4026 74.8631 31.6351C74.7957 31.8927 74.7625 32.158 74.7642 32.4242V35.8075H72.9176V28.8998H74.6515V29.8024ZM87.5525 34.1442C87.2405 34.7005 86.7949 35.1704 86.2558 35.5115C85.7205 35.8591 85.0624 36.0329 84.2827 36.0329C83.7814 36.0376 83.2838 35.9468 82.8165 35.7653C82.3848 35.584 81.9924 35.3207 81.6609 34.99C81.3299 34.6585 81.0666 34.2658 80.8856 33.8337C80.7029 33.3619 80.6118 32.8596 80.6173 32.3537C80.6173 31.8555 80.7067 31.3864 80.8856 30.9442C81.0542 30.5083 81.3082 30.1105 81.6325 29.774C81.9524 29.4353 82.3353 29.1623 82.7598 28.9704C83.2174 28.7698 83.7125 28.6689 84.2122 28.6744C84.7664 28.6744 85.2602 28.7689 85.6922 28.9566C86.1077 29.1234 86.479 29.384 86.7773 29.718C87.0689 30.0373 87.29 30.4177 87.4398 30.8598C87.5939 31.3231 87.6703 31.8087 87.666 32.2969V32.4664C87.6569 32.5175 87.6521 32.5694 87.6515 32.6213C87.6417 32.6726 87.6371 32.7247 87.6376 32.7769H82.4362C82.4733 33.0584 82.5489 33.3028 82.6616 33.5093C82.7838 33.7071 82.9293 33.8758 83.0987 34.0169C83.2769 34.1486 83.4696 34.2475 83.6762 34.3129C83.8835 34.3697 84.0944 34.398 84.3111 34.398C84.7336 34.398 85.0813 34.3035 85.354 34.1158C85.6355 33.9188 85.8565 33.6744 86.0165 33.3828L87.5525 34.1442ZM85.8755 31.4657C85.8597 31.3226 85.8168 31.1839 85.7489 31.0569C85.6754 30.8961 85.5697 30.7521 85.4384 30.6337C85.2925 30.493 85.1199 30.3829 84.9307 30.31C84.7336 30.2249 84.4936 30.1828 84.2122 30.1828C83.8173 30.1828 83.4696 30.2955 83.1693 30.5209C82.8682 30.7464 82.6565 31.0613 82.5344 31.4657H85.8755ZM88.8449 28.8998H90.5787V29.8584H90.6915C90.7765 29.6897 90.8893 29.5348 91.0296 29.3929C91.1707 29.2526 91.3256 29.1304 91.4951 29.0271C91.8491 28.8162 92.2532 28.7042 92.6653 28.7028C92.9096 28.7028 93.1162 28.726 93.2856 28.7733C93.4638 28.8198 93.6144 28.8809 93.7365 28.9566L93.2427 30.6337C93.1222 30.5747 92.9942 30.5321 92.8624 30.5071C92.7013 30.4658 92.5355 30.4468 92.3693 30.4504C92.1155 30.4504 91.8849 30.5028 91.6784 30.606C91.4718 30.6998 91.2929 30.8358 91.1431 31.0148C90.9954 31.2057 90.8809 31.4201 90.8042 31.6489C90.7268 31.9 90.6887 32.1615 90.6915 32.4242V35.8075H88.8449V28.8998ZM53.794 15.9566C53.794 17.0511 53.4696 17.9224 52.8202 18.5718C52.0907 19.3449 51.1315 19.7318 49.9424 19.7318C48.8042 19.7318 47.8405 19.3377 47.0529 18.55C46.2653 17.7624 45.8711 16.7915 45.8711 15.6395C45.8711 14.4867 46.2653 13.5158 47.0529 12.7282C47.8413 11.9406 48.8042 11.5464 49.9424 11.5464C50.5184 11.5464 51.0624 11.6482 51.5729 11.8526C52.0835 12.0569 52.5031 12.3449 52.8311 12.7173L52.1089 13.4395C51.8562 13.1389 51.5328 12.9058 51.1678 12.7609C50.7816 12.5918 50.364 12.506 49.9424 12.5093C49.0885 12.5093 48.3664 12.8046 47.7751 13.3958C47.1918 13.9937 46.9002 14.7413 46.9002 15.6395C46.9002 16.5362 47.1911 17.2846 47.7751 17.8824C48.3664 18.4737 49.0885 18.7689 49.9424 18.7689C50.7227 18.7689 51.3722 18.5507 51.89 18.1122C52.4078 17.6744 52.7067 17.0722 52.7875 16.3064H49.9416V15.3653H53.7387C53.7751 15.5697 53.794 15.7668 53.794 15.9566ZM54.4827 16.8758C54.4827 16.0511 54.7416 15.3689 55.2595 14.8293C55.7845 14.2897 56.4449 14.0198 57.2405 14.0198C58.0355 14.0198 58.6922 14.2889 59.21 14.8293C59.7351 15.3689 59.9976 16.0511 59.9976 16.8758C59.9976 17.7071 59.7358 18.3893 59.21 18.9224C58.6922 19.462 58.0355 19.7318 57.2398 19.7318C56.4449 19.7318 55.7853 19.462 55.2595 18.9224C54.7416 18.382 54.4827 17.7006 54.4827 16.8758ZM55.4893 16.8758C55.4893 17.4518 55.6565 17.9187 55.9925 18.2766C56.1503 18.4498 56.3433 18.5872 56.5585 18.6796C56.7738 18.7721 57.0063 18.8174 57.2405 18.8126C57.4746 18.8172 57.707 18.7718 57.9221 18.6794C58.1372 18.5869 58.3301 18.4496 58.4878 18.2766C58.8231 17.9187 58.9911 17.4518 58.9911 16.8758C58.9911 16.3064 58.8238 15.8431 58.4878 15.486C58.1445 15.1209 57.7293 14.9391 57.2398 14.9391C56.7511 14.9391 56.3358 15.1209 55.9925 15.486C55.6573 15.8431 55.4893 16.3064 55.4893 16.8751V16.8758ZM60.6064 16.8758C60.6064 16.0511 60.8653 15.3689 61.3831 14.8293C61.9082 14.2897 62.5685 14.0198 63.3635 14.0198C64.1591 14.0198 64.8158 14.2889 65.3336 14.8293C65.8587 15.3689 66.1213 16.0511 66.1213 16.8758C66.1213 17.7071 65.8595 18.3893 65.3336 18.9224C64.8158 19.462 64.1591 19.7318 63.3635 19.7318C62.5685 19.7318 61.9089 19.462 61.3831 18.9224C60.8653 18.382 60.6064 17.7006 60.6064 16.8758ZM61.6129 16.8758C61.6129 17.4518 61.7802 17.9187 62.1162 18.2766C62.2739 18.4497 62.4667 18.587 62.6818 18.6795C62.897 18.7719 63.1294 18.8173 63.3635 18.8126C63.5977 18.8173 63.8302 18.772 64.0454 18.6795C64.2607 18.5871 64.4536 18.4497 64.6115 18.2766C64.9467 17.9187 65.1147 17.4518 65.1147 16.8758C65.1147 16.3064 64.9475 15.8431 64.6115 15.486C64.2682 15.1209 63.8522 14.9391 63.3635 14.9391C62.8747 14.9391 62.4595 15.1209 62.1162 15.486C61.7802 15.8431 61.6129 16.3064 61.6129 16.8751V16.8758ZM69.4435 18.8126C69.9395 18.8126 70.3445 18.6337 70.658 18.2766C70.9867 17.9187 71.1504 17.4518 71.1504 16.8758C71.1504 16.3137 70.9867 15.8504 70.658 15.486C70.509 15.3103 70.3226 15.17 70.1125 15.0754C69.9024 14.9808 69.6738 14.9342 69.4435 14.9391C68.962 14.9391 68.5569 15.1209 68.2289 15.486C67.9002 15.8511 67.7365 16.3144 67.7365 16.8751C67.7365 17.4446 67.9002 17.9078 68.2289 18.2657C68.5569 18.63 68.962 18.8126 69.4435 18.8126ZM69.4107 22.0955C69.1254 22.0975 68.8413 22.057 68.5678 21.9755C68.3127 21.9057 68.0694 21.7986 67.8456 21.6577C67.6387 21.5231 67.4542 21.357 67.2987 21.1653C67.1456 20.9761 67.0269 20.7614 66.9482 20.5311L67.9009 20.1369C68.01 20.4504 68.1991 20.702 68.4696 20.8918C68.7395 21.0809 69.0529 21.1762 69.4107 21.1762C69.9576 21.1762 70.3853 21.0126 70.6907 20.6838C70.9976 20.3558 71.1504 19.9035 71.1504 19.3267V18.8126H71.1067C70.9176 19.0969 70.658 19.3231 70.33 19.4911C70.0085 19.6511 69.6587 19.7318 69.2791 19.7318C68.5787 19.7318 67.9773 19.4584 67.474 18.9115C66.9773 18.3493 66.7293 17.6707 66.7293 16.8751C66.7293 16.0802 66.9773 15.406 67.474 14.8511C67.9773 14.2969 68.5795 14.0198 69.2791 14.0198C69.6447 14.0164 70.0056 14.1028 70.33 14.2715C70.658 14.4315 70.9169 14.654 71.1067 14.9391H71.1504V14.1944H72.114V19.3267C72.114 20.1878 71.8689 20.8628 71.3802 21.3515C70.8842 21.8475 70.2275 22.0955 69.4107 22.0955ZM74.3482 11.7217V19.5566H73.3409V11.7217H74.3482ZM77.9285 19.7318C77.1409 19.7318 76.4915 19.462 75.9809 18.9224C75.4704 18.382 75.2151 17.7006 75.2151 16.8758C75.2151 16.0584 75.4631 15.3798 75.9591 14.8402C76.4551 14.2933 77.09 14.0198 77.8631 14.0198C78.658 14.0198 79.2893 14.2787 79.7562 14.7966C80.2304 15.3071 80.4675 16.0257 80.4675 16.9522L80.4565 17.0613H76.2435C76.258 17.5871 76.4333 18.0104 76.7685 18.3311C76.9274 18.4871 77.1157 18.61 77.3224 18.6926C77.5292 18.7753 77.7503 18.8161 77.9729 18.8126C78.6144 18.8126 79.1176 18.4918 79.4827 17.8497L80.3802 18.2875C80.1502 18.7284 79.8016 19.0961 79.3736 19.3493C78.9504 19.6038 78.4689 19.7318 77.9285 19.7318ZM76.3198 16.23H79.3955C79.3847 16.0537 79.3385 15.8814 79.2595 15.7234C79.1805 15.5655 79.0704 15.4251 78.9358 15.3108C78.6653 15.0635 78.3009 14.9391 77.8413 14.9391C77.4616 14.9391 77.1336 15.0555 76.8565 15.2889C76.5867 15.5224 76.4078 15.8358 76.3198 16.23ZM86.0522 11.6337C86.4173 11.6337 86.7162 11.6962 86.9496 11.8198L86.6762 12.7064C86.4921 12.617 86.2895 12.5721 86.0849 12.5755C85.8369 12.5755 85.6325 12.6627 85.4725 12.8373C85.3191 13.0053 85.2427 13.2315 85.2427 13.5158V14.1944H86.6435V15.1137H85.2427V19.5573H84.2355V15.1137H83.2289V14.1944H84.2355V13.4184C84.2355 12.886 84.4035 12.4555 84.7387 12.1267C85.082 11.7995 85.5198 11.6337 86.0522 11.6337ZM86.97 16.8758C86.97 16.0511 87.2296 15.3689 87.7475 14.8293C88.2725 14.2897 88.9329 14.0198 89.7278 14.0198C90.5235 14.0198 91.1802 14.2889 91.698 14.8293C92.2231 15.3689 92.4856 16.0511 92.4856 16.8758C92.4856 17.7071 92.2231 18.3893 91.698 18.9224C91.1802 19.462 90.5235 19.7318 89.7278 19.7318C88.9329 19.7318 88.2725 19.462 87.7475 18.9224C87.2296 18.382 86.97 17.7006 86.97 16.8758ZM87.9773 16.8758C87.9773 17.4518 88.1445 17.9187 88.4805 18.2766C88.6382 18.4497 88.831 18.5871 89.0462 18.6796C89.2613 18.772 89.4937 18.8174 89.7278 18.8126C89.962 18.8173 90.1945 18.772 90.4098 18.6795C90.625 18.5871 90.818 18.4497 90.9758 18.2766C91.3111 17.9187 91.4791 17.4518 91.4791 16.8758C91.4791 16.3064 91.3111 15.8431 90.9758 15.486C90.6325 15.1209 90.2165 14.9391 89.7278 14.9391C89.2391 14.9391 88.8231 15.1209 88.4805 15.486C88.1445 15.8431 87.9773 16.3064 87.9773 16.8751V16.8758ZM94.3002 19.5566H93.2936V14.1944H94.2565V15.07H94.3002C94.402 14.7857 94.61 14.5449 94.9242 14.3478C95.2449 14.1442 95.5584 14.0417 95.8653 14.0417C96.1569 14.0417 96.4049 14.0853 96.6093 14.1726L96.3031 15.1471C96.1787 15.0962 95.9816 15.07 95.7118 15.07C95.3322 15.07 95.0005 15.2228 94.7162 15.5297C94.4449 15.8206 94.296 16.2047 94.3002 16.6024V19.5566ZM104.423 11.7217V12.6846H100.855V15.1689H104.073V16.11H100.855V18.5937H104.423V19.5566H99.8486V11.7217H104.423ZM107.798 18.8126C108.294 18.8126 108.699 18.6337 109.013 18.2766C109.342 17.9187 109.505 17.4518 109.505 16.8758C109.505 16.3137 109.342 15.8504 109.013 15.486C108.864 15.3102 108.678 15.1699 108.467 15.0753C108.257 14.9807 108.029 14.9342 107.798 14.9391C107.317 14.9391 106.912 15.1209 106.584 15.486C106.255 15.8511 106.091 16.3144 106.091 16.8751C106.091 17.4446 106.255 17.9078 106.584 18.2657C106.912 18.63 107.317 18.8126 107.798 18.8126ZM107.634 19.7318C106.934 19.7318 106.332 19.4548 105.829 18.9006C105.332 18.3384 105.084 17.6642 105.084 16.8758C105.084 16.0875 105.332 15.4133 105.829 14.8511C106.332 14.2969 106.934 14.0198 107.634 14.0198C108.007 14.0146 108.375 14.101 108.707 14.2715C109.035 14.4387 109.286 14.6613 109.462 14.9391H109.505L109.462 14.1944V11.7217H110.468V19.5566H109.505V18.8126H109.462C109.286 19.0897 109.035 19.3122 108.707 19.4802C108.386 19.6475 108.028 19.7318 107.634 19.7318ZM116.402 19.5566H115.438V18.8126H115.395C115.242 19.0751 115.005 19.294 114.683 19.4693C114.384 19.6407 114.044 19.7312 113.699 19.7318C113.042 19.7318 112.535 19.5457 112.177 19.174C111.827 18.7944 111.652 18.2577 111.652 17.5653V14.1944H112.659V17.4998C112.681 18.3748 113.122 18.8126 113.983 18.8126C114.385 18.8126 114.72 18.6526 114.99 18.3311C115.26 18.0031 115.395 17.6126 115.395 17.1602V14.1944H116.402V19.5566ZM120.025 19.7318C119.23 19.7318 118.569 19.462 118.044 18.9224C117.526 18.3675 117.267 17.686 117.267 16.8758C117.267 16.0511 117.526 15.3689 118.044 14.8293C118.569 14.2897 119.23 14.0198 120.025 14.0198C120.572 14.0198 121.05 14.158 121.459 14.4351C121.867 14.7057 122.174 15.0809 122.378 15.5624L121.459 15.9457C121.174 15.2744 120.675 14.9391 119.959 14.9391C119.499 14.9391 119.102 15.1246 118.766 15.4969C118.438 15.8693 118.274 16.3282 118.274 16.8758C118.274 17.4228 118.438 17.8824 118.766 18.2548C119.102 18.6264 119.499 18.8126 119.959 18.8126C120.697 18.8126 121.214 18.4773 121.513 17.806L122.411 18.1886C122.226 18.6551 121.901 19.0529 121.481 19.3267C121.065 19.5973 120.579 19.7318 120.025 19.7318ZM123.971 17.9151C123.971 18.1777 124.081 18.3966 124.299 18.5718C124.526 18.7464 124.788 18.8344 125.087 18.8344C125.51 18.8344 125.886 18.678 126.214 18.3638C126.55 18.0504 126.718 17.6817 126.718 17.2584C126.404 17.0111 125.966 16.8868 125.405 16.8868C124.996 16.8868 124.653 16.9849 124.376 17.182C124.106 17.3791 123.971 17.6235 123.971 17.9151ZM125.273 14.0198C126.017 14.0198 126.605 14.2198 127.035 14.6213C127.465 15.0155 127.681 15.5595 127.681 16.2518V19.5566H126.718V18.8126H126.674C126.258 19.4257 125.704 19.7318 125.011 19.7318C124.419 19.7318 123.923 19.5573 123.522 19.2068C123.333 19.045 123.182 18.8434 123.079 18.6163C122.977 18.3892 122.927 18.1423 122.931 17.8933C122.931 17.3391 123.139 16.8977 123.555 16.5697C123.978 16.2409 124.54 16.0766 125.241 16.0766C125.838 16.0766 126.331 16.1857 126.718 16.4053V16.1755C126.718 15.8249 126.579 15.5297 126.302 15.2889C126.036 15.0455 125.688 14.9126 125.328 14.9173C124.766 14.9173 124.321 15.1544 123.993 15.6278L123.107 15.07C123.595 14.3697 124.318 14.0198 125.273 14.0198ZM130.833 19.6438C130.395 19.6438 130.03 19.5093 129.738 19.2395C129.454 18.9697 129.307 18.5937 129.3 18.1122V15.1137H128.359V14.1944H129.3V12.5529H130.307V14.1944H131.62V15.1137H130.307V17.7842C130.307 18.1413 130.377 18.3857 130.515 18.5173C130.642 18.6366 130.811 18.7032 130.985 18.7035C131.066 18.7035 131.142 18.6962 131.215 18.6817C131.29 18.6616 131.363 18.6359 131.434 18.6046L131.752 19.502C131.489 19.5966 131.182 19.6438 130.833 19.6438ZM133.934 12.3449C133.935 12.4387 133.918 12.5318 133.882 12.6185C133.846 12.7051 133.793 12.7836 133.726 12.8489C133.66 12.9161 133.582 12.9691 133.495 13.0048C133.409 13.0404 133.316 13.0579 133.222 13.0562C133.129 13.0579 133.036 13.0404 132.949 13.0048C132.863 12.9691 132.784 12.9161 132.719 12.8489C132.652 12.7837 132.599 12.7052 132.563 12.6185C132.527 12.5318 132.509 12.4387 132.511 12.3449C132.511 12.1486 132.58 11.9806 132.719 11.8417C132.784 11.7744 132.863 11.7212 132.949 11.6854C133.036 11.6497 133.129 11.632 133.222 11.6337C133.419 11.6337 133.587 11.7035 133.726 11.8417C133.865 11.9798 133.934 12.1486 133.934 12.3449ZM133.726 14.1944V19.5566H132.719V14.1944H133.726ZM134.676 16.8758C134.676 16.0511 134.935 15.3689 135.453 14.8293C135.979 14.2897 136.638 14.0198 137.434 14.0198C138.229 14.0198 138.886 14.2889 139.403 14.8293C139.929 15.3689 140.192 16.0511 140.192 16.8758C140.192 17.7071 139.929 18.3893 139.403 18.9224C138.886 19.462 138.229 19.7318 137.434 19.7318C136.638 19.7318 135.979 19.462 135.453 18.9224C134.935 18.382 134.676 17.7006 134.676 16.8758ZM135.683 16.8758C135.683 17.4518 135.851 17.9187 136.186 18.2766C136.344 18.4497 136.537 18.5871 136.752 18.6795C136.967 18.772 137.2 18.8173 137.434 18.8126C137.93 18.8126 138.346 18.6337 138.681 18.2766C139.017 17.9187 139.185 17.4518 139.185 16.8758C139.185 16.3064 139.017 15.8431 138.681 15.486C138.339 15.1209 137.923 14.9391 137.434 14.9391C136.945 14.9391 136.529 15.1209 136.186 15.486C135.851 15.8431 135.683 16.3064 135.683 16.8751V16.8758ZM140.999 14.1944H141.962V14.9391H142.006C142.159 14.6758 142.393 14.4569 142.707 14.2824C143.011 14.1116 143.354 14.0212 143.702 14.0198C144.359 14.0198 144.862 14.2089 145.212 14.5886C145.57 14.9609 145.749 15.4933 145.749 16.1864V19.5566H144.742V16.2518C144.72 15.3762 144.278 14.9391 143.418 14.9391C143.017 14.9391 142.681 15.1028 142.411 15.4315C142.141 15.7522 142.006 16.1391 142.006 16.5915V19.5566H140.999V14.1944Z" fill="#5F6368"/>
<path d="M36.6123 24.0524C36.6123 23.2051 36.5374 22.4014 36.4086 21.6196H24.2988V26.4524H31.2326C30.9214 28.0385 30.0108 29.3782 28.6603 30.2894V33.504H32.797C35.2188 31.264 36.6123 27.9636 36.6123 24.0524Z" fill="#4285F4"/>
<path d="M24.2974 36.6312C27.7701 36.6312 30.6741 35.4733 32.7963 33.5126L28.6596 30.2973C27.5018 31.069 26.0341 31.541 24.2974 31.541C20.9432 31.541 18.1039 29.2792 17.0858 26.2246H12.8203V29.5366C14.9316 33.7373 19.2712 36.6312 24.2974 36.6312Z" fill="#34A853"/>
<path d="M17.0858 26.2211C16.8137 25.4317 16.676 24.6022 16.6785 23.7673C16.6785 22.9091 16.829 22.0844 17.0858 21.3127V18.0015H12.8203C11.9113 19.7874 11.4375 21.763 11.4375 23.7669C11.4375 25.7709 11.9113 27.7464 12.8203 29.5324L17.0858 26.2211Z" fill="#FBBC05"/>
<path d="M24.2974 16.0001C26.1949 16.0001 27.8879 16.6532 29.2276 17.9288L32.893 14.2634C30.6741 12.1848 27.7694 10.9092 24.2974 10.9092C19.2719 10.9092 14.9316 13.803 12.8203 18.0037L17.0858 21.315C18.1039 18.2605 20.9432 16.0001 24.2974 16.0001Z" fill="#EA4335"/>
</g>
<defs>
<clipPath id="clip0_81_9794">
<rect width="154.909" height="64" fill="white"/>
</clipPath>
</defs>
</svg>
