<svg width="32" height="32" viewBox="0 0 32 32" fill="none" xmlns="http://www.w3.org/2000/svg">
<path d="M16.8322 21.9211L14.5023 28.2433C14.4334 28.4291 14.3092 28.5894 14.1465 28.7025C13.9838 28.8157 13.7904 28.8763 13.5922 28.8763C13.394 28.8763 13.2006 28.8157 13.0379 28.7025C12.8752 28.5894 12.7511 28.4291 12.6821 28.2433L10.3522 21.9211C10.303 21.7876 10.2255 21.6664 10.1249 21.5659C10.0244 21.4653 9.90316 21.3878 9.76971 21.3386L3.44742 19.0087C3.26164 18.9397 3.1014 18.8155 2.98825 18.6529C2.8751 18.4902 2.81445 18.2967 2.81445 18.0986C2.81445 17.9004 2.8751 17.707 2.98825 17.5443C3.1014 17.3816 3.26164 17.2574 3.44742 17.1884L9.76971 14.8585C9.90316 14.8094 10.0244 14.7318 10.1249 14.6313C10.2255 14.5307 10.303 14.4095 10.3522 14.2761L12.6821 7.95377C12.7511 7.76798 12.8752 7.60775 13.0379 7.4946C13.2006 7.38145 13.394 7.3208 13.5922 7.3208C13.7904 7.3208 13.9838 7.38145 14.1465 7.4946C14.3092 7.60775 14.4334 7.76798 14.5023 7.95377L16.8322 14.2761C16.8814 14.4095 16.9589 14.5307 17.0595 14.6313C17.1601 14.7318 17.2813 14.8094 17.4147 14.8585L23.737 17.1884C23.9228 17.2574 24.083 17.3816 24.1962 17.5443C24.3093 17.707 24.37 17.9004 24.37 18.0986C24.37 18.2967 24.3093 18.4902 24.1962 18.6529C24.083 18.8155 23.9228 18.9397 23.737 19.0087L17.4147 21.3386C17.2813 21.3878 17.1601 21.4653 17.0595 21.5659C16.9589 21.6664 16.8814 21.7876 16.8322 21.9211Z" fill="#427DF5"/>
<path d="M21.3574 2.56543V8.39019" stroke="#427DF5" stroke-width="1.94159" stroke-linecap="round" stroke-linejoin="round"/>
<path d="M24.2701 5.47803H18.4453" stroke="#427DF5" stroke-width="1.94159" stroke-linecap="round" stroke-linejoin="round"/>
<path d="M27.1816 9.36133V13.2445" stroke="#427DF5" stroke-width="1.94159" stroke-linecap="round" stroke-linejoin="round"/>
<path d="M29.1234 11.3027H25.2402" stroke="#427DF5" stroke-width="1.94159" stroke-linecap="round" stroke-linejoin="round"/>
</svg>
