<svg width="24" height="24" viewBox="0 0 24 24" fill="none" xmlns="http://www.w3.org/2000/svg">
<g clip-path="url(#clip0_73_4374)">
<path d="M21.9184 0.538086H2.02378C1.56681 0.538086 1.12856 0.719615 0.805435 1.04274C0.482311 1.36586 0.300781 1.80411 0.300781 2.26108V22.1558C0.300781 22.6127 0.482311 23.051 0.805435 23.3741C1.12856 23.6972 1.56681 23.8787 2.02378 23.8787H21.9184C22.3754 23.8787 22.8137 23.6972 23.1368 23.3741C23.4599 23.051 23.6414 22.6127 23.6414 22.1558V2.26108C23.6414 1.80411 23.4599 1.36586 23.1368 1.04274C22.8137 0.719615 22.3754 0.538086 21.9184 0.538086ZM7.25759 20.4214H3.74839V9.27462H7.25759V20.4214ZM5.50056 7.72993C5.1025 7.72769 4.71403 7.60758 4.38417 7.38476C4.0543 7.16195 3.79783 6.84642 3.64713 6.47798C3.49642 6.10955 3.45824 5.70473 3.53738 5.31461C3.61653 4.92449 3.80947 4.56656 4.09184 4.28599C4.37422 4.00542 4.73338 3.81479 5.124 3.73815C5.51462 3.66151 5.91918 3.7023 6.28664 3.85536C6.6541 4.00843 6.96798 4.26692 7.18867 4.59821C7.40936 4.92949 7.52697 5.31873 7.52666 5.7168C7.53042 5.9833 7.48048 6.24783 7.37982 6.49463C7.27916 6.74142 7.12985 6.96542 6.94078 7.15328C6.75171 7.34114 6.52676 7.48901 6.27932 7.58808C6.03189 7.68715 5.76704 7.73539 5.50056 7.72993ZM20.1922 20.4311H16.6846V14.3415C16.6846 12.5456 15.9212 11.9912 14.9357 11.9912C13.8951 11.9912 12.8739 12.7757 12.8739 14.3869V20.4311H9.36474V9.28273H12.7394V10.8274H12.7848C13.1236 10.1418 14.31 8.9699 16.1206 8.9699C18.0786 8.9699 20.1938 10.1321 20.1938 13.5359L20.1922 20.4311Z" fill="#0A66C2"/>
</g>
<defs>
<clipPath id="clip0_73_4374">
<rect width="23.3407" height="23.3407" fill="white" transform="translate(0.300781 0.538086)"/>
</clipPath>
</defs>
</svg>
