<svg width="36" height="35" viewBox="0 0 36 35" fill="none" xmlns="http://www.w3.org/2000/svg">
<g id="Icon Frame">
<path id="Union" fill-rule="evenodd" clip-rule="evenodd" d="M3.43285 7.51814C3.4314 7.43709 3.4367 7.35564 3.44893 7.27466C3.55387 6.57207 4.15983 6.0332 4.89164 6.0332H31.1499C31.9556 6.0332 32.6087 6.68633 32.6087 7.49199V24.9975C32.6087 27.4145 30.6493 29.3739 28.2323 29.3739H7.80922C5.39222 29.3739 3.43285 27.4145 3.43285 24.9975V7.51814ZM6.35043 11.0144V24.9975C6.35043 25.8032 7.00356 26.4563 7.80922 26.4563H28.2323C29.038 26.4563 29.6911 25.8032 29.6911 24.9975V11.014L19.0521 21.653C18.4824 22.2227 17.5587 22.2227 16.9891 21.653L6.35043 11.0144Z" fill="#EF6400"/>
</g>
</svg>
