<svg width="24" height="24" viewBox="0 0 24 24" fill="none" xmlns="http://www.w3.org/2000/svg">
<path d="M0.101562 23.8787L1.74221 17.8851C0.729814 16.1306 0.197843 14.1418 0.198815 12.1024C0.201733 5.72652 5.39016 0.538086 11.7651 0.538086C14.8587 0.539058 17.7626 1.74402 19.9469 3.93026C22.1302 6.1165 23.3323 9.02242 23.3313 12.1131C23.3284 18.49 18.14 23.6784 11.7651 23.6784C9.82973 23.6774 7.92261 23.1921 6.23333 22.2702L0.101562 23.8787ZM6.51731 20.1763C8.14726 21.144 9.70331 21.7236 11.7612 21.7246C17.0595 21.7246 21.3756 17.4124 21.3785 12.1112C21.3804 6.79922 17.0848 2.49287 11.7689 2.49092C6.46674 2.49092 2.15359 6.80311 2.15165 12.1034C2.15067 14.2673 2.78476 15.8875 3.84968 17.5826L2.87812 21.1304L6.51731 20.1763ZM17.5915 14.8624C17.5195 14.7418 17.3269 14.6699 17.0371 14.525C16.7483 14.3801 15.3274 13.6808 15.0619 13.5845C14.7974 13.4883 14.6048 13.4396 14.4113 13.7294C14.2187 14.0183 13.6644 14.6699 13.4962 14.8624C13.3279 15.055 13.1587 15.0793 12.8698 14.9344C12.581 14.7895 11.6493 14.4851 10.5455 13.4999C9.68677 12.7336 9.10617 11.7873 8.93793 11.4975C8.76968 11.2087 8.92042 11.0521 9.06436 10.9081C9.19467 10.7788 9.3532 10.5707 9.4981 10.4015C9.64495 10.2342 9.69261 10.1136 9.78986 9.92006C9.88614 9.7275 9.83849 9.55828 9.76555 9.41337C9.69261 9.26944 9.11493 7.84663 8.87471 7.26798C8.63936 6.70488 8.40109 6.78074 8.22409 6.77199L7.66975 6.76226C7.47719 6.76226 7.16404 6.83423 6.89951 7.12404C6.63499 7.41386 5.88809 8.11213 5.88809 9.53494C5.88809 10.9577 6.92383 12.3319 7.06776 12.5245C7.21267 12.717 9.1052 15.6366 12.0043 16.8882C12.6938 17.1858 13.2326 17.3638 13.6518 17.497C14.3442 17.7168 14.9744 17.6857 15.4723 17.6118C16.0276 17.5291 17.182 16.9125 17.4232 16.2376C17.6644 15.5617 17.6644 14.983 17.5915 14.8624Z" fill="#25D366"/>
</svg>
