<svg width="80" height="80" viewBox="0 0 80 80" fill="none" xmlns="http://www.w3.org/2000/svg">
<circle cx="40" cy="40" r="40" fill="#005DE9" fill-opacity="0.2"/>
<g clip-path="url(#clip0_1100_7008)">
<path d="M40 20C36.0444 20 32.1776 21.173 28.8886 23.3706C25.5996 25.5682 23.0362 28.6918 21.5224 32.3463C20.0087 36.0009 19.6126 40.0222 20.3843 43.9018C21.156 47.7814 23.0608 51.3451 25.8579 54.1421C28.6549 56.9392 32.2186 58.844 36.0982 59.6157C39.9778 60.3874 43.9992 59.9913 47.6537 58.4776C51.3082 56.9638 54.4318 54.4004 56.6294 51.1114C58.827 47.8224 60 43.9556 60 40C59.9943 34.6974 57.8853 29.6137 54.1358 25.8642C50.3863 22.1147 45.3026 20.0057 40 20ZM40 53.3333C39.6704 53.3333 39.3481 53.2356 39.0741 53.0525C38.8 52.8693 38.5864 52.609 38.4602 52.3045C38.3341 51.9999 38.3011 51.6648 38.3654 51.3415C38.4297 51.0182 38.5884 50.7212 38.8215 50.4882C39.0546 50.2551 39.3516 50.0963 39.6749 50.032C39.9982 49.9677 40.3333 50.0007 40.6378 50.1269C40.9424 50.253 41.2027 50.4666 41.3858 50.7407C41.5689 51.0148 41.6667 51.337 41.6667 51.6667C41.6667 52.1087 41.4911 52.5326 41.1785 52.8452C40.866 53.1577 40.442 53.3333 40 53.3333ZM43.2167 40.8433C42.7248 41.1509 42.3226 41.5825 42.0505 42.0948C41.7785 42.6071 41.6461 43.182 41.6667 43.7617V45C41.6667 45.442 41.4911 45.866 41.1785 46.1785C40.866 46.4911 40.442 46.6667 40 46.6667C39.558 46.6667 39.1341 46.4911 38.8215 46.1785C38.5089 45.866 38.3333 45.442 38.3333 45V43.7617C38.3087 42.5857 38.5993 41.4246 39.1749 40.3988C39.7505 39.3731 40.5901 38.5201 41.6067 37.9283C42.2225 37.5892 42.7153 37.064 43.0146 36.4279C43.3139 35.7918 43.4045 35.0773 43.2733 34.3867C43.1435 33.7287 42.8204 33.1243 42.3454 32.6508C41.8704 32.1773 41.2651 31.8561 40.6067 31.7283C40.1262 31.6394 39.6321 31.6572 39.1592 31.7804C38.6864 31.9037 38.2465 32.1294 37.8705 32.4415C37.4946 32.7537 37.1919 33.1447 36.9839 33.5868C36.7758 34.0289 36.6676 34.5114 36.6667 35C36.6667 35.442 36.4911 35.866 36.1785 36.1785C35.866 36.4911 35.442 36.6667 35 36.6667C34.558 36.6667 34.1341 36.4911 33.8215 36.1785C33.5089 35.866 33.3333 35.442 33.3333 35C33.3338 33.8242 33.6452 32.6694 34.2359 31.6528C34.8267 30.6361 35.6759 29.7938 36.6973 29.2113C37.7186 28.6288 38.8759 28.3268 40.0517 28.3359C41.2275 28.345 42.38 28.6649 43.3922 29.2632C44.4044 29.8615 45.2404 30.7169 45.8153 31.7426C46.3903 32.7682 46.6837 33.9277 46.6659 35.1034C46.6481 36.2791 46.3196 37.4292 45.7139 38.4369C45.1081 39.4447 44.2466 40.276 43.2167 40.8433Z" fill="#005DE9"/>
</g>
<defs>
<clipPath id="clip0_1100_7008">
<rect width="40" height="40" fill="white" transform="translate(20 20)"/>
</clipPath>
</defs>
</svg>
