<svg width="80" height="80" viewBox="0 0 80 80" fill="none" xmlns="http://www.w3.org/2000/svg">
<circle cx="40" cy="40" r="40" fill="#005DE9" fill-opacity="0.2"/>
<g clip-path="url(#clip0_1100_6978)">
<path d="M50 34.545V43.4333C50 44.92 49.015 46.2283 47.585 46.6383L41.6667 48.335V35.6967C41.6667 34.1767 42.6717 32.84 44.1317 32.4183L46.325 31.7833C48.165 31.2517 50 32.63 50 34.545ZM35.8683 32.4167L33.675 31.7817C31.835 31.25 30 32.63 30 34.545V43.4333C30 44.92 30.985 46.2283 32.415 46.6383L38.3333 48.335V35.6967C38.3333 34.1767 37.3283 32.84 35.8683 32.4183V32.4167ZM60 40C60 51.0283 51.0283 60 40 60C28.9717 60 20 51.0283 20 40C20 28.9717 28.9717 20 40 20C51.0283 20 60 28.9717 60 40ZM55 40C55 31.73 48.2717 25 40 25C31.7283 25 25 31.73 25 40C25 48.27 31.7283 55 40 55C48.2717 55 55 48.2717 55 40Z" fill="#005DE9"/>
</g>
<defs>
<clipPath id="clip0_1100_6978">
<rect width="40" height="40" fill="white" transform="translate(20 20)"/>
</clipPath>
</defs>
</svg>
