<svg width="80" height="80" viewBox="0 0 80 80" fill="none" xmlns="http://www.w3.org/2000/svg">
<circle cx="40" cy="40" r="40" fill="#005DE9" fill-opacity="0.2"/>
<path d="M49.3848 23.1839C47.6499 23.1839 46.0293 23.666 44.634 24.4908C33.8318 19.7547 21.0684 28.2216 21.2599 40.0591C22.1861 62.4448 54.0857 62.4404 55.0098 40.0589C62.1221 34.6756 58.4152 23.247 49.3848 23.1839ZM38.1348 55.6839C29.519 55.6839 22.5098 48.6747 22.5098 40.0589C22.3045 29.4677 33.5308 21.6023 43.3925 25.3567C42.6011 26.0162 41.9274 26.8081 41.3879 27.6911C36.572 25.228 30.5371 29.0085 30.6348 34.4341C30.6348 37.9277 33.0285 40.8652 36.2598 41.6964V42.1339C32.3348 42.9964 29.3848 46.5027 29.3848 50.6839C29.3848 51.0277 29.666 51.3089 30.0098 51.3089H46.2598C46.6035 51.3089 46.8848 51.0277 46.8848 50.6839C46.8848 46.5027 43.9348 42.9964 40.0098 42.1339V41.6964C41.3103 41.3618 42.4724 40.6838 43.3992 39.7672C46.0791 42.1281 50.5759 42.6322 53.7396 40.854C53.3242 49.1017 46.4839 55.6839 38.1348 55.6839ZM38.1348 40.6839C34.691 40.6839 31.8848 37.8777 31.8848 34.4339C31.7768 29.9563 36.8299 26.7716 40.8031 28.7983C39.2753 32.0487 40.0506 36.3754 42.489 38.8883C41.3623 39.9921 39.8315 40.6839 38.1348 40.6839ZM38.7598 41.9339V42.5589C38.7598 42.9027 38.4785 43.1839 38.1348 43.1839C37.791 43.1839 37.5098 42.9027 37.5098 42.5589V41.9339H38.7598ZM55.7104 32.0096L50.0854 37.6346C49.3876 38.3619 48.1319 38.3622 47.4341 37.6346C47.4341 37.6346 44.3091 34.5096 44.3091 34.5096C42.6072 32.7174 45.1662 30.1551 46.9605 31.8583C46.9604 31.8583 48.7598 33.6576 48.7598 33.6576L53.0591 29.3583C54.8524 27.6556 57.4131 30.2165 55.7104 32.0096Z" fill="#005DE9"/>
</svg>
