<svg width="80" height="80" viewBox="0 0 80 80" fill="none" xmlns="http://www.w3.org/2000/svg">
<circle cx="40" cy="40" r="40" fill="#005DE9" fill-opacity="0.2"/>
<g clip-path="url(#clip0_1100_6993)">
<path d="M40 20C28.9717 20 20 28.9717 20 40C20 51.0283 28.9717 60 40 60C51.0283 60 60 51.0283 60 40C60 28.9717 51.0283 20 40 20ZM37.74 37.9333L42.8083 38.7783C45.045 39.15 46.6667 41.0667 46.6667 43.3333C46.6667 46.09 44.4233 48.3333 41.6667 48.3333V51.6667H38.3333V48.3333C35.5767 48.3333 33.3333 46.09 33.3333 43.3333H36.6667C36.6667 44.2533 37.4133 45 38.3333 45H41.6667C42.5867 45 43.3333 44.2533 43.3333 43.3333C43.3333 42.7033 42.8817 42.17 42.26 42.0667L37.1917 41.2217C34.955 40.85 33.3333 38.9333 33.3333 36.6667C33.3333 33.91 35.5767 31.6667 38.3333 31.6667V28.3333H41.6667V31.6667C44.4233 31.6667 46.6667 33.91 46.6667 36.6667H43.3333C43.3333 35.7483 42.5867 35 41.6667 35H38.3333C37.4133 35 36.6667 35.7483 36.6667 36.6667C36.6667 37.2967 37.1183 37.83 37.74 37.9333Z" fill="#005DE9"/>
</g>
<defs>
<clipPath id="clip0_1100_6993">
<rect width="40" height="40" fill="white" transform="translate(20 20)"/>
</clipPath>
</defs>
</svg>
