<svg width="40" height="40" viewBox="0 0 40 40" fill="none" xmlns="http://www.w3.org/2000/svg">
<g clip-path="url(#clip0_1128_7147)">
<path d="M39.0233 27.6433C40.3233 28.9417 40.3233 31.0583 39.0233 32.3567L33.535 37.845L31.1783 35.4883L35 31.6667H28.3333C26.495 31.6667 25 33.1617 25 35V40H21.6667V35C21.6667 31.3233 24.6567 28.3333 28.3333 28.3333H35L31.1783 24.5117L33.535 22.155L39.0233 27.6433ZM15.0367 0H15C11.84 0 9.185 2.21167 8.50333 5.17C5.54667 5.85167 3.33333 8.505 3.33333 11.6667V11.7017C1.25333 13.2667 0 15.7183 0 18.3333C0 19.81 0.391667 21.2283 1.14333 22.5C0.393333 23.7717 0 25.19 0 26.6667C0 29.4767 1.43 32.0733 3.77833 33.6083C4.97667 37.4067 8.465 40 12.5 40C13.2183 40 13.9167 39.9167 14.5867 39.76C16.8067 39.2417 18.3333 37.19 18.3333 34.91V3.30667C18.3333 1.485 16.8583 0.005 15.0367 0ZM33.535 17.44L38.7417 22.6483C39.555 21.3367 39.9983 19.87 39.9983 18.3333C39.9983 15.72 38.745 13.2667 36.665 11.7017V11.6667C36.665 8.505 34.4533 5.85167 31.495 5.17C30.8133 2.21333 28.1583 0 24.9983 0H24.9617C23.1067 0.0116667 21.665 1.64667 21.665 3.50167V27.5667C22.7767 26.5683 24.1083 25.815 25.5817 25.3933L33.535 17.44Z" fill="#427DF5"/>
</g>
<defs>
<clipPath id="clip0_1128_7147">
<rect width="40" height="40" fill="white"/>
</clipPath>
</defs>
</svg>
