<svg width="40" height="40" viewBox="0 0 40 40" fill="none" xmlns="http://www.w3.org/2000/svg">
<path d="M26.2512 10.6251C26.2512 6.93822 23.0593 3.99759 19.288 4.41447C16.3993 4.73384 14.0643 7.10447 13.7818 9.99759C13.6791 11.0101 13.826 12.0324 14.2096 12.975C14.5932 13.9177 15.2019 14.752 15.9824 15.4051C16.2618 15.639 16.4866 15.9313 16.641 16.2614C16.7954 16.5914 16.8757 16.9513 16.8762 17.3157V19.3751H23.1262V17.3157C23.1262 16.5851 23.4418 15.887 24.003 15.4195C24.7071 14.8347 25.2736 14.1019 25.6622 13.2732C26.0508 12.4445 26.2519 11.5404 26.2512 10.6251Z" fill="#DDF4FF"/>
<path d="M20 6.875L20.9656 8.9325L23.125 9.2625L21.5625 10.8637L21.9313 13.125L20 12.0575L18.0687 13.125L18.4375 10.8637L16.875 9.2625L19.0344 8.9325L20 6.875Z" fill="#427DF5"/>
<path d="M17.5 19.375C17.5 19.8723 17.6975 20.3492 18.0492 20.7008C18.4008 21.0525 18.8777 21.25 19.375 21.25H20.625C21.1223 21.25 21.5992 21.0525 21.9508 20.7008C22.3025 20.3492 22.5 19.8723 22.5 19.375H17.5Z" fill="#427DF5"/>
<path d="M16.875 17.5H23.125V19.375H16.875V17.5Z" fill="#427DF5"/>
<path d="M35 18.125L31.25 22.5H33.125V38.75H36.875V22.5H38.75L35 18.125ZM27.5 23.75L23.75 28.125H25.625V38.75H29.375V28.125H31.25L27.5 23.75Z" fill="#427DF5"/>
<path d="M19.375 0.625H20.625V2.5H19.375V0.625ZM28.125 10H30V11.25H28.125V10ZM10 10H11.875V11.25H10V10ZM25.3031 16.8125L26.1869 15.9281L27.5131 17.2544L26.6294 18.1381L25.3031 16.8125ZM12.4875 3.99563L13.3706 3.11188L14.6969 4.43812L13.8125 5.32188L12.4875 3.99563ZM25.3031 4.4375L26.6281 3.1125L27.5125 3.99625L26.1875 5.32188L25.3031 4.4375ZM12.4875 17.2544L13.8125 15.9281L14.6969 16.8119L13.3706 18.1381L12.4875 17.2544Z" fill="#DDF4FF"/>
<path d="M11.875 36.25V28.75C11.875 26.6813 10.1938 25 8.125 25H5.625C3.55625 25 1.875 26.6813 1.875 28.75V36.25H11.875Z" fill="#427DF5"/>
<path d="M20.625 34.375V31.875H19.8363C19.7198 31.4234 19.5406 30.9905 19.3038 30.5888L19.8612 30.0312L18.0938 28.2638L17.5363 28.8212C17.1346 28.5843 16.7016 28.405 16.25 28.2888V27.5H13.75V28.2888C13.2984 28.4052 12.8655 28.5844 12.4637 28.8212L11.9062 28.2638L10.1388 30.0312L10.6963 30.5888C10.4593 30.9904 10.28 31.4234 10.1637 31.875H9.375V34.375H10.1637C10.2819 34.8325 10.4619 35.2637 10.6963 35.6612L10.1388 36.2188L11.9062 37.9862L12.4637 37.4288C12.8654 37.6657 13.2984 37.845 13.75 37.9612V38.75H16.25V37.9612C16.7016 37.8448 17.1345 37.6656 17.5363 37.4288L18.0938 37.9862L19.8612 36.2188L19.3038 35.6612C19.5408 35.2597 19.7201 34.8266 19.8363 34.375H20.625ZM15 35.625C14.337 35.625 13.7011 35.3616 13.2322 34.8928C12.7634 34.4239 12.5 33.788 12.5 33.125C12.5 32.462 12.7634 31.8261 13.2322 31.3572C13.7011 30.8884 14.337 30.625 15 30.625C15.663 30.625 16.2989 30.8884 16.7678 31.3572C17.2366 31.8261 17.5 32.462 17.5 33.125C17.5 33.788 17.2366 34.4239 16.7678 34.8928C16.2989 35.3616 15.663 35.625 15 35.625Z" fill="#427DF5"/>
<path d="M6.875 25L5.625 30.625L6.875 32.5L8.125 30.625L6.875 25Z" fill="#427DF5"/>
<path d="M6.875 25C8.94607 25 10.625 23.3211 10.625 21.25C10.625 19.1789 8.94607 17.5 6.875 17.5C4.80393 17.5 3.125 19.1789 3.125 21.25C3.125 23.3211 4.80393 25 6.875 25Z" fill="#427DF5"/>
<path d="M6.875 17.5C5.88044 17.5 4.92661 17.8951 4.22335 18.5983C3.52009 19.3016 3.125 20.2554 3.125 21.25C3.125 21.2969 3.13 21.3419 3.13188 21.3881L3.15 21.3562C4.0625 20.3312 5.39375 19.6875 6.875 19.6875C8.35625 19.6875 9.6875 20.3312 10.6 21.3562C10.6061 21.3602 10.6124 21.364 10.6187 21.3675C10.62 21.3281 10.625 21.29 10.625 21.25C10.625 20.2554 10.2299 19.3016 9.52665 18.5983C8.82339 17.8951 7.86956 17.5 6.875 17.5Z" fill="#427DF5"/>
</svg>
