<svg width="40" height="40" viewBox="0 0 40 40" fill="none" xmlns="http://www.w3.org/2000/svg">
<path d="M39.948 33.8516L38.3397 28.3032C38.0197 27.1982 36.523 27.0332 35.968 28.0399L35.0997 29.6182L31.6664 27.7982V20.7599C31.6664 18.6732 30.5397 16.7332 28.7264 15.6949L22.4997 12.1366V8.33156H24.0847C25.2347 8.33156 25.8114 6.94156 24.998 6.12656L20.913 2.04156C20.408 1.53823 19.5914 1.53823 19.0864 2.04156L15.0014 6.12656C14.188 6.9399 14.7647 8.33156 15.9147 8.33156H17.4997V12.1366L11.2714 15.6966C9.45971 16.7332 8.33304 18.6732 8.33304 20.7599V27.7982L4.89971 29.6182L4.03137 28.0399C3.47637 27.0316 1.97971 27.1982 1.65971 28.3032L0.0513737 33.8516C-0.14696 34.5366 0.246374 35.2532 0.931374 35.4516L6.47971 37.0599C7.58471 37.3799 8.52471 36.2049 7.96971 35.1966L7.30971 33.9982L10.7864 32.1549L17.1047 35.7666C17.9964 36.2766 18.998 36.5316 19.998 36.5316C20.998 36.5316 21.9997 36.2766 22.8914 35.7666L29.2097 32.1549L32.6864 33.9982L32.0264 35.1966C31.4714 36.2049 32.413 37.3799 33.5164 37.0599L39.0647 35.4516C39.7497 35.2532 40.143 34.5366 39.9447 33.8516H39.948ZM19.9997 16.4682L24.753 19.1849L19.9997 21.9032L15.2464 19.1849L19.9997 16.4682ZM18.333 30.7099L13.333 27.8532V21.9299L18.333 24.7866V30.7099ZM26.6664 27.8532L21.6664 30.7099V24.7866L26.6664 21.9299V27.8532Z" fill="#427DF5"/>
</svg>
