<svg width="40" height="40" viewBox="0 0 40 40" fill="none" xmlns="http://www.w3.org/2000/svg">
<path d="M35.468 19.3322C35.0988 22.5591 33.6941 26.0349 30.146 28.8846C30.146 28.8846 28.5807 30.1368 28.4202 32.7135C28.2676 35.2983 28.2676 35.9807 28.2676 35.9807L14.6534 38.4611V33.6527C14.6534 33.6527 15.4803 32.7537 8.65713 31.678C7.4209 31.4774 6.54597 30.3214 6.74664 29.0853C6.80284 28.7883 6.89113 28.4591 7.03561 28.1139C7.13997 27.8651 7.10788 27.5761 6.93126 27.3755L6.36934 26.1874C6.11251 25.6335 6.03221 25.0154 6.15264 24.4214C6.24897 23.9558 6.63426 22.8802 6.63426 22.8802C6.63426 22.8802 2.60457 21.9972 5.42214 18.4732C6.83494 16.7072 7.71796 15.3587 8.2397 14.4516C8.71333 13.6408 8.9461 12.7258 8.9461 11.7865V10.8233C8.9461 9.08941 9.61237 7.41175 10.8485 6.18356C13.5778 3.47838 19.0283 -0.398783 25.8354 2.65959C32.2732 5.55746 36.2708 12.3244 35.468 19.3322Z" fill="#427DF5"/>
<path d="M32.112 20.6671C30.9966 22.0056 29.012 22.1902 27.6658 21.0748C27.1197 20.6133 26.7582 20.0133 26.612 19.3671L21.912 18.944C21.7889 19.244 21.6197 19.5209 21.4043 19.7825C21.2966 19.9209 21.1735 20.0441 21.0427 20.1517L22.7427 23.944C23.4504 23.8979 24.1735 24.1056 24.7581 24.5902C25.9735 25.5979 26.1351 27.3979 25.135 28.6132C24.1197 29.8209 22.3197 29.9979 21.112 28.9902C19.8966 27.9825 19.7274 26.1825 20.7351 24.9671C20.7966 24.8902 20.8658 24.8132 20.9351 24.7517L19.2351 20.9671C18.912 21.0056 18.5889 20.9902 18.2581 20.9363L16.4504 24.4286C17.3966 25.4594 17.4581 27.0594 16.5351 28.1671C15.5274 29.3825 13.7274 29.544 12.512 28.544C11.3043 27.5364 11.1351 25.7286 12.1428 24.5286C12.7889 23.7441 13.7581 23.3902 14.6966 23.5132L16.512 20.0133C15.2966 18.8364 15.1812 16.8825 16.2966 15.544C16.3736 15.4517 16.4505 15.3671 16.5351 15.2902L15.2966 12.8287C14.5504 12.9133 13.7735 12.7056 13.1505 12.1902C11.9351 11.1825 11.7735 9.38248 12.7735 8.16712C13.7889 6.95172 15.5812 6.78247 16.7889 7.79786C18.0043 8.7979 18.1812 10.5979 17.1658 11.8133C17.1351 11.8517 17.0966 11.8902 17.0581 11.9286L18.3043 14.3902C18.9428 14.2825 19.6197 14.3671 20.2274 14.6517L22.4427 12.1825C21.912 11.1979 21.9966 9.94405 22.7659 9.02865C23.7658 7.81325 25.5658 7.64405 26.7812 8.65174C27.9966 9.65943 28.1581 11.4594 27.1581 12.6748C26.3427 13.6517 25.0197 13.944 23.9043 13.5056L21.6966 15.9671C21.8889 16.2825 22.0197 16.621 22.0889 16.9748L26.7966 17.3979C26.9043 17.1286 27.0658 16.8748 27.2581 16.644C28.3658 15.2979 30.3582 15.1133 31.6966 16.2209C33.0274 17.3363 33.2197 19.321 32.112 20.6671Z" fill="white"/>
<path d="M26.1559 1.95869C24.3996 1.16955 22.608 0.769531 20.8299 0.769531C16.1964 0.769531 12.5531 3.41677 10.3115 5.63845C8.93832 7.00263 8.18187 8.8442 8.18187 10.824C7.86785 12.0416 9.41376 12.2609 4.82625 17.9935C2.84358 20.4739 3.5798 22.4538 5.66309 23.3608C4.85912 25.8339 5.78293 26.4641 6.24077 27.7054C6.27157 27.7704 6.28358 27.7643 6.33091 27.8181C5.82958 29.0207 5.76747 30.1755 6.55101 31.2296C7.03328 31.8791 7.74017 32.3084 8.5432 32.4387C12.3608 33.0408 13.5447 33.5554 13.8895 33.7634V38.4618C13.8895 38.6898 13.9909 38.9062 14.166 39.0527C14.3057 39.1687 14.48 39.2311 14.6587 39.2311C14.7046 39.2311 14.7504 39.2269 14.797 39.2187L28.411 36.7382C28.7753 36.6717 29.0413 36.3532 29.042 35.9821C29.2529 35.0989 28.6294 31.1551 30.6331 29.4854C33.8865 26.8715 35.7728 23.4855 36.2378 19.4204C37.0663 12.1837 32.9204 5.0033 26.1559 1.95869ZM34.7098 19.2453C34.2914 22.8936 32.5959 25.9352 29.6708 28.2849C27.5787 29.9649 27.6133 32.9119 27.5216 35.3365L15.428 37.5397V33.8006C15.473 33.6339 15.476 33.4385 15.4032 33.229C15.1605 32.5333 14.1907 31.7716 8.78583 30.9194C7.91721 30.7792 7.11668 29.9329 7.74992 28.4123C8.11304 27.5468 7.62287 27.1554 7.07234 25.8646C6.64491 24.9418 6.98621 24.1942 7.36381 23.1403C7.82315 21.8528 5.68981 22.2827 5.25143 21.0422C4.63871 19.3156 9.72033 16.013 9.72033 11.7874V10.824C9.72033 9.25736 10.3153 7.80341 11.3955 6.73069C13.4305 4.71296 16.72 2.30799 20.8299 2.30799C22.3893 2.30799 23.9684 2.66256 25.5249 3.36193C31.6855 6.13462 35.4625 12.6663 34.7098 19.2453Z" fill="#427DF5"/>
<path d="M26.9579 16.3957C26.8021 16.5822 26.6693 16.7823 26.5568 16.9916L22.3952 16.6158C22.335 16.4116 22.2513 16.217 22.1576 16.0277L24.0277 13.9425C25.3556 14.3422 26.6556 13.8712 27.4477 12.9202C28.5827 11.5444 28.3919 9.49626 27.021 8.35331C25.6433 7.21767 23.6023 7.40015 22.4634 8.78224C21.726 9.66727 21.4731 10.9002 21.9837 12.1081L20.1176 14.1899C19.7128 14.0409 19.2825 13.9614 18.8457 13.9614C18.7372 13.9614 18.63 13.9699 18.5231 13.9792L17.5148 11.9783C18.0261 11.3265 18.2717 10.5215 18.1944 9.69345C18.114 8.82994 17.7008 8.0502 17.0338 7.49957C15.6736 6.36284 13.6329 6.53157 12.4755 7.92024C11.3404 9.29607 11.5312 11.3438 12.9022 12.4868C13.4682 12.9537 14.1979 13.245 15.0607 13.2203L16.0687 15.2195C15.3436 16.0457 15.0613 17.0354 15.152 18.0115C15.2243 18.7894 15.5392 19.5023 16.0399 20.081L14.4641 23.1151C14.4212 23.1134 14.3793 23.1039 14.3362 23.1039C12.4435 23.1039 10.9327 24.7299 11.1075 26.6417C11.2639 28.3401 12.6833 29.5812 14.3309 29.5812C16.2449 29.5812 17.7366 27.9424 17.5589 26.0411C17.5015 25.4261 17.2687 24.8578 16.9019 24.3807L18.4788 21.3416C18.6003 21.3538 18.7207 21.3735 18.8434 21.3735C18.8928 21.3735 18.941 21.3674 18.99 21.3654L20.4799 24.6853C19.8632 25.4064 19.6255 26.2462 19.7043 27.0905C19.864 28.7899 21.2954 30.03 22.9239 30.03C24.8164 30.03 26.3369 28.4109 26.1541 26.4817C25.9953 24.8117 24.6138 23.5853 22.9847 23.5572L21.5009 20.2431C21.7267 20.0091 21.9139 19.787 22.1383 19.349L26.313 19.7298C26.5158 20.3671 26.8909 20.9361 27.4176 21.372C28.0517 21.8997 28.8539 22.1905 29.6765 22.1905C30.7304 22.1905 31.7235 21.7258 32.4019 20.9134C33.6398 19.4129 33.431 17.1766 31.9346 15.9277C31.3014 15.4037 30.5006 15.1149 29.6795 15.1149C28.6211 15.1149 27.6287 15.5825 26.9579 16.3957ZM23.0554 9.27316C23.924 8.2201 25.4795 8.07912 26.5297 8.94564C27.5754 9.81703 27.7211 11.3803 26.8557 12.4293C25.9762 13.4836 24.4216 13.6192 23.3739 12.7467C22.3307 11.8823 22.1768 10.3281 23.0554 9.27316ZM22.385 12.8125C22.5312 13.0028 22.6935 13.182 22.8826 13.3387C23.009 13.444 23.1455 13.5342 23.2851 13.6184L21.7317 15.3503C21.3767 14.9105 21.0951 14.7244 20.8257 14.5521L22.385 12.8125ZM13.3934 11.8945C12.3478 11.0235 12.202 9.46021 13.0674 8.41116C13.9474 7.35564 15.5026 7.22165 16.5417 8.09114C17.0525 8.51219 17.3673 9.10677 17.4289 9.76482C17.5705 11.2906 16.2791 12.6359 14.6657 12.4348C14.6653 12.4347 14.6649 12.4346 14.6646 12.4345C14.2004 12.3764 13.7569 12.1944 13.3934 11.8945ZM16.9454 12.5574L17.7394 14.1333C17.3509 14.2544 16.986 14.4382 16.6575 14.6793L15.857 13.0916C16.2496 12.9794 16.6221 12.8075 16.9454 12.5574ZM18.8457 14.7306C20.3198 14.7306 21.6202 15.8522 21.7656 17.3918C21.9295 19.1143 20.5744 20.6043 18.8434 20.6043C17.3674 20.6043 16.0614 19.4923 15.9182 17.9405C15.7577 16.2172 17.1162 14.7306 18.8457 14.7306ZM14.3309 28.8119C13.0812 28.8119 11.9924 27.8733 11.8738 26.5715C11.7393 25.1189 12.8906 23.8731 14.3362 23.8731C15.5693 23.8731 16.6711 24.8102 16.7934 26.1125C16.9282 27.5659 15.7901 28.8119 14.3309 28.8119ZM16.3339 23.8053C16.0127 23.5515 15.6478 23.3673 15.26 23.2507L16.6247 20.6231C16.9513 20.8672 17.311 21.0569 17.695 21.1823L16.3339 23.8053ZM19.7805 21.2492C20.1753 21.1463 20.5483 20.9794 20.8872 20.7544L22.1809 23.6438C21.7836 23.7381 21.4143 23.914 21.0812 24.1479L19.7805 21.2492ZM25.3886 26.5546C25.5287 28.0364 24.3598 29.2608 22.9239 29.2608C21.6873 29.2608 20.5919 28.315 20.4705 27.0192C20.168 23.799 25.0796 23.3026 25.3886 26.5546ZM22.5315 17.4005L26.2696 17.7381C26.1654 18.1259 26.1209 18.5307 26.155 18.943L22.4179 18.6019C22.519 18.2141 22.5614 17.8109 22.5315 17.4005ZM31.8099 20.4221C31.2796 21.0573 30.5021 21.4212 29.6765 21.4212C29.0335 21.4212 28.4055 21.194 27.9082 20.7801C27.3395 20.3091 26.9887 19.6439 26.9203 18.9069C26.8527 18.1711 27.0758 17.4545 27.5498 16.887C28.0757 16.2496 28.8517 15.8841 29.6795 15.8841C30.3218 15.8841 30.949 16.1102 31.4433 16.5192C32.6144 17.4969 32.7782 19.2484 31.8099 20.4221Z" fill="#427DF5"/>
</svg>
