<svg width="389" height="364" viewBox="0 0 389 364" fill="none" xmlns="http://www.w3.org/2000/svg">
<path d="M0 313.465V20C0 8.95431 8.95431 0 20 0H194.223H368.445C379.491 0 388.445 8.9543 388.445 20V313.465C388.445 324.51 379.491 333.465 368.445 333.465H222.042L194.988 364L162.831 333.465H20C8.95431 333.465 0 324.51 0 313.465Z" fill="#EAEAEA"/>
<path d="M232.452 182H270.904V212.762C270.904 229.729 257.11 243.523 240.143 243.523H236.298C234.782 243.52 233.28 243.816 231.879 244.394C230.477 244.972 229.204 245.822 228.132 246.894C227.06 247.966 226.211 249.239 225.632 250.64C225.054 252.042 224.758 253.543 224.762 255.059V278.13C224.758 279.646 225.054 281.148 225.632 282.549C226.211 283.951 227.06 285.224 228.132 286.296C229.204 287.368 230.477 288.217 231.879 288.796C233.28 289.374 234.782 289.67 236.298 289.666H240.143C282.632 289.666 317.047 255.252 317.047 212.762V97.4053C317.047 84.6679 306.713 74.334 293.976 74.334H232.452C219.715 74.334 209.381 84.6679 209.381 97.4053V158.929C209.381 171.666 219.715 182 232.452 182ZM94.0244 182H132.477V212.762C132.477 229.729 118.682 243.523 101.715 243.523H97.8699C96.3539 243.52 94.8522 243.816 93.451 244.394C92.0497 244.972 90.7766 245.822 89.7047 246.894C88.6327 247.966 87.7831 249.239 87.2047 250.64C86.6263 252.042 86.3303 253.543 86.334 255.059V278.13C86.3303 279.646 86.6263 281.148 87.2047 282.549C87.7831 283.951 88.6327 285.224 89.7047 286.296C90.7766 287.368 92.0497 288.217 93.451 288.796C94.8522 289.374 96.3539 289.67 97.8699 289.666H101.715C144.204 289.666 178.619 255.252 178.619 212.762V97.4053C178.619 84.6679 168.285 74.334 155.548 74.334H94.0244C81.2871 74.334 70.9531 84.6679 70.9531 97.4053V158.929C70.9531 171.666 81.2871 182 94.0244 182Z" fill="#005DE9" fill-opacity="0.05"/>
</svg>
