<svg width="40" height="39" viewBox="0 0 40 39" fill="none" xmlns="http://www.w3.org/2000/svg">
<path fill-rule="evenodd" clip-rule="evenodd" d="M5.3725 38.4174V20.6648H0V38.4174H5.3725ZM32.1142 24.98V38.4174H40V12.8455H28.0184V24.2688H31.4027C31.7954 24.2688 32.1142 24.5872 32.1142 24.98ZM35.7336 21.0549C35.7336 20.6624 36.052 20.3436 36.4448 20.3436C36.8376 20.3436 37.156 20.6624 37.156 21.0549V22.6108C37.156 23.0036 36.8376 23.3221 36.4448 23.3221C36.052 23.3221 35.7336 23.0036 35.7336 22.6108V21.0549ZM32.2851 21.0549V22.6108C32.2851 23.0036 31.9667 23.3221 31.5739 23.3221C31.181 23.3221 30.8627 23.0036 30.8627 22.6108V21.0549C30.8627 20.6624 31.181 20.3436 31.5739 20.3436C31.9667 20.3436 32.2851 20.6624 32.2851 21.0549ZM32.2851 16.1874C32.2851 16.58 31.9667 16.8986 31.5739 16.8986C31.181 16.8986 30.8627 16.58 30.8627 16.1874V14.6315C30.8627 14.2389 31.181 13.9202 31.5739 13.9202C31.9667 13.9202 32.2851 14.2389 32.2851 14.6315V16.1874ZM35.7336 16.1874V14.6315C35.7336 14.2389 36.052 13.9202 36.4448 13.9202C36.8376 13.9202 37.156 14.2389 37.156 14.6315V16.1874C37.156 16.58 36.8376 16.8986 36.4448 16.8986C36.052 16.8986 35.7336 16.58 35.7336 16.1874ZM35.7336 27.4786C35.7336 27.0858 36.052 26.7672 36.4448 26.7672C36.8376 26.7672 37.156 27.0858 37.156 27.4786V29.0344C37.156 29.4272 36.8376 29.7455 36.4448 29.7455C36.052 29.7455 35.7336 29.4272 35.7336 29.0344V27.4786ZM17.4067 25.6911V38.4174H30.6915V25.6911H17.4067ZM26.5163 30.3007C26.5163 29.9079 26.8349 29.5896 27.2275 29.5896C27.6203 29.5896 27.939 29.9079 27.939 30.3007V31.8568C27.939 32.2493 27.6203 32.5679 27.2275 32.5679C26.8349 32.5679 26.5163 32.2493 26.5163 31.8568V30.3007ZM20.1595 30.3007C20.1595 29.9079 20.4781 29.5896 20.8709 29.5896C21.2634 29.5896 21.5821 29.9079 21.5821 30.3007V31.8568C21.5821 32.2493 21.2634 32.5679 20.8709 32.5679C20.4781 32.5679 20.1595 32.2493 20.1595 31.8568V30.3007ZM10.6315 23.6106C11.0243 23.6106 11.3427 23.9291 11.3427 24.3218V25.8778C11.3427 26.2703 11.0243 26.5891 10.6315 26.5891C10.2386 26.5891 9.92031 26.2703 9.92031 25.8778V24.3218C9.92031 23.9291 10.2386 23.6106 10.6315 23.6106ZM6.7949 19.9533V38.4174H15.9843V24.98C15.9843 24.5872 16.3027 24.2688 16.6954 24.2688H20.8248V0H6.7949V19.9533ZM16.2771 6.60719V5.05146C16.2771 4.65865 16.5954 4.34021 16.9882 4.34021C17.381 4.34021 17.6995 4.65865 17.6995 5.05146V6.60719C17.6995 7 17.381 7.31865 16.9882 7.31865C16.5954 7.31865 16.2771 7 16.2771 6.60719ZM16.2771 11.4749C16.2771 11.0821 16.5954 10.7636 16.9882 10.7636C17.381 10.7636 17.6995 11.0821 17.6995 11.4749V13.0306C17.6995 13.4234 17.381 13.7421 16.9882 13.7421C16.5954 13.7421 16.2771 13.4234 16.2771 13.0306V11.4749ZM11.3427 13.0306C11.3427 13.4234 11.0243 13.7421 10.6315 13.7421C10.2386 13.7421 9.92031 13.4234 9.92031 13.0306V11.4749C9.92031 11.0821 10.2386 10.7636 10.6315 10.7636C11.0243 10.7636 11.3427 11.0821 11.3427 11.4749V13.0306ZM16.2771 17.8983C16.2771 17.5055 16.5954 17.1872 16.9882 17.1872C17.381 17.1872 17.6995 17.5055 17.6995 17.8983V19.4544C17.6995 19.8469 17.381 20.1655 16.9882 20.1655C16.5954 20.1655 16.2771 19.8469 16.2771 19.4544V17.8983ZM11.3427 19.4544C11.3427 19.8469 11.0243 20.1655 10.6315 20.1655C10.2386 20.1655 9.92031 19.8469 9.92031 19.4544V17.8983C9.92031 17.5055 10.2386 17.1872 10.6315 17.1872C11.0243 17.1872 11.3427 17.5055 11.3427 17.8983V19.4544ZM10.6315 7.31865C10.2386 7.31865 9.92031 7 9.92031 6.60719V5.05146C9.92031 4.65865 10.2386 4.34021 10.6315 4.34021C11.0243 4.34021 11.3427 4.65865 11.3427 5.05146V6.60719C11.3427 7 11.0243 7.31865 10.6315 7.31865ZM9.92031 30.7453C9.92031 30.3527 10.2386 30.0341 10.6315 30.0341C11.0243 30.0341 11.3427 30.3527 11.3427 30.7453V32.3013C11.3427 32.694 11.0243 33.0125 10.6315 33.0125C10.2386 33.0125 9.92031 32.694 9.92031 32.3013V30.7453Z" fill="#427DF5"/>
</svg>
