<svg width="252" height="252" viewBox="0 0 252 252" fill="none" xmlns="http://www.w3.org/2000/svg">
<path d="M164.452 126H202.904V156.762C202.904 173.729 189.11 187.523 172.143 187.523H168.298C166.782 187.52 165.28 187.816 163.879 188.394C162.477 188.972 161.204 189.822 160.132 190.894C159.06 191.966 158.211 193.239 157.632 194.64C157.054 196.042 156.758 197.543 156.762 199.059V222.13C156.758 223.646 157.054 225.148 157.632 226.549C158.211 227.951 159.06 229.224 160.132 230.296C161.204 231.368 162.477 232.217 163.879 232.796C165.28 233.374 166.782 233.67 168.298 233.666H172.143C214.632 233.666 249.047 199.252 249.047 156.762V41.4053C249.047 28.6679 238.713 18.334 225.976 18.334H164.452C151.715 18.334 141.381 28.6679 141.381 41.4053V102.929C141.381 115.666 151.715 126 164.452 126ZM26.0244 126H64.4766V156.762C64.4766 173.729 50.682 187.523 33.7148 187.523H29.8699C28.3539 187.52 26.8522 187.816 25.451 188.394C24.0497 188.972 22.7766 189.822 21.7047 190.894C20.6327 191.966 19.7831 193.239 19.2047 194.64C18.6263 196.042 18.3303 197.543 18.334 199.059V222.13C18.3303 223.646 18.6263 225.148 19.2047 226.549C19.7831 227.951 20.6327 229.224 21.7047 230.296C22.7766 231.368 24.0497 232.217 25.451 232.796C26.8522 233.374 28.3539 233.67 29.8699 233.666H33.7148C76.2044 233.666 110.619 199.252 110.619 156.762V41.4053C110.619 28.6679 100.285 18.334 87.5479 18.334H26.0244C13.2871 18.334 2.95312 28.6679 2.95312 41.4053V102.929C2.95312 115.666 13.2871 126 26.0244 126Z" fill="#005DE9" fill-opacity="0.05"/>
</svg>
