<svg width="40" height="45" viewBox="0 0 40 45" fill="none" xmlns="http://www.w3.org/2000/svg">
<path d="M20.0581 28.7739C24.4345 28.7739 27.9823 32.3217 27.9823 36.6981C27.9823 41.0745 24.4345 44.6223 20.0581 44.6223C15.6817 44.6223 12.1339 41.0745 12.1339 36.6981C12.1339 32.3217 15.6817 28.7739 20.0581 28.7739Z" fill="white"/>
<path d="M40 2.73151V9.11723C40 9.79826 39.6886 10.4419 39.1547 10.8646L21.7241 24.6638C20.9076 25.3102 19.7523 25.305 18.9417 24.6513L0.829618 10.0448C0.30499 9.62169 2.95097e-07 8.98392 2.65637e-07 8.30995L0 2.23288C-8.18638e-08 0.360049 2.1699 -0.677627 3.62774 0.498045L18.9272 12.8363C19.7444 13.4954 20.9108 13.4947 21.7273 12.8347L36.3703 0.998269C37.8277 -0.179807 40 0.857501 40 2.73151Z" fill="white"/>
</svg>
