<svg width="60" height="60" viewBox="0 0 60 60" fill="none" xmlns="http://www.w3.org/2000/svg">
<rect width="60" height="60" rx="30" fill="#DCE7FF"/>
<g clip-path="url(#clip0_1141_7771)">
<path fill-rule="evenodd" clip-rule="evenodd" d="M10.8887 40.7833H14.3099C13.9844 40.6773 13.7402 40.3024 13.7402 39.8624V16.9494C13.7402 16.4279 14.082 16 14.4987 16H45.306C45.7227 16 46.0645 16.4279 46.0645 16.9494V39.8583C46.0645 40.2984 45.8236 40.6733 45.4948 40.7792H49.1146C49.6029 40.7792 50.0033 41.2763 50.0033 41.8916C50.0033 42.5029 49.6061 43.0041 49.1146 43.0041H10.8887C10.4004 43.0041 10 42.5069 10 41.8916C10 41.2804 10.3971 40.7833 10.8887 40.7833ZM19.7363 20.4701H27.6725V32.385C27.6562 32.7191 27.3145 32.7273 26.9434 32.7069H19.6094C19.0951 32.7069 18.6751 33.2326 18.6751 33.8764C18.6751 34.5202 19.0951 35.0459 19.6094 35.0459H27.2819V33.803H28.0111V35.3841C28.0111 35.6734 27.8223 35.9057 27.5944 35.9057H19.6452C18.7207 36.3335 17.9655 35.3882 17.9655 34.2309V22.6868C17.9688 21.4685 18.763 20.4701 19.7363 20.4701ZM31.722 35.27C31.4583 35.27 31.2435 34.9807 31.2435 34.6262C31.2435 34.2717 31.4583 33.9823 31.722 33.9823H41.2565C41.5202 33.9823 41.735 34.2717 41.735 34.6262C41.735 34.9807 41.5202 35.27 41.2565 35.27H31.722ZM31.6536 21.2077H42.1582C42.3828 21.2077 42.5684 21.4399 42.5684 21.7211V23.5548C42.5684 23.8319 42.3828 24.0682 42.1582 24.0682H31.6536C31.4323 24.0682 31.2435 23.84 31.2435 23.5548V21.7211C31.2435 21.4359 31.429 21.2077 31.6536 21.2077ZM31.722 28.0738C31.4583 28.0738 31.2435 27.7845 31.2435 27.43C31.2435 27.0755 31.4583 26.7861 31.722 26.7861H40.6022C40.8659 26.7861 41.0807 27.0755 41.0807 27.43C41.0807 27.7845 40.8659 28.0738 40.6022 28.0738H31.722ZM31.722 31.6719C31.4583 31.6719 31.2435 31.3826 31.2435 31.0281C31.2435 30.6736 31.4583 30.3842 31.722 30.3842H39.2188C39.4824 30.3842 39.6973 30.6736 39.6973 31.0281C39.6973 31.3826 39.4824 31.6719 39.2188 31.6719H31.722ZM20.0651 22.2019H20.3613C20.5111 22.2019 20.6348 22.3283 20.6348 22.479V31.187C20.6348 31.3378 20.5111 31.4641 20.3613 31.4641H20.0651C19.9154 31.4641 19.7917 31.3378 19.7917 31.187V22.479C19.7917 22.3242 19.9154 22.2019 20.0651 22.2019ZM15.0358 17.4873H44.8698V39.5893H15.0358V17.4873ZM29.2546 41.1989H31.7513C31.9857 41.1989 32.1777 41.4393 32.1777 41.7327C32.1777 42.0261 31.9857 42.2665 31.7513 42.2665H29.2546C29.0202 42.2665 28.8281 42.0261 28.8281 41.7327C28.8281 41.4353 29.0202 41.1989 29.2546 41.1989Z" fill="#427DF5"/>
</g>
<defs>
<clipPath id="clip0_1141_7771">
<rect width="40" height="27" fill="white" transform="translate(10 16)"/>
</clipPath>
</defs>
</svg>
