<svg width="60" height="60" viewBox="0 0 60 60" fill="none" xmlns="http://www.w3.org/2000/svg">
<rect width="60" height="60" rx="30" fill="#DCE7FF"/>
<g clip-path="url(#clip0_1141_7764)">
<path fill-rule="evenodd" clip-rule="evenodd" d="M19.7103 42.571V30.5527H25.1172C27.4089 30.9629 29.7005 32.2064 31.9922 33.6484H36.1914C38.0924 33.7624 39.0885 35.6895 37.2396 36.9557C35.7682 38.0365 33.8249 37.9746 31.8327 37.7956C30.459 37.7272 30.4004 39.5729 31.8327 39.5794C32.3307 39.6185 32.8711 39.5013 33.3431 39.5013C35.8268 39.498 37.8744 39.0228 39.1276 37.0599L39.7559 35.5918L46.0026 32.4961C49.1276 31.4674 51.3509 34.7357 49.0462 37.0111C44.5215 40.3021 39.8828 43.0104 35.1367 45.1979C31.6895 47.2943 28.2422 47.2227 24.7982 45.1979L19.7103 42.571ZM23.8053 14L47.0508 20.2272L43.8119 32.3138L20.5664 26.0866L23.8053 14ZM34.7656 19.6055C36.7318 20.1328 37.8971 22.1478 37.3698 24.1139C36.8424 26.0801 34.8275 27.2454 32.8613 26.7181C30.8952 26.1908 29.7298 24.1758 30.2572 22.2096C30.7812 20.2435 32.7962 19.0781 34.7656 19.6055ZM27.1973 16.8809L42.653 21.0215C42.3893 22.0046 42.9753 23.0234 43.9616 23.2839L42.6823 28.0625C41.6992 27.7988 40.6803 28.3848 40.4199 29.3711L24.9609 25.2305C25.2246 24.2474 24.6387 23.2318 23.6523 22.9681L24.9316 18.1895C25.9147 18.4531 26.9336 17.8672 27.1973 16.8809ZM10 29.3971H18.0827V43.7786H10V29.3971Z" fill="#427DF5"/>
</g>
<defs>
<clipPath id="clip0_1141_7764">
<rect width="40" height="32.7409" fill="white" transform="translate(10 14)"/>
</clipPath>
</defs>
</svg>
