<svg width="60" height="60" viewBox="0 0 60 60" fill="none" xmlns="http://www.w3.org/2000/svg">
<rect width="60" height="60" rx="30" fill="#DCE7FF"/>
<g clip-path="url(#clip0_1141_7746)">
<path fill-rule="evenodd" clip-rule="evenodd" d="M30.2163 10C36.4201 10 41.971 12.7946 45.6787 17.1938L48.2321 14.6405V23.0192H39.8533L42.2494 20.6235C39.4012 16.9918 34.9736 14.6586 30.0002 14.6586C21.4079 14.6586 14.4421 21.6241 14.4421 30.2163C14.4421 38.8086 21.4076 45.7744 30.0002 45.7744C37.1463 45.7744 43.1665 40.9559 44.991 34.3922H50.0003C48.0764 43.5537 39.9504 50.4327 30.2167 50.4327C19.0513 50.4327 10 41.3814 10 30.216C10 19.0513 19.0513 10 30.2163 10ZM29.935 36.2717H21.6027V34.4669L25.4393 30.4335C26.3856 29.3556 26.8585 28.5017 26.8585 27.8667C26.8585 27.354 26.7466 26.9624 26.5225 26.6966C26.2988 26.4281 25.971 26.2935 25.5456 26.2935C25.1257 26.2935 24.7845 26.4725 24.5213 26.8308C24.2577 27.1888 24.1264 27.6344 24.1264 28.1717H21.3552C21.3552 27.4382 21.5372 26.7607 21.9044 26.1389C22.271 25.5203 22.7807 25.0339 23.4295 24.6838C24.0817 24.3341 24.8069 24.16 25.6127 24.16C26.8999 24.16 27.894 24.4568 28.5909 25.053C29.2908 25.6492 29.6379 26.5061 29.6379 27.6199C29.6379 28.0901 29.5514 28.5488 29.3747 28.9943C29.2016 29.4391 28.9298 29.9061 28.5606 30.3967C28.1911 30.8859 27.5972 31.5381 26.7772 32.3581L25.2346 34.1385H29.9347L29.935 36.2717ZM37.914 31.6056H39.1288V33.7387H37.914V36.2714H35.151V33.7387H30.5358L30.37 32.0478L35.1507 24.3564V24.3311H37.9136L37.914 31.6056ZM33.001 31.6056H35.1507V27.9308L34.9799 28.2108L33.001 31.6056Z" fill="#427DF5"/>
</g>
<defs>
<clipPath id="clip0_1141_7746">
<rect width="40" height="40.4327" fill="white" transform="translate(10 10)"/>
</clipPath>
</defs>
</svg>
