<svg width="60" height="60" viewBox="0 0 60 60" fill="none" xmlns="http://www.w3.org/2000/svg">
<rect width="60" height="60" rx="30" fill="#DCE7FF"/>
<g clip-path="url(#clip0_1141_7785)">
<path fill-rule="evenodd" clip-rule="evenodd" d="M30.0012 10.0038C30.7531 9.97455 31.3457 10.2187 31.9451 10.5768C32.704 11.0292 33.5598 11.9244 34.6167 12.4908C36.1032 13.2884 38.8545 12.1881 40.2613 14.1542C41.0825 15.3001 41.1206 16.1985 41.183 17.0872C41.2488 18.0442 41.429 18.9264 42.472 20.2219C44.2011 22.3704 44.5615 23.7994 43.6709 25.2871C43.0645 26.3027 41.7859 26.8658 41.4914 27.5104C40.8608 28.8776 41.5572 29.9095 40.6979 31.5045C40.0984 32.6113 39.1767 33.3404 37.9466 33.7115C36.9106 34.024 35.871 33.5716 35.0394 33.9003C33.5806 34.4765 32.5065 35.8144 31.3457 36.1529C30.8987 36.2831 30.4517 36.3483 30.0047 36.345C29.5577 36.3483 29.1107 36.2831 28.6637 36.1529C27.5029 35.8144 26.4287 34.4765 24.9699 33.9003C24.1383 33.5716 23.0988 34.0273 22.0627 33.7115C20.8326 33.3404 19.9109 32.6113 19.3114 31.5045C18.4486 29.9095 19.1451 28.8776 18.5179 27.5104C18.2234 26.8658 16.9448 26.3027 16.3384 25.2871C15.4409 23.7994 15.8013 22.3704 17.5304 20.2252C18.5734 18.9296 18.7536 18.0475 18.8194 17.0904C18.8818 16.2018 18.9199 15.3033 19.7411 14.1575C21.1514 12.1913 23.9027 13.2916 25.3857 12.4941C26.4426 11.9277 27.2984 11.0325 28.0573 10.58C28.6533 10.2187 29.2493 9.9713 30.0012 10.0038ZM30.0012 18.4544L31.5466 22.0025L35.6181 22.2858L32.503 24.763L33.4732 28.4869L30.0012 26.4687L26.5292 28.4869L27.4994 24.763L24.3843 22.2858L28.4558 22.0025L30.0012 18.4544ZM44.8248 46.8072L40.8226 46.1334L38.8372 49.4733C37.3957 51.1497 36.4809 48.3925 36.079 47.4322L32.2154 40.5865C33.1059 40.2968 34.1801 39.4602 35.282 38.5195C37.4823 38.5618 39.5336 38.2037 41.0409 36.4003L45.4797 44.457L45.8643 45.2317C46.1693 46.2376 46.0099 46.9016 44.8248 46.8072ZM15.1741 46.8072L19.1798 46.1334L21.1653 49.4733C22.6067 51.1497 23.5215 48.3925 23.9235 47.4322L27.787 40.5865C26.8965 40.2968 25.8223 39.4602 24.7204 38.5195C22.5201 38.5618 20.4688 38.2037 18.9615 36.4003L14.5192 44.457L14.1346 45.2317C13.8297 46.2376 13.9891 46.9016 15.1741 46.8072ZM29.9596 15.2415C34.7414 15.2415 38.6189 18.8841 38.6189 23.3762C38.6189 27.8684 34.7414 31.511 29.9596 31.511C25.1778 31.511 21.3004 27.8684 21.3004 23.3762C21.3039 18.8841 25.1778 15.2415 29.9596 15.2415Z" fill="#427DF5"/>
</g>
<defs>
<clipPath id="clip0_1141_7785">
<rect width="32" height="40" fill="white" transform="translate(14 10)"/>
</clipPath>
</defs>
</svg>
