<svg width="60" height="60" viewBox="0 0 60 60" fill="none" xmlns="http://www.w3.org/2000/svg">
<rect width="60" height="60" rx="30" fill="#DCE7FF"/>
<g clip-path="url(#clip0_1141_7778)">
<path d="M31.4779 31.7734H28.5221C28.4733 31.7734 28.4342 31.793 28.4017 31.8223C28.3691 31.8548 28.3529 31.8971 28.3529 31.9427V38.1732C28.3529 38.222 28.3724 38.2611 28.4017 38.2936C28.4342 38.3262 28.4766 38.3425 28.5221 38.3425H31.4746C31.5234 38.3425 31.5625 38.3229 31.5951 38.2936C31.6276 38.2611 31.6439 38.2188 31.6439 38.1732V31.9427C31.6439 31.8939 31.6243 31.8548 31.5951 31.8223C31.5658 31.7865 31.5234 31.7734 31.4779 31.7734ZM12.2721 18.5475H22.5228V15.6081C22.5228 15.1621 22.7051 14.7617 22.9948 14.472C23.2878 14.1823 23.6914 14 24.1309 14H35.8691C36.3151 14 36.7122 14.1823 37.0052 14.472C37.2949 14.7617 37.4772 15.1686 37.4772 15.6081V18.5475H47.7279C48.3561 18.5475 48.9225 18.8047 49.3294 19.2181C49.7428 19.6315 50 20.1979 50 20.8197V26.3079C47.4316 28.069 44.7819 29.5697 42.0508 30.7936C39.3034 32.0241 36.4714 32.9779 33.5417 33.6354V31.4414C33.5417 30.9401 33.3366 30.4779 33.0078 30.1458C32.679 29.8171 32.2168 29.612 31.7122 29.612H28.2845C27.7832 29.612 27.321 29.8171 26.9889 30.1458C26.6602 30.4746 26.4551 30.9369 26.4551 31.4414V33.5866C23.6035 32.9323 20.8398 31.9948 18.1608 30.7936C15.3548 29.5371 12.6367 27.9844 10 26.1615V20.8197C10 20.1914 10.2572 19.625 10.6706 19.2181C11.0807 18.8047 11.6504 18.5475 12.2721 18.5475ZM50 29.5632V44.459C50 45.0872 49.7428 45.6536 49.3294 46.0606C48.916 46.474 48.3496 46.7311 47.7279 46.7311H12.2721C11.6439 46.7311 11.0775 46.474 10.6706 46.0606C10.2572 45.6471 10 45.0807 10 44.459V29.4264C12.2428 30.8652 14.5508 32.1217 16.9238 33.1862C19.987 34.5599 23.1641 35.6113 26.4583 36.3145V38.6745C26.4583 39.1758 26.6634 39.638 26.9922 39.9701C27.321 40.2988 27.7865 40.5039 28.2878 40.5039H31.7155C32.2168 40.5039 32.679 40.2988 33.0111 39.9701C33.3398 39.6413 33.5449 39.179 33.5449 38.6745V36.2005L33.5807 36.3503C36.9369 35.6439 40.1725 34.5827 43.291 33.1829C45.5892 32.1543 47.8255 30.9434 50 29.5632ZM34.6452 16.1908H25.3613C25.306 16.1908 25.2604 16.2103 25.2181 16.2526C25.1855 16.2852 25.1563 16.3405 25.1563 16.3958V18.4857H34.8405V16.3958C34.8405 16.3405 34.821 16.2949 34.7786 16.2526C34.7461 16.2201 34.6908 16.1908 34.6354 16.1908H34.6452Z" fill="#427DF5"/>
</g>
<defs>
<clipPath id="clip0_1141_7778">
<rect width="40" height="32.7279" fill="white" transform="translate(10 14)"/>
</clipPath>
</defs>
</svg>
