<svg width="40" height="41" viewBox="0 0 40 41" fill="none" xmlns="http://www.w3.org/2000/svg">
<g clip-path="url(#clip0_1149_21460)">
<path d="M20.5103 36.1843C12.4699 36.1843 3.33395 26.4993 4.06459 18.4589C4.79523 10.7842 15.0284 3.65773 22.6115 4.75412C29.2814 5.6672 35.2207 14.0734 34.8541 20.7433C34.4901 27.7773 27.5452 36.1843 20.5103 36.1843Z" fill="white"/>
<path d="M26.2657 40.2942C25.7166 40.1117 24.8943 39.9293 24.4378 39.746C23.8896 39.4727 23.2498 39.4727 21.2403 39.5635C19.3216 39.6543 18.316 39.5635 16.9464 39.3802C9.63662 38.1022 3.78896 32.8028 1.68784 25.4938C1.3221 24.1234 1.2313 23.3927 1.2313 20.1036C1.2313 16.5395 1.13965 16.2662 0.683109 14.8041C-1.9662 7.58596 3.42407 0.00292969 11.0988 0.00292969C12.6517 0.00292969 14.5703 0.460327 15.6667 1.00766C16.3982 1.37341 16.8548 1.4642 19.6865 1.4642C22.245 1.4642 23.2498 1.55585 24.5286 1.9216C30.2855 3.38373 34.9442 7.12942 37.4111 12.3372C38.964 15.5347 39.5131 18.8247 39.1465 22.5696C38.964 24.5808 38.964 24.7632 39.4206 25.9504C40.8827 30.2451 39.5122 35.178 35.949 38.1022C34.8517 39.0162 32.6598 40.0209 31.2893 40.3867C29.918 40.6608 27.7261 40.6608 26.3547 40.295L26.2657 40.2942ZM23.798 33.2593C26.8139 32.6203 29.4623 30.7925 30.4679 28.6005C31.7467 25.9504 31.381 22.8437 29.6456 20.925C28.1835 19.2804 25.9907 18.3673 20.7829 17.0885C17.3104 16.2662 16.4882 15.9005 15.7575 15.0782C15.1177 14.3467 15.026 13.7994 15.5751 12.9771C16.1233 12.0631 17.4937 11.515 19.3208 11.4242C21.9709 11.2417 23.1581 11.8807 24.711 14.3476C25.8991 16.1754 27.0862 16.632 28.6409 15.9005C30.6503 14.8958 30.4679 11.6066 28.2743 9.68793C26.1732 7.95257 23.8896 7.22107 20.0514 7.22107C16.0316 7.22107 13.2898 8.04336 11.4628 9.87038C10.0007 11.3325 9.72741 12.1548 9.72741 14.4384C9.72741 16.8136 10.0015 17.5442 11.5544 18.9155C13.199 20.4685 14.5695 21.0175 19.5024 22.2047C22.9748 23.027 23.8887 23.4835 24.7102 24.3975C25.0768 24.8549 25.2592 25.2197 25.2592 26.042C25.2592 26.956 25.1676 27.1384 24.4369 27.8699C23.3406 28.9654 21.696 29.422 19.5949 29.332C17.128 29.1487 16.0316 28.4181 14.7528 25.8596C13.8389 24.1242 13.1082 23.4844 11.9202 23.4844C9.27002 23.4844 8.35693 25.6771 9.72741 28.5089C10.9154 30.9766 13.2907 32.6212 16.3057 33.2602C18.1327 33.6259 22.1534 33.6259 23.8896 33.2602L23.798 33.2593Z" fill="#00AFF0"/>
</g>
<defs>
<clipPath id="clip0_1149_21460">
<rect width="40" height="40.5844" fill="white"/>
</clipPath>
</defs>
</svg>
