<svg width="40" height="41" viewBox="0 0 40 41" fill="none" xmlns="http://www.w3.org/2000/svg">
<g clip-path="url(#clip0_1149_21469)">
<path d="M20 40.292C31.0457 40.292 40 31.3377 40 20.292C40 9.24631 31.0457 0.291992 20 0.291992C8.95432 0.291992 0 9.24631 0 20.292C0 31.3377 8.95432 40.292 20 40.292Z" fill="#34AADF"/>
<path d="M8.3237 20.1185C8.3237 20.1185 18.3237 16.0145 21.7919 14.5694C23.1214 13.9914 27.63 12.1416 27.63 12.1416C27.63 12.1416 29.711 11.3324 29.5375 13.2977C29.4797 14.107 29.0173 16.9393 28.5549 20.0029C27.8612 24.3382 27.1098 29.078 27.1098 29.078C27.1098 29.078 26.9942 30.4075 26.0115 30.6387C25.0289 30.8699 23.4103 29.8295 23.1214 29.5982C22.8901 29.4249 18.7861 26.8237 17.2832 25.552C16.8786 25.2052 16.4162 24.5116 17.341 23.7023C19.4219 21.7948 21.9075 19.4249 23.4103 17.922C24.104 17.2283 24.7976 15.6098 21.9075 17.5751C17.8035 20.4075 13.7572 23.0665 13.7572 23.0665C13.7572 23.0665 12.8323 23.6445 11.0983 23.1242C9.3641 22.6041 7.34098 21.9104 7.34098 21.9104C7.34098 21.9104 5.95378 21.0434 8.3237 20.1185Z" fill="white"/>
</g>
<defs>
<clipPath id="clip0_1149_21469">
<rect width="40" height="40" fill="white" transform="translate(0 0.291992)"/>
</clipPath>
</defs>
</svg>
