<svg width="40" height="41" viewBox="0 0 40 41" fill="none" xmlns="http://www.w3.org/2000/svg">
<path d="M10.5362 34.8867L11.1898 35.211C13.8548 36.7841 16.9016 37.6064 20.0024 37.5893C29.5481 37.5677 37.3911 29.7656 37.3911 20.2922C37.3911 15.7138 35.5589 11.3171 32.3008 8.07601C29.047 4.80145 24.6015 2.95605 19.9686 2.95605C10.4665 2.95605 2.64844 10.716 2.64844 20.1451C2.64844 20.2197 2.64844 20.2932 2.64953 20.3678C2.67815 23.5737 3.58163 26.7119 5.26391 29.4488L5.69961 30.0975L3.95672 36.4758L10.5362 34.8867Z" fill="#00E676"/>
<path d="M34.2373 6.13007C30.5281 2.3744 25.4399 0.267418 20.1415 0.292208H20.1077C9.19605 0.292242 0.216796 9.20357 0.216796 20.0327C0.216796 20.0835 0.217888 20.1332 0.217888 20.184C0.258988 23.627 1.15709 27.0065 2.83227 30.0218L0 40.292L10.5555 37.5893C13.4715 39.1781 16.7497 39.997 20.0761 39.9677C31.0281 39.9082 40.0063 30.9461 39.9998 20.0759C40.0259 14.8532 37.9508 9.83058 34.2373 6.13007ZM20.1415 36.6163C17.1929 36.6316 14.2962 35.8465 11.7646 34.3461L11.111 34.0218L4.82567 35.6434L6.45964 29.4813L6.02393 28.8326C4.40542 26.239 3.54794 23.2488 3.5479 20.1981C3.5479 11.2014 11.0076 3.79815 20.0729 3.79815C29.1382 3.79815 36.5978 11.2014 36.5978 20.1981C36.5978 25.8629 33.6403 31.1407 28.7907 34.1299C26.2258 35.7605 23.242 36.6237 20.196 36.6163M29.7711 24.6164L28.5728 24.0759C28.5728 24.0759 26.8299 23.3191 25.7406 22.7786C25.6317 22.7786 25.5227 22.6705 25.4138 22.6705C25.1452 22.6771 24.8828 22.7515 24.6513 22.8867C24.4192 23.0218 24.5423 22.9948 23.0173 24.7245C22.9138 24.9267 22.7014 25.0532 22.4727 25.0489H22.3637C22.1999 25.0216 22.0482 24.9463 21.928 24.8327L21.3833 24.6164C20.2147 24.1254 19.1446 23.4296 18.2243 22.5624C18.0064 22.3462 17.6796 22.1299 17.4618 21.9137C16.6553 21.1471 15.9589 20.274 15.3921 19.3192L15.2831 19.103C15.1885 18.9708 15.115 18.8249 15.0653 18.6705C15.0368 18.4832 15.0753 18.292 15.1742 18.13C15.2733 17.9678 15.6099 17.5894 15.9367 17.2651C16.2635 16.9408 16.2635 16.7246 16.4814 16.5084C16.5933 16.354 16.6707 16.1777 16.7083 15.9912C16.7459 15.8048 16.7428 15.6125 16.6992 15.4273C16.1916 14.0284 15.6098 12.6572 14.9563 11.3192C14.7812 11.0489 14.5083 10.8554 14.1938 10.7787H12.9956C12.7777 10.7787 12.5598 10.8868 12.342 10.8868L12.233 10.9949C12.0152 11.103 11.7973 11.3192 11.5794 11.4273C11.3616 11.5354 11.2527 11.8598 11.0348 12.076C10.2733 13.031 9.85191 14.2095 9.83654 15.4273C9.84861 16.2839 10.0338 17.1295 10.3812 17.9138L10.4901 18.2381C11.4682 20.3135 12.8362 22.1847 14.5206 23.7516L14.9563 24.184C15.2734 24.4446 15.5652 24.7342 15.8278 25.0489C18.0848 26.998 20.7657 28.4034 23.66 29.1569C23.9868 29.2651 24.4225 29.265 24.7493 29.3732H25.8386C26.408 29.3453 26.9649 29.1979 27.4726 28.9407C27.7395 28.8207 27.9944 28.6759 28.2351 28.5083L28.453 28.2921C28.6709 28.0759 28.8887 27.9678 29.1066 27.7515C29.3195 27.5633 29.503 27.3447 29.6512 27.1029C29.8604 26.6186 30.0074 26.1105 30.087 25.5894V24.8327C29.9891 24.7454 29.879 24.6725 29.7602 24.6164" fill="white"/>
</svg>
