<svg width="95" height="95" viewBox="0 0 95 95" fill="none" xmlns="http://www.w3.org/2000/svg">
<g filter="url(#filter0_b_982_9935)">
<circle cx="47.1716" cy="47.8728" r="46.9841" fill="#25D366" fill-opacity="0.1"/>
<path d="M27.2812 67.7668L30.1375 57.332C28.375 54.2777 27.4489 50.8152 27.4506 47.2647C27.4556 36.1646 36.4884 27.1318 47.5869 27.1318C52.9727 27.1335 58.0283 29.2313 61.8311 33.0374C65.6321 36.8436 67.7248 41.9026 67.7232 47.2834C67.7181 58.3852 58.6853 67.418 47.5869 67.418C44.2175 67.4163 40.8973 66.5714 37.9564 64.9663L27.2812 67.7668ZM38.4508 61.321C41.2884 63.0057 43.9974 64.0148 47.5801 64.0165C56.8042 64.0165 64.3183 56.5092 64.3234 47.28C64.3268 38.0322 56.8482 30.535 47.5936 30.5316C38.3627 30.5316 30.8537 38.0389 30.8504 47.2664C30.8487 51.0336 31.9526 53.8544 33.8065 56.8055L32.1151 62.982L38.4508 61.321ZM57.7304 52.0698C57.6051 51.8599 57.2698 51.7346 56.7653 51.4823C56.2624 51.23 53.7888 50.0127 53.3265 49.8451C52.866 49.6774 52.5308 49.5928 52.1938 50.0973C51.8586 50.6002 50.8935 51.7346 50.6006 52.0698C50.3077 52.4051 50.0131 52.4474 49.5102 52.1951C49.0074 51.9428 47.3854 51.4129 45.4637 49.6978C43.9687 48.3636 42.9579 46.7162 42.665 46.2116C42.372 45.7088 42.6345 45.4362 42.8851 45.1856C43.1119 44.9604 43.3879 44.5981 43.6402 44.3035C43.8959 44.0123 43.9788 43.8023 44.1481 43.4654C44.3157 43.1301 44.2328 42.8355 44.1058 42.5833C43.9788 42.3327 42.9731 39.8556 42.5549 38.8482C42.1452 37.8679 41.7304 38 41.4222 37.9847L40.4571 37.9678C40.1219 37.9678 39.5767 38.0931 39.1162 38.5977C38.6556 39.1022 37.3553 40.3179 37.3553 42.7949C37.3553 45.2719 39.1585 47.6643 39.4091 47.9996C39.6614 48.3348 42.9562 53.4176 48.0034 55.5966C49.2038 56.1147 50.1418 56.4245 50.8715 56.6565C52.077 57.0391 53.1742 56.985 54.041 56.8563C55.0078 56.7124 57.0175 55.6389 57.4374 54.4639C57.8573 53.2872 57.8573 52.2798 57.7304 52.0698Z" fill="#25D366"/>
</g>
<defs>
<filter id="filter0_b_982_9935" x="-16.9977" y="-16.2965" width="128.339" height="128.338" filterUnits="userSpaceOnUse" color-interpolation-filters="sRGB">
<feFlood flood-opacity="0" result="BackgroundImageFix"/>
<feGaussianBlur in="BackgroundImageFix" stdDeviation="8.59259"/>
<feComposite in2="SourceAlpha" operator="in" result="effect1_backgroundBlur_982_9935"/>
<feBlend mode="normal" in="SourceGraphic" in2="effect1_backgroundBlur_982_9935" result="shape"/>
</filter>
</defs>
</svg>
