<svg width="25" height="28" viewBox="0 0 25 28" fill="none" xmlns="http://www.w3.org/2000/svg">
<path d="M24.6937 18.4691C24.6937 19.2629 24.3232 19.898 23.8469 20.3743V24.6611C24.3232 24.9786 24.6937 25.5079 24.6937 26.09C24.6937 27.0427 23.8999 27.7836 23.0002 27.7836H6.06467C3.20681 27.7836 0.984028 25.5608 0.984028 22.7029V5.76745C0.984028 2.96251 3.20681 0.686806 6.06467 0.686806H11.1453V10.8481C11.1453 11.589 11.9392 11.9595 12.4684 11.5361L15.3792 9.15455L18.2371 11.4832C18.7663 11.9066 19.6131 11.5361 19.6131 10.8481V0.686806H22.1534C23.5294 0.686806 24.6937 1.85112 24.6937 3.22713V18.4691ZM21.3066 24.3965V21.0094H6.06467C5.11205 21.0094 4.37112 21.8032 4.37112 22.7029C4.37112 23.6556 5.11205 24.3965 6.06467 24.3965H21.3066Z" fill="#080808" fill-opacity="0.25"/>
</svg>
