<svg width="33" height="28" viewBox="0 0 33 28" fill="none" xmlns="http://www.w3.org/2000/svg">
<path d="M31.7236 5.07945C31.7236 5.23822 32.7291 9.57794 29.8184 13.706C27.8073 16.6697 24.4731 18.7337 19.8688 19.9509C18.9161 20.2155 18.2281 21.1152 18.2281 22.1208C18.2281 23.3909 19.2337 24.3965 20.5038 24.3965H20.7685C22.1445 24.3965 23.3088 25.5608 23.3088 26.9368C23.3088 27.4131 22.9912 27.7836 22.5149 27.7836H10.713C10.2896 27.7836 9.91917 27.4131 9.91917 26.9368C9.91917 25.5608 11.0306 24.3965 12.4595 24.3965H12.6712C13.9413 24.3965 14.9998 23.3909 14.9469 22.1208C14.9469 21.1152 14.3118 20.2155 13.3063 19.9509C8.70193 18.7337 5.36775 16.6697 3.40959 13.706C0.604649 9.57794 1.61019 5.23822 1.61019 5.07945C1.76896 4.49729 2.2982 4.0739 2.88036 4.0739H8.22562C8.17269 3.43882 8.17269 2.85667 8.22562 2.32743C8.22562 1.42773 8.96654 0.686806 9.91917 0.686806H23.4146C24.3673 0.686806 25.1082 1.42773 25.1082 2.32743C25.1611 2.85667 25.1611 3.43882 25.1082 4.0739H30.4534C31.0356 4.0739 31.5648 4.49729 31.7236 5.07945ZM5.52652 12.33C6.74376 14.1823 8.70193 15.6112 11.2952 16.6697C9.33701 13.6001 8.54316 9.78963 8.22562 6.61423H3.99175C3.93882 7.88439 4.04467 10.1601 5.52652 12.33ZM27.8073 12.33C29.2891 10.1601 29.395 7.88439 29.342 6.61423H25.1082C24.7906 9.78963 23.9968 13.6001 22.0386 16.6697C24.6319 15.6112 26.59 14.1823 27.8073 12.33Z" fill="#080808" fill-opacity="0.25"/>
</svg>
