<svg width="21" height="21" viewBox="0 0 21 21" fill="none" xmlns="http://www.w3.org/2000/svg">
<path d="M19.763 18.0969C20.3333 18.7053 20.3333 19.6558 19.763 20.2641C19.1546 20.8344 18.2041 20.8344 17.5958 20.2641L13.0714 15.7017C11.5126 16.7282 9.6116 17.2605 7.55852 16.9944C4.06067 16.5001 1.24719 13.6486 0.79095 10.1888C0.144609 5.01804 4.51692 0.645736 9.68764 1.29208C13.1475 1.74832 15.999 4.5618 16.4932 8.05965C16.7594 10.1127 16.2271 12.0137 15.2006 13.5345L19.763 18.0969ZM3.75651 9.12421C3.75651 11.8236 5.92366 13.9908 8.62308 13.9908C11.2845 13.9908 13.4896 11.8236 13.4896 9.12421C13.4896 6.46281 11.2845 4.25764 8.62308 4.25764C5.92366 4.25764 3.75651 6.46281 3.75651 9.12421Z" fill="#427DF5"/>
</svg>
