<svg width="25" height="24" viewBox="0 0 25 24" fill="none" xmlns="http://www.w3.org/2000/svg">
<g clip-path="url(#clip0_73_4371)">
<path d="M24.2313 12.2084C24.2313 5.76313 19.0062 0.538086 12.561 0.538086C6.11566 0.538086 0.890625 5.76313 0.890625 12.2084C0.890625 17.6813 4.65874 22.2738 9.74187 23.5352V15.7749H7.33545V12.2084H9.74187V10.6717C9.74187 6.69955 11.5396 4.85844 15.4393 4.85844C16.1788 4.85844 17.4546 5.00362 17.9765 5.14833V8.38101C17.701 8.35207 17.2226 8.3376 16.6283 8.3376C14.7148 8.3376 13.9754 9.06256 13.9754 10.9471V12.2084H17.7874L17.1325 15.7749H13.9754V23.7933C19.7541 23.0954 24.2318 18.1752 24.2318 12.2084H24.2313Z" fill="#0866FF"/>
<path d="M17.132 15.7748L17.7869 12.2084H13.9749V10.947C13.9749 9.06252 14.7143 8.33756 16.6278 8.33756C17.2221 8.33756 17.7005 8.35203 17.976 8.38097V5.14829C17.4541 5.00311 16.1783 4.8584 15.4388 4.8584C11.5391 4.8584 9.74138 6.69951 9.74138 10.6716V12.2084H7.33496V15.7748H9.74138V23.5351C10.6442 23.7592 11.5886 23.8787 12.5605 23.8787C13.039 23.8787 13.5109 23.8493 13.9744 23.7933V15.7748H17.1315H17.132Z" fill="white"/>
</g>
<defs>
<clipPath id="clip0_73_4371">
<rect width="23.3407" height="23.3407" fill="white" transform="translate(0.890625 0.538086)"/>
</clipPath>
</defs>
</svg>
