<svg width="58" height="58" viewBox="0 0 58 58" fill="none" xmlns="http://www.w3.org/2000/svg">
<circle cx="29" cy="29" r="29" fill="#427DF5"/>
<g clip-path="url(#clip0_274_5637)">
<path d="M33.4572 18.876L17.9893 27.8989M17.9893 31.5482L33.4572 40.5712" stroke="white" stroke-width="3.62064" stroke-linecap="round" stroke-linejoin="round"/>
<path d="M32.965 17.0513C32.965 15.0517 34.586 13.4307 36.5857 13.4307C38.5853 13.4307 40.2063 15.0517 40.2063 17.0513C40.2063 19.0509 38.5853 20.6719 36.5857 20.6719C35.2514 20.6719 34.0858 19.9502 33.4577 18.8759C33.1445 18.3402 32.965 17.7167 32.965 17.0513Z" fill="white"/>
<path d="M32.965 42.3958C32.965 41.7304 33.1445 41.1069 33.4577 40.5711C34.0858 39.4968 35.2514 38.7751 36.5857 38.7751C38.5853 38.7751 40.2063 40.3961 40.2063 42.3958C40.2063 44.3954 38.5853 46.0164 36.5857 46.0164C34.586 46.0164 32.965 44.3954 32.965 42.3958Z" fill="white"/>
<path d="M11.2412 29.7235C11.2412 27.7239 12.8622 26.1029 14.8618 26.1029C16.1961 26.1029 17.3617 26.8246 17.9898 27.8989C18.303 28.4347 18.4825 29.0581 18.4825 29.7235C18.4825 30.3889 18.303 31.0124 17.9898 31.5482C17.3617 32.6225 16.1961 33.3442 14.8618 33.3442C12.8622 33.3442 11.2412 31.7232 11.2412 29.7235Z" fill="white"/>
<path d="M32.965 17.0513C32.965 15.0517 34.586 13.4307 36.5857 13.4307C38.5853 13.4307 40.2063 15.0517 40.2063 17.0513C40.2063 19.0509 38.5853 20.6719 36.5857 20.6719C35.2514 20.6719 34.0858 19.9502 33.4577 18.8759C33.1445 18.3402 32.965 17.7167 32.965 17.0513Z" stroke="white" stroke-width="3.62064" stroke-linecap="round" stroke-linejoin="round"/>
<path d="M32.965 42.3958C32.965 41.7304 33.1445 41.1069 33.4577 40.5711C34.0858 39.4968 35.2514 38.7751 36.5857 38.7751C38.5853 38.7751 40.2063 40.3961 40.2063 42.3958C40.2063 44.3954 38.5853 46.0164 36.5857 46.0164C34.586 46.0164 32.965 44.3954 32.965 42.3958Z" stroke="white" stroke-width="3.62064" stroke-linecap="round" stroke-linejoin="round"/>
<path d="M11.2412 29.7235C11.2412 27.7239 12.8622 26.1029 14.8618 26.1029C16.1961 26.1029 17.3617 26.8246 17.9898 27.8989C18.303 28.4347 18.4825 29.0581 18.4825 29.7235C18.4825 30.3889 18.303 31.0124 17.9898 31.5482C17.3617 32.6225 16.1961 33.3442 14.8618 33.3442C12.8622 33.3442 11.2412 31.7232 11.2412 29.7235Z" stroke="white" stroke-width="3.62064" stroke-linecap="round" stroke-linejoin="round"/>
</g>
<defs>
<clipPath id="clip0_274_5637">
<rect width="43.4476" height="43.4476" fill="white" transform="translate(4 8)"/>
</clipPath>
</defs>
</svg>
