<svg width="1089" height="982" viewBox="0 0 1089 982" fill="none" xmlns="http://www.w3.org/2000/svg">
<path d="M1070.5 980L1057.72 960.762L1047.45 981.446L1070.5 980ZM89.8688 940.24L89.7388 938.244L89.8688 940.24ZM0.5 0V3.94643H4.5V0H0.5ZM0.5 11.8393V19.7321H4.5V11.8393H0.5ZM0.5 27.625V35.5179H4.5V27.625H0.5ZM0.5 43.4107V51.3036H4.5V43.4107H0.5ZM0.5 59.1964V67.0893H4.5V59.1964H0.5ZM0.5 74.9821V82.875H4.5V74.9821H0.5ZM0.5 90.7679V98.6607H4.5V90.7679H0.5ZM0.5 106.554V114.446H4.5V106.554H0.5ZM0.5 122.339V130.232H4.5V122.339H0.5ZM0.5 138.125V146.018H4.5V138.125H0.5ZM0.5 153.911V161.804H4.5V153.911H0.5ZM0.5 169.696V177.589H4.5V169.696H0.5ZM0.5 185.482V193.375H4.5V185.482H0.5ZM0.5 201.268V209.161H4.5V201.268H0.5ZM0.5 217.054V221H4.5V217.054H0.5ZM0.5 221C0.5 222.365 0.532985 223.723 0.598217 225.073L4.59355 224.88C4.53143 223.594 4.5 222.301 4.5 221H0.5ZM1.38774 233.181C1.78617 235.889 2.31548 238.556 2.96905 241.173L6.84989 240.204C6.22804 237.714 5.72435 235.176 5.34515 232.599L1.38774 233.181ZM5.33147 248.97C6.25103 251.54 7.29363 254.051 8.45216 256.496L12.067 254.784C10.9645 252.457 9.97248 250.068 9.09758 247.623L5.33147 248.97ZM12.2984 263.677C13.7 266.011 15.2129 268.27 16.8299 270.446L20.0409 268.061C18.5016 265.989 17.0614 263.839 15.7274 261.618L12.2984 263.677ZM22.0007 276.74C23.8256 278.752 25.7479 280.674 27.7601 282.499L30.4472 279.536C28.5314 277.799 26.7012 275.969 24.9637 274.053L22.0007 276.74ZM34.0536 287.67C36.2304 289.287 38.4891 290.8 40.8225 292.202L42.8822 288.773C40.6612 287.439 38.5111 285.998 36.4389 284.459L34.0536 287.67ZM48.0038 296.048C50.449 297.206 52.96 298.249 55.5296 299.169L56.8773 295.402C54.4325 294.528 52.0433 293.535 49.7165 292.433L48.0038 296.048ZM63.327 301.531C65.9443 302.185 68.6106 302.714 71.3193 303.112L71.9014 299.155C69.3235 298.776 66.7863 298.272 64.2961 297.65L63.327 301.531ZM79.4273 303.902C80.7768 303.967 82.1346 304 83.5 304V300C82.1991 300 80.9056 299.969 79.6204 299.906L79.4273 303.902ZM83.5 304H87.4741V300H83.5V304ZM95.4224 304H103.371V300H95.4224V304ZM111.319 304H119.267V300H111.319V304ZM127.216 304H135.164V300H127.216V304ZM143.112 304H151.06V300H143.112V304ZM159.009 304H166.957V300H159.009V304ZM174.905 304H182.853V300H174.905V304ZM190.802 304H198.75V300H190.802V304ZM206.698 304H214.647V300H206.698V304ZM222.595 304H230.543V300H222.595V304ZM238.491 304H246.44V300H238.491V304ZM254.388 304H262.336V300H254.388V304ZM270.284 304H278.233V300H270.284V304ZM286.181 304H294.129V300H286.181V304ZM302.078 304H310.026V300H302.078V304ZM317.974 304H325.922V300H317.974V304ZM333.871 304H341.819V300H333.871V304ZM349.767 304H357.715V300H349.767V304ZM365.664 304H373.612V300H365.664V304ZM381.56 304H389.509V300H381.56V304ZM397.457 304H405.405V300H397.457V304ZM413.353 304H421.302V300H413.353V304ZM429.25 304H437.198V300H429.25V304ZM445.146 304H453.095V300H445.146V304ZM461.043 304H468.991V300H461.043V304ZM476.94 304H484.888V300H476.94V304ZM492.836 304H500.784V300H492.836V304ZM508.733 304H516.681V300H508.733V304ZM524.629 304H532.577V300H524.629V304ZM540.526 304H548.474V300H540.526V304ZM556.422 304H564.371V300H556.422V304ZM572.319 304H580.267V300H572.319V304ZM588.215 304H596.164V300H588.215V304ZM604.112 304H612.06V300H604.112V304ZM620.009 304H627.957V300H620.009V304ZM635.905 304H643.853V300H635.905V304ZM651.802 304H659.75V300H651.802V304ZM667.698 304H675.647V300H667.698V304ZM683.595 304H691.543V300H683.595V304ZM699.492 304H707.44V300H699.492V304ZM715.388 304H723.336V300H715.388V304ZM731.285 304H739.233V300H731.285V304ZM747.181 304H755.13V300H747.181V304ZM763.078 304H771.026V300H763.078V304ZM778.975 304H786.923V300H778.975V304ZM794.871 304H802.82V300H794.871V304ZM810.768 304H818.716V300H810.768V304ZM826.664 304H834.613V300H826.664V304ZM842.561 304H850.509V300H842.561V304ZM858.458 304H866.406V300H858.458V304ZM874.354 304H882.303V300H874.354V304ZM890.251 304H898.199V300H890.251V304ZM906.147 304H914.096V300H906.147V304ZM922.044 304H929.992V300H922.044V304ZM937.941 304H945.889V300H937.941V304ZM953.837 304H961.786V300H953.837V304ZM969.734 304H977.682V300H969.734V304ZM985.63 304H993.579V300H985.63V304ZM1001.53 304H1005.5V300H1001.53V304ZM1005.5 304C1006.8 304 1008.09 304.031 1009.38 304.094L1009.57 300.098C1008.22 300.033 1006.87 300 1005.5 300V304ZM1017.1 304.845C1019.68 305.224 1022.21 305.728 1024.7 306.35L1025.67 302.469C1023.06 301.815 1020.39 301.286 1017.68 300.888L1017.1 304.845ZM1032.12 308.598C1034.57 309.472 1036.96 310.465 1039.28 311.567L1041 307.952C1038.55 306.794 1036.04 305.751 1033.47 304.831L1032.12 308.598ZM1046.12 315.227C1048.34 316.561 1050.49 318.002 1052.56 319.541L1054.95 316.33C1052.77 314.713 1050.51 313.2 1048.18 311.798L1046.12 315.227ZM1058.55 324.464C1060.47 326.201 1062.3 328.031 1064.04 329.947L1067 327.26C1065.17 325.248 1063.25 323.326 1061.24 321.501L1058.55 324.464ZM1068.96 335.939C1070.5 338.011 1071.94 340.161 1073.27 342.382L1076.7 340.323C1075.3 337.989 1073.79 335.73 1072.17 333.554L1068.96 335.939ZM1076.93 349.216C1078.04 351.543 1079.03 353.932 1079.9 356.377L1083.67 355.03C1082.75 352.46 1081.71 349.949 1080.55 347.504L1076.93 349.216ZM1082.15 363.796C1082.77 366.286 1083.28 368.824 1083.65 371.401L1087.61 370.819C1087.21 368.111 1086.68 365.444 1086.03 362.827L1082.15 363.796ZM1084.41 379.12C1084.47 380.406 1084.5 381.699 1084.5 383H1088.5C1088.5 381.635 1088.47 380.277 1088.4 378.927L1084.41 379.12ZM1084.5 383V387H1088.5V383H1084.5ZM1084.5 395V403H1088.5V395H1084.5ZM1084.5 411V419H1088.5V411H1084.5ZM1084.5 427V435H1088.5V427H1084.5ZM1084.5 443V451H1088.5V443H1084.5ZM1084.5 459V467H1088.5V459H1084.5ZM1084.5 475V483H1088.5V475H1084.5ZM1084.5 491V495H1088.5V491H1084.5ZM1084.5 495C1084.5 496.301 1084.47 497.594 1084.41 498.88L1088.4 499.073C1088.47 497.723 1088.5 496.365 1088.5 495H1084.5ZM1083.65 506.599C1083.28 509.176 1082.77 511.714 1082.15 514.204L1086.03 515.173C1086.68 512.556 1087.21 509.889 1087.61 507.181L1083.65 506.599ZM1079.9 521.623C1079.03 524.068 1078.04 526.457 1076.93 528.784L1080.55 530.496C1081.71 528.051 1082.75 525.54 1083.67 522.97L1079.9 521.623ZM1073.27 535.618C1071.94 537.839 1070.5 539.989 1068.96 542.061L1072.17 544.446C1073.79 542.27 1075.3 540.011 1076.7 537.677L1073.27 535.618ZM1064.04 548.053C1062.3 549.969 1060.47 551.799 1058.55 553.536L1061.24 556.499C1063.25 554.674 1065.17 552.752 1067 550.74L1064.04 548.053ZM1052.56 558.459C1050.49 559.998 1048.34 561.439 1046.12 562.773L1048.18 566.202C1050.51 564.8 1052.77 563.287 1054.95 561.67L1052.56 558.459ZM1039.28 566.433C1036.96 567.535 1034.57 568.528 1032.12 569.402L1033.47 573.169C1036.04 572.249 1038.55 571.206 1041 570.048L1039.28 566.433ZM1024.7 571.65C1022.21 572.272 1019.68 572.776 1017.1 573.155L1017.68 577.112C1020.39 576.714 1023.06 576.185 1025.67 575.531L1024.7 571.65ZM1009.38 573.906C1008.09 573.969 1006.8 574 1005.5 574V578C1006.87 578 1008.22 577.967 1009.57 577.902L1009.38 573.906ZM1005.5 574H1001.53V578H1005.5V574ZM993.578 574H985.629V578H993.578V574ZM977.681 574H969.733V578H977.681V574ZM961.784 574H953.836V578H961.784V574ZM945.888 574H937.94V578H945.888V574ZM929.991 574H922.043V578H929.991V574ZM914.095 574H906.147V578H914.095V574ZM898.198 574H890.25V578H898.198V574ZM882.302 574H874.353V578H882.302V574ZM866.405 574H858.457V578H866.405V574ZM850.509 574H842.56V578H850.509V574ZM834.612 574H826.664V578H834.612V574ZM818.716 574H810.767V578H818.716V574ZM802.819 574H794.871V578H802.819V574ZM786.922 574H778.974V578H786.922V574ZM771.026 574H763.078V578H771.026V574ZM755.129 574H747.181V578H755.129V574ZM739.233 574H731.285V578H739.233V574ZM723.336 574H715.388V578H723.336V574ZM707.44 574H699.491V578H707.44V574ZM691.543 574H683.595V578H691.543V574ZM675.647 574H667.698V578H675.647V574ZM659.75 574H651.802V578H659.75V574ZM643.854 574H635.905V578H643.854V574ZM627.957 574H620.009V578H627.957V574ZM612.06 574H604.112V578H612.06V574ZM596.164 574H588.216V578H596.164V574ZM580.267 574H572.319V578H580.267V574ZM564.371 574H556.423V578H564.371V574ZM548.474 574H540.526V578H548.474V574ZM532.578 574H524.629V578H532.578V574ZM516.681 574H508.733V578H516.681V574ZM500.785 574H492.836V578H500.785V574ZM484.888 574H476.94V578H484.888V574ZM468.991 574H461.043V578H468.991V574ZM453.095 574H445.147V578H453.095V574ZM437.198 574H429.25V578H437.198V574ZM421.302 574H413.353V578H421.302V574ZM405.405 574H397.457V578H405.405V574ZM389.508 574H381.56V578H389.508V574ZM373.612 574H365.664V578H373.612V574ZM357.715 574H349.767V578H357.715V574ZM341.819 574H333.87V578H341.819V574ZM325.922 574H317.974V578H325.922V574ZM310.025 574H302.077V578H310.025V574ZM294.129 574H286.18V578H294.129V574ZM278.232 574H270.284V578H278.232V574ZM262.336 574H254.387V578H262.336V574ZM246.439 574H238.491V578H246.439V574ZM230.542 574H222.594V578H230.542V574ZM214.646 574H206.697V578H214.646V574ZM198.749 574H190.801V578H198.749V574ZM182.853 574H174.904V578H182.853V574ZM166.956 574H159.008V578H166.956V574ZM151.059 574H143.111V578H151.059V574ZM135.163 574H127.214V578H135.163V574ZM119.266 574H111.318V578H119.266V574ZM103.369 574H95.4212V578H103.369V574ZM87.4729 574H83.5V578H87.4729V574ZM83.5 574C82.1346 574 80.7768 574.033 79.4273 574.098L79.6204 578.094C80.9056 578.031 82.1991 578 83.5 578V574ZM71.3193 574.888C68.6106 575.286 65.9443 575.815 63.327 576.469L64.2961 580.35C66.7863 579.728 69.3235 579.224 71.9014 578.845L71.3193 574.888ZM55.5296 578.831C52.96 579.751 50.449 580.794 48.0038 581.952L49.7165 585.567C52.0433 584.465 54.4325 583.472 56.8773 582.598L55.5296 578.831ZM40.8225 585.798C38.4891 587.2 36.2303 588.713 34.0536 590.33L36.4389 593.541C38.5111 592.002 40.6612 590.561 42.8822 589.227L40.8225 585.798ZM27.7601 595.501C25.7479 597.326 23.8256 599.248 22.0007 601.26L24.9637 603.947C26.7011 602.031 28.5314 600.201 30.4472 598.464L27.7601 595.501ZM16.8299 607.554C15.2129 609.73 13.7 611.989 12.2984 614.323L15.7274 616.382C17.0614 614.161 18.5016 612.011 20.0409 609.939L16.8299 607.554ZM8.45216 621.504C7.29363 623.949 6.25103 626.46 5.33147 629.03L9.09758 630.377C9.97249 627.932 10.9645 625.543 12.067 623.216L8.45216 621.504ZM2.96906 636.827C2.31548 639.444 1.78618 642.111 1.38774 644.819L5.34515 645.401C5.72436 642.824 6.22805 640.286 6.84989 637.796L2.96906 636.827ZM0.598218 652.927C0.532986 654.277 0.5 655.635 0.5 657H4.5C4.5 655.699 4.53143 654.406 4.59355 653.12L0.598218 652.927ZM0.5 657V660.882H4.5V657H0.5ZM0.5 668.646V676.41H4.5V668.646H0.5ZM0.5 684.173V691.937H4.5V684.173H0.5ZM0.5 699.701V707.465H4.5V699.701H0.5ZM0.5 715.229V722.993H4.5V715.229H0.5ZM0.5 730.756V738.52H4.5V730.756H0.5ZM0.5 746.284V754.048H4.5V746.284H0.5ZM0.5 761.812V769.576H4.5V761.812H0.5ZM0.5 777.34V785.103H4.5V777.34H0.5ZM0.5 792.867V800.631H4.5V792.867H0.5ZM0.5 808.395V816.159H4.5V808.395H0.5ZM0.5 823.923V831.686H4.5V823.923H0.5ZM0.5 839.45V847.214H4.5V839.45H0.5ZM0.5 854.978V858.86H4.5V854.978H0.5ZM0.5 858.86C0.5 860.297 0.53633 861.725 0.608116 863.143L4.603 862.941C4.53462 861.59 4.5 860.229 4.5 858.86H0.5ZM1.47822 871.666C1.91787 874.514 2.50184 877.313 3.22222 880.055L7.09096 879.039C6.40556 876.43 5.84984 873.766 5.43139 871.056L1.47822 871.666ZM5.82722 888.218C6.84108 890.904 7.98976 893.523 9.26466 896.066L12.8406 894.274C11.6272 891.853 10.5342 889.361 9.56952 886.806L5.82722 888.218ZM13.4934 903.517C15.0326 905.93 16.6921 908.258 18.4632 910.493L21.5983 908.009C19.9115 905.88 18.3313 903.664 16.8659 901.366L13.4934 903.517ZM24.1172 916.926C26.109 918.973 28.2042 920.918 30.3938 922.753L32.9631 919.687C30.8771 917.939 28.8811 916.086 26.9837 914.136L24.1172 916.926ZM37.2273 927.914C39.5858 929.515 42.0291 930.998 44.5484 932.357L46.4474 928.837C44.0477 927.542 41.7202 926.129 39.4733 924.604L37.2273 927.914ZM52.2834 936.034C54.9107 937.123 57.6036 938.082 60.3534 938.905L61.4993 935.072C58.8809 934.289 56.3166 933.376 53.8144 932.339L52.2834 936.034ZM68.6749 940.935C71.4599 941.465 74.2909 941.857 77.16 942.105L77.5036 938.12C74.7709 937.884 72.0748 937.51 69.4229 937.005L68.6749 940.935ZM85.7191 942.407C87.139 942.386 88.5659 942.329 89.9988 942.236L89.7388 938.244C88.3724 938.333 87.012 938.387 85.6587 938.408L85.7191 942.407ZM89.9988 942.236C91.2957 942.151 92.5962 942.067 93.9003 941.982L93.6425 937.991C92.3376 938.075 91.0364 938.159 89.7388 938.244L89.9988 942.236ZM101.768 941.478C104.405 941.311 107.056 941.144 109.721 940.977L109.472 936.985C106.806 937.152 104.153 937.319 101.515 937.486L101.768 941.478ZM117.757 940.48C120.377 940.319 123.009 940.159 125.654 939.999L125.412 936.006C122.767 936.166 120.133 936.326 117.512 936.487L117.757 940.48ZM133.548 939.526C136.191 939.369 138.847 939.213 141.513 939.057L141.281 935.064C138.612 935.22 135.956 935.376 133.311 935.533L133.548 939.526ZM149.549 938.593C152.166 938.443 154.794 938.293 157.433 938.145L157.208 934.151C154.568 934.3 151.939 934.449 149.32 934.599L149.549 938.593ZM165.339 937.703C167.984 937.557 170.64 937.411 173.305 937.267L173.088 933.273C170.422 933.417 167.765 933.563 165.118 933.71L165.339 937.703ZM181.33 936.835C183.954 936.695 186.587 936.555 189.228 936.417L189.019 932.423C186.376 932.561 183.742 932.7 181.117 932.84L181.33 936.835ZM197.138 936.007C199.784 935.871 202.437 935.736 205.099 935.602L204.898 931.607C202.235 931.741 199.58 931.876 196.933 932.012L197.138 936.007ZM213.109 935.202C215.744 935.071 218.386 934.942 221.036 934.814L220.843 930.818C218.191 930.947 215.548 931.076 212.912 931.206L213.109 935.202ZM228.946 934.434C231.59 934.309 234.241 934.184 236.898 934.061L236.712 930.065C234.053 930.188 231.401 930.313 228.756 930.439L228.946 934.434ZM244.892 933.693C247.539 933.572 250.193 933.453 252.854 933.334L252.676 929.338C250.014 929.457 247.359 929.576 244.71 929.697L244.892 933.693ZM260.762 932.986C263.404 932.871 266.052 932.757 268.705 932.644L268.535 928.647C265.88 928.76 263.231 928.874 260.588 928.99L260.762 932.986ZM276.683 932.308C279.343 932.197 282.008 932.088 284.679 931.979L284.516 927.983C281.845 928.091 279.178 928.201 276.517 928.311L276.683 932.308ZM292.585 931.662C295.226 931.558 297.871 931.454 300.521 931.352L300.367 927.355C297.716 927.457 295.069 927.561 292.427 927.665L292.585 931.662ZM308.485 931.049C311.145 930.949 313.808 930.85 316.476 930.752L316.33 926.755C313.661 926.853 310.996 926.951 308.335 927.051L308.485 931.049ZM324.415 930.466C327.055 930.372 329.699 930.279 332.346 930.188L332.208 926.19C329.559 926.282 326.914 926.375 324.273 926.469L324.415 930.466ZM340.3 929.917C342.954 929.829 345.613 929.741 348.274 929.655L348.144 925.657C345.482 925.743 342.822 925.831 340.166 925.92L340.3 929.917ZM356.248 929.4C358.888 929.317 361.532 929.235 364.178 929.155L364.057 925.157C361.409 925.237 358.764 925.319 356.123 925.402L356.248 929.4ZM372.125 928.918C374.776 928.841 377.431 928.764 380.087 928.689L379.974 924.691C377.316 924.766 374.661 924.842 372.008 924.92L372.125 928.918ZM388.065 928.469C390.712 928.397 393.361 928.326 396.012 928.258L395.908 924.259C393.256 924.328 390.605 924.398 387.956 924.47L388.065 928.469ZM403.957 928.055C406.607 927.989 409.259 927.925 411.913 927.862L411.817 923.863C409.162 923.926 406.509 923.99 403.857 924.057L403.957 928.055ZM419.878 927.677C422.532 927.617 425.188 927.558 427.845 927.501L427.759 923.502C425.101 923.559 422.443 923.618 419.787 923.678L419.878 927.677ZM435.793 927.335C438.443 927.281 441.094 927.228 443.746 927.177L443.67 923.178C441.016 923.229 438.363 923.281 435.711 923.335L435.793 927.335ZM451.705 927.03C454.359 926.982 457.013 926.936 459.668 926.891L459.601 922.892C456.944 922.936 454.288 922.983 451.633 923.03L451.705 927.03ZM467.627 926.763C470.279 926.722 472.931 926.682 475.583 926.644L475.526 922.644C472.872 922.682 470.218 922.722 467.564 922.763L467.627 926.763ZM483.541 926.535C486.193 926.501 488.845 926.468 491.497 926.436L491.45 922.437C488.797 922.468 486.142 922.501 483.488 922.536L483.541 926.535ZM499.453 926.348C502.109 926.32 504.764 926.294 507.418 926.27L507.382 922.27C504.725 922.294 502.069 922.32 499.411 922.348L499.453 926.348ZM515.38 926.202C518.032 926.181 520.685 926.162 523.336 926.145L523.31 922.145C520.657 922.162 518.003 922.181 515.348 922.202L515.38 926.202ZM531.285 926.099C533.94 926.085 536.594 926.074 539.246 926.064L539.231 922.064C536.577 922.074 533.922 922.085 531.265 922.099L531.285 926.099ZM547.216 926.04C549.871 926.034 552.525 926.03 555.177 926.028L555.173 922.028C552.52 922.03 549.864 922.034 547.207 922.04L547.216 926.04ZM563.126 926.027C565.774 926.029 568.42 926.032 571.064 926.038L571.072 922.038C568.427 922.032 565.779 922.029 563.129 922.027L563.126 926.027ZM579.046 926.061C581.705 926.071 584.361 926.083 587.015 926.097L587.036 922.097C584.38 922.083 581.721 922.071 579.06 922.061L579.046 926.061ZM594.969 926.145C597.618 926.163 600.263 926.183 602.906 926.205L602.94 922.205C600.295 922.183 597.647 922.163 594.997 922.145L594.969 926.145ZM610.863 926.279C613.528 926.306 616.189 926.335 618.846 926.366L618.894 922.367C616.234 922.335 613.57 922.306 610.904 922.279L610.863 926.279ZM626.809 926.467C629.459 926.503 632.106 926.541 634.749 926.581L634.81 922.582C632.165 922.542 629.516 922.503 626.863 922.468L626.809 926.467ZM642.666 926.71C645.337 926.755 648.004 926.803 650.666 926.854L650.742 922.854C648.077 922.804 645.408 922.756 642.734 922.71L642.666 926.71ZM658.641 927.012C661.294 927.067 663.943 927.125 666.587 927.185L666.678 923.186C664.032 923.126 661.38 923.068 658.724 923.013L658.641 927.012ZM674.505 927.373C677.166 927.439 679.822 927.507 682.472 927.578L682.579 923.58C679.926 923.509 677.267 923.44 674.604 923.375L674.505 927.373ZM690.461 927.801C693.119 927.877 695.77 927.957 698.416 928.039L698.54 924.041C695.892 923.958 693.237 923.879 690.577 923.802L690.461 927.801ZM706.336 928.293C708.984 928.381 711.627 928.471 714.262 928.565L714.404 924.567C711.765 924.474 709.12 924.383 706.469 924.295L706.336 928.293ZM722.268 928.858C724.929 928.958 727.584 929.062 730.232 929.168L730.392 925.171C727.741 925.065 725.083 924.961 722.419 924.861L722.268 928.858ZM738.153 929.496C740.789 929.608 743.417 929.723 746.037 929.842L746.218 925.846C743.594 925.727 740.962 925.612 738.324 925.499L738.153 929.496ZM754.058 930.214C756.724 930.341 759.381 930.472 762.03 930.606L762.232 926.611C759.579 926.477 756.918 926.346 754.249 926.219L754.058 930.214ZM769.952 931.016C772.583 931.156 775.206 931.3 777.82 931.446L778.044 927.453C775.426 927.306 772.8 927.162 770.164 927.022L769.952 931.016ZM785.832 931.908C788.5 932.065 791.159 932.227 793.808 932.391L794.056 928.399C791.403 928.234 788.74 928.073 786.068 927.915L785.832 931.908ZM801.723 932.896C804.351 933.068 806.969 933.243 809.576 933.422L809.85 929.432C807.239 929.252 804.616 929.077 801.984 928.905L801.723 932.896ZM817.586 933.986C820.254 934.178 822.912 934.375 825.557 934.575L825.859 930.586C823.209 930.386 820.547 930.189 817.873 929.996L817.586 933.986ZM833.457 935.188C836.078 935.396 838.687 935.608 841.283 935.824L841.615 931.838C839.014 931.622 836.4 931.409 833.774 931.2L833.457 935.188ZM849.313 936.509C851.978 936.742 854.629 936.979 857.266 937.221L857.631 933.238C854.988 932.996 852.331 932.758 849.661 932.525L849.313 936.509ZM865.134 937.959C867.766 938.212 870.384 938.469 872.986 938.731L873.387 934.751C870.778 934.489 868.155 934.231 865.517 933.977L865.134 937.959ZM880.998 939.557C883.652 939.837 886.29 940.122 888.911 940.412L889.351 936.437C886.723 936.146 884.079 935.86 881.418 935.579L880.998 939.557ZM896.722 941.298C899.384 941.606 902.027 941.921 904.651 942.24L905.135 938.269C902.503 937.949 899.852 937.634 897.183 937.324L896.722 941.298ZM912.607 943.233C915.24 943.569 917.852 943.911 920.444 944.259L920.976 940.295C918.376 939.946 915.755 939.603 913.115 939.265L912.607 943.233ZM928.228 945.33C930.915 945.708 933.579 946.093 936.22 946.485L936.807 942.528C934.156 942.135 931.483 941.749 928.786 941.369L928.228 945.33ZM944.071 947.679C946.665 948.083 949.234 948.494 951.778 948.912L952.426 944.965C949.871 944.546 947.291 944.133 944.688 943.727L944.071 947.679ZM959.742 950.255C962.385 950.713 964.999 951.178 967.584 951.65L968.304 947.716C965.706 947.241 963.079 946.773 960.425 946.314L959.742 950.255ZM975.253 953.091C977.92 953.606 980.554 954.13 983.154 954.662L983.956 950.743C981.341 950.208 978.693 949.682 976.012 949.164L975.253 953.091ZM990.945 956.304C993.507 956.86 996.034 957.425 998.525 957.999L999.424 954.102C996.916 953.523 994.372 952.955 991.794 952.395L990.945 956.304ZM1006.4 959.875C1009 960.514 1011.56 961.164 1014.07 961.824L1015.09 957.955C1012.55 957.289 1009.98 956.635 1007.36 955.991L1006.4 959.875ZM1021.63 963.88C1024.26 964.621 1026.84 965.374 1029.36 966.141L1030.52 962.313C1027.97 961.539 1025.37 960.777 1022.71 960.029L1021.63 963.88ZM1036.77 968.479C1039.37 969.331 1041.91 970.198 1044.38 971.08L1045.72 967.313C1043.22 966.419 1040.65 965.541 1038.02 964.678L1036.77 968.479ZM1051.73 973.827C1054.25 974.812 1056.69 975.815 1059.05 976.835L1060.64 973.163C1058.23 972.123 1055.75 971.103 1053.19 970.102L1051.73 973.827Z" fill="#427DF5"/>
</svg>
