<svg width="150" height="47" viewBox="0 0 150 47" fill="none" xmlns="http://www.w3.org/2000/svg">
<g opacity="0.75">
<path d="M138.331 46.0981H11.6921C6.1074 46.0981 1.58118 41.5711 1.58118 35.9872V16.9732C1.58118 11.3885 6.1082 6.8623 11.6921 6.8623H138.33C143.915 6.8623 148.441 11.3893 148.441 16.9732V35.9872C148.442 41.5711 143.915 46.0981 138.331 46.0981Z" fill="#C6C6C6"/>
<path d="M138.179 45.8735H11.8439C6.3026 45.8735 1.81091 41.3818 1.81091 35.8404V17.0818C1.81091 11.5405 6.3026 7.04883 11.8439 7.04883H138.179C143.72 7.04883 148.212 11.5405 148.212 17.0818V35.8404C148.212 41.3818 143.719 45.8735 138.179 45.8735Z" fill="#C3C3C3"/>
<path d="M138.027 45.6491H11.9957C6.49773 45.6491 2.04138 41.1928 2.04138 35.6948V17.1916C2.04138 11.6937 6.49773 7.2373 11.9957 7.2373H138.027C143.525 7.2373 147.981 11.6937 147.981 17.1916V35.6948C147.981 41.192 143.525 45.6491 138.027 45.6491Z" fill="#C1C1C1"/>
<path d="M137.875 45.4227H12.1475C6.69287 45.4227 2.27185 41.0009 2.27185 35.5471V17.2985C2.27185 11.8439 6.69367 7.42285 12.1475 7.42285H137.875C143.33 7.42285 147.751 11.8447 147.751 17.2985V35.5463C147.751 41.0009 143.33 45.4227 137.875 45.4227Z" fill="#BEBEBE"/>
<path d="M137.724 45.1972H12.2992C6.88801 45.1972 2.50153 40.8108 2.50153 35.3995V17.4071C2.50153 11.9959 6.88801 7.60938 12.2992 7.60938H137.724C143.135 7.60938 147.521 11.9959 147.521 17.4071V35.3995C147.521 40.8108 143.135 45.1972 137.724 45.1972Z" fill="#BBBBBB"/>
<path d="M137.572 44.9718H12.4511C7.0832 44.9718 2.73206 40.6206 2.73206 35.2528V17.5149C2.73206 12.147 7.0832 7.7959 12.4511 7.7959H137.572C142.94 7.7959 147.291 12.147 147.291 17.5149V35.2528C147.291 40.6198 142.94 44.9718 137.572 44.9718Z" fill="#B8B8B8"/>
<path d="M137.42 44.7473H12.6028C7.27834 44.7473 2.96173 40.4307 2.96173 35.1062V17.6245C2.96173 12.3 7.27834 7.9834 12.6028 7.9834H137.421C142.745 7.9834 147.061 12.3 147.061 17.6245V35.107C147.061 40.4315 142.745 44.7473 137.42 44.7473Z" fill="#B6B6B6"/>
<path d="M137.268 44.5218H12.7546C7.47347 44.5218 3.1922 40.2406 3.1922 34.9594V17.7323C3.1922 12.4512 7.47347 8.16992 12.7546 8.16992H137.269C142.55 8.16992 146.831 12.4512 146.831 17.7323V34.9594C146.831 40.2406 142.549 44.5218 137.268 44.5218Z" fill="#B3B3B3"/>
<path d="M137.117 44.2965H12.9056C7.66782 44.2965 3.42188 40.0506 3.42188 34.8128V17.8411C3.42188 12.6034 7.66782 8.35742 12.9056 8.35742H137.116C142.354 8.35742 146.6 12.6034 146.6 17.8411V34.8128C146.601 40.0498 142.355 44.2965 137.117 44.2965Z" fill="#B0B0B0"/>
<path d="M136.965 44.0721H13.0574C7.86302 44.0721 3.65161 39.8615 3.65161 34.6663V17.9507C3.65161 12.7563 7.86222 8.54492 13.0574 8.54492H136.965C142.159 8.54492 146.37 12.7555 146.37 17.9507V34.6671C146.37 39.8615 142.16 44.0721 136.965 44.0721Z" fill="#AEAEAE"/>
<path d="M136.814 43.8466H13.2092C8.05815 43.8466 3.88208 39.6705 3.88208 34.5195V18.0585C3.88208 12.9075 8.05815 8.73145 13.2092 8.73145H136.814C141.965 8.73145 146.141 12.9075 146.141 18.0585V34.5195C146.141 39.6705 141.965 43.8466 136.814 43.8466Z" fill="#ABABAB"/>
<path d="M136.662 43.6221H13.3609C8.25329 43.6221 4.11255 39.4814 4.11255 34.3737V18.1673C4.11255 13.0597 8.25329 8.91895 13.3609 8.91895H136.662C141.77 8.91895 145.91 13.0597 145.91 18.1673V34.3729C145.91 39.4814 141.77 43.6221 136.662 43.6221Z" fill="#A8A8A8"/>
<path d="M136.51 43.3968H13.5127C8.44843 43.3968 4.34222 39.2914 4.34222 34.2263V18.2769C4.34222 13.2126 8.44762 9.10645 13.5127 9.10645H136.51C141.574 9.10645 145.681 13.2118 145.681 18.2769V34.2271C145.681 39.2914 141.574 43.3968 136.51 43.3968Z" fill="#A5A5A5"/>
<path d="M136.358 43.1714H13.6645C8.64356 43.1714 4.57269 39.1005 4.57269 34.0796V18.3848C4.57269 13.3638 8.64356 9.29297 13.6645 9.29297H136.358C141.379 9.29297 145.45 13.3638 145.45 18.3848V34.0796C145.45 39.1005 141.38 43.1714 136.358 43.1714Z" fill="#A3A3A3"/>
<path d="M136.207 42.9469H13.8163C8.83875 42.9469 4.80322 38.9113 4.80322 33.9338V18.4936C4.80322 13.516 8.83875 9.48047 13.8163 9.48047H136.207C141.184 9.48047 145.22 13.516 145.22 18.4936V33.933C145.22 38.9113 141.185 42.9469 136.207 42.9469Z" fill="#A0A0A0"/>
<path d="M136.055 42.7206H13.968C9.03303 42.7206 5.03284 38.7204 5.03284 33.7854V18.6022C5.03284 13.668 9.03303 9.66699 13.968 9.66699H136.056C140.991 9.66699 144.991 13.6672 144.991 18.6022V33.7862C144.99 38.7204 140.99 42.7206 136.055 42.7206Z" fill="#9D9D9D"/>
<path d="M135.903 42.4971H14.1199C9.22823 42.4971 5.26337 38.5322 5.26337 33.6406V18.712C5.26337 13.8203 9.22823 9.85547 14.1199 9.85547H135.904C140.795 9.85547 144.76 13.8203 144.76 18.712V33.6406C144.759 38.5322 140.795 42.4971 135.903 42.4971Z" fill="#9B9B9B"/>
<path d="M135.752 42.2716H14.2708C9.42256 42.2716 5.49304 38.3413 5.49304 33.4939V18.8198C5.49304 13.9715 9.42337 10.042 14.2708 10.042H135.751C140.599 10.042 144.529 13.9723 144.529 18.8198V33.4931C144.53 38.3413 140.599 42.2716 135.752 42.2716Z" fill="#989898"/>
<path d="M135.6 42.0452H14.4227C9.61777 42.0452 5.72278 38.1502 5.72278 33.3453V18.9274C5.72278 14.1225 9.61777 10.2275 14.4227 10.2275H135.599C140.404 10.2275 144.299 14.1225 144.299 18.9274V33.3453C144.299 38.1502 140.404 42.0452 135.6 42.0452Z" fill="#959595"/>
<path d="M135.448 41.8209H14.5744C9.81284 41.8209 5.95319 37.9612 5.95319 33.1997V19.0372C5.95319 14.2757 9.81284 10.416 14.5744 10.416H135.448C140.21 10.416 144.07 14.2757 144.07 19.0372V33.2005C144.07 37.9612 140.21 41.8209 135.448 41.8209Z" fill="#929292"/>
<path d="M135.297 41.5954H14.7262C10.008 41.5954 6.18372 37.7711 6.18372 33.0529V19.145C6.18372 14.4269 10.008 10.6025 14.7262 10.6025H135.297C140.015 10.6025 143.839 14.4269 143.839 19.145V33.0529C143.839 37.7703 140.015 41.5954 135.297 41.5954Z" fill="#909090"/>
<path d="M135.145 41.3698H14.878C10.2032 41.3698 6.41339 37.58 6.41339 32.9052V19.2527C6.41339 14.5779 10.2032 10.7881 14.878 10.7881H135.145C139.82 10.7881 143.609 14.5779 143.609 19.2527V32.9052C143.609 37.5808 139.82 41.3698 135.145 41.3698Z" fill="#8D8D8D"/>
<path d="M134.993 41.1445H15.0297C10.3983 41.1445 6.64386 37.39 6.64386 32.7586V19.3615C6.64386 14.73 10.3983 10.9756 15.0297 10.9756H134.993C139.624 10.9756 143.379 14.73 143.379 19.3615V32.7586C143.379 37.39 139.624 41.1445 134.993 41.1445Z" fill="#8A8A8A"/>
<path d="M134.841 40.9202H15.1807C10.5926 40.9202 6.87354 37.2011 6.87354 32.613V19.4712C6.87354 14.8832 10.5926 11.1641 15.1807 11.1641H134.841C139.429 11.1641 143.148 14.8832 143.148 19.4712V32.613C143.149 37.2011 139.429 40.9202 134.841 40.9202Z" fill="#888888"/>
<path d="M134.689 40.6946H15.3333C10.7886 40.6946 7.104 37.01 7.104 32.4653V19.5789C7.104 15.0342 10.7886 11.3496 15.3333 11.3496H134.69C139.235 11.3496 142.92 15.0342 142.92 19.5789V32.4653C142.919 37.01 139.234 40.6946 134.689 40.6946Z" fill="#858585"/>
<path d="M134.539 40.4683H15.4852C10.9838 40.4683 7.33459 36.819 7.33459 32.3177V19.6867C7.33459 15.1854 10.9838 11.5361 15.4852 11.5361H134.539C139.04 11.5361 142.689 15.1854 142.689 19.6867V32.3177C142.689 36.819 139.04 40.4683 134.539 40.4683Z" fill="#828282"/>
<path d="M134.387 40.2459H15.6361C11.1781 40.2459 7.56421 36.632 7.56421 32.1741V19.7984C7.56421 15.3405 11.1781 11.7266 15.6361 11.7266H134.386C138.844 11.7266 142.458 15.3405 142.458 19.7984V32.1741C142.459 36.632 138.845 40.2459 134.387 40.2459Z" fill="#808080"/>
<path d="M134.235 40.0193H15.7879C11.3733 40.0193 7.79388 36.4407 7.79388 32.0253V19.9051C7.79388 15.4905 11.3725 11.9111 15.7879 11.9111H134.234C138.649 11.9111 142.228 15.4897 142.228 19.9051V32.0253C142.228 36.4399 138.65 40.0193 134.235 40.0193Z" fill="#7D7D7D"/>
<path d="M134.083 39.794H15.9396C11.5684 39.794 8.02435 36.25 8.02435 31.8788V20.0139C8.02435 15.6427 11.5684 12.0986 15.9396 12.0986H134.083C138.454 12.0986 141.998 15.6427 141.998 20.0139V31.8788C141.998 36.2508 138.454 39.794 134.083 39.794Z" fill="#7A7A7A"/>
<path d="M133.931 39.5686H16.0915C11.7636 39.5686 8.25494 36.0599 8.25494 31.732V20.1217C8.25494 15.7939 11.7636 12.2852 16.0915 12.2852H133.931C138.259 12.2852 141.768 15.7939 141.768 20.1217V31.732C141.768 36.0599 138.259 39.5686 133.931 39.5686Z" fill="#777777"/>
<path d="M133.78 39.3439H16.2432C11.9587 39.3439 8.48456 35.8705 8.48456 31.5852V20.2303C8.48456 15.9459 11.9579 12.4717 16.2432 12.4717H133.78C138.064 12.4717 141.538 15.945 141.538 20.2303V31.5844C141.538 35.8697 138.065 39.3439 133.78 39.3439Z" fill="#757575"/>
<path d="M133.628 39.1188H16.395C12.1531 39.1188 8.71509 35.68 8.71509 31.4388V20.3401C8.71509 16.0982 12.1539 12.6602 16.395 12.6602H133.628C137.87 12.6602 141.308 16.099 141.308 20.3401V31.4388C141.308 35.6808 137.87 39.1188 133.628 39.1188Z" fill="#727272"/>
<path d="M133.476 38.8933H16.546C12.3474 38.8933 8.9447 35.4898 8.9447 31.2921V20.4479C8.9447 16.2494 12.3482 12.8467 16.546 12.8467H133.476C137.675 12.8467 141.077 16.2502 141.077 20.4479V31.2921C141.078 35.4898 137.675 38.8933 133.476 38.8933Z" fill="#6F6F6F"/>
<path d="M133.324 38.6696H16.6986C12.5434 38.6696 9.17523 35.3015 9.17523 31.1463V20.5575C9.17523 16.4023 12.5434 13.0342 16.6986 13.0342H133.325C137.48 13.0342 140.848 16.4023 140.848 20.5575V31.1463C140.848 35.3015 137.479 38.6696 133.324 38.6696Z" fill="#6D6D6D"/>
<path d="M133.173 38.4436H16.8504C12.7386 38.4436 9.40576 35.1107 9.40576 30.9989V20.6663C9.40576 16.5545 12.7386 13.2217 16.8504 13.2217H133.173C137.285 13.2217 140.618 16.5545 140.618 20.6663V30.9997C140.618 35.1107 137.284 38.4436 133.173 38.4436Z" fill="#6A6A6A"/>
<path d="M133.022 38.2181H17.0014C12.9329 38.2181 9.63544 34.9198 9.63544 30.8521V20.7742C9.63544 16.7057 12.9337 13.4082 17.0014 13.4082H133.021C137.089 13.4082 140.387 16.7065 140.387 20.7742V30.8521C140.387 34.9198 137.089 38.2181 133.022 38.2181Z" fill="#676767"/>
<path d="M132.87 37.9944H17.1532C13.1281 37.9944 9.86511 34.7314 9.86511 30.7064V20.8838C9.86511 16.8587 13.1281 13.5957 17.1532 13.5957H132.869C136.894 13.5957 140.157 16.8587 140.157 20.8838V30.7064C140.158 34.7314 136.895 37.9944 132.87 37.9944Z" fill="#646464"/>
<path d="M132.718 37.7681H17.3049C13.3232 37.7681 10.0956 34.5405 10.0956 30.5588V20.9916C10.0956 17.0098 13.3232 13.7822 17.3049 13.7822H132.718C136.7 13.7822 139.927 17.0098 139.927 20.9916V30.5588C139.927 34.5405 136.7 37.7681 132.718 37.7681Z" fill="#626262"/>
<path d="M132.566 37.5438H17.4568C13.5184 37.5438 10.3261 34.3515 10.3261 30.4132V21.1013C10.3261 17.163 13.5184 13.9707 17.4568 13.9707H132.566C136.505 13.9707 139.697 17.163 139.697 21.1013V30.4132C139.697 34.3515 136.505 37.5438 132.566 37.5438Z" fill="#5F5F5F"/>
<path d="M132.414 37.3192H17.6085C13.7135 37.3192 10.5557 34.1614 10.5557 30.2664V21.21C10.5557 17.315 13.7135 14.1572 17.6085 14.1572H132.414C136.309 14.1572 139.467 17.315 139.467 21.21V30.2664C139.467 34.1614 136.309 37.3192 132.414 37.3192Z" fill="#5C5C5C"/>
<path d="M132.263 37.0929H17.7603C13.9087 37.0929 10.7863 33.9705 10.7863 30.1189V21.3178C10.7863 17.4662 13.9087 14.3438 17.7603 14.3438H132.263C136.114 14.3438 139.237 17.4662 139.237 21.3178V30.1189C139.237 33.9705 136.114 37.0929 132.263 37.0929Z" fill="#5A5A5A"/>
<path d="M132.111 36.8673H17.9113C14.103 36.8673 11.0151 33.7802 11.0151 29.9711V21.4254C11.0151 17.6172 14.1022 14.5293 17.9113 14.5293H132.111C135.919 14.5293 139.007 17.6164 139.007 21.4254V29.9711C139.007 33.7802 135.92 36.8673 132.111 36.8673Z" fill="#575757"/>
<path d="M131.959 36.643H18.0638C14.2989 36.643 11.2464 33.5904 11.2464 29.8255V21.5352C11.2464 17.7703 14.2989 14.7178 18.0638 14.7178H131.96C135.725 14.7178 138.777 17.7703 138.777 21.5352V29.8255C138.776 33.5904 135.725 36.643 131.959 36.643Z" fill="#545454"/>
<path d="M131.808 36.4177H18.2148C14.4933 36.4177 11.4761 33.4005 11.4761 29.6789V21.644C11.4761 17.9225 14.4933 14.9053 18.2148 14.9053H131.807C135.529 14.9053 138.546 17.9225 138.546 21.644V29.6789C138.547 33.4013 135.53 36.4177 131.808 36.4177Z" fill="#515151"/>
<path d="M131.656 36.192H18.3666C14.6885 36.192 11.7058 33.2102 11.7058 29.5312V21.7517C11.7058 18.0735 14.6877 15.0908 18.3666 15.0908H131.655C135.334 15.0908 138.316 18.0727 138.316 21.7517V29.5312C138.316 33.2102 135.334 36.192 131.656 36.192Z" fill="#4F4F4F"/>
<path d="M131.504 35.9677H18.5184C14.8836 35.9677 11.9363 33.0212 11.9363 29.3856V21.8614C11.9363 18.2266 14.8828 15.2793 18.5184 15.2793H131.504C135.139 15.2793 138.087 18.2258 138.087 21.8614V29.3856C138.087 33.0204 135.139 35.9677 131.504 35.9677Z" fill="#4C4C4C"/>
<path d="M131.353 35.7432H18.6702C15.078 35.7432 12.1667 32.8312 12.1667 29.2398V21.9702C12.1667 18.378 15.0788 15.4668 18.6702 15.4668H131.353C134.945 15.4668 137.856 18.3788 137.856 21.9702V29.2398C137.856 32.8312 134.944 35.7432 131.353 35.7432Z" fill="#494949"/>
<path d="M131.201 35.5166H18.822C15.2731 35.5166 12.3964 32.64 12.3964 29.0911V22.0769C12.3964 18.528 15.2731 15.6514 18.822 15.6514H131.201C134.75 15.6514 137.626 18.528 137.626 22.0769V29.0911C137.626 32.64 134.75 35.5166 131.201 35.5166Z" fill="#474747"/>
<path d="M131.049 35.2923H18.9737C15.4682 35.2923 12.6269 32.451 12.6269 28.9455V22.1867C12.6269 18.6812 15.4682 15.8398 18.9737 15.8398H131.049C134.555 15.8398 137.396 18.6812 137.396 22.1867V28.9455C137.396 32.451 134.555 35.2923 131.049 35.2923Z" fill="#444444"/>
<path d="M130.897 35.066H19.1255C15.6634 35.066 12.8574 32.2592 12.8574 28.7979V22.2945C12.8574 18.8324 15.6642 16.0264 19.1255 16.0264H130.897C134.359 16.0264 137.165 18.8332 137.165 22.2945V28.7979C137.165 32.2592 134.359 35.066 130.897 35.066Z" fill="#414141"/>
<path d="M130.746 34.8424H19.2765C15.8578 34.8424 13.0863 32.0709 13.0863 28.6521V22.4041C13.0863 18.9853 15.8578 16.2139 19.2765 16.2139H130.746C134.164 16.2139 136.936 18.9853 136.936 22.4041V28.6521C136.936 32.0709 134.164 34.8424 130.746 34.8424Z" fill="#3E3E3E"/>
<path d="M130.594 34.6161H19.4291C16.0537 34.6161 13.3176 31.88 13.3176 28.5046V22.5119C13.3176 19.1365 16.0537 16.4004 19.4291 16.4004H130.595C133.97 16.4004 136.706 19.1365 136.706 22.5119V28.5046C136.705 31.88 133.969 34.6161 130.594 34.6161Z" fill="#3C3C3C"/>
<path d="M130.443 34.3908H19.5801C16.248 34.3908 13.5472 31.69 13.5472 28.358V22.6207C13.5472 19.2887 16.248 16.5879 19.5801 16.5879H130.442C133.774 16.5879 136.475 19.2887 136.475 22.6207V28.358C136.476 31.6892 133.775 34.3908 130.443 34.3908Z" fill="#393939"/>
<path d="M130.291 34.1663H19.7318C16.4432 34.1663 13.7769 31.5001 13.7769 28.2114V22.7303C13.7769 19.4417 16.4432 16.7754 19.7318 16.7754H130.29C133.579 16.7754 136.245 19.4417 136.245 22.7303V28.2122C136.245 31.5009 133.58 34.1663 130.291 34.1663Z" fill="#363636"/>
<path d="M130.139 33.9409H19.8836C16.6383 33.9409 14.0074 31.3099 14.0074 28.0646V22.8381C14.0074 19.5928 16.6383 16.9619 19.8836 16.9619H130.139C133.384 16.9619 136.015 19.5928 136.015 22.8381V28.0646C136.015 31.3099 133.384 33.9409 130.139 33.9409Z" fill="#343434"/>
<path d="M129.987 33.7165H20.0354C16.8335 33.7165 14.2379 31.121 14.2379 27.919V22.9479C14.2379 19.746 16.8335 17.1504 20.0354 17.1504H129.987C133.189 17.1504 135.785 19.746 135.785 22.9479V27.919C135.785 31.1202 133.189 33.7165 129.987 33.7165Z" fill="#313131"/>
<path d="M129.836 33.4909H20.1872C17.0286 33.4909 14.4676 30.9307 14.4676 27.7713V23.0556C14.4676 19.897 17.0278 17.3359 20.1872 17.3359H129.836C132.994 17.3359 135.555 19.8962 135.555 23.0556V27.7713C135.555 30.9307 132.994 33.4909 129.836 33.4909Z" fill="#2E2E2E"/>
<path d="M129.684 33.2656H20.339C17.2238 33.2656 14.6981 30.7399 14.6981 27.6247V23.1643C14.6981 20.0492 17.2238 17.5234 20.339 17.5234H129.684C132.799 17.5234 135.325 20.0492 135.325 23.1643V27.6247C135.325 30.7399 132.799 33.2656 129.684 33.2656Z" fill="#2B2B2B"/>
<path d="M129.532 33.0403H20.4908C17.419 33.0403 14.9286 30.55 14.9286 27.4781V23.2731C14.9286 20.2013 17.419 17.7109 20.4908 17.7109H129.532C132.604 17.7109 135.094 20.2013 135.094 23.2731V27.4781C135.095 30.55 132.605 33.0403 129.532 33.0403Z" fill="#292929"/>
<path d="M129.38 32.8157H20.6418C17.6134 32.8157 15.1575 30.3606 15.1575 27.3314V23.3818C15.1575 20.3533 17.6126 17.8975 20.6418 17.8975H129.38C132.409 17.8975 134.865 20.3525 134.865 23.3818V27.3314C134.865 30.3606 132.41 32.8157 129.38 32.8157Z" fill="#262626"/>
<path d="M129.228 32.5912H20.7943C17.8092 32.5912 15.3887 30.1707 15.3887 27.1856V23.4906C15.3887 20.5055 17.8092 18.085 20.7943 18.085H129.229C132.214 18.085 134.635 20.5055 134.635 23.4906V27.1856C134.635 30.1707 132.214 32.5912 129.228 32.5912Z" fill="#232323"/>
<path d="M129.077 32.3659H20.9453C18.0028 32.3659 15.6184 29.9807 15.6184 27.039V23.5994C15.6184 20.6568 18.0036 18.2725 20.9453 18.2725H129.077C132.019 18.2725 134.404 20.6576 134.404 23.5994V27.039C134.404 29.9807 132.019 32.3659 129.077 32.3659Z" fill="#212121"/>
<path d="M128.926 32.1403H21.0971C18.1979 32.1403 15.8481 29.7904 15.8481 26.8913V23.707C15.8481 20.8079 18.1979 18.458 21.0971 18.458H128.925C131.824 18.458 134.174 20.8079 134.174 23.707V26.8913C134.174 29.7904 131.824 32.1403 128.926 32.1403Z" fill="#1E1E1E"/>
<path d="M128.774 31.916H21.2488C18.3931 31.916 16.0786 29.6014 16.0786 26.7457V23.8168C16.0786 20.961 18.3931 18.6465 21.2488 18.6465H128.774C131.63 18.6465 133.944 20.961 133.944 23.8168V26.7457C133.944 29.6014 131.629 31.916 128.774 31.916Z" fill="#1B1B1B"/>
<path d="M128.622 31.6907H21.4007C18.5883 31.6907 16.3091 29.4107 16.3091 26.5991V23.9256C16.3091 21.1132 18.5891 18.834 21.4007 18.834H128.622C131.435 18.834 133.714 21.114 133.714 23.9256V26.5991C133.714 29.4107 131.435 31.6907 128.622 31.6907Z" fill="#181818"/>
<path d="M128.47 31.466H21.5525C18.7834 31.466 16.5388 29.2214 16.5388 26.4523V24.0342C16.5388 21.2651 18.7834 19.0205 21.5525 19.0205H128.47C131.239 19.0205 133.484 21.2651 133.484 24.0342V26.4523C133.484 29.2214 131.239 31.466 128.47 31.466Z" fill="#161616"/>
<path d="M128.319 31.2407H21.7042C18.9785 31.2407 16.7692 29.0314 16.7692 26.3057V24.143C16.7692 21.4173 18.9785 19.208 21.7042 19.208H128.319C131.044 19.208 133.254 21.4173 133.254 24.143V26.3057C133.254 29.0314 131.044 31.2407 128.319 31.2407Z" fill="#131313"/>
<path d="M128.167 31.0145H21.856C19.1737 31.0145 16.9998 28.8397 16.9998 26.1582V24.2508C16.9998 21.5685 19.1745 19.3945 21.856 19.3945H128.167C130.849 19.3945 133.023 21.5693 133.023 24.2508V26.1582C133.024 28.8397 130.849 31.0145 128.167 31.0145Z" fill="#101010"/>
<path d="M128.015 30.7908H22.007C19.368 30.7908 17.2286 28.6513 17.2286 26.0124V24.3604C17.2286 21.7215 19.368 19.582 22.007 19.582H128.015C130.654 19.582 132.793 21.7215 132.793 24.3604V26.0124C132.793 28.6513 130.654 30.7908 128.015 30.7908Z" fill="#0E0E0E"/>
<path d="M127.863 30.5645H22.1596C19.564 30.5645 17.4599 28.4604 17.4599 25.8648V24.4682C17.4599 21.8727 19.564 19.7686 22.1596 19.7686H127.864C130.46 19.7686 132.564 21.8727 132.564 24.4682V25.8648C132.564 28.4604 130.46 30.5645 127.863 30.5645Z" fill="#0B0B0B"/>
<path d="M127.712 30.3392H22.3106C19.7583 30.3392 17.6896 28.2705 17.6896 25.7182V24.577C17.6896 22.0248 19.7583 19.9561 22.3106 19.9561H127.711C130.264 19.9561 132.332 22.0248 132.332 24.577V25.7182C132.333 28.2697 130.264 30.3392 127.712 30.3392Z" fill="#080808"/>
<path d="M127.56 30.1136H22.4623C19.9535 30.1136 17.9193 28.0793 17.9193 25.5705V24.6847C17.9193 22.1758 19.9535 20.1416 22.4623 20.1416H127.56C130.068 20.1416 132.103 22.1758 132.103 24.6847V25.5705C132.104 28.0793 130.069 30.1136 127.56 30.1136Z" fill="#050505"/>
<path d="M127.409 29.8893H22.6141C20.1486 29.8893 18.1497 27.8904 18.1497 25.4249V24.7945C18.1497 22.329 20.1486 20.3301 22.6141 20.3301H127.409C129.874 20.3301 131.873 22.329 131.873 24.7945V25.4249C131.873 27.8904 129.874 29.8893 127.409 29.8893Z" fill="#030303"/>
<path d="M127.257 29.6636H22.7659C20.3438 29.6636 18.3795 27.7001 18.3795 25.2771V24.9021C18.3795 22.48 20.343 20.5156 22.7659 20.5156H127.257C129.679 20.5156 131.643 22.4792 131.643 24.9021V25.2771C131.643 27.7001 129.679 29.6636 127.257 29.6636Z" fill="black"/>
</g>
<path opacity="0.8452" d="M129.975 24.8067H21.9461C16.2851 24.8067 11.6954 20.217 11.6954 14.556V10.2731C11.6954 4.61213 16.2851 0.0224609 21.9461 0.0224609H129.975C135.636 0.0224609 140.226 4.61213 140.226 10.2731V14.556C140.227 20.217 135.637 24.8067 129.975 24.8067Z" fill="white"/>
<path opacity="0.8571" d="M129.711 24.6396H22.1501C16.4931 24.6396 11.9075 20.0539 11.9075 14.397V10.3373C11.9075 4.68038 16.4931 0.0947266 22.1501 0.0947266H129.711C135.368 0.0947266 139.954 4.68038 139.954 10.3373V14.397C139.954 20.0531 135.368 24.6396 129.711 24.6396Z" fill="white"/>
<path opacity="0.869" d="M129.446 24.4745H22.3534C16.7012 24.4745 12.1188 19.8921 12.1188 14.2399V10.4035C12.1188 4.75138 16.7012 0.168945 22.3534 0.168945H129.446C135.098 0.168945 139.68 4.75138 139.68 10.4035V14.2399C139.681 19.8921 135.098 24.4745 129.446 24.4745Z" fill="white"/>
<path opacity="0.881" d="M129.181 24.3074H22.5573C16.9092 24.3074 12.3307 19.729 12.3307 14.0809V10.4678C12.3307 4.81963 16.9092 0.241211 22.5573 0.241211H129.181C134.829 0.241211 139.408 4.81963 139.408 10.4678V14.0809C139.408 19.7282 134.829 24.3074 129.181 24.3074Z" fill="white"/>
<path opacity="0.8929" d="M128.916 24.1423H22.7613C17.1179 24.1423 12.5427 19.5671 12.5427 13.9238V10.534C12.5427 4.89064 17.1179 0.31543 22.7613 0.31543H128.916C134.56 0.31543 139.135 4.89064 139.135 10.534V13.9238C139.136 19.5671 134.56 24.1423 128.916 24.1423Z" fill="white"/>
<path opacity="0.9048" d="M128.652 23.9753H22.9653C17.326 23.9753 12.7548 19.4041 12.7548 13.7648V10.5982C12.7548 4.95889 17.326 0.387695 22.9653 0.387695H128.652C134.291 0.387695 138.863 4.95889 138.863 10.5982V13.7648C138.863 19.4041 134.291 23.9753 128.652 23.9753Z" fill="white"/>
<path opacity="0.9167" d="M128.387 23.8082H23.1685C17.534 23.8082 12.966 19.2402 12.966 13.6058V10.6624C12.966 5.02794 17.534 0.459961 23.1685 0.459961H128.387C134.022 0.459961 138.589 5.02794 138.589 10.6624V13.6058C138.589 19.2402 134.022 23.8082 128.387 23.8082Z" fill="white"/>
<path opacity="0.9286" d="M128.122 23.6431H23.3725C17.742 23.6431 13.178 19.0792 13.178 13.4487V10.7286C13.178 5.09815 17.742 0.53418 23.3725 0.53418H128.122C133.753 0.53418 138.316 5.09815 138.316 10.7286V13.4487C138.316 19.0792 133.753 23.6431 128.122 23.6431Z" fill="white"/>
<path opacity="0.9405" d="M127.858 23.4772H23.5764C17.9508 23.4772 13.39 18.9165 13.39 13.2908V10.7948C13.39 5.16915 17.9508 0.608398 23.5764 0.608398H127.858C133.483 0.608398 138.044 5.16915 138.044 10.7948V13.2908C138.044 18.9165 133.483 23.4772 127.858 23.4772Z" fill="white"/>
<path opacity="0.9524" d="M127.593 23.3102H23.7804C18.1588 23.3102 13.6021 18.7534 13.6021 13.1318V10.859C13.6021 5.2374 18.1588 0.680664 23.7804 0.680664H127.593C133.214 0.680664 137.771 5.2374 137.771 10.859V13.1318C137.771 18.7534 133.214 23.3102 127.593 23.3102Z" fill="white"/>
<path opacity="0.9643" d="M127.328 23.1431H23.9836C18.3668 23.1431 13.8132 18.5896 13.8132 12.9728V10.9233C13.8132 5.30645 18.3668 0.75293 23.9836 0.75293H127.328C132.945 0.75293 137.498 5.30645 137.498 10.9233V12.9728C137.498 18.5896 132.945 23.1431 127.328 23.1431Z" fill="white"/>
<path opacity="0.9762" d="M127.063 22.978H24.1875C18.5747 22.978 14.0252 18.4285 14.0252 12.8157V10.9895C14.0252 5.37666 18.5747 0.827148 24.1875 0.827148H127.063C132.675 0.827148 137.225 5.37666 137.225 10.9895V12.8157C137.225 18.4285 132.675 22.978 127.063 22.978Z" fill="white"/>
<path opacity="0.9881" d="M126.798 22.8119H24.3915C18.7835 22.8119 14.2372 18.2656 14.2372 12.6576V11.0547C14.2372 5.44669 18.7835 0.900391 24.3915 0.900391H126.798C132.406 0.900391 136.953 5.44669 136.953 11.0547V12.6576C136.953 18.2656 132.406 22.8119 126.798 22.8119Z" fill="white"/>
<path d="M126.533 22.6458H24.5955C18.9916 22.6458 14.4493 18.1036 14.4493 12.4996V11.1199C14.4493 5.51592 18.9916 0.973633 24.5955 0.973633H126.533C132.137 0.973633 136.68 5.51592 136.68 11.1199V12.4996C136.68 18.1036 132.137 22.6458 126.533 22.6458Z" fill="white"/>
<path d="M138.975 45.737H11.0168C5.17731 45.737 0.443109 41.0028 0.443109 35.1633V11.0168C0.443109 5.17731 5.17731 0.443109 11.0168 0.443109H138.975C144.814 0.443109 149.549 5.17731 149.549 11.0168V35.1641C149.549 41.0036 144.815 45.737 138.975 45.737Z" fill="white" stroke="black" stroke-width="0.886219"/>
<path d="M59.0754 11.8094C60.7353 11.8094 61.7159 12.8446 61.7159 14.605C61.7159 16.3693 60.7386 17.4045 59.0754 17.4045H57.1945V11.8086H59.0754V11.8094ZM57.8932 16.7765H59.0296C60.2977 16.7765 61.0036 16.0007 61.0036 14.613C61.0036 13.2132 60.3017 12.4374 59.0296 12.4374H57.8932V16.7765Z" fill="#333333"/>
<path d="M62.6755 15.3882C62.6755 14.1008 63.428 13.3018 64.5443 13.3018C65.6574 13.3018 66.4099 14.1008 66.4099 15.3882C66.4099 16.6715 65.6574 17.4746 64.5443 17.4746C63.428 17.4746 62.6755 16.6715 62.6755 15.3882ZM65.7241 15.3882C65.7241 14.4381 65.2591 13.8952 64.5451 13.8952C63.8312 13.8952 63.3622 14.4381 63.3622 15.3882C63.3622 16.3382 63.8312 16.8811 64.5451 16.8811C65.2583 16.8811 65.7241 16.3382 65.7241 15.3882Z" fill="#333333"/>
<path d="M71.492 17.4062H70.8053L69.8938 14.2846H69.8785L68.9711 17.4062H68.2844L67.1561 13.373H67.8266L68.633 16.6537H68.6482L69.5597 13.373H70.211L71.1266 16.6537H71.1418L71.9481 13.373H72.6155L71.492 17.4062Z" fill="#333333"/>
<path d="M73.5639 13.3718H74.1999V14.0159H74.2152C74.44 13.5814 74.8705 13.3027 75.4945 13.3027C76.3787 13.3027 76.8902 13.8729 76.8902 14.7877V17.4049H76.2157V14.9073C76.2157 14.256 75.9089 13.8994 75.2889 13.8994C74.6528 13.8994 74.2376 14.3492 74.2376 15.0318V17.4049H73.563V13.3718H73.5639Z" fill="#333333"/>
<path d="M78.1801 11.8105H78.8547V17.4065H78.1801V11.8105Z" fill="#333333"/>
<path d="M79.9654 15.3882C79.9654 14.1008 80.7179 13.3018 81.8342 13.3018C82.9473 13.3018 83.6998 14.1008 83.6998 15.3882C83.6998 16.6715 82.9473 17.4746 81.8342 17.4746C80.7171 17.4746 79.9654 16.6715 79.9654 15.3882ZM83.0131 15.3882C83.0131 14.4381 82.5481 13.8952 81.8342 13.8952C81.1202 13.8952 80.6512 14.4381 80.6512 15.3882C80.6512 16.3382 81.1202 16.8811 81.8342 16.8811C82.5481 16.8811 83.0131 16.3382 83.0131 15.3882Z" fill="#333333"/>
<path d="M84.6121 16.2644C84.6121 15.5737 85.1437 15.14 86.0737 15.0854L87.2293 15.0196V14.6823C87.2293 14.19 86.9033 13.8952 86.3451 13.8952C85.8255 13.8952 85.4995 14.1394 85.4143 14.5353H84.763C84.8096 13.8374 85.4071 13.3018 86.3604 13.3018C87.3064 13.3018 87.9039 13.8133 87.9039 14.6164V17.4047H87.2639V16.7109H87.2486C87.0085 17.1727 86.4961 17.4746 85.9532 17.4746C85.1509 17.4746 84.6121 16.9896 84.6121 16.2644ZM87.2301 15.8725V15.5432L86.1524 15.609C85.6095 15.6436 85.2995 15.8845 85.2995 16.2644C85.2995 16.6482 85.6215 16.9004 86.1058 16.9004C86.7411 16.9004 87.2301 16.4547 87.2301 15.8725Z" fill="#333333"/>
<path d="M88.9608 15.3899C88.9608 14.1259 89.6547 13.3035 90.6706 13.3035C91.248 13.3035 91.7138 13.5862 91.9539 14.0287H91.9692V11.8105H92.6438V17.4065H91.9997V16.7239H91.9885C91.7283 17.1888 91.2673 17.4764 90.6859 17.4764C89.6587 17.4764 88.9608 16.654 88.9608 15.3899ZM89.6507 15.3899C89.6507 16.3054 90.1004 16.8829 90.8143 16.8829C91.5082 16.8829 91.974 16.2934 91.974 15.3899C91.974 14.4905 91.509 13.897 90.8143 13.897C90.1012 13.897 89.6507 14.4784 89.6507 15.3899Z" fill="#333333"/>
<path d="M95.7806 15.3882C95.7806 14.1008 96.5331 13.3018 97.6494 13.3018C98.7625 13.3018 99.515 14.1008 99.515 15.3882C99.515 16.6715 98.7625 17.4746 97.6494 17.4746C96.5331 17.4746 95.7806 16.6715 95.7806 15.3882ZM98.8292 15.3882C98.8292 14.4381 98.3642 13.8952 97.6502 13.8952C96.9363 13.8952 96.4673 14.4381 96.4673 15.3882C96.4673 16.3382 96.9363 16.8811 97.6502 16.8811C98.3642 16.8811 98.8292 16.3382 98.8292 15.3882Z" fill="#333333"/>
<path d="M100.591 13.3718H101.227V14.0159H101.242C101.467 13.5814 101.898 13.3027 102.522 13.3027C103.406 13.3027 103.918 13.8729 103.918 14.7877V17.4049H103.243V14.9073C103.243 14.256 102.937 13.8994 102.316 13.8994C101.68 13.8994 101.265 14.3492 101.265 15.0318V17.4049H100.59V13.3718H100.591Z" fill="#333333"/>
<path d="M108.09 12.3984V13.3718H108.873V13.9267H108.09V16.3231C108.09 16.6918 108.245 16.858 108.59 16.858C108.668 16.858 108.823 16.846 108.869 16.8387V17.4049C108.788 17.4242 108.602 17.4362 108.443 17.4362C107.702 17.4362 107.415 17.1335 107.415 16.3585V13.9267H106.814V13.3718H107.415V12.3984H108.09Z" fill="#333333"/>
<path d="M110.023 11.8105H110.697V14.0174H110.713C110.937 13.5677 111.38 13.3043 111.992 13.3043C112.876 13.3043 113.411 13.9018 113.411 14.8013V17.4073H112.736V14.9257C112.736 14.2857 112.414 13.9018 111.782 13.9018C111.112 13.9018 110.696 14.3596 110.696 15.0574V17.4073H110.022V11.8105H110.023Z" fill="#333333"/>
<path d="M118.005 16.2491C117.888 16.955 117.206 17.4746 116.325 17.4746C115.17 17.4746 114.468 16.6715 114.468 15.4034C114.468 14.1506 115.181 13.3018 116.294 13.3018C117.384 13.3018 118.054 14.0928 118.054 15.3143V15.5705H115.162V15.609C115.162 16.3808 115.615 16.8884 116.341 16.8884C116.852 16.8884 117.229 16.629 117.341 16.2483H118.005V16.2491ZM115.166 15.0429H117.357C117.341 14.3683 116.918 13.8872 116.282 13.8872C115.651 13.8872 115.208 14.3723 115.166 15.0429Z" fill="#333333"/>
<path d="M60.6687 21.8867H62.4146L66.1948 32.2956H64.4995L63.547 29.4823H59.5364L58.5767 32.2956H56.8813L60.6687 21.8867ZM59.9692 28.1838H63.1069L61.5561 23.6101H61.5272L59.9692 28.1838Z" fill="#333333"/>
<path d="M67.8925 24.7072H69.4505V26.0131H69.4867C69.9412 25.1112 70.778 24.5635 71.8598 24.5635C73.7928 24.5635 75.0336 26.0781 75.0336 28.5018V28.5091C75.0336 30.9256 73.7856 32.4474 71.8815 32.4474C70.8069 32.4474 69.934 31.8989 69.4867 31.0195H69.4505V34.8214H67.8925V24.7072ZM73.4467 28.5083V28.501C73.4467 26.8852 72.6749 25.8974 71.4558 25.8974C70.2729 25.8974 69.4433 26.9214 69.4433 28.501V28.5083C69.4433 30.0807 70.2801 31.1055 71.4558 31.1055C72.6822 31.1055 73.4467 30.1096 73.4467 28.5083Z" fill="#333333"/>
<path d="M76.9771 24.7072H78.5351V26.0131H78.5712C79.0258 25.1112 79.8626 24.5635 80.9444 24.5635C82.8774 24.5635 84.1182 26.0781 84.1182 28.5018V28.5091C84.1182 30.9256 82.8702 32.4474 80.9661 32.4474C79.8915 32.4474 79.0186 31.8989 78.5712 31.0195H78.5351V34.8214H76.9771V24.7072ZM82.5313 28.5083V28.501C82.5313 26.8852 81.7595 25.8974 80.5404 25.8974C79.3575 25.8974 78.5279 26.9214 78.5279 28.501V28.5083C78.5279 30.0807 79.3647 31.1055 80.5404 31.1055C81.7667 31.1055 82.5313 30.1096 82.5313 28.5083Z" fill="#333333"/>
<path d="M89.5205 29.5254L89.5133 29.4169H91.0858L91.1002 29.5109C91.2448 30.4706 92.2037 31.0689 93.5962 31.0689C94.9888 31.0689 95.8682 30.4417 95.8682 29.4675V29.4603C95.8682 28.6235 95.298 28.1689 93.9207 27.8662L92.7883 27.6285C90.7469 27.1956 89.7591 26.2576 89.7591 24.714V24.7068C89.7663 22.932 91.3315 21.7129 93.532 21.7129C95.7035 21.7129 97.1893 22.8958 97.2977 24.6418L97.3049 24.7646H95.7324L95.7252 24.6635C95.5807 23.6965 94.7438 23.1127 93.5111 23.1127C92.2197 23.1199 91.3974 23.7327 91.3974 24.6418V24.649C91.3974 25.428 91.9892 25.9042 93.287 26.1853L94.4266 26.423C96.5765 26.8776 97.4992 27.7505 97.4992 29.3591V29.3664C97.4992 31.2633 95.9991 32.4679 93.532 32.4679C91.1942 32.4687 89.6506 31.358 89.5205 29.5254Z" fill="#333333"/>
<path d="M99.9399 30.2982V25.9486H98.8509V24.7079H99.9399V22.7314H101.534V24.7079H102.955V25.9486H101.534V30.2042C101.534 30.976 101.88 31.2065 102.536 31.2065C102.703 31.2065 102.839 31.192 102.955 31.1776V32.3822C102.774 32.4111 102.478 32.4472 102.161 32.4472C100.661 32.4472 99.9399 31.8128 99.9399 30.2982Z" fill="#333333"/>
<path d="M104.459 28.5009V28.4864C104.459 26.0627 105.894 24.5625 108.051 24.5625C110.215 24.5625 111.658 26.0554 111.658 28.4864V28.5009C111.658 30.9463 110.23 32.4464 108.058 32.4464C105.88 32.4464 104.459 30.939 104.459 28.5009ZM110.064 28.5009V28.4864C110.064 26.8272 109.27 25.8683 108.051 25.8683C106.854 25.8683 106.053 26.828 106.053 28.4864V28.5009C106.053 30.1817 106.846 31.1406 108.066 31.1406C109.285 31.1406 110.064 30.1745 110.064 28.5009Z" fill="#333333"/>
<path d="M113.601 24.7072H115.159V26.0058H115.195C115.44 25.1184 116.076 24.5635 116.941 24.5635C117.165 24.5635 117.36 24.5996 117.483 24.6213V26.0709C117.36 26.0203 117.086 25.9841 116.783 25.9841C115.781 25.9841 115.16 26.6403 115.16 27.7734V32.2964H113.602V24.7072H113.601Z" fill="#333333"/>
<path d="M118.523 28.5298V28.5225C118.523 26.1494 119.894 24.5625 122.022 24.5625C124.149 24.5625 125.455 26.0916 125.455 28.3708V28.8976H120.081C120.109 30.3327 120.896 31.1695 122.136 31.1695C123.06 31.1695 123.673 30.6933 123.868 30.1239L123.89 30.0661H125.368L125.354 30.1456C125.109 31.3502 123.94 32.4464 122.1 32.4464C119.873 32.4464 118.523 30.9246 118.523 28.5298ZM120.104 27.7941H123.912C123.782 26.4811 123.046 25.8394 122.03 25.8394C121.019 25.8394 120.24 26.5245 120.104 27.7941Z" fill="#333333"/>
<path d="M42.999 19.8252C42.0273 20.5006 41.3671 21.1784 41.0178 21.8594C40.6684 22.5405 40.4934 23.2785 40.4934 24.072C40.4934 24.7 40.597 25.2742 40.8042 25.7954C41.0114 26.3166 41.3045 26.8113 41.6835 27.2795C42.0626 27.7477 42.6962 28.2127 43.5853 28.6745C43.2415 29.6815 42.7083 30.7087 41.9863 31.7575C41.2635 32.8056 40.609 33.5492 40.0228 33.9877C39.4365 34.4262 38.8767 34.6455 38.3435 34.6455C37.917 34.6455 37.342 34.5097 36.6201 34.2367L36.2828 34.1122L35.7318 33.8809C35.3407 33.7629 34.9087 33.7034 34.4348 33.7034C33.949 33.7034 33.4045 33.8102 32.7998 34.0231L32.3733 34.1829L31.8401 34.3965C31.4136 34.5627 30.9872 34.6455 30.5607 34.6455C29.6605 34.6455 28.6952 34.015 27.664 32.7534C26.6336 31.4917 25.8546 30.1353 25.327 28.6841C24.7994 27.2329 24.5359 25.7673 24.5359 24.2864C24.5359 22.379 25.078 20.7921 26.1622 19.5241C27.2464 18.2568 28.7176 17.6231 30.5776 17.6231C31.253 17.6231 31.8866 17.7476 32.4785 17.9966L32.8873 18.1564L33.3137 18.3339C33.6928 18.4881 33.9948 18.5652 34.2196 18.5652C34.5513 18.5652 34.883 18.5001 35.2146 18.37L35.7832 18.1564L36.192 17.9966C36.8554 17.7476 37.5894 17.6231 38.3957 17.6231C40.3038 17.6223 41.8377 18.3564 42.999 19.8252ZM38.4856 11.3574C38.5089 11.6184 38.521 11.8192 38.521 11.9613C38.521 12.6962 38.3074 13.4543 37.8809 14.2357C37.4545 15.0171 36.8971 15.625 36.2105 16.0571C35.523 16.49 34.7649 16.706 33.9361 16.706C33.9008 16.4217 33.8831 16.2145 33.8831 16.0844C33.8831 15.4564 34.0694 14.7963 34.4429 14.1032C34.8163 13.4101 35.3223 12.8207 35.9623 12.3348C36.6024 11.8489 37.3244 11.5413 38.1299 11.4104C38.2013 11.3992 38.3194 11.3815 38.4856 11.3574Z" fill="#333333"/>
</svg>
