<svg width="161" height="41" viewBox="0 0 161 41" fill="none" xmlns="http://www.w3.org/2000/svg">
<path d="M17.9813 25.9386C21.9028 25.9386 25.0819 29.1177 25.0819 33.0392C25.0819 36.9608 21.9028 40.1398 17.9813 40.1398C14.0597 40.1398 10.8807 36.9608 10.8807 33.0392C10.8807 29.1177 14.0597 25.9386 17.9813 25.9386Z" fill="#002A6A"/>
<path d="M35.8505 2.60289V8.32492C35.8505 8.93517 35.5715 9.51192 35.0931 9.8907L19.4741 22.2557C18.7425 22.8349 17.7073 22.8302 16.9809 22.2445L0.751267 9.15606C0.281164 8.77695 0.0078738 8.20546 0.00787377 7.60154L0.00787354 2.15608C0.00787346 0.477902 1.95225 -0.451925 3.25857 0.601555L16.9679 11.6575C17.7002 12.248 18.7453 12.2474 19.477 11.656L32.5981 1.04979C33.904 -0.00584541 35.8505 0.923651 35.8505 2.60289Z" fill="#002A6A"/>
<path d="M50.206 35.2188C47.3766 35.2188 44.9962 34.593 43.0646 33.3416C41.133 32.0629 39.7727 30.3354 38.9837 28.1589L43.7991 25.3431C44.9145 28.2541 47.1046 29.7096 50.3693 29.7096C51.9472 29.7096 53.1034 29.424 53.838 28.8527C54.5725 28.2813 54.9398 27.5604 54.9398 26.6898C54.9398 25.6832 54.4909 24.9078 53.5931 24.3637C52.6953 23.7924 51.0902 23.1803 48.7777 22.5274C47.4991 22.1465 46.4108 21.7656 45.5131 21.3847C44.6425 21.0038 43.7583 20.5005 42.8605 19.8748C41.9899 19.2219 41.3234 18.4057 40.8609 17.4263C40.3984 16.4469 40.1672 15.3043 40.1672 13.9984C40.1672 11.4139 41.0785 9.35983 42.9013 7.83631C44.7513 6.28559 46.9686 5.51023 49.5531 5.51023C51.8656 5.51023 53.8924 6.08155 55.6336 7.22418C57.4019 8.33961 58.7758 9.90394 59.7552 11.9172L55.0214 14.6513C53.8788 12.2028 52.056 10.9786 49.5531 10.9786C48.3833 10.9786 47.4583 11.2506 46.7781 11.7947C46.1252 12.3116 45.7987 12.9918 45.7987 13.8352C45.7987 14.7329 46.166 15.4675 46.9005 16.0388C47.6623 16.5829 49.1042 17.1814 51.2262 17.8344C52.0968 18.1064 52.7498 18.3241 53.1851 18.4873C53.6475 18.6233 54.2597 18.8546 55.0214 19.1811C55.8104 19.4803 56.4089 19.766 56.817 20.038C57.2523 20.3101 57.742 20.6774 58.2861 21.1399C58.8302 21.6024 59.2383 22.0785 59.5104 22.5682C59.8096 23.0579 60.0545 23.6564 60.2449 24.3637C60.4626 25.0439 60.5714 25.792 60.5714 26.6082C60.5714 29.2471 59.6056 31.342 57.674 32.8927C55.7696 34.4434 53.2803 35.2188 50.206 35.2188ZM80.7719 34.6475H74.6506L67.2235 25.3839V34.6475H61.9592V6.08155H67.2235V23.2211L74.2425 14.2432H80.527L72.3245 24.3229L80.7719 34.6475ZM81.3591 34.6475V4.8573H86.6234V34.6475H81.3591ZM89.4013 34.6475V4.8573H94.6656V34.6475H89.4013ZM114.828 32.1173C112.733 34.185 110.176 35.2188 107.156 35.2188C104.136 35.2188 101.579 34.185 99.4838 32.1173C97.4162 30.0225 96.3824 27.4652 96.3824 24.4453C96.3824 21.4255 97.4162 18.8818 99.4838 16.8142C101.579 14.7193 104.136 13.6719 107.156 13.6719C110.176 13.6719 112.733 14.7193 114.828 16.8142C116.923 18.8818 117.97 21.4255 117.97 24.4453C117.97 27.4652 116.923 30.0225 114.828 32.1173ZM103.197 28.4854C104.258 29.5464 105.578 30.0769 107.156 30.0769C108.734 30.0769 110.053 29.5464 111.114 28.4854C112.175 27.4244 112.706 26.0777 112.706 24.4453C112.706 22.813 112.175 21.4663 111.114 20.4053C110.053 19.3443 108.734 18.8138 107.156 18.8138C105.578 18.8138 104.258 19.3443 103.197 20.4053C102.164 21.4663 101.647 22.813 101.647 24.4453C101.647 26.0777 102.164 27.4244 103.197 28.4854ZM130.978 13.6719C133.209 13.6719 135.045 14.4201 136.487 15.9164C137.956 17.4127 138.691 19.4803 138.691 22.1193V34.6475H133.426V22.7722C133.426 21.4119 133.059 20.3781 132.324 19.6708C131.59 18.9362 130.61 18.5689 129.386 18.5689C128.026 18.5689 126.938 18.9906 126.122 19.834C125.305 20.6774 124.897 21.9424 124.897 23.6292V34.6475H119.633V14.2432H124.897V16.5285C126.176 14.6241 128.203 13.6719 130.978 13.6719Z" fill="#3572EF"/>
<path d="M143.757 11.7947C142.886 11.7947 142.125 11.4819 141.472 10.8561C140.846 10.2032 140.533 9.44144 140.533 8.57086C140.533 7.70028 140.846 6.93853 141.472 6.28559C142.125 5.63265 142.886 5.30619 143.757 5.30619C144.655 5.30619 145.416 5.63265 146.042 6.28559C146.695 6.93853 147.022 7.70028 147.022 8.57086C147.022 9.44144 146.695 10.2032 146.042 10.8561C145.416 11.4819 144.655 11.7947 143.757 11.7947ZM141.145 34.6475V14.2432H146.409V34.6475H141.145ZM160.858 19.3035H156.247V27.7916C156.247 28.499 156.424 29.0159 156.778 29.3424C157.131 29.6688 157.648 29.8593 158.328 29.9137C159.008 29.9409 159.852 29.9273 160.858 29.8729V34.6475C157.24 35.0555 154.683 34.7155 153.186 33.6272C151.717 32.539 150.983 30.5938 150.983 27.7916V19.3035H147.432V14.2432H150.983V10.1216L156.247 8.53005V14.2432H160.858V19.3035Z" fill="#002A6A"/>
<circle cx="77.2827" cy="9.09493" r="3.23067" fill="#002A6A"/>
<path d="M80.5275 14.0254H74.2362L66.3296 24.0575L74.6613 34.4296H80.7826L72.3658 24.0575L80.5275 14.0254Z" fill="#3572EF"/>
</svg>
