<svg width="435" height="433" viewBox="0 0 435 433" fill="none" xmlns="http://www.w3.org/2000/svg">
<path d="M101.14 0C69.8083 7.93582 61.1016 16.4044 55.6289 36.0747L73.6765 378H407.165C427.903 366.931 434.266 350.44 434.629 299.577C424.333 197.51 411.77 139.329 393.041 36.0747C383.597 21.7603 381.544 12.2025 344.391 10.9793L101.14 0Z" fill="#427DF5"/>
<path d="M0.628906 337.695L38.1488 55.5321C47.1277 34.2465 55.1284 24.4931 81.672 13.5078C165.555 5.63801 233.5 3.95855 347.313 0C376.646 8.8112 394.238 13.5281 408.846 55.5321C412.329 169.345 415.996 250.574 415.599 324.938C414.401 357.978 407.047 371.127 381.081 384.222C223.726 413.091 137.616 428.655 63.6624 433C19.066 419.114 0.956105 399.961 0.628906 337.695Z" fill="#EAEAEA"/>
</svg>
