<svg width="32" height="33" viewBox="0 0 32 33" fill="none" xmlns="http://www.w3.org/2000/svg">
<path d="M24.4339 20.6491L10.6581 21.6331C9.19801 21.7374 7.92786 20.6426 7.81559 19.1831L6.99517 8.51758H27.9746L26.8889 18.2889C26.7471 19.5648 25.7145 20.5576 24.4339 20.6491Z" fill="#002A6A"/>
<path d="M4.02734 3.19596C3.29258 3.19596 2.69694 3.79161 2.69694 4.52637C2.69694 5.26113 3.29258 5.85677 4.02734 5.85677V3.19596ZM6.68815 4.52637L8.01464 4.42433C7.96132 3.73119 7.38334 3.19596 6.68815 3.19596V4.52637ZM10.6581 21.6331L10.7529 22.9601H10.7529L10.6581 21.6331ZM24.4339 20.6491L24.3392 19.3221H24.3392L24.4339 20.6491ZM26.8889 18.2889L25.5666 18.142L26.8889 18.2889ZM27.9746 8.51758L29.2969 8.6645C29.3387 8.28839 29.2183 7.91228 28.9659 7.6303C28.7136 7.34833 28.353 7.18717 27.9746 7.18717V8.51758ZM6.99517 8.51758L5.66868 8.61962L6.99517 8.51758ZM7.81559 19.1831L9.14208 19.0811L7.81559 19.1831ZM4.02734 5.85677H6.68815V3.19596H4.02734V5.85677ZM10.7529 22.9601L24.5287 21.9761L24.3392 19.3221L10.5633 20.3061L10.7529 22.9601ZM28.2112 18.4358L29.2969 8.6645L26.6523 8.37066L25.5666 18.142L28.2112 18.4358ZM5.36167 4.6284L5.66868 8.61962L8.32165 8.41554L8.01464 4.42433L5.36167 4.6284ZM5.66868 8.61962L6.48911 19.2851L9.14208 19.0811L8.32165 8.41554L5.66868 8.61962ZM27.9746 7.18717H6.99517V9.84798H27.9746V7.18717ZM24.5287 21.9761C26.4496 21.8389 27.9985 20.3497 28.2112 18.4358L25.5666 18.142C25.4958 18.7799 24.9794 19.2763 24.3392 19.3221L24.5287 21.9761ZM10.5634 20.3061C9.83328 20.3582 9.19821 19.8108 9.14208 19.0811L6.48911 19.2851C6.65752 21.4745 8.56274 23.1165 10.7529 22.9601L10.5634 20.3061Z" fill="#002A6A"/>
<rect x="11.3438" y="27.8086" width="0.013304" height="0.013304" stroke="#427DF5" stroke-width="3.99121" stroke-linejoin="round"/>
<rect x="23.3164" y="27.8086" width="0.013304" height="0.013304" stroke="#427DF5" stroke-width="3.99121" stroke-linejoin="round"/>
</svg>
