<svg width="23" height="23" viewBox="0 0 23 23" fill="none" xmlns="http://www.w3.org/2000/svg">
<path d="M7.87411 11.0202C7.42204 11.0218 6.97799 11.1396 6.58466 11.3624C7.13842 9.92909 8.05687 8.66517 9.24911 7.69578C9.31732 7.6396 9.3738 7.57054 9.41533 7.49254C9.45685 7.41453 9.4826 7.32911 9.49112 7.24115C9.49963 7.15319 9.49073 7.06442 9.46494 6.9799C9.43914 6.89538 9.39695 6.81677 9.34077 6.74856C9.2846 6.68034 9.21553 6.62386 9.13753 6.58234C9.05952 6.54081 8.9741 6.51506 8.88615 6.50655C8.79819 6.49803 8.70941 6.50693 8.6249 6.53273C8.54038 6.55852 8.46176 6.60071 8.39355 6.65689C5.94911 8.643 4.86133 11.393 4.86133 13.098C4.86554 13.7009 5.04519 14.2894 5.37835 14.7919C5.71151 15.2943 6.18376 15.6889 6.73744 15.9274C7.09577 16.101 7.48818 16.1929 7.88633 16.1963C8.23678 16.2134 8.58703 16.1591 8.91586 16.0367C9.24469 15.9143 9.54524 15.7264 9.79929 15.4844C10.0533 15.2424 10.2556 14.9513 10.3938 14.6288C10.532 14.3063 10.6032 13.9591 10.6032 13.6083C10.6032 13.2574 10.532 12.9102 10.3938 12.5877C10.2556 12.2652 10.0533 11.9741 9.79929 11.7321C9.54524 11.4901 9.24469 11.3023 8.91586 11.1799C8.58703 11.0575 8.23678 11.0032 7.88633 11.0202H7.87411Z" fill="#427DF5"/>
<path d="M14.6827 11.02C14.2306 11.021 13.7864 11.1389 13.3933 11.3622C13.9468 9.93038 14.8628 8.66689 16.0516 7.69557C16.126 7.64194 16.1886 7.57365 16.2357 7.4949C16.2827 7.41615 16.3131 7.32861 16.325 7.23767C16.337 7.14673 16.3301 7.05431 16.305 6.96609C16.2799 6.87788 16.237 6.79575 16.1789 6.72474C16.1209 6.65373 16.0489 6.59536 15.9674 6.55321C15.886 6.51106 15.7967 6.48603 15.7052 6.47965C15.6137 6.47328 15.5219 6.48569 15.4354 6.51614C15.3489 6.54658 15.2695 6.59441 15.2021 6.65668C12.7577 8.64279 11.6699 11.3928 11.6699 13.0978C11.6728 13.6938 11.8472 14.2764 12.1723 14.776C12.4974 15.2756 12.9595 15.671 13.5033 15.915C13.8707 16.0937 14.2742 16.1857 14.6827 16.1839C15.0331 16.2009 15.3834 16.1466 15.7122 16.0242C16.0411 15.9019 16.3416 15.714 16.5957 15.472C16.8497 15.23 17.052 14.9389 17.1902 14.6164C17.3284 14.2939 17.3996 13.9467 17.3996 13.5958C17.3996 13.245 17.3284 12.8978 17.1902 12.5753C17.052 12.2528 16.8497 11.9617 16.5957 11.7197C16.3416 11.4777 16.0411 11.2898 15.7122 11.1675C15.3834 11.0451 15.0331 10.9908 14.6827 11.0078V11.02Z" fill="#427DF5"/>
</svg>
