<svg width="20" height="20" viewBox="0 0 20 20" fill="none" xmlns="http://www.w3.org/2000/svg">
<path d="M18.925 16.9262C19.4618 17.4988 19.4618 18.3934 18.925 18.966C18.3524 19.5028 17.4577 19.5028 16.8851 18.966L12.6265 14.6716C11.1593 15.6379 9.36994 16.1389 7.43746 15.8884C4.14509 15.4231 1.49687 12.7391 1.06743 9.48256C0.459058 4.61557 4.57453 0.500098 9.44152 1.10847C12.6981 1.53791 15.3821 4.18613 15.8473 7.4785C16.0978 9.41098 15.5968 11.2003 14.6306 12.6318L18.925 16.9262ZM3.85879 8.48053C3.85879 11.0214 5.89863 13.0612 8.43949 13.0612C10.9446 13.0612 13.0202 11.0214 13.0202 8.48053C13.0202 5.97546 10.9446 3.89983 8.43949 3.89983C5.89863 3.89983 3.85879 5.97546 3.85879 8.48053Z" fill="#080808" fill-opacity="0.25"/>
</svg>
