<svg width="17" height="17" viewBox="0 0 17 17" fill="none" xmlns="http://www.w3.org/2000/svg">
<path d="M15.0003 11.7708C15.1703 11.3658 14.6845 11.0209 14.277 11.2009C13.4625 11.5584 12.5824 11.7423 11.6928 11.7408C8.20526 11.7408 5.37855 8.9709 5.37855 5.55337C5.37727 4.39949 5.70509 3.26918 6.32356 2.29505C6.56026 1.92171 6.27606 1.40505 5.84272 1.51505C2.50185 2.36755 0.0351562 5.3442 0.0351562 8.885C0.0351562 13.0908 3.51436 16.5 7.80686 16.5C11.057 16.5 13.8403 14.5458 15.0003 11.7708Z" fill="#E6E6E6"/>
<path d="M10.9031 0.597903C10.3983 0.260743 9.79639 0.862683 10.1326 1.36748L10.7326 2.26754C10.976 2.63248 11.1059 3.06133 11.1059 3.5C11.1059 3.93867 10.976 4.36752 10.7326 4.73246L10.1326 5.63252C9.79639 6.13732 10.3993 6.7393 10.904 6.40209L11.8031 5.80206C12.168 5.55864 12.5968 5.42874 13.0354 5.42874C13.4741 5.42874 13.9029 5.55864 14.2678 5.80206L15.1678 6.40209C15.6725 6.7393 16.2744 6.13732 15.9373 5.63252L15.3373 4.73246C15.0939 4.36752 14.964 3.93867 14.964 3.5C14.964 3.06133 15.0939 2.63248 15.3373 2.26754L15.9373 1.36748C16.2744 0.862683 15.6725 0.260743 15.1668 0.597903L14.2678 1.19794C13.9029 1.44136 13.4741 1.57126 13.0354 1.57126C12.5968 1.57126 12.168 1.44136 11.8031 1.19794L10.9031 0.597903Z" fill="#427DF5"/>
</svg>
