<svg width="18" height="18" viewBox="0 0 18 18" fill="none" xmlns="http://www.w3.org/2000/svg">
<path d="M7.89657 4.0291C8.17746 3.98758 8.46722 3.9653 8.76567 3.9653C12.294 3.9653 14.6092 7.0788 15.387 8.31041C15.4812 8.45948 15.5283 8.53401 15.5546 8.64897C15.5744 8.7353 15.5744 8.87151 15.5546 8.95784C15.5282 9.0728 15.4808 9.14783 15.386 9.29788C15.1788 9.62589 14.8628 10.0868 14.4442 10.5868M5.11912 5.15064C3.62481 6.16432 2.61035 7.57265 2.14497 8.30935C2.0504 8.45904 2.00312 8.53389 1.97677 8.64884C1.95697 8.73517 1.95696 8.87136 1.97675 8.95769C2.00309 9.07265 2.05016 9.14717 2.1443 9.29623C2.92212 10.5278 5.23737 13.6413 8.76567 13.6413C10.1883 13.6413 11.4138 13.1351 12.4207 12.4502M2.54536 2.58301L14.986 15.0236M7.29953 7.33718C6.92431 7.7124 6.69223 8.23076 6.69223 8.80332C6.69223 9.94845 7.62054 10.8768 8.76567 10.8768C9.33823 10.8768 9.85659 10.6447 10.2318 10.2695" stroke="#9A9A9A" stroke-width="1.38229" stroke-linecap="round" stroke-linejoin="round"/>
</svg>
