<svg width="21" height="16" viewBox="0 0 21 16" fill="none" xmlns="http://www.w3.org/2000/svg">
<path d="M14.2257 0.183095V0.179688H15.113L15.4371 0.244434C15.6533 0.286468 15.8495 0.341554 16.0258 0.409708C16.2021 0.477862 16.3727 0.557381 16.5377 0.648247C16.7026 0.739114 16.8522 0.831701 16.9864 0.925976C17.1195 1.01913 17.2389 1.11795 17.3447 1.22245C17.4493 1.32809 17.6126 1.35535 17.8344 1.30423C18.0562 1.25312 18.2951 1.18212 18.551 1.09125C18.8069 1.00038 19.06 0.898152 19.3102 0.784556C19.5605 0.67096 19.7129 0.598836 19.7675 0.568166C19.821 0.536372 19.8494 0.519334 19.8528 0.517051L19.8562 0.511939L19.8733 0.50342L19.8904 0.494901L19.9074 0.486381L19.9245 0.477862L19.9279 0.47275L19.933 0.469343L19.9382 0.465935L19.9415 0.460823L19.9586 0.455712L19.9757 0.452304L19.9723 0.477862L19.9671 0.50342L19.9586 0.528978L19.9501 0.554535L19.9415 0.571574L19.933 0.588613L19.9245 0.61417C19.9188 0.631209 19.9131 0.653921 19.9074 0.682325C19.9017 0.710728 19.8477 0.824307 19.7453 1.0231C19.643 1.22188 19.515 1.4235 19.3614 1.62796C19.2079 1.83243 19.0703 1.9869 18.9485 2.09141C18.8257 2.19705 18.7444 2.27088 18.7045 2.31291C18.6647 2.35607 18.6164 2.39582 18.5595 2.43218L18.4742 2.48841L18.4571 2.49693L18.4401 2.50545L18.4367 2.51056L18.4315 2.51397L18.4264 2.51738L18.423 2.52249L18.406 2.53101L18.3889 2.53953L18.3855 2.54464L18.3804 2.54805L18.3752 2.55145L18.3718 2.55656L18.3684 2.56168L18.3633 2.56508L18.3582 2.56849L18.3548 2.5736H18.4401L18.9178 2.47137C19.2363 2.40322 19.5406 2.32087 19.8306 2.22431L20.2913 2.07097L20.3425 2.05393L20.3681 2.04541L20.3852 2.03689L20.4022 2.02837L20.4193 2.01985L20.4363 2.01133L20.4705 2.00622L20.5046 2.00281V2.03689L20.4961 2.0403L20.4875 2.04541L20.4841 2.05052L20.479 2.05393L20.4739 2.05734L20.4705 2.06245L20.4671 2.06756L20.4619 2.07097L20.4568 2.07437L20.4534 2.07949L20.45 2.0846L20.4449 2.088L20.4363 2.10504L20.4278 2.12208L20.4227 2.12549C20.4204 2.1289 20.3482 2.22544 20.206 2.41514C20.0638 2.60598 19.9871 2.70252 19.9757 2.7048C19.9643 2.70821 19.9484 2.72525 19.9279 2.75592C19.9086 2.78771 19.788 2.91437 19.5662 3.13587C19.3444 3.35738 19.1271 3.55444 18.9144 3.72711C18.7006 3.90091 18.5925 4.11445 18.5902 4.36776C18.5868 4.61993 18.5737 4.90506 18.551 5.2231C18.5282 5.54116 18.4856 5.88475 18.423 6.25393C18.3605 6.6231 18.2638 7.04055 18.133 7.50626C18.0022 7.97198 17.8429 8.42634 17.6552 8.86935C17.4675 9.31235 17.2713 9.70991 17.0666 10.062C16.8618 10.4142 16.6741 10.7124 16.5035 10.9566C16.3329 11.2008 16.1595 11.4308 15.9831 11.6466C15.8068 11.8625 15.5839 12.1055 15.3143 12.3759C15.0436 12.6451 14.8957 12.7928 14.8707 12.8189C14.8445 12.8439 14.7331 12.937 14.5363 13.0983C14.3406 13.2607 14.1302 13.4232 13.905 13.5856C13.6809 13.7469 13.475 13.8815 13.2873 13.9894C13.0996 14.0973 12.8733 14.2206 12.6082 14.3592C12.3444 14.4989 12.0588 14.6284 11.7517 14.7476C11.4446 14.8669 11.1204 14.9777 10.7792 15.0799C10.4379 15.1821 10.1081 15.2616 9.78958 15.3184C9.4711 15.3752 9.10995 15.4235 8.70614 15.4633L8.10043 15.5229V15.5314H6.9914V15.5229L6.84637 15.5144C6.74969 15.5087 6.67006 15.503 6.6075 15.4973C6.54495 15.4917 6.30891 15.4604 5.89942 15.4036C5.48993 15.3468 5.1686 15.29 4.93541 15.2332C4.70224 15.1765 4.3553 15.0685 3.89462 14.9095C3.43394 14.7505 3.03981 14.5897 2.71222 14.4273C2.38577 14.266 2.18102 14.1638 2.09798 14.1206C2.01608 14.0786 1.92395 14.0264 1.82157 13.9639L1.66801 13.8702L1.66462 13.865L1.65948 13.8616L1.65436 13.8582L1.65095 13.8531L1.63389 13.8446L1.61683 13.8361L1.61343 13.831L1.6083 13.8276L1.60318 13.8242L1.59976 13.819L1.59637 13.8139L1.59123 13.8105H1.5827V13.7764L1.59976 13.7799L1.61683 13.785L1.69361 13.7935C1.74479 13.7992 1.88414 13.8077 2.11163 13.819C2.33913 13.8304 2.58084 13.8304 2.83677 13.819C3.0927 13.8077 3.35433 13.7821 3.62163 13.7424C3.88894 13.7026 4.20459 13.6345 4.56857 13.5379C4.93258 13.4413 5.26699 13.3266 5.57184 13.1937C5.87555 13.0597 6.09166 12.9597 6.2202 12.8938C6.34759 12.8291 6.5421 12.7087 6.80371 12.5326L7.19614 12.2685L7.19955 12.2634L7.20467 12.26L7.20981 12.2566L7.2132 12.2515L7.21662 12.2464L7.22173 12.243L7.22687 12.2396L7.23027 12.2345L7.24733 12.2293L7.26439 12.2259L7.2678 12.2089L7.27292 12.1919L7.27806 12.1885L7.28145 12.1833L7.14495 12.1748C7.05396 12.1691 6.9658 12.1635 6.88049 12.1578C6.79518 12.1521 6.66153 12.1266 6.47953 12.0811C6.29755 12.0357 6.10133 11.9675 5.89089 11.8766C5.68046 11.7858 5.47572 11.6779 5.27665 11.5529C5.07761 11.428 4.9337 11.324 4.84498 11.2411C4.7574 11.1593 4.64365 11.0435 4.50374 10.8935C4.36497 10.7425 4.24439 10.5874 4.14202 10.4284C4.03965 10.2694 3.94183 10.0859 3.84857 9.87803L3.70694 9.56793L3.69841 9.54237L3.68987 9.51681L3.68476 9.49977L3.68134 9.48273L3.70694 9.48614L3.73253 9.49125L3.92021 9.51681C4.04535 9.53385 4.24156 9.53952 4.50886 9.53385C4.77617 9.52817 4.961 9.51681 5.06338 9.49977C5.16575 9.48273 5.22832 9.47137 5.25106 9.46569L5.28518 9.45718L5.32784 9.44866L5.37049 9.44014L5.37391 9.43503L5.37902 9.43162L5.38416 9.42821L5.38756 9.4231L5.35343 9.41458L5.31931 9.40606L5.28518 9.39754L5.25106 9.38902L5.21693 9.3805C5.19419 9.37483 5.15438 9.36346 5.0975 9.34642C5.04063 9.32939 4.88707 9.26691 4.63682 9.159C4.38659 9.0511 4.18753 8.94602 4.03965 8.84379C3.8914 8.74126 3.75005 8.62913 3.61651 8.50813C3.48342 8.38545 3.33727 8.22755 3.17801 8.03446C3.01877 7.84136 2.87659 7.61701 2.75146 7.36143C2.62634 7.10586 2.5325 6.86164 2.46993 6.62878C2.40762 6.39728 2.36651 6.16061 2.3471 5.92168L2.31637 5.56387L2.33344 5.56728L2.3505 5.57239L2.36756 5.58091L2.38462 5.58943L2.40168 5.59794L2.41875 5.60646L2.68321 5.72573C2.85953 5.80525 3.07849 5.87341 3.3401 5.9302C3.60173 5.98699 3.75812 6.01823 3.80931 6.02391L3.88609 6.03243H4.03965L4.03625 6.02732L4.03112 6.02391L4.026 6.0205L4.02259 6.01539L4.01919 6.01028L4.01406 6.00687L4.00894 6.00346L4.00552 5.99835L3.98846 5.98983L3.9714 5.98131L3.968 5.9762L3.96287 5.97279L3.95775 5.96938L3.95434 5.96427L3.93728 5.95575L3.92021 5.94723L3.91682 5.94212C3.91341 5.93984 3.86449 5.9035 3.77007 5.83308C3.67679 5.76151 3.57897 5.66894 3.4766 5.55535C3.37423 5.44175 3.27185 5.32248 3.16948 5.19754C3.06692 5.07231 2.97557 4.93833 2.89649 4.79713C2.81687 4.65515 2.73269 4.47453 2.64397 4.25531C2.55639 4.03721 2.48984 3.81742 2.44434 3.59592C2.39885 3.37441 2.37326 3.15576 2.36756 2.93993C2.36188 2.7241 2.36756 2.53953 2.38462 2.38618C2.40168 2.23283 2.43581 2.0596 2.487 1.8665C2.53818 1.67341 2.61213 1.46894 2.7088 1.25312L2.85383 0.929383L2.86236 0.903826L2.87089 0.878268L2.87603 0.87486L2.87942 0.869749L2.88284 0.864637L2.88795 0.861229L2.89309 0.864637L2.89649 0.869749L2.8999 0.87486L2.90502 0.878268L2.91015 0.881676L2.91355 0.886787L2.91696 0.891899L2.92208 0.895306L2.93061 0.912345L2.93914 0.929383L2.94428 0.932791L2.94767 0.937903L3.17801 1.19348C3.33157 1.36387 3.51357 1.55414 3.724 1.76427C3.93444 1.97441 4.05103 2.08346 4.07377 2.09141C4.09653 2.10049 4.12496 2.12661 4.15908 2.16979C4.19321 2.21182 4.30696 2.31235 4.50033 2.47137C4.69371 2.63039 4.94679 2.81499 5.25959 3.02512C5.57241 3.23526 5.91933 3.44257 6.30038 3.64703C6.68144 3.85149 7.09094 4.03607 7.52885 4.20078C7.96679 4.3655 8.2739 4.4734 8.45021 4.52452C8.62653 4.57563 8.92795 4.64094 9.3545 4.72046C9.78105 4.79998 10.1024 4.85109 10.3185 4.87381C10.5346 4.89652 10.6825 4.90959 10.7621 4.91299L10.8816 4.9164L10.8782 4.89085L10.873 4.86529L10.8389 4.65231C10.8162 4.51032 10.8048 4.31153 10.8048 4.05596C10.8048 3.80038 10.8247 3.56468 10.8645 3.34886C10.9043 3.13303 10.964 2.91437 11.0436 2.69287C11.1233 2.47137 11.2012 2.29359 11.2774 2.15957C11.3548 2.02667 11.456 1.87502 11.5811 1.70464C11.7062 1.53425 11.8683 1.35819 12.0674 1.17644C12.2664 0.994692 12.4939 0.832826 12.7499 0.690844C13.0058 0.548862 13.2418 0.44094 13.4579 0.367111C13.6741 0.293283 13.8561 0.244996 14.0039 0.222284C14.1518 0.199571 14.2257 0.186503 14.2257 0.183095Z" fill="white"/>
</svg>
