<svg width="29" height="729" viewBox="0 0 29 729" fill="none" xmlns="http://www.w3.org/2000/svg">
<path d="M15 11L15 718" stroke="#427DF5" stroke-width="7"/>
<circle cx="14.5" cy="14.5" r="14.5" fill="#427DF5"/>
<circle cx="14.5" cy="14.5" r="14.5" fill="#427DF5"/>
<circle cx="14.5" cy="14.5" r="8.5" fill="white"/>
<circle cx="14.5" cy="114.5" r="14.5" fill="#427DF5"/>
<circle cx="14.5" cy="114.5" r="14.5" fill="#427DF5"/>
<circle cx="14.5" cy="114.5" r="8.5" fill="white"/>
<circle cx="14.5" cy="214.5" r="14.5" fill="#427DF5"/>
<circle cx="14.5" cy="214.5" r="14.5" fill="#427DF5"/>
<circle cx="14.5" cy="214.5" r="8.5" fill="white"/>
<circle cx="14.5" cy="314.5" r="14.5" fill="#427DF5"/>
<circle cx="14.5" cy="314.5" r="14.5" fill="#427DF5"/>
<circle cx="14.5" cy="314.5" r="8.5" fill="white"/>
<circle cx="14.5" cy="414.5" r="14.5" fill="#427DF5"/>
<circle cx="14.5" cy="414.5" r="14.5" fill="#427DF5"/>
<circle cx="14.5" cy="414.5" r="8.5" fill="white"/>
<circle cx="14.5" cy="514.5" r="14.5" fill="#427DF5"/>
<circle cx="14.5" cy="514.5" r="14.5" fill="#427DF5"/>
<circle cx="14.5" cy="514.5" r="8.5" fill="white"/>
<circle cx="14.5" cy="614.5" r="14.5" fill="#427DF5"/>
<circle cx="14.5" cy="614.5" r="14.5" fill="#427DF5"/>
<circle cx="14.5" cy="614.5" r="8.5" fill="white"/>
<circle cx="14.5" cy="714.5" r="14.5" fill="#427DF5"/>
<circle cx="14.5" cy="714.5" r="14.5" fill="#427DF5"/>
<circle cx="14.5" cy="714.5" r="8.5" fill="white"/>
</svg>
