<svg width="141" height="140" viewBox="0 0 141 140" fill="none" xmlns="http://www.w3.org/2000/svg">
<circle cx="70.4089" cy="69.8772" r="69.7454" fill="#F4F4F4"/>
<path d="M108.511 11.4593C95.4712 2.95432 79.9607 -0.943354 64.4494 0.386918C48.938 1.71719 34.3177 8.19892 22.9165 18.8C11.5152 29.4011 3.98861 43.5119 1.53512 58.8857C-0.918358 74.2594 1.84236 90.012 9.37768 103.635C16.913 117.258 28.7896 127.969 43.1164 134.061C57.4432 140.153 73.3964 141.277 88.4357 137.253C103.475 133.229 116.736 124.289 126.106 111.856C135.476 99.4239 140.418 84.2137 140.143 68.6479L125.651 68.9034C125.868 81.2343 121.954 93.2834 114.531 103.132C107.108 112.981 96.6031 120.063 84.6893 123.25C72.7756 126.438 60.1378 125.548 48.7885 120.722C37.4391 115.896 28.0307 107.411 22.0614 96.6195C16.0921 85.8275 13.9051 73.3487 15.8487 61.17C17.7923 48.9913 23.7547 37.813 32.7865 29.415C41.8183 21.0171 53.4002 15.8824 65.6879 14.8286C77.9756 13.7748 90.2626 16.8625 100.592 23.5999L108.511 11.4593Z" fill="url(#paint0_radial_54_4063)"/>
<defs>
<radialGradient id="paint0_radial_54_4063" cx="0" cy="0" r="1" gradientUnits="userSpaceOnUse" gradientTransform="translate(117.736 109.732) rotate(-120.872) scale(114.425)">
<stop stop-color="#001F5E"/>
<stop offset="1" stop-color="#427DF5"/>
</radialGradient>
</defs>
</svg>
