<svg width="22" height="22" viewBox="0 0 22 22" fill="none" xmlns="http://www.w3.org/2000/svg">
<path d="M20.5664 18.8438C21.1523 19.4688 21.1523 20.4453 20.5664 21.0703C19.9414 21.6562 18.9648 21.6562 18.3398 21.0703L13.6914 16.3828C12.0898 17.4375 10.1367 17.9844 8.02734 17.7109C4.43359 17.2031 1.54297 14.2734 1.07422 10.7188C0.410156 5.40625 4.90234 0.914062 10.2148 1.57812C13.7695 2.04688 16.6992 4.9375 17.207 8.53125C17.4805 10.6406 16.9336 12.5938 15.8789 14.1562L20.5664 18.8438ZM4.12109 9.625C4.12109 12.3984 6.34766 14.625 9.12109 14.625C11.8555 14.625 14.1211 12.3984 14.1211 9.625C14.1211 6.89062 11.8555 4.625 9.12109 4.625C6.34766 4.625 4.12109 6.89062 4.12109 9.625Z" fill="#427DF5"/>
</svg>
