<svg width="111" height="111" viewBox="0 0 111 111" fill="none" xmlns="http://www.w3.org/2000/svg">
<g filter="url(#filter0_b_446_5890)">
<circle cx="55.5" cy="55.5" r="55.5" fill="#25D366" fill-opacity="0.1"/>
<path d="M32 79L35.374 66.674C33.292 63.066 32.198 58.976 32.2 54.782C32.206 41.67 42.876 31 55.986 31C62.348 31.002 68.32 33.48 72.812 37.976C77.302 42.472 79.774 48.448 79.772 54.804C79.766 67.918 69.096 78.588 55.986 78.588C52.006 78.586 48.084 77.588 44.61 75.692L32 79ZM45.194 71.386C48.546 73.376 51.746 74.568 55.978 74.57C66.874 74.57 75.75 65.702 75.756 54.8C75.76 43.876 66.926 35.02 55.994 35.016C45.09 35.016 36.22 43.884 36.216 54.784C36.214 59.234 37.518 62.566 39.708 66.052L37.71 73.348L45.194 71.386ZM67.968 60.458C67.82 60.21 67.424 60.062 66.828 59.764C66.234 59.466 63.312 58.028 62.766 57.83C62.222 57.632 61.826 57.532 61.428 58.128C61.032 58.722 59.892 60.062 59.546 60.458C59.2 60.854 58.852 60.904 58.258 60.606C57.664 60.308 55.748 59.682 53.478 57.656C51.712 56.08 50.518 54.134 50.172 53.538C49.826 52.944 50.136 52.622 50.432 52.326C50.7 52.06 51.026 51.632 51.324 51.284C51.626 50.94 51.724 50.692 51.924 50.294C52.122 49.898 52.024 49.55 51.874 49.252C51.724 48.956 50.536 46.03 50.042 44.84C49.558 43.682 49.068 43.838 48.704 43.82L47.564 43.8C47.168 43.8 46.524 43.948 45.98 44.544C45.436 45.14 43.9 46.576 43.9 49.502C43.9 52.428 46.03 55.254 46.326 55.65C46.624 56.046 50.516 62.05 56.478 64.624C57.896 65.236 59.004 65.602 59.866 65.876C61.29 66.328 62.586 66.264 63.61 66.112C64.752 65.942 67.126 64.674 67.622 63.286C68.118 61.896 68.118 60.706 67.968 60.458Z" fill="#25D366"/>
</g>
<defs>
<filter id="filter0_b_446_5890" x="-20.3" y="-20.3" width="151.6" height="151.6" filterUnits="userSpaceOnUse" color-interpolation-filters="sRGB">
<feFlood flood-opacity="0" result="BackgroundImageFix"/>
<feGaussianBlur in="BackgroundImageFix" stdDeviation="10.15"/>
<feComposite in2="SourceAlpha" operator="in" result="effect1_backgroundBlur_446_5890"/>
<feBlend mode="normal" in="SourceGraphic" in2="effect1_backgroundBlur_446_5890" result="shape"/>
</filter>
</defs>
</svg>
