<svg width="24" height="16" viewBox="0 0 24 16" fill="none" xmlns="http://www.w3.org/2000/svg">
<path d="M12.8579 15.1922L8.58767 15.1124C7.20506 15.0846 5.81901 15.1401 4.46351 14.8519C2.40148 14.4215 2.2554 12.3107 2.10254 10.5402C1.89191 8.05111 1.97345 5.51682 2.37093 3.04848C2.59531 1.66349 3.47837 0.837053 4.84398 0.747121C9.45394 0.420744 14.0945 0.459423 18.6943 0.61169C19.1801 0.625648 19.6692 0.701941 20.1482 0.788783C22.5127 1.21234 22.5704 3.60427 22.7237 5.61783C22.8765 7.65217 22.812 9.69695 22.5198 11.7174C22.2854 13.3903 21.837 14.7932 19.9444 14.9287C17.5731 15.1058 15.2562 15.2483 12.8782 15.2029C12.8783 15.1922 12.8647 15.1922 12.8579 15.1922ZM10.3474 10.9569C12.1344 9.90835 13.8873 8.87733 15.664 7.83587C13.8737 6.78737 12.1242 5.75635 10.3474 4.71489V10.9569Z" fill="white"/>
</svg>
