<svg width="104" height="118" viewBox="0 0 104 118" fill="none" xmlns="http://www.w3.org/2000/svg">
<g id="Vector">
<path d="M52.151 76.0903C63.5297 76.0903 72.7539 85.4721 72.7539 97.0451C72.7539 108.618 63.5297 118 52.1511 118C40.7724 118 31.5482 108.618 31.5482 97.0451C31.5482 85.4721 40.7724 76.0903 52.151 76.0903Z" fill="#427DF5"/>
<path d="M104 7.22325V24.1098C104 25.9107 103.19 27.6127 101.802 28.7306L56.4826 65.2214C54.3597 66.9308 51.356 66.917 49.2484 65.1882L2.15701 26.5626C0.792973 25.4437 7.67253e-07 23.7572 6.90657e-07 21.975L0 5.90466C-2.12846e-07 0.95212 5.64175 -1.79193 9.43212 1.31704L49.2107 33.9445C51.3355 35.6874 54.368 35.6856 56.4909 33.9403L94.5628 2.63984C98.352 -0.475484 104 2.26759 104 7.22325Z" fill="#427DF5"/>
</g>
</svg>
