<svg width="208" height="253" viewBox="0 0 208 253" fill="none" xmlns="http://www.w3.org/2000/svg">
<path d="M131.381 147.16C160.046 147.16 183.284 170.853 183.284 200.08C183.284 229.307 160.046 253 131.381 253C102.715 253 79.4771 229.307 79.4771 200.08C79.4771 170.853 102.715 147.16 131.381 147.16Z" fill="#E4E4E4"/>
<path d="M262 -26.7582V15.8874C262 20.4354 259.96 24.7339 256.463 27.5569L142.293 119.712C136.945 124.029 129.378 123.994 124.068 119.628L5.434 22.0817C1.99768 19.2562 1.93289e-06 14.997 1.73992e-06 10.4961L0 -30.0882C-5.36209e-07 -42.5955 14.2129 -49.5254 23.7617 -41.6739L123.973 40.7243C129.326 45.1257 136.966 45.1213 142.314 40.7137L238.225 -38.3333C247.771 -46.2008 262 -39.2734 262 -26.7582Z" fill="#E4E4E4"/>
</svg>
