<svg width="150" height="47" viewBox="0 0 150 47" fill="none" xmlns="http://www.w3.org/2000/svg">
<g opacity="0.75">
<path d="M138.328 46.0981H11.689C6.10434 46.0981 1.57812 41.5711 1.57812 35.9872V16.9732C1.57812 11.3885 6.10515 6.8623 11.689 6.8623H138.327C143.912 6.8623 148.438 11.3893 148.438 16.9732V35.9872C148.439 41.5711 143.912 46.0981 138.328 46.0981Z" fill="#C6C6C6"/>
<path d="M138.173 45.8735H11.8377C6.29637 45.8735 1.80469 41.3818 1.80469 35.8404V17.0818C1.80469 11.5405 6.29637 7.04883 11.8377 7.04883H138.173C143.714 7.04883 148.206 11.5405 148.206 17.0818V35.8404C148.206 41.3818 143.713 45.8735 138.173 45.8735Z" fill="#C3C3C3"/>
<path d="M138.025 45.6491H11.9934C6.49541 45.6491 2.03906 41.1928 2.03906 35.6948V17.1916C2.03906 11.6937 6.49541 7.2373 11.9934 7.2373H138.025C143.523 7.2373 147.979 11.6937 147.979 17.1916V35.6948C147.979 41.192 143.523 45.6491 138.025 45.6491Z" fill="#C1C1C1"/>
<path d="M137.869 45.4227H12.1412C6.68664 45.4227 2.26562 41.0009 2.26562 35.5471V17.2985C2.26562 11.8439 6.68744 7.42285 12.1412 7.42285H137.869C143.324 7.42285 147.745 11.8447 147.745 17.2985V35.5463C147.745 41.0009 143.324 45.4227 137.869 45.4227Z" fill="#BEBEBE"/>
<path d="M137.722 45.1972H12.2977C6.88648 45.1972 2.5 40.8108 2.5 35.3995V17.4071C2.5 11.9959 6.88648 7.60938 12.2977 7.60938H137.722C143.133 7.60938 147.52 11.9959 147.52 17.4071V35.3995C147.52 40.8108 143.133 45.1972 137.722 45.1972Z" fill="#BBBBBB"/>
<path d="M137.566 44.9718H12.4456C7.07771 44.9718 2.72656 40.6206 2.72656 35.2528V17.5149C2.72656 12.147 7.07771 7.7959 12.4456 7.7959H137.566C142.934 7.7959 147.285 12.147 147.285 17.5149V35.2528C147.285 40.6198 142.934 44.9718 137.566 44.9718Z" fill="#B8B8B8"/>
<path d="M137.419 44.7473H12.602C7.27755 44.7473 2.96094 40.4307 2.96094 35.1062V17.6245C2.96094 12.3 7.27755 7.9834 12.602 7.9834H137.42C142.745 7.9834 147.06 12.3 147.06 17.6245V35.107C147.06 40.4315 142.744 44.7473 137.419 44.7473Z" fill="#B6B6B6"/>
<path d="M137.264 44.5218H12.7499C7.46878 44.5218 3.1875 40.2406 3.1875 34.9594V17.7323C3.1875 12.4512 7.46878 8.16992 12.7499 8.16992H137.264C142.545 8.16992 146.827 12.4512 146.827 17.7323V34.9594C146.826 40.2406 142.545 44.5218 137.264 44.5218Z" fill="#B3B3B3"/>
<path d="M137.117 44.2965H12.9056C7.66782 44.2965 3.42188 40.0506 3.42188 34.8128V17.8411C3.42188 12.6034 7.66782 8.35742 12.9056 8.35742H137.116C142.354 8.35742 146.6 12.6034 146.6 17.8411V34.8128C146.601 40.0498 142.355 44.2965 137.117 44.2965Z" fill="#B0B0B0"/>
<path d="M136.962 44.0721H13.0542C7.85985 44.0721 3.64844 39.8615 3.64844 34.6663V17.9507C3.64844 12.7563 7.85904 8.54492 13.0542 8.54492H136.962C142.156 8.54492 146.367 12.7555 146.367 17.9507V34.6671C146.367 39.8615 142.157 44.0721 136.962 44.0721Z" fill="#AEAEAE"/>
<path d="M136.814 43.8466H13.2099C8.05888 43.8466 3.88281 39.6705 3.88281 34.5195V18.0585C3.88281 12.9075 8.05888 8.73145 13.2099 8.73145H136.814C141.965 8.73145 146.142 12.9075 146.142 18.0585V34.5195C146.142 39.6705 141.965 43.8466 136.814 43.8466Z" fill="#ABABAB"/>
<path d="M136.659 43.6221H13.3578C8.25011 43.6221 4.10938 39.4814 4.10938 34.3737V18.1673C4.10938 13.0597 8.25011 8.91895 13.3578 8.91895H136.659C141.766 8.91895 145.907 13.0597 145.907 18.1673V34.3729C145.907 39.4814 141.766 43.6221 136.659 43.6221Z" fill="#A8A8A8"/>
<path d="M136.504 43.3968H13.5064C8.44214 43.3968 4.33594 39.2914 4.33594 34.2263V18.2769C4.33594 13.2126 8.44134 9.10645 13.5064 9.10645H136.504C141.568 9.10645 145.674 13.2118 145.674 18.2769V34.2271C145.674 39.2914 141.568 43.3968 136.504 43.3968Z" fill="#A5A5A5"/>
<path d="M136.356 43.1714H13.6621C8.64118 43.1714 4.57031 39.1005 4.57031 34.0796V18.3848C4.57031 13.3638 8.64118 9.29297 13.6621 9.29297H136.356C141.377 9.29297 145.448 13.3638 145.448 18.3848V34.0796C145.448 39.1005 141.378 43.1714 136.356 43.1714Z" fill="#A3A3A3"/>
<path d="M136.2 42.9469H13.81C8.83241 42.9469 4.79688 38.9113 4.79688 33.9338V18.4936C4.79688 13.516 8.83241 9.48047 13.81 9.48047H136.2C141.178 9.48047 145.213 13.516 145.213 18.4936V33.933C145.214 38.9113 141.179 42.9469 136.2 42.9469Z" fill="#A0A0A0"/>
<path d="M136.053 42.7206H13.9664C9.03145 42.7206 5.03125 38.7204 5.03125 33.7854V18.6022C5.03125 13.668 9.03145 9.66699 13.9664 9.66699H136.054C140.989 9.66699 144.989 13.6672 144.989 18.6022V33.7862C144.988 38.7204 140.988 42.7206 136.053 42.7206Z" fill="#9D9D9D"/>
<path d="M135.897 42.4971H14.1143C9.22267 42.4971 5.25781 38.5322 5.25781 33.6406V18.712C5.25781 13.8203 9.22267 9.85547 14.1143 9.85547H135.898C140.79 9.85547 144.755 13.8203 144.755 18.712V33.6406C144.754 38.5322 140.789 42.4971 135.897 42.4971Z" fill="#9B9B9B"/>
<path d="M135.751 42.2716H14.27C9.42171 42.2716 5.49219 38.3413 5.49219 33.4939V18.8198C5.49219 13.9715 9.42251 10.042 14.27 10.042H135.75C140.599 10.042 144.528 13.9723 144.528 18.8198V33.4931C144.529 38.3413 140.599 42.2716 135.751 42.2716Z" fill="#989898"/>
<path d="M135.596 42.0452H14.4186C9.61374 42.0452 5.71875 38.1502 5.71875 33.3453V18.9274C5.71875 14.1225 9.61374 10.2275 14.4186 10.2275H135.595C140.4 10.2275 144.295 14.1225 144.295 18.9274V33.3453C144.295 38.1502 140.4 42.0452 135.596 42.0452Z" fill="#959595"/>
<path d="M135.448 41.8209H14.5743C9.81278 41.8209 5.95312 37.9612 5.95312 33.1997V19.0372C5.95312 14.2757 9.81278 10.416 14.5743 10.416H135.448C140.21 10.416 144.069 14.2757 144.069 19.0372V33.2005C144.069 37.9612 140.21 41.8209 135.448 41.8209Z" fill="#929292"/>
<path d="M135.293 41.5954H14.7222C10.004 41.5954 6.17969 37.7711 6.17969 33.0529V19.145C6.17969 14.4269 10.004 10.6025 14.7222 10.6025H135.293C140.011 10.6025 143.835 14.4269 143.835 19.145V33.0529C143.835 37.7703 140.011 41.5954 135.293 41.5954Z" fill="#909090"/>
<path d="M135.146 41.3698H14.8786C10.2038 41.3698 6.41406 37.58 6.41406 32.9052V19.2527C6.41406 14.5779 10.2038 10.7881 14.8786 10.7881H135.146C139.82 10.7881 143.61 14.5779 143.61 19.2527V32.9052C143.61 37.5808 139.82 41.3698 135.146 41.3698Z" fill="#8D8D8D"/>
<path d="M134.99 41.1445H15.0265C10.3951 41.1445 6.64062 37.39 6.64062 32.7586V19.3615C6.64062 14.73 10.3951 10.9756 15.0265 10.9756H134.99C139.621 10.9756 143.376 14.73 143.376 19.3615V32.7586C143.376 37.39 139.621 41.1445 134.99 41.1445Z" fill="#8A8A8A"/>
<path d="M134.835 40.9202H15.1744C10.5863 40.9202 6.86719 37.2011 6.86719 32.613V19.4712C6.86719 14.8832 10.5863 11.1641 15.1744 11.1641H134.835C139.423 11.1641 143.142 14.8832 143.142 19.4712V32.613C143.143 37.2011 139.423 40.9202 134.835 40.9202Z" fill="#888888"/>
<path d="M134.687 40.6946H15.3308C10.7861 40.6946 7.10156 37.01 7.10156 32.4653V19.5789C7.10156 15.0342 10.7861 11.3496 15.3308 11.3496H134.688C139.232 11.3496 142.917 15.0342 142.917 19.5789V32.4653C142.916 37.01 139.232 40.6946 134.687 40.6946Z" fill="#858585"/>
<path d="M134.532 40.4683H15.4787C10.9774 40.4683 7.32812 36.819 7.32812 32.3177V19.6867C7.32812 15.1854 10.9774 11.5361 15.4787 11.5361H134.532C139.033 11.5361 142.683 15.1854 142.683 19.6867V32.3177C142.683 36.819 139.033 40.4683 134.532 40.4683Z" fill="#828282"/>
<path d="M134.385 40.2459H15.6344C11.1764 40.2459 7.5625 36.632 7.5625 32.1741V19.7984C7.5625 15.3405 11.1764 11.7266 15.6344 11.7266H134.384C138.842 11.7266 142.456 15.3405 142.456 19.7984V32.1741C142.457 36.632 138.843 40.2459 134.385 40.2459Z" fill="#808080"/>
<path d="M134.23 40.0193H15.783C11.3684 40.0193 7.78906 36.4407 7.78906 32.0253V19.9051C7.78906 15.4905 11.3676 11.9111 15.783 11.9111H134.229C138.644 11.9111 142.223 15.4897 142.223 19.9051V32.0253C142.223 36.4399 138.645 40.0193 134.23 40.0193Z" fill="#7D7D7D"/>
<path d="M134.082 39.794H15.9387C11.5675 39.794 8.02344 36.25 8.02344 31.8788V20.0139C8.02344 15.6427 11.5675 12.0986 15.9387 12.0986H134.082C138.453 12.0986 141.997 15.6427 141.997 20.0139V31.8788C141.997 36.2508 138.453 39.794 134.082 39.794Z" fill="#7A7A7A"/>
<path d="M133.926 39.5686H16.0866C11.7587 39.5686 8.25 36.0599 8.25 31.732V20.1217C8.25 15.7939 11.7587 12.2852 16.0866 12.2852H133.926C138.254 12.2852 141.763 15.7939 141.763 20.1217V31.732C141.763 36.0599 138.254 39.5686 133.926 39.5686Z" fill="#777777"/>
<path d="M133.779 39.3439H16.243C11.9585 39.3439 8.48438 35.8705 8.48438 31.5852V20.2303C8.48438 15.9459 11.9577 12.4717 16.243 12.4717H133.779C138.064 12.4717 141.538 15.945 141.538 20.2303V31.5844C141.538 35.8697 138.065 39.3439 133.779 39.3439Z" fill="#757575"/>
<path d="M133.624 39.1188H16.3909C12.149 39.1188 8.71094 35.68 8.71094 31.4388V20.3401C8.71094 16.0982 12.1498 12.6602 16.3909 12.6602H133.624C137.866 12.6602 141.304 16.099 141.304 20.3401V31.4388C141.304 35.6808 137.866 39.1188 133.624 39.1188Z" fill="#727272"/>
<path d="M133.477 38.8933H16.5466C12.348 38.8933 8.94531 35.4898 8.94531 31.2921V20.4479C8.94531 16.2494 12.3488 12.8467 16.5466 12.8467H133.477C137.675 12.8467 141.078 16.2502 141.078 20.4479V31.2921C141.079 35.4898 137.675 38.8933 133.477 38.8933Z" fill="#6F6F6F"/>
<path d="M133.321 38.6696H16.6952C12.54 38.6696 9.17188 35.3015 9.17188 31.1463V20.5575C9.17188 16.4023 12.54 13.0342 16.6952 13.0342H133.322C137.477 13.0342 140.845 16.4023 140.845 20.5575V31.1463C140.844 35.3015 137.476 38.6696 133.321 38.6696Z" fill="#6D6D6D"/>
<path d="M133.174 38.4436H16.8509C12.7391 38.4436 9.40625 35.1107 9.40625 30.9989V20.6663C9.40625 16.5545 12.7391 13.2217 16.8509 13.2217H133.174C137.286 13.2217 140.618 16.5545 140.618 20.6663V30.9997C140.618 35.1107 137.285 38.4436 133.174 38.4436Z" fill="#6A6A6A"/>
<path d="M133.019 38.2181H16.9988C12.9303 38.2181 9.63281 34.9198 9.63281 30.8521V20.7742C9.63281 16.7057 12.9311 13.4082 16.9988 13.4082H133.018C137.087 13.4082 140.384 16.7065 140.384 20.7742V30.8521C140.385 34.9198 137.087 38.2181 133.019 38.2181Z" fill="#676767"/>
<path d="M132.864 37.9944H17.1474C13.1223 37.9944 9.85938 34.7314 9.85938 30.7064V20.8838C9.85938 16.8587 13.1223 13.5957 17.1474 13.5957H132.863C136.888 13.5957 140.151 16.8587 140.151 20.8838V30.7064C140.152 34.7314 136.889 37.9944 132.864 37.9944Z" fill="#646464"/>
<path d="M132.716 37.7681H17.3031C13.3214 37.7681 10.0938 34.5405 10.0938 30.5588V20.9916C10.0938 17.0098 13.3214 13.7822 17.3031 13.7822H132.716C136.698 13.7822 139.925 17.0098 139.925 20.9916V30.5588C139.925 34.5405 136.698 37.7681 132.716 37.7681Z" fill="#626262"/>
<path d="M132.56 37.5438H17.451C13.5126 37.5438 10.3203 34.3515 10.3203 30.4132V21.1013C10.3203 17.163 13.5126 13.9707 17.451 13.9707H132.56C136.499 13.9707 139.691 17.163 139.691 21.1013V30.4132C139.691 34.3515 136.499 37.5438 132.56 37.5438Z" fill="#5F5F5F"/>
<path d="M132.413 37.3192H17.6074C13.7124 37.3192 10.5547 34.1614 10.5547 30.2664V21.21C10.5547 17.315 13.7124 14.1572 17.6074 14.1572H132.413C136.308 14.1572 139.466 17.315 139.466 21.21V30.2664C139.466 34.1614 136.308 37.3192 132.413 37.3192Z" fill="#5C5C5C"/>
<path d="M132.258 37.0929H17.7553C13.9037 37.0929 10.7812 33.9705 10.7812 30.1189V21.3178C10.7812 17.4662 13.9037 14.3438 17.7553 14.3438H132.258C136.109 14.3438 139.232 17.4662 139.232 21.3178V30.1189C139.232 33.9705 136.109 37.0929 132.258 37.0929Z" fill="#5A5A5A"/>
<path d="M132.111 36.8673H17.9118C14.1035 36.8673 11.0156 33.7802 11.0156 29.9711V21.4254C11.0156 17.6172 14.1027 14.5293 17.9118 14.5293H132.111C135.92 14.5293 139.007 17.6164 139.007 21.4254V29.9711C139.007 33.7802 135.92 36.8673 132.111 36.8673Z" fill="#575757"/>
<path d="M131.955 36.643H18.0596C14.2947 36.643 11.2422 33.5904 11.2422 29.8255V21.5352C11.2422 17.7703 14.2947 14.7178 18.0596 14.7178H131.956C135.72 14.7178 138.773 17.7703 138.773 21.5352V29.8255C138.772 33.5904 135.72 36.643 131.955 36.643Z" fill="#545454"/>
<path d="M131.808 36.4177H18.2153C14.4938 36.4177 11.4766 33.4005 11.4766 29.6789V21.644C11.4766 17.9225 14.4938 14.9053 18.2153 14.9053H131.808C135.529 14.9053 138.546 17.9225 138.546 21.644V29.6789C138.547 33.4013 135.53 36.4177 131.808 36.4177Z" fill="#515151"/>
<path d="M131.654 36.192H18.364C14.6858 36.192 11.7031 33.2102 11.7031 29.5312V21.7517C11.7031 18.0735 14.685 15.0908 18.364 15.0908H131.653C135.331 15.0908 138.314 18.0727 138.314 21.7517V29.5312C138.314 33.2102 135.332 36.192 131.654 36.192Z" fill="#4F4F4F"/>
<path d="M131.498 35.9677H18.5118C14.877 35.9677 11.9297 33.0212 11.9297 29.3856V21.8614C11.9297 18.2266 14.8762 15.2793 18.5118 15.2793H131.498C135.133 15.2793 138.08 18.2258 138.08 21.8614V29.3856C138.08 33.0204 135.133 35.9677 131.498 35.9677Z" fill="#4C4C4C"/>
<path d="M131.35 35.7432H18.6675C15.0753 35.7432 12.1641 32.8312 12.1641 29.2398V21.9702C12.1641 18.378 15.0761 15.4668 18.6675 15.4668H131.35C134.942 15.4668 137.853 18.3788 137.853 21.9702V29.2398C137.853 32.8312 134.941 35.7432 131.35 35.7432Z" fill="#494949"/>
<path d="M131.195 35.5166H18.8162C15.2673 35.5166 12.3906 32.64 12.3906 29.0911V22.0769C12.3906 18.528 15.2673 15.6514 18.8162 15.6514H131.195C134.744 15.6514 137.621 18.528 137.621 22.0769V29.0911C137.621 32.64 134.744 35.5166 131.195 35.5166Z" fill="#474747"/>
<path d="M131.047 35.2923H18.9718C15.4663 35.2923 12.625 32.451 12.625 28.9455V22.1867C12.625 18.6812 15.4663 15.8398 18.9718 15.8398H131.047C134.553 15.8398 137.394 18.6812 137.394 22.1867V28.9455C137.394 32.451 134.553 35.2923 131.047 35.2923Z" fill="#444444"/>
<path d="M130.891 35.066H19.1197C15.6576 35.066 12.8516 32.2592 12.8516 28.7979V22.2945C12.8516 18.8324 15.6584 16.0264 19.1197 16.0264H130.891C134.354 16.0264 137.16 18.8332 137.16 22.2945V28.7979C137.16 32.2592 134.354 35.066 130.891 35.066Z" fill="#414141"/>
<path d="M130.745 34.8424H19.2762C15.8574 34.8424 13.0859 32.0709 13.0859 28.6521V22.4041C13.0859 18.9853 15.8574 16.2139 19.2762 16.2139H130.745C134.164 16.2139 136.935 18.9853 136.935 22.4041V28.6521C136.935 32.0709 134.164 34.8424 130.745 34.8424Z" fill="#3E3E3E"/>
<path d="M130.589 34.6161H19.424C16.0486 34.6161 13.3125 31.88 13.3125 28.5046V22.5119C13.3125 19.1365 16.0486 16.4004 19.424 16.4004H130.589C133.965 16.4004 136.701 19.1365 136.701 22.5119V28.5046C136.7 31.88 133.964 34.6161 130.589 34.6161Z" fill="#3C3C3C"/>
<path d="M130.442 34.3908H19.5797C16.2477 34.3908 13.5469 31.69 13.5469 28.358V22.6207C13.5469 19.2887 16.2477 16.5879 19.5797 16.5879H130.442C133.774 16.5879 136.474 19.2887 136.474 22.6207V28.358C136.475 31.6892 133.774 34.3908 130.442 34.3908Z" fill="#393939"/>
<path d="M130.287 34.1663H19.7284C16.4397 34.1663 13.7734 31.5001 13.7734 28.2114V22.7303C13.7734 19.4417 16.4397 16.7754 19.7284 16.7754H130.287C133.575 16.7754 136.242 19.4417 136.242 22.7303V28.2122C136.242 31.5009 133.576 34.1663 130.287 34.1663Z" fill="#363636"/>
<path d="M130.14 33.9409H19.884C16.6387 33.9409 14.0078 31.3099 14.0078 28.0646V22.8381C14.0078 19.5928 16.6387 16.9619 19.884 16.9619H130.14C133.385 16.9619 136.016 19.5928 136.016 22.8381V28.0646C136.016 31.3099 133.385 33.9409 130.14 33.9409Z" fill="#343434"/>
<path d="M129.984 33.7165H20.0319C16.83 33.7165 14.2344 31.121 14.2344 27.919V22.9479C14.2344 19.746 16.83 17.1504 20.0319 17.1504H129.984C133.186 17.1504 135.781 19.746 135.781 22.9479V27.919C135.781 31.1202 133.186 33.7165 129.984 33.7165Z" fill="#313131"/>
<path d="M129.829 33.4909H20.1806C17.022 33.4909 14.4609 30.9307 14.4609 27.7713V23.0556C14.4609 19.897 17.0212 17.3359 20.1806 17.3359H129.829C132.988 17.3359 135.549 19.8962 135.549 23.0556V27.7713C135.549 30.9307 132.988 33.4909 129.829 33.4909Z" fill="#2E2E2E"/>
<path d="M129.681 33.2656H20.3362C17.221 33.2656 14.6953 30.7399 14.6953 27.6247V23.1643C14.6953 20.0492 17.221 17.5234 20.3362 17.5234H129.681C132.796 17.5234 135.322 20.0492 135.322 23.1643V27.6247C135.322 30.7399 132.796 33.2656 129.681 33.2656Z" fill="#2B2B2B"/>
<path d="M129.525 33.0403H20.4841C17.4123 33.0403 14.9219 30.55 14.9219 27.4781V23.2731C14.9219 20.2013 17.4123 17.7109 20.4841 17.7109H129.525C132.597 17.7109 135.088 20.2013 135.088 23.2731V27.4781C135.088 30.55 132.598 33.0403 129.525 33.0403Z" fill="#292929"/>
<path d="M129.379 32.8157H20.6406C17.6121 32.8157 15.1562 30.3606 15.1562 27.3314V23.3818C15.1562 20.3533 17.6113 17.8975 20.6406 17.8975H129.379C132.408 17.8975 134.863 20.3525 134.863 23.3818V27.3314C134.863 30.3606 132.408 32.8157 129.379 32.8157Z" fill="#262626"/>
<path d="M129.223 32.5912H20.7884C17.8033 32.5912 15.3828 30.1707 15.3828 27.1856V23.4906C15.3828 20.5055 17.8033 18.085 20.7884 18.085H129.223C132.208 18.085 134.629 20.5055 134.629 23.4906V27.1856C134.629 30.1707 132.208 32.5912 129.223 32.5912Z" fill="#232323"/>
<path d="M129.076 32.3659H20.9441C18.0016 32.3659 15.6172 29.9807 15.6172 27.039V23.5994C15.6172 20.6568 18.0024 18.2725 20.9441 18.2725H129.075C132.018 18.2725 134.402 20.6576 134.402 23.5994V27.039C134.403 29.9807 132.018 32.3659 129.076 32.3659Z" fill="#212121"/>
<path d="M128.921 32.1403H21.0928C18.1936 32.1403 15.8438 29.7904 15.8438 26.8913V23.707C15.8438 20.8079 18.1936 18.458 21.0928 18.458H128.921C131.82 18.458 134.17 20.8079 134.17 23.707V26.8913C134.17 29.7904 131.82 32.1403 128.921 32.1403Z" fill="#1E1E1E"/>
<path d="M128.773 31.916H21.2484C18.3926 31.916 16.0781 29.6014 16.0781 26.7457V23.8168C16.0781 20.961 18.3926 18.6465 21.2484 18.6465H128.773C131.629 18.6465 133.944 20.961 133.944 23.8168V26.7457C133.944 29.6014 131.628 31.916 128.773 31.916Z" fill="#1B1B1B"/>
<path d="M128.618 31.6907H21.3963C18.5839 31.6907 16.3047 29.4107 16.3047 26.5991V23.9256C16.3047 21.1132 18.5847 18.834 21.3963 18.834H128.618C131.43 18.834 133.709 21.114 133.709 23.9256V26.5991C133.709 29.4107 131.43 31.6907 128.618 31.6907Z" fill="#181818"/>
<path d="M128.471 31.466H21.5528C18.7837 31.466 16.5391 29.2214 16.5391 26.4523V24.0342C16.5391 21.2651 18.7837 19.0205 21.5528 19.0205H128.471C131.24 19.0205 133.484 21.2651 133.484 24.0342V26.4523C133.484 29.2214 131.24 31.466 128.471 31.466Z" fill="#161616"/>
<path d="M128.315 31.2407H21.7006C18.9749 31.2407 16.7656 29.0314 16.7656 26.3057V24.143C16.7656 21.4173 18.9749 19.208 21.7006 19.208H128.315C131.041 19.208 133.25 21.4173 133.25 24.143V26.3057C133.25 29.0314 131.041 31.2407 128.315 31.2407Z" fill="#131313"/>
<path d="M128.167 31.0145H21.8563C19.174 31.0145 17 28.8397 17 26.1582V24.2508C17 21.5685 19.1748 19.3945 21.8563 19.3945H128.167C130.849 19.3945 133.023 21.5693 133.023 24.2508V26.1582C133.024 28.8397 130.849 31.0145 128.167 31.0145Z" fill="#101010"/>
<path d="M128.013 30.7908H22.005C19.366 30.7908 17.2266 28.6513 17.2266 26.0124V24.3604C17.2266 21.7215 19.366 19.582 22.005 19.582H128.013C130.652 19.582 132.791 21.7215 132.791 24.3604V26.0124C132.791 28.6513 130.652 30.7908 128.013 30.7908Z" fill="#0E0E0E"/>
<path d="M127.856 30.5645H22.1528C19.5572 30.5645 17.4531 28.4604 17.4531 25.8648V24.4682C17.4531 21.8727 19.5572 19.7686 22.1528 19.7686H127.857C130.453 19.7686 132.557 21.8727 132.557 24.4682V25.8648C132.557 28.4604 130.453 30.5645 127.856 30.5645Z" fill="#0B0B0B"/>
<path d="M127.71 30.3392H22.3085C19.7563 30.3392 17.6875 28.2705 17.6875 25.7182V24.577C17.6875 22.0248 19.7563 19.9561 22.3085 19.9561H127.709C130.262 19.9561 132.33 22.0248 132.33 24.577V25.7182C132.331 28.2697 130.262 30.3392 127.71 30.3392Z" fill="#080808"/>
<path d="M127.555 30.1136H22.4571C19.9483 30.1136 17.9141 28.0793 17.9141 25.5705V24.6847C17.9141 22.1758 19.9483 20.1416 22.4571 20.1416H127.554C130.063 20.1416 132.098 22.1758 132.098 24.6847V25.5705C132.098 28.0793 130.064 30.1136 127.555 30.1136Z" fill="#050505"/>
<path d="M127.407 29.8893H22.6128C20.1473 29.8893 18.1484 27.8904 18.1484 25.4249V24.7945C18.1484 22.329 20.1473 20.3301 22.6128 20.3301H127.407C129.873 20.3301 131.872 22.329 131.872 24.7945V25.4249C131.872 27.8904 129.873 29.8893 127.407 29.8893Z" fill="#030303"/>
<path d="M127.252 29.6636H22.7615C20.3394 29.6636 18.375 27.7001 18.375 25.2771V24.9021C18.375 22.48 20.3386 20.5156 22.7615 20.5156H127.252C129.675 20.5156 131.639 22.4792 131.639 24.9021V25.2771C131.638 27.7001 129.675 29.6636 127.252 29.6636Z" fill="black"/>
</g>
<path opacity="0.8452" d="M129.975 24.8067H21.946C16.285 24.8067 11.6953 20.217 11.6953 14.556V10.2731C11.6953 4.61213 16.285 0.0224609 21.946 0.0224609H129.975C135.636 0.0224609 140.226 4.61213 140.226 10.2731V14.556C140.227 20.217 135.637 24.8067 129.975 24.8067Z" fill="white"/>
<path opacity="0.8571" d="M129.71 24.6396H22.1489C16.4919 24.6396 11.9062 20.0539 11.9062 14.397V10.3373C11.9062 4.68038 16.4919 0.0947266 22.1489 0.0947266H129.71C135.367 0.0947266 139.953 4.68038 139.953 10.3373V14.397C139.953 20.0531 135.367 24.6396 129.71 24.6396Z" fill="white"/>
<path opacity="0.869" d="M129.445 24.4745H22.3518C16.6996 24.4745 12.1172 19.8921 12.1172 14.2399V10.4035C12.1172 4.75138 16.6996 0.168945 22.3518 0.168945H129.444C135.096 0.168945 139.679 4.75138 139.679 10.4035V14.2399C139.679 19.8921 135.097 24.4745 129.445 24.4745Z" fill="white"/>
<path opacity="0.881" d="M129.179 24.3074H22.5547C16.9065 24.3074 12.3281 19.729 12.3281 14.0809V10.4678C12.3281 4.81963 16.9065 0.241211 22.5547 0.241211H129.179C134.827 0.241211 139.405 4.81963 139.405 10.4678V14.0809C139.405 19.7282 134.827 24.3074 129.179 24.3074Z" fill="white"/>
<path opacity="0.8929" d="M128.913 24.1423H22.7576C17.1143 24.1423 12.5391 19.5671 12.5391 13.9238V10.534C12.5391 4.89064 17.1143 0.31543 22.7576 0.31543H128.913C134.556 0.31543 139.131 4.89064 139.131 10.534V13.9238C139.132 19.5671 134.557 24.1423 128.913 24.1423Z" fill="white"/>
<path opacity="0.9048" d="M128.655 23.9753H22.9683C17.329 23.9753 12.7578 19.4041 12.7578 13.7648V10.5982C12.7578 4.95889 17.329 0.387695 22.9683 0.387695H128.655C134.294 0.387695 138.866 4.95889 138.866 10.5982V13.7648C138.866 19.4041 134.294 23.9753 128.655 23.9753Z" fill="white"/>
<path opacity="0.9167" d="M128.39 23.8082H23.1712C17.5367 23.8082 12.9688 19.2402 12.9688 13.6058V10.6624C12.9688 5.02794 17.5367 0.459961 23.1712 0.459961H128.39C134.024 0.459961 138.592 5.02794 138.592 10.6624V13.6058C138.592 19.2402 134.024 23.8082 128.39 23.8082Z" fill="white"/>
<path opacity="0.9286" d="M128.124 23.6431H23.3741C17.7437 23.6431 13.1797 19.0792 13.1797 13.4487V10.7286C13.1797 5.09815 17.7437 0.53418 23.3741 0.53418H128.124C133.754 0.53418 138.318 5.09815 138.318 10.7286V13.4487C138.318 19.0792 133.754 23.6431 128.124 23.6431Z" fill="white"/>
<path opacity="0.9405" d="M127.858 23.4772H23.577C17.9514 23.4772 13.3906 18.9165 13.3906 13.2908V10.7948C13.3906 5.16915 17.9514 0.608398 23.577 0.608398H127.858C133.484 0.608398 138.045 5.16915 138.045 10.7948V13.2908C138.045 18.9165 133.484 23.4772 127.858 23.4772Z" fill="white"/>
<path opacity="0.9524" d="M127.592 23.3102H23.7799C18.1583 23.3102 13.6016 18.7534 13.6016 13.1318V10.859C13.6016 5.2374 18.1583 0.680664 23.7799 0.680664H127.592C133.214 0.680664 137.771 5.2374 137.771 10.859V13.1318C137.771 18.7534 133.213 23.3102 127.592 23.3102Z" fill="white"/>
<path opacity="0.9643" d="M127.327 23.1431H23.9828C18.366 23.1431 13.8125 18.5896 13.8125 12.9728V10.9233C13.8125 5.30645 18.366 0.75293 23.9828 0.75293H127.327C132.944 0.75293 137.497 5.30645 137.497 10.9233V12.9728C137.497 18.5896 132.944 23.1431 127.327 23.1431Z" fill="white"/>
<path opacity="0.9762" d="M127.061 22.978H24.1858C18.5729 22.978 14.0234 18.4285 14.0234 12.8157V10.9895C14.0234 5.37666 18.5729 0.827148 24.1858 0.827148H127.061C132.674 0.827148 137.223 5.37666 137.223 10.9895V12.8157C137.223 18.4285 132.674 22.978 127.061 22.978Z" fill="white"/>
<path opacity="0.9881" d="M126.796 22.8119H24.3887C18.7807 22.8119 14.2344 18.2656 14.2344 12.6576V11.0547C14.2344 5.44669 18.7807 0.900391 24.3887 0.900391H126.796C132.404 0.900391 136.95 5.44669 136.95 11.0547V12.6576C136.95 18.2656 132.404 22.8119 126.796 22.8119Z" fill="white"/>
<path d="M126.529 22.6458H24.5916C18.9876 22.6458 14.4453 18.1036 14.4453 12.4996V11.1199C14.4453 5.51592 18.9876 0.973633 24.5916 0.973633H126.529C132.133 0.973633 136.676 5.51592 136.676 11.1199V12.4996C136.676 18.1036 132.133 22.6458 126.529 22.6458Z" fill="white"/>
<path d="M138.975 45.737H11.0168C5.17731 45.737 0.443109 41.0028 0.443109 35.1633V11.0168C0.443109 5.17731 5.17731 0.443109 11.0168 0.443109H138.975C144.814 0.443109 149.549 5.17731 149.549 11.0168V35.1641C149.549 41.0036 144.815 45.737 138.975 45.737Z" fill="white" stroke="black" stroke-width="0.886219"/>
<path d="M59.0762 11.8094C60.7361 11.8094 61.7167 12.8446 61.7167 14.605C61.7167 16.3693 60.7394 17.4045 59.0762 17.4045H57.1953V11.8086H59.0762V11.8094ZM57.894 16.7765H59.0304C60.2985 16.7765 61.0044 16.0007 61.0044 14.613C61.0044 13.2132 60.3025 12.4374 59.0304 12.4374H57.894V16.7765Z" fill="#333333"/>
<path d="M62.6797 15.3882C62.6797 14.1008 63.4322 13.3018 64.5485 13.3018C65.6616 13.3018 66.4141 14.1008 66.4141 15.3882C66.4141 16.6715 65.6616 17.4746 64.5485 17.4746C63.4322 17.4746 62.6797 16.6715 62.6797 15.3882ZM65.7282 15.3882C65.7282 14.4381 65.2632 13.8952 64.5493 13.8952C63.8353 13.8952 63.3663 14.4381 63.3663 15.3882C63.3663 16.3382 63.8353 16.8811 64.5493 16.8811C65.2624 16.8811 65.7282 16.3382 65.7282 15.3882Z" fill="#333333"/>
<path d="M71.4921 17.4062H70.8055L69.894 14.2846H69.8787L68.9712 17.4062H68.2846L67.1562 13.373H67.8268L68.6331 16.6537H68.6484L69.5599 13.373H70.2112L71.1267 16.6537H71.142L71.9483 13.373H72.6157L71.4921 17.4062Z" fill="#333333"/>
<path d="M73.5633 13.3718H74.1993V14.0159H74.2146C74.4395 13.5814 74.8699 13.3027 75.4939 13.3027C76.3781 13.3027 76.8897 13.8729 76.8897 14.7877V17.4049H76.2151V14.9073C76.2151 14.256 75.9083 13.8994 75.2883 13.8994C74.6523 13.8994 74.2371 14.3492 74.2371 15.0318V17.4049H73.5625V13.3718H73.5633Z" fill="#333333"/>
<path d="M78.1797 11.8105H78.8543V17.4065H78.1797V11.8105Z" fill="#333333"/>
<path d="M79.9688 15.3882C79.9688 14.1008 80.7212 13.3018 81.8375 13.3018C82.9506 13.3018 83.7031 14.1008 83.7031 15.3882C83.7031 16.6715 82.9506 17.4746 81.8375 17.4746C80.7204 17.4746 79.9688 16.6715 79.9688 15.3882ZM83.0165 15.3882C83.0165 14.4381 82.5515 13.8952 81.8375 13.8952C81.1236 13.8952 80.6546 14.4381 80.6546 15.3882C80.6546 16.3382 81.1236 16.8811 81.8375 16.8811C82.5515 16.8811 83.0165 16.3382 83.0165 15.3882Z" fill="#333333"/>
<path d="M84.6094 16.2644C84.6094 15.5737 85.141 15.14 86.071 15.0854L87.2267 15.0196V14.6823C87.2267 14.19 86.9006 13.8952 86.3425 13.8952C85.8229 13.8952 85.4968 14.1394 85.4117 14.5353H84.7604C84.8069 13.8374 85.4044 13.3018 86.3577 13.3018C87.3037 13.3018 87.9012 13.8133 87.9012 14.6164V17.4047H87.2612V16.7109H87.2459C87.0058 17.1727 86.4934 17.4746 85.9505 17.4746C85.1483 17.4746 84.6094 16.9896 84.6094 16.2644ZM87.2274 15.8725V15.5432L86.1497 15.609C85.6068 15.6436 85.2968 15.8845 85.2968 16.2644C85.2968 16.6482 85.6189 16.9004 86.1031 16.9004C86.7384 16.9004 87.2274 16.4547 87.2274 15.8725Z" fill="#333333"/>
<path d="M88.9609 15.3899C88.9609 14.1259 89.6548 13.3035 90.6707 13.3035C91.2481 13.3035 91.7139 13.5862 91.9541 14.0287H91.9693V11.8105H92.6439V17.4065H91.9998V16.7239H91.9886C91.7284 17.1888 91.2674 17.4764 90.686 17.4764C89.6588 17.4764 88.9609 16.654 88.9609 15.3899ZM89.6508 15.3899C89.6508 16.3054 90.1005 16.8829 90.8145 16.8829C91.5083 16.8829 91.9741 16.2934 91.9741 15.3899C91.9741 14.4905 91.5091 13.897 90.8145 13.897C90.1013 13.897 89.6508 14.4784 89.6508 15.3899Z" fill="#333333"/>
<path d="M95.7812 15.3882C95.7812 14.1008 96.5337 13.3018 97.65 13.3018C98.7631 13.3018 99.5156 14.1008 99.5156 15.3882C99.5156 16.6715 98.7631 17.4746 97.65 17.4746C96.5337 17.4746 95.7812 16.6715 95.7812 15.3882ZM98.8298 15.3882C98.8298 14.4381 98.3648 13.8952 97.6508 13.8952C96.9369 13.8952 96.4679 14.4381 96.4679 15.3882C96.4679 16.3382 96.9369 16.8811 97.6508 16.8811C98.3648 16.8811 98.8298 16.3382 98.8298 15.3882Z" fill="#333333"/>
<path d="M100.595 13.3718H101.231V14.0159H101.246C101.471 13.5814 101.901 13.3027 102.525 13.3027C103.409 13.3027 103.921 13.8729 103.921 14.7877V17.4049H103.246V14.9073C103.246 14.256 102.94 13.8994 102.32 13.8994C101.684 13.8994 101.268 14.3492 101.268 15.0318V17.4049H100.594V13.3718H100.595Z" fill="#333333"/>
<path d="M108.088 12.3984V13.3718H108.871V13.9267H108.088V16.3231C108.088 16.6918 108.243 16.858 108.588 16.858C108.666 16.858 108.821 16.846 108.868 16.8387V17.4049C108.786 17.4242 108.6 17.4362 108.441 17.4362C107.701 17.4362 107.413 17.1335 107.413 16.3585V13.9267H106.812V13.3718H107.413V12.3984H108.088Z" fill="#333333"/>
<path d="M110.024 11.8105H110.699V14.0174H110.714C110.939 13.5677 111.381 13.3043 111.993 13.3043C112.878 13.3043 113.412 13.9018 113.412 14.8013V17.4073H112.738V14.9257C112.738 14.2857 112.416 13.9018 111.784 13.9018C111.113 13.9018 110.698 14.3596 110.698 15.0574V17.4073H110.023V11.8105H110.024Z" fill="#333333"/>
<path d="M118.006 16.2491C117.889 16.955 117.206 17.4746 116.326 17.4746C115.171 17.4746 114.469 16.6715 114.469 15.4034C114.469 14.1506 115.182 13.3018 116.295 13.3018C117.385 13.3018 118.055 14.0928 118.055 15.3143V15.5705H115.163V15.609C115.163 16.3808 115.616 16.8884 116.342 16.8884C116.853 16.8884 117.23 16.629 117.342 16.2483H118.006V16.2491ZM115.167 15.0429H117.357C117.342 14.3683 116.919 13.8872 116.283 13.8872C115.652 13.8872 115.209 14.3723 115.167 15.0429Z" fill="#333333"/>
<path d="M60.6702 21.8867H62.4161L66.1963 32.2956H64.5009L63.5485 29.4823H59.5378L58.5781 32.2956H56.8828L60.6702 21.8867ZM59.9707 28.1838H63.1084L61.5576 23.6101H61.5287L59.9707 28.1838Z" fill="#333333"/>
<path d="M67.8906 24.7072H69.4486V26.0131H69.4848C69.9393 25.1112 70.7761 24.5635 71.8579 24.5635C73.7909 24.5635 75.0317 26.0781 75.0317 28.5018V28.5091C75.0317 30.9256 73.7837 32.4474 71.8796 32.4474C70.805 32.4474 69.9321 31.8989 69.4848 31.0195H69.4486V34.8214H67.8906V24.7072ZM73.4448 28.5083V28.501C73.4448 26.8852 72.673 25.8974 71.4539 25.8974C70.271 25.8974 69.4414 26.9214 69.4414 28.501V28.5083C69.4414 30.0807 70.2782 31.1055 71.4539 31.1055C72.6803 31.1055 73.4448 30.1096 73.4448 28.5083Z" fill="#333333"/>
<path d="M76.9766 24.7072H78.5346V26.0131H78.5707C79.0252 25.1112 79.8621 24.5635 80.9438 24.5635C82.8769 24.5635 84.1176 26.0781 84.1176 28.5018V28.5091C84.1176 30.9256 82.8696 32.4474 80.9655 32.4474C79.891 32.4474 79.018 31.8989 78.5707 31.0195H78.5346V34.8214H76.9766V24.7072ZM82.5307 28.5083V28.501C82.5307 26.8852 81.759 25.8974 80.5399 25.8974C79.3569 25.8974 78.5273 26.9214 78.5273 28.501V28.5083C78.5273 30.0807 79.3642 31.1055 80.5399 31.1055C81.7662 31.1055 82.5307 30.1096 82.5307 28.5083Z" fill="#333333"/>
<path d="M89.5229 29.5254L89.5156 29.4169H91.0881L91.1025 29.5109C91.2471 30.4706 92.206 31.0689 93.5985 31.0689C94.9911 31.0689 95.8705 30.4417 95.8705 29.4675V29.4603C95.8705 28.6235 95.3003 28.1689 93.923 27.8662L92.7906 27.6285C90.7492 27.1956 89.7614 26.2576 89.7614 24.714V24.7068C89.7686 22.932 91.3338 21.7129 93.5343 21.7129C95.7059 21.7129 97.1916 22.8958 97.3 24.6418L97.3072 24.7646H95.7348L95.7275 24.6635C95.583 23.6965 94.7462 23.1127 93.5134 23.1127C92.222 23.1199 91.3997 23.7327 91.3997 24.6418V24.649C91.3997 25.428 91.9916 25.9042 93.2893 26.1853L94.4289 26.423C96.5788 26.8776 97.5016 27.7505 97.5016 29.3591V29.3664C97.5016 31.2633 96.0014 32.4679 93.5343 32.4679C91.1965 32.4687 89.653 31.358 89.5229 29.5254Z" fill="#333333"/>
<path d="M99.9405 30.2982V25.9486H98.8516V24.7079H99.9405V22.7314H101.535V24.7079H102.955V25.9486H101.535V30.2042C101.535 30.976 101.881 31.2065 102.537 31.2065C102.703 31.2065 102.84 31.192 102.955 31.1776V32.3822C102.775 32.4111 102.479 32.4472 102.162 32.4472C100.662 32.4472 99.9405 31.8128 99.9405 30.2982Z" fill="#333333"/>
<path d="M104.461 28.5009V28.4864C104.461 26.0627 105.896 24.5625 108.053 24.5625C110.217 24.5625 111.66 26.0554 111.66 28.4864V28.5009C111.66 30.9463 110.232 32.4464 108.06 32.4464C105.882 32.4464 104.461 30.939 104.461 28.5009ZM110.066 28.5009V28.4864C110.066 26.8272 109.272 25.8683 108.053 25.8683C106.856 25.8683 106.055 26.828 106.055 28.4864V28.5009C106.055 30.1817 106.849 31.1406 108.068 31.1406C109.287 31.1406 110.066 30.1745 110.066 28.5009Z" fill="#333333"/>
<path d="M113.602 24.7072H115.16V26.0058H115.196C115.441 25.1184 116.076 24.5635 116.942 24.5635C117.165 24.5635 117.36 24.5996 117.483 24.6213V26.0709C117.36 26.0203 117.086 25.9841 116.783 25.9841C115.781 25.9841 115.16 26.6403 115.16 27.7734V32.2964H113.602V24.7072H113.602Z" fill="#333333"/>
<path d="M118.523 28.5298V28.5225C118.523 26.1494 119.894 24.5625 122.022 24.5625C124.149 24.5625 125.455 26.0916 125.455 28.3708V28.8976H120.081C120.11 30.3327 120.896 31.1695 122.137 31.1695C123.06 31.1695 123.673 30.6933 123.868 30.1239L123.89 30.0661H125.368L125.354 30.1456C125.109 31.3502 123.94 32.4464 122.1 32.4464C119.873 32.4464 118.523 30.9246 118.523 28.5298ZM120.104 27.7941H123.912C123.782 26.4811 123.046 25.8394 122.03 25.8394C121.019 25.8394 120.24 26.5245 120.104 27.7941Z" fill="#333333"/>
<path d="M43.0021 19.8252C42.0304 20.5006 41.3702 21.1784 41.0209 21.8594C40.6716 22.5405 40.4965 23.2785 40.4965 24.072C40.4965 24.7 40.6001 25.2742 40.8073 25.7954C41.0145 26.3166 41.3076 26.8113 41.6867 27.2795C42.0657 27.7477 42.6994 28.2127 43.5884 28.6745C43.2446 29.6815 42.7114 30.7087 41.9894 31.7575C41.2666 32.8056 40.6121 33.5492 40.0259 33.9877C39.4396 34.4262 38.8799 34.6455 38.3466 34.6455C37.9202 34.6455 37.3451 34.5097 36.6232 34.2367L36.2859 34.1122L35.735 33.8809C35.3438 33.7629 34.9118 33.7034 34.438 33.7034C33.9521 33.7034 33.4076 33.8102 32.8029 34.0231L32.3764 34.1829L31.8432 34.3965C31.4167 34.5627 30.9903 34.6455 30.5638 34.6455C29.6636 34.6455 28.6983 34.015 27.6671 32.7534C26.6367 31.4917 25.8577 30.1353 25.3301 28.6841C24.8025 27.2329 24.5391 25.7673 24.5391 24.2864C24.5391 22.379 25.0811 20.7921 26.1653 19.5241C27.2495 18.2568 28.7208 17.6231 30.5807 17.6231C31.2561 17.6231 31.8898 17.7476 32.4816 17.9966L32.8904 18.1564L33.3168 18.3339C33.6959 18.4881 33.9979 18.5652 34.2227 18.5652C34.5544 18.5652 34.8861 18.5001 35.2178 18.37L35.7863 18.1564L36.1951 17.9966C36.8585 17.7476 37.5925 17.6231 38.3988 17.6231C40.3069 17.6223 41.8408 18.3564 43.0021 19.8252ZM38.4887 11.3574C38.512 11.6184 38.5241 11.8192 38.5241 11.9613C38.5241 12.6962 38.3105 13.4543 37.884 14.2357C37.4576 15.0171 36.9002 15.625 36.2136 16.0571C35.5261 16.49 34.768 16.706 33.9392 16.706C33.9039 16.4217 33.8862 16.2145 33.8862 16.0844C33.8862 15.4564 34.0726 14.7963 34.446 14.1032C34.8194 13.4101 35.3254 12.8207 35.9654 12.3348C36.6055 11.8489 37.3275 11.5413 38.133 11.4104C38.2045 11.3992 38.3225 11.3815 38.4887 11.3574Z" fill="#333333"/>
</svg>
