<svg width="121" height="30" viewBox="0 0 121 30" fill="none" xmlns="http://www.w3.org/2000/svg">
<path d="M13.4852 19.345C16.4275 19.345 18.8127 21.7302 18.8127 24.6725C18.8127 27.6148 16.4275 30 13.4852 30C10.5429 30 8.15774 27.6148 8.15774 24.6725C8.15774 21.7302 10.5429 19.345 13.4852 19.345Z" fill="white"/>
<path d="M26.8924 1.83642V6.1296C26.8924 6.58746 26.683 7.02019 26.324 7.30438L14.6053 16.5817C14.0564 17.0163 13.2797 17.0128 12.7347 16.5733L0.55776 6.7532C0.205047 6.46875 1.98397e-07 6.03997 1.7859e-07 5.58685L0 1.50118C-5.50378e-08 0.242064 1.45885 -0.455575 2.43896 0.33484L12.7249 8.62996C13.2744 9.07306 14.0585 9.07261 14.6074 8.62889L24.4521 0.671145C25.4319 -0.120886 26.8924 0.576506 26.8924 1.83642Z" fill="white"/>
<path d="M37.6595 25.9287C35.5367 25.9287 33.7506 25.4592 32.3013 24.5202C30.8521 23.5609 29.8315 22.2647 29.2395 20.6317L32.8525 18.5191C33.6894 20.7032 35.3325 21.7952 37.782 21.7952C38.9659 21.7952 39.8334 21.5809 40.3845 21.1522C40.9357 20.7236 41.2112 20.1826 41.2112 19.5295C41.2112 18.7742 40.8744 18.1925 40.2008 17.7842C39.5272 17.3556 38.3229 16.8963 36.5879 16.4064C35.6285 16.1206 34.812 15.8349 34.1384 15.5491C33.4852 15.2633 32.8218 14.8857 32.1482 14.4162C31.4951 13.9263 30.995 13.314 30.648 12.5791C30.301 11.8443 30.1274 10.987 30.1274 10.0072C30.1274 8.06807 30.8113 6.52696 32.1789 5.38388C33.5669 4.22039 35.2305 3.63864 37.1696 3.63864C38.9047 3.63864 40.4254 4.0673 41.7317 4.92461C43.0585 5.7615 44.0893 6.9352 44.8242 8.44569L41.2725 10.4971C40.4151 8.66002 39.0475 7.74147 37.1696 7.74147C36.2919 7.74147 35.5979 7.9456 35.0876 8.35384C34.5977 8.74167 34.3528 9.25197 34.3528 9.88474C34.3528 10.5583 34.6283 11.1095 35.1794 11.5381C35.751 11.9464 36.8328 12.3954 38.425 12.8853C39.0782 13.0894 39.568 13.2527 39.8946 13.3752C40.2416 13.4773 40.7009 13.6508 41.2725 13.8957C41.8644 14.1203 42.3135 14.3346 42.6197 14.5387C42.9462 14.7428 43.3137 15.0184 43.7219 15.3654C44.1301 15.7124 44.4363 16.0696 44.6405 16.437C44.865 16.8044 45.0487 17.2535 45.1916 17.7842C45.3549 18.2945 45.4365 18.8559 45.4365 19.4682C45.4365 21.4482 44.7119 23.0199 43.2626 24.1834C41.8338 25.3469 39.9661 25.9287 37.6595 25.9287ZM60.5927 25.5H56L50.4275 18.5497V25.5H46.4778V4.0673H50.4275V16.9269L55.6938 10.1909H60.409L54.2548 17.7536L60.5927 25.5ZM61.0334 25.5V3.14875H64.9831V25.5H61.0334ZM67.0673 25.5V3.14875H71.017V25.5H67.0673ZM86.1445 23.6017C84.5728 25.153 82.6541 25.9287 80.3883 25.9287C78.1226 25.9287 76.2039 25.153 74.6321 23.6017C73.0808 22.0299 72.3051 20.1112 72.3051 17.8455C72.3051 15.5797 73.0808 13.6712 74.6321 12.1199C76.2039 10.5481 78.1226 9.76227 80.3883 9.76227C82.6541 9.76227 84.5728 10.5481 86.1445 12.1199C87.7163 13.6712 88.5021 15.5797 88.5021 17.8455C88.5021 20.1112 87.7163 22.0299 86.1445 23.6017ZM77.4184 20.8767C78.2144 21.6727 79.2044 22.0708 80.3883 22.0708C81.5722 22.0708 82.5622 21.6727 83.3583 20.8767C84.1544 20.0806 84.5524 19.0702 84.5524 17.8455C84.5524 16.6207 84.1544 15.6103 83.3583 14.8143C82.5622 14.0182 81.5722 13.6202 80.3883 13.6202C79.2044 13.6202 78.2144 14.0182 77.4184 14.8143C76.6427 15.6103 76.2549 16.6207 76.2549 17.8455C76.2549 19.0702 76.6427 20.0806 77.4184 20.8767ZM98.2617 9.76227C99.9355 9.76227 101.313 10.3236 102.395 11.4463C103.497 12.5689 104.049 14.1203 104.049 16.1002V25.5H100.099V16.5901C100.099 15.5695 99.8232 14.7939 99.2721 14.2631C98.7209 13.712 97.9861 13.4365 97.0676 13.4365C96.047 13.4365 95.2305 13.7528 94.6181 14.3856C94.0058 15.0184 93.6996 15.9676 93.6996 17.2331V25.5H89.7498V10.1909H93.6996V11.9055C94.6589 10.4767 96.1796 9.76227 98.2617 9.76227Z" fill="#3572EF"/>
<path d="M107.85 8.35384C107.197 8.35384 106.625 8.1191 106.135 7.64962C105.666 7.15973 105.431 6.58819 105.431 5.935C105.431 5.28182 105.666 4.71028 106.135 4.22039C106.625 3.7305 107.197 3.48555 107.85 3.48555C108.523 3.48555 109.095 3.7305 109.564 4.22039C110.054 4.71028 110.299 5.28182 110.299 5.935C110.299 6.58819 110.054 7.15973 109.564 7.64962C109.095 8.1191 108.523 8.35384 107.85 8.35384ZM105.89 25.5V10.1909H109.84V25.5H105.89ZM120.681 13.9876H117.221V20.3562C117.221 20.8869 117.354 21.2747 117.619 21.5196C117.884 21.7646 118.272 21.9075 118.783 21.9483C119.293 21.9687 119.926 21.9585 120.681 21.9177V25.5C117.966 25.8062 116.047 25.551 114.925 24.7345C113.822 23.9181 113.271 22.4586 113.271 20.3562V13.9876H110.607V10.1909H113.271V7.09849L117.221 5.90439V10.1909H120.681V13.9876Z" fill="white"/>
<circle cx="57.9708" cy="6.70714" r="2.42394" fill="white"/>
<path d="M60.4104 10.4062H55.6901L49.7578 17.9332L56.009 25.7153H60.6017L54.2867 17.9332L60.4104 10.4062Z" fill="#3572EF"/>
</svg>
