<svg width="151" height="47" viewBox="0 0 151 47" fill="none" xmlns="http://www.w3.org/2000/svg">
<path d="M139.537 45.737H11.5793C5.73982 45.737 1.00561 41.0028 1.00561 35.1633V11.0168C1.00561 5.17731 5.73982 0.443109 11.5793 0.443109H139.537C145.377 0.443109 150.111 5.17731 150.111 11.0168V35.1641C150.111 41.0036 145.377 45.737 139.537 45.737Z" fill="white" stroke="black" stroke-width="0.886219"/>
<path d="M59.586 15.34C59.586 16.0306 59.3812 16.5808 58.9716 16.9903C58.5066 17.4778 57.9003 17.7219 57.155 17.7219C56.4411 17.7219 55.8339 17.4746 55.3352 16.9799C54.8357 16.4852 54.5859 15.8716 54.5859 15.1392C54.5859 14.4068 54.8357 13.7932 55.3352 13.2985C55.8339 12.8038 56.4411 12.5557 57.155 12.5557C57.5092 12.5557 57.8481 12.6247 58.1701 12.7629C58.4922 12.901 58.7508 13.0849 58.9435 13.3154L58.509 13.7507C58.1814 13.3596 57.7308 13.1636 57.155 13.1636C56.6346 13.1636 56.1841 13.3467 55.8042 13.7121C55.4244 14.0783 55.234 14.5538 55.234 15.1384C55.234 15.7231 55.4236 16.1985 55.8042 16.5647C56.1841 16.9309 56.6338 17.1132 57.155 17.1132C57.7076 17.1132 58.1677 16.9293 58.5363 16.5615C58.7757 16.3214 58.9138 15.9881 58.9507 15.56H57.155V14.9657H59.5514C59.5747 15.0966 59.586 15.2203 59.586 15.34Z" fill="#333333"/>
<path d="M63.3871 13.2751H61.1353V14.8427H63.1663V15.437H61.1353V17.0047H63.3871V17.6126H60.5V12.668H63.3871V13.2751Z" fill="#333333"/>
<path d="M66.0642 17.6114H65.4282V13.274H64.0469V12.666H67.4447V13.274H66.0634V17.6114H66.0642Z" fill="#333333"/>
<path d="M69.9062 17.6126V12.668H70.5415V17.6126H69.9062Z" fill="#333333"/>
<path d="M73.3611 17.6114H72.7251V13.274H71.3438V12.666H74.7416V13.274H73.3603V17.6114H73.3611Z" fill="#333333"/>
<path d="M81.1669 16.9746C80.681 17.4741 80.0763 17.7239 79.3535 17.7239C78.6307 17.7239 78.026 17.4741 77.5409 16.9746C77.055 16.4751 76.8125 15.8639 76.8125 15.1412C76.8125 14.4184 77.055 13.8072 77.5409 13.3077C78.026 12.8082 78.6307 12.5576 79.3535 12.5576C80.0723 12.5576 80.6754 12.809 81.1637 13.3109C81.6511 13.8128 81.8953 14.4224 81.8953 15.1412C81.8953 15.8639 81.6527 16.4751 81.1669 16.9746ZM78.0107 16.5602C78.3769 16.9304 78.8243 17.116 79.3543 17.116C79.8843 17.116 80.3325 16.9313 80.6979 16.5602C81.0641 16.19 81.2472 15.7162 81.2472 15.1412C81.2472 14.5661 81.0633 14.0923 80.6979 13.7221C80.3325 13.3519 79.8843 13.1664 79.3543 13.1664C78.8243 13.1664 78.3769 13.3511 78.0107 13.7221C77.6453 14.0923 77.4622 14.5661 77.4622 15.1412C77.4622 15.7162 77.6453 16.19 78.0107 16.5602Z" fill="#333333"/>
<path d="M82.7891 17.6126V12.668H83.5624L85.9653 16.5148H85.9926L85.9653 15.5615V12.668H86.6013V17.6126H85.938L83.4235 13.5795H83.3962L83.4235 14.5327V17.6126H82.7891Z" fill="#333333"/>
<path d="M76.6581 24.824C75.6815 24.824 74.7957 25.1982 74.1573 25.8294C73.5284 26.451 73.1397 27.3216 73.1397 28.3295C73.1397 29.3952 73.5806 30.3131 74.2817 30.9419C74.9081 31.5041 75.7433 31.8349 76.6581 31.8349C77.5182 31.8349 78.3076 31.5418 78.9204 31.0399C79.6881 30.4103 80.1772 29.4522 80.1772 28.3295C80.1772 27.4983 79.9122 26.7602 79.4673 26.1788C78.824 25.3387 77.8033 24.824 76.6581 24.824ZM76.6581 30.4536C75.5956 30.4536 74.6801 29.5775 74.6801 28.3295C74.6801 27.0678 75.5964 26.2053 76.6581 26.2053C77.7206 26.2053 78.6361 27.0686 78.6361 28.3295C78.6369 29.5775 77.7206 30.4536 76.6581 30.4536ZM68.9829 24.824C68.2561 24.824 67.5791 25.0312 67.0178 25.3974C66.0814 26.0077 65.4646 27.0598 65.4646 28.3295C65.4646 29.3389 65.8597 30.2151 66.4966 30.8391C67.1342 31.4631 68.0136 31.8349 68.9829 31.8349C69.7868 31.8349 70.5289 31.5796 71.1224 31.1363C71.96 30.5106 72.5013 29.5116 72.5013 28.3303C72.5013 27.6565 72.3278 27.0445 72.025 26.5265C71.4139 25.4825 70.2783 24.824 68.9829 24.824ZM68.9829 30.4536C67.9205 30.4536 67.0049 29.5775 67.0049 28.3295C67.0049 27.0678 67.9213 26.2053 68.9829 26.2053C70.0454 26.2053 70.9609 27.0686 70.9609 28.3295C70.9609 29.5775 70.0446 30.4536 68.9829 30.4536ZM59.8518 25.9001V27.3874H61.7158H63.4103C63.3043 28.2242 63.0256 28.8346 62.6 29.2594C62.082 29.7774 61.2725 30.3484 59.8518 30.3484C57.661 30.3484 55.948 28.5824 55.948 26.3916C55.948 24.2008 57.661 22.4348 59.8518 22.4348C61.0331 22.4348 61.8965 22.8998 62.5341 23.4973L63.583 22.4484C62.6931 21.5987 61.5118 20.9482 59.8518 20.9482C58.8327 20.9482 57.8682 21.2301 57.0394 21.72C55.4284 22.6725 54.3281 24.4104 54.3281 26.3916C54.3281 28.4355 55.4982 30.2207 57.1928 31.1515C57.9862 31.5876 58.8945 31.8357 59.851 31.8357C61.4708 31.8357 62.6923 31.3049 63.648 30.3091C64.6302 29.3269 64.9362 27.9456 64.9362 26.8301C64.9362 26.4847 64.9097 26.1659 64.8567 25.9009H62.29H59.8518V25.9001ZM97.1931 27.0549C96.9008 26.2719 96.0118 24.8248 94.1928 24.8248C93.4162 24.8248 92.695 25.0882 92.1264 25.554C91.3731 26.1707 90.8864 27.1425 90.8864 28.3303C90.8864 30.2954 92.3738 31.8357 94.3654 31.8357C95.9716 31.8357 96.9016 30.8536 97.2863 30.2826L96.0913 29.4859C95.6929 30.0697 95.1484 30.4552 94.3654 30.4552C93.5816 30.4552 93.0243 30.0971 92.6661 29.3927L97.3529 27.4541L97.1931 27.0549ZM92.4131 28.2234C92.373 26.8694 93.4619 26.1788 94.245 26.1788C94.8561 26.1788 95.3733 26.4839 95.546 26.9224L93.9093 27.6019L92.4131 28.2234ZM88.6024 31.6221H90.1428V21.3193H88.6024V31.6221ZM86.0799 25.6078H86.0269C85.6816 25.1966 85.0183 24.8248 84.1814 24.8248C83.3711 24.8248 82.5921 25.154 81.9882 25.7041C81.2863 26.3434 80.8221 27.2798 80.8221 28.3439C80.8221 29.5718 81.4493 30.6295 82.348 31.2495C82.8869 31.6213 83.5237 31.8365 84.1806 31.8365C85.0175 31.8365 85.6808 31.4647 86.0261 31.0399H86.0791V31.5442C86.0791 32.8854 85.362 33.6025 84.2071 33.6025C83.2643 33.6025 82.6804 32.9255 82.4411 32.3545L81.1 32.9119C81.4847 33.8411 82.507 34.9831 84.2071 34.9831C86.0133 34.9831 87.54 33.9206 87.54 31.3314V25.0376H86.0791V25.6078H86.0799ZM84.3139 30.4536C83.2515 30.4536 82.3624 29.5638 82.3624 28.3423C82.3624 27.1079 83.2523 26.2045 84.3139 26.2045C85.3628 26.2045 86.186 27.1071 86.186 28.3423C86.186 29.5646 85.3628 30.4536 84.3139 30.4536ZM104.407 21.3193H100.723V31.6221H102.261V27.7183H104.408C105.388 27.7183 106.359 27.3103 107.007 26.59C107.486 26.0575 107.788 25.354 107.788 24.5188C107.788 23.6956 107.494 23.0001 107.027 22.4701C106.379 21.7361 105.398 21.3193 104.407 21.3193ZM104.447 26.2848H102.261V22.7528H104.447C105.597 22.7528 106.25 23.7045 106.25 24.5188C106.25 25.3179 105.597 26.2848 104.447 26.2848ZM113.951 24.8055C112.838 24.8055 111.685 25.2962 111.207 26.3828L112.572 26.953C112.864 26.3828 113.408 26.1972 113.977 26.1972C114.772 26.1972 115.581 26.6743 115.594 27.5223V27.6284C115.316 27.4693 114.72 27.2308 113.991 27.2308C113.358 27.2308 112.72 27.3802 112.199 27.6709C111.508 28.0564 111.022 28.6892 111.022 29.5501C111.022 30.2978 111.376 30.9009 111.917 31.2969C112.373 31.631 112.961 31.8165 113.58 31.8165C114.614 31.8165 115.184 31.3523 115.542 30.8094H115.595V31.6045H117.08V29.1807V27.6549C117.08 26.5691 116.599 25.7684 115.839 25.2962C115.318 24.9741 114.668 24.8055 113.951 24.8055ZM113.766 30.452C113.262 30.452 112.559 30.1999 112.559 29.5775C112.559 28.7824 113.434 28.4772 114.19 28.4772C114.866 28.4772 115.184 28.6234 115.595 28.8217C115.475 29.7758 114.654 30.452 113.766 30.452ZM122.487 25.0304L121.757 26.8799L120.724 29.4971H120.671L118.842 25.0304H117.185L118.509 28.0419L119.929 31.2736L118.365 34.7461H119.969L122.968 27.8532L124.197 25.0296H122.487V25.0304ZM108.636 31.6221H110.173V21.3193H108.636V31.6221Z" fill="#333333"/>
<path d="M42.6681 19.4955L30.421 12.3094C29.7946 11.9416 29.0541 12.152 28.6719 12.6684L39.0446 23.1014L42.6681 19.4955Z" fill="url(#paint0_linear_1058_6689)"/>
<path d="M28.4141 32.6834C28.4141 32.9741 28.5032 33.2335 28.651 33.4447L39.0454 23.1009L28.6727 12.668C28.512 12.8848 28.4141 13.1546 28.4141 13.459V32.6834Z" fill="url(#paint1_linear_1058_6689)"/>
<path d="M42.6094 26.6854L46.8071 24.2223C47.6849 23.7067 47.6849 22.4378 46.8071 21.9222L42.6712 19.4961L39.0469 23.1028L42.6094 26.6854Z" fill="url(#paint2_linear_1058_6689)"/>
<path d="M28.6484 33.4454C29.0243 33.9834 29.7816 34.2091 30.4201 33.8341L42.6054 26.685L39.0429 23.1016L28.6484 33.4454Z" fill="url(#paint3_linear_1058_6689)"/>
<defs>
<linearGradient id="paint0_linear_1058_6689" x1="12.0776" y1="-2.3454" x2="37.3389" y2="18.4089" gradientUnits="userSpaceOnUse">
<stop stop-color="#32A071"/>
<stop offset="0.0685" stop-color="#2DA771"/>
<stop offset="0.4762" stop-color="#15CF74"/>
<stop offset="0.8009" stop-color="#06E775"/>
<stop offset="1" stop-color="#00F076"/>
</linearGradient>
<linearGradient id="paint1_linear_1058_6689" x1="46.2911" y1="22.952" x2="27.4287" y2="23.0633" gradientUnits="userSpaceOnUse">
<stop stop-color="#00A0FF"/>
<stop offset="0.00657445" stop-color="#00A1FF"/>
<stop offset="0.2601" stop-color="#00BEFF"/>
<stop offset="0.5122" stop-color="#00D2FF"/>
<stop offset="0.7604" stop-color="#00DFFF"/>
<stop offset="1" stop-color="#00E3FF"/>
</linearGradient>
<linearGradient id="paint2_linear_1058_6689" x1="48.9352" y1="23.5845" x2="31.9089" y2="22.2491" gradientUnits="userSpaceOnUse">
<stop stop-color="#FFE000"/>
<stop offset="0.4087" stop-color="#FFBD00"/>
<stop offset="0.7754" stop-color="#FFA500"/>
<stop offset="1" stop-color="#FF9C00"/>
</linearGradient>
<linearGradient id="paint3_linear_1058_6689" x1="46.7142" y1="20.9837" x2="13.9413" y2="42.7396" gradientUnits="userSpaceOnUse">
<stop stop-color="#FF3A44"/>
<stop offset="1" stop-color="#C31162"/>
</linearGradient>
</defs>
</svg>
